0, 0, Header, 1, 5, 384
1, 0, Start_track
1, 0, Title_t, "control track"
1, 0, Text_t, "creator: "
1, 0, Text_t, "GNU LilyPond 2.18.2           "
1, 0, Time_signature, 4, 2, 18, 8
1, 0, Tempo, 714285
1, 0, End_track
2, 0, Start_track
2, 0, Program_c, 0, 65
2, 0, Program_c, 0, 65
2, 0, Key_signature, -2, "minor"
2, 0, Instrument_name_t, "alto sax"
2, 0, Control_c, 0, 7, 100
2, 0, Note_on_c, 0, 67, 90
2, 384, Note_on_c, 0, 67, 0
2, 384, Note_on_c, 0, 74, 90
2, 768, Note_on_c, 0, 74, 0
2, 768, Note_on_c, 0, 70, 90
2, 1344, Note_on_c, 0, 70, 0
2, 1344, Note_on_c, 0, 69, 90
2, 1536, Note_on_c, 0, 69, 0
2, 1536, Note_on_c, 0, 67, 90
2, 1728, Note_on_c, 0, 67, 0
2, 1728, Note_on_c, 0, 70, 90
2, 1920, Note_on_c, 0, 70, 0
2, 1920, Note_on_c, 0, 69, 90
2, 2112, Note_on_c, 0, 69, 0
2, 2112, Note_on_c, 0, 67, 90
2, 2304, Note_on_c, 0, 67, 0
2, 2304, Note_on_c, 0, 66, 90
2, 2496, Note_on_c, 0, 66, 0
2, 2496, Note_on_c, 0, 69, 90
2, 2688, Note_on_c, 0, 69, 0
2, 2688, Note_on_c, 0, 62, 90
2, 3072, Note_on_c, 0, 62, 0
2, 3072, Note_on_c, 0, 67, 90
2, 3264, Note_on_c, 0, 67, 0
2, 3264, Note_on_c, 0, 62, 90
2, 3456, Note_on_c, 0, 62, 0
2, 3456, Note_on_c, 0, 69, 90
2, 3648, Note_on_c, 0, 69, 0
2, 3648, Note_on_c, 0, 62, 90
2, 3840, Note_on_c, 0, 62, 0
2, 3840, Note_on_c, 0, 70, 90
2, 4032, Note_on_c, 0, 70, 0
2, 4032, Note_on_c, 0, 69, 90
2, 4128, Note_on_c, 0, 69, 0
2, 4128, Note_on_c, 0, 67, 90
2, 4224, Note_on_c, 0, 67, 0
2, 4224, Note_on_c, 0, 69, 90
2, 4416, Note_on_c, 0, 69, 0
2, 4416, Note_on_c, 0, 62, 90
2, 4608, Note_on_c, 0, 62, 0
2, 4608, Note_on_c, 0, 67, 90
2, 4800, Note_on_c, 0, 67, 0
2, 4800, Note_on_c, 0, 62, 90
2, 4896, Note_on_c, 0, 62, 0
2, 4896, Note_on_c, 0, 67, 90
2, 4992, Note_on_c, 0, 67, 0
2, 4992, Note_on_c, 0, 69, 90
2, 5184, Note_on_c, 0, 69, 0
2, 5184, Note_on_c, 0, 62, 90
2, 5280, Note_on_c, 0, 62, 0
2, 5280, Note_on_c, 0, 69, 90
2, 5376, Note_on_c, 0, 69, 0
2, 5376, Note_on_c, 0, 70, 90
2, 5568, Note_on_c, 0, 70, 0
2, 5568, Note_on_c, 0, 69, 90
2, 5664, Note_on_c, 0, 69, 0
2, 5664, Note_on_c, 0, 67, 90
2, 5760, Note_on_c, 0, 67, 0
2, 5760, Note_on_c, 0, 69, 90
2, 5856, Note_on_c, 0, 69, 0
2, 5856, Note_on_c, 0, 62, 90
2, 5952, Note_on_c, 0, 62, 0
2, 5952, Note_on_c, 0, 74, 90
2, 6048, Note_on_c, 0, 74, 0
2, 6048, Note_on_c, 0, 72, 90
2, 6144, Note_on_c, 0, 72, 0
2, 6144, Note_on_c, 0, 70, 90
2, 6240, Note_on_c, 0, 70, 0
2, 6240, Note_on_c, 0, 69, 90
2, 6336, Note_on_c, 0, 69, 0
2, 6336, Note_on_c, 0, 67, 90
2, 6432, Note_on_c, 0, 67, 0
2, 6432, Note_on_c, 0, 70, 90
2, 6528, Note_on_c, 0, 70, 0
2, 6528, Note_on_c, 0, 69, 90
2, 6624, Note_on_c, 0, 69, 0
2, 6624, Note_on_c, 0, 67, 90
2, 6720, Note_on_c, 0, 67, 0
2, 6720, Note_on_c, 0, 66, 90
2, 6816, Note_on_c, 0, 66, 0
2, 6816, Note_on_c, 0, 69, 90
2, 6912, Note_on_c, 0, 69, 0
2, 6912, Note_on_c, 0, 67, 90
2, 7008, Note_on_c, 0, 67, 0
2, 7008, Note_on_c, 0, 62, 90
2, 7104, Note_on_c, 0, 62, 0
2, 7104, Note_on_c, 0, 67, 90
2, 7200, Note_on_c, 0, 67, 0
2, 7200, Note_on_c, 0, 69, 90
2, 7296, Note_on_c, 0, 69, 0
2, 7296, Note_on_c, 0, 70, 90
2, 7392, Note_on_c, 0, 70, 0
2, 7392, Note_on_c, 0, 72, 90
2, 7488, Note_on_c, 0, 72, 0
2, 7488, Note_on_c, 0, 74, 90
2, 7584, Note_on_c, 0, 74, 0
2, 7584, Note_on_c, 0, 76, 90
2, 7680, Note_on_c, 0, 76, 0
2, 7680, Note_on_c, 0, 77, 90
2, 7776, Note_on_c, 0, 77, 0
2, 7776, Note_on_c, 0, 76, 90
2, 7872, Note_on_c, 0, 76, 0
2, 7872, Note_on_c, 0, 74, 90
2, 7968, Note_on_c, 0, 74, 0
2, 7968, Note_on_c, 0, 77, 90
2, 8064, Note_on_c, 0, 77, 0
2, 8064, Note_on_c, 0, 76, 90
2, 8160, Note_on_c, 0, 76, 0
2, 8160, Note_on_c, 0, 74, 90
2, 8256, Note_on_c, 0, 74, 0
2, 8256, Note_on_c, 0, 73, 90
2, 8352, Note_on_c, 0, 73, 0
2, 8352, Note_on_c, 0, 76, 90
2, 8448, Note_on_c, 0, 76, 0
2, 8448, Note_on_c, 0, 74, 90
2, 8640, Note_on_c, 0, 74, 0
2, 8640, Note_on_c, 0, 57, 90
2, 8832, Note_on_c, 0, 57, 0
2, 8832, Note_on_c, 0, 62, 90
2, 9024, Note_on_c, 0, 62, 0
2, 9024, Note_on_c, 0, 64, 90
2, 9216, Note_on_c, 0, 64, 0
2, 9216, Note_on_c, 0, 65, 90
2, 9312, Note_on_c, 0, 65, 0
2, 9312, Note_on_c, 0, 67, 90
2, 9408, Note_on_c, 0, 67, 0
2, 9408, Note_on_c, 0, 65, 90
2, 9504, Note_on_c, 0, 65, 0
2, 9504, Note_on_c, 0, 67, 90
2, 9600, Note_on_c, 0, 67, 0
2, 9600, Note_on_c, 0, 67, 90
2, 9888, Note_on_c, 0, 67, 0
2, 9888, Note_on_c, 0, 65, 90
2, 9936, Note_on_c, 0, 65, 0
2, 9936, Note_on_c, 0, 67, 90
2, 9984, Note_on_c, 0, 67, 0
2, 9984, Note_on_c, 0, 69, 90
2, 10080, Note_on_c, 0, 69, 0
2, 10080, Note_on_c, 0, 67, 90
2, 10176, Note_on_c, 0, 67, 0
2, 10176, Note_on_c, 0, 69, 90
2, 10272, Note_on_c, 0, 69, 0
2, 10272, Note_on_c, 0, 70, 90
2, 10368, Note_on_c, 0, 70, 0
2, 10368, Note_on_c, 0, 69, 90
2, 10464, Note_on_c, 0, 69, 0
2, 10464, Note_on_c, 0, 67, 90
2, 10560, Note_on_c, 0, 67, 0
2, 10560, Note_on_c, 0, 65, 90
2, 10656, Note_on_c, 0, 65, 0
2, 10656, Note_on_c, 0, 64, 90
2, 10752, Note_on_c, 0, 64, 0
2, 10752, Note_on_c, 0, 65, 90
2, 10848, Note_on_c, 0, 65, 0
2, 10848, Note_on_c, 0, 69, 90
2, 10944, Note_on_c, 0, 69, 0
2, 10944, Note_on_c, 0, 67, 90
2, 11040, Note_on_c, 0, 67, 0
2, 11040, Note_on_c, 0, 69, 90
2, 11136, Note_on_c, 0, 69, 0
2, 11136, Note_on_c, 0, 61, 90
2, 11232, Note_on_c, 0, 61, 0
2, 11232, Note_on_c, 0, 69, 90
2, 11328, Note_on_c, 0, 69, 0
2, 11328, Note_on_c, 0, 67, 90
2, 11424, Note_on_c, 0, 67, 0
2, 11424, Note_on_c, 0, 69, 90
2, 11520, Note_on_c, 0, 69, 0
2, 11520, Note_on_c, 0, 62, 90
2, 11616, Note_on_c, 0, 62, 0
2, 11616, Note_on_c, 0, 69, 90
2, 11712, Note_on_c, 0, 69, 0
2, 11712, Note_on_c, 0, 67, 90
2, 11808, Note_on_c, 0, 67, 0
2, 11808, Note_on_c, 0, 69, 90
2, 11904, Note_on_c, 0, 69, 0
2, 11904, Note_on_c, 0, 60, 90
2, 12000, Note_on_c, 0, 60, 0
2, 12000, Note_on_c, 0, 69, 90
2, 12096, Note_on_c, 0, 69, 0
2, 12096, Note_on_c, 0, 67, 90
2, 12192, Note_on_c, 0, 67, 0
2, 12192, Note_on_c, 0, 69, 90
2, 12288, Note_on_c, 0, 69, 0
2, 12288, Note_on_c, 0, 65, 90
2, 12384, Note_on_c, 0, 65, 0
2, 12384, Note_on_c, 0, 62, 90
2, 12480, Note_on_c, 0, 62, 0
2, 12480, Note_on_c, 0, 61, 90
2, 12576, Note_on_c, 0, 61, 0
2, 12576, Note_on_c, 0, 62, 90
2, 12672, Note_on_c, 0, 62, 0
2, 12672, Note_on_c, 0, 67, 90
2, 12768, Note_on_c, 0, 67, 0
2, 12768, Note_on_c, 0, 62, 90
2, 12864, Note_on_c, 0, 62, 0
2, 12864, Note_on_c, 0, 60, 90
2, 12960, Note_on_c, 0, 60, 0
2, 12960, Note_on_c, 0, 62, 90
2, 13056, Note_on_c, 0, 62, 0
2, 13056, Note_on_c, 0, 69, 90
2, 13152, Note_on_c, 0, 69, 0
2, 13152, Note_on_c, 0, 62, 90
2, 13248, Note_on_c, 0, 62, 0
2, 13248, Note_on_c, 0, 60, 90
2, 13344, Note_on_c, 0, 60, 0
2, 13344, Note_on_c, 0, 62, 90
2, 13440, Note_on_c, 0, 62, 0
2, 13440, Note_on_c, 0, 67, 90
2, 13536, Note_on_c, 0, 67, 0
2, 13536, Note_on_c, 0, 62, 90
2, 13632, Note_on_c, 0, 62, 0
2, 13632, Note_on_c, 0, 60, 90
2, 13728, Note_on_c, 0, 60, 0
2, 13728, Note_on_c, 0, 62, 90
2, 13824, Note_on_c, 0, 62, 0
2, 13824, Note_on_c, 0, 57, 90
2, 14016, Note_on_c, 0, 57, 0
2, 14016, Note_on_c, 0, 65, 90
2, 14208, Note_on_c, 0, 65, 0
2, 14208, Note_on_c, 0, 55, 90
2, 14400, Note_on_c, 0, 55, 0
2, 14400, Note_on_c, 0, 64, 90
2, 14592, Note_on_c, 0, 64, 0
2, 14592, Note_on_c, 0, 53, 90
2, 14784, Note_on_c, 0, 53, 0
2, 14784, Note_on_c, 0, 57, 90
2, 14976, Note_on_c, 0, 57, 0
2, 14976, Note_on_c, 0, 62, 90
2, 15168, Note_on_c, 0, 62, 0
2, 15168, Note_on_c, 0, 65, 90
2, 15360, Note_on_c, 0, 65, 0
2, 15360, Note_on_c, 0, 63, 90
2, 15552, Note_on_c, 0, 63, 0
2, 15552, Note_on_c, 0, 69, 90
2, 15744, Note_on_c, 0, 69, 0
2, 15936, Note_on_c, 0, 63, 90
2, 16128, Note_on_c, 0, 63, 0
2, 16128, Note_on_c, 0, 62, 90
2, 16320, Note_on_c, 0, 62, 0
2, 16320, Note_on_c, 0, 67, 90
2, 16512, Note_on_c, 0, 67, 0
2, 16704, Note_on_c, 0, 62, 90
2, 16896, Note_on_c, 0, 62, 0
2, 16896, Note_on_c, 0, 60, 90
2, 16992, Note_on_c, 0, 60, 0
2, 16992, Note_on_c, 0, 58, 90
2, 17088, Note_on_c, 0, 58, 0
2, 17088, Note_on_c, 0, 60, 90
2, 17184, Note_on_c, 0, 60, 0
2, 17184, Note_on_c, 0, 62, 90
2, 17280, Note_on_c, 0, 62, 0
2, 17280, Note_on_c, 0, 60, 90
2, 17376, Note_on_c, 0, 60, 0
2, 17376, Note_on_c, 0, 69, 90
2, 17472, Note_on_c, 0, 69, 0
2, 17472, Note_on_c, 0, 67, 90
2, 17568, Note_on_c, 0, 67, 0
2, 17568, Note_on_c, 0, 69, 90
2, 17664, Note_on_c, 0, 69, 0
2, 17664, Note_on_c, 0, 58, 90
2, 17760, Note_on_c, 0, 58, 0
2, 17760, Note_on_c, 0, 67, 90
2, 17856, Note_on_c, 0, 67, 0
2, 17856, Note_on_c, 0, 66, 90
2, 17952, Note_on_c, 0, 66, 0
2, 17952, Note_on_c, 0, 67, 90
2, 18048, Note_on_c, 0, 67, 0
2, 18048, Note_on_c, 0, 57, 90
2, 18144, Note_on_c, 0, 57, 0
2, 18144, Note_on_c, 0, 65, 90
2, 18240, Note_on_c, 0, 65, 0
2, 18240, Note_on_c, 0, 64, 90
2, 18336, Note_on_c, 0, 64, 0
2, 18336, Note_on_c, 0, 65, 90
2, 18432, Note_on_c, 0, 65, 0
2, 18432, Note_on_c, 0, 67, 90
2, 19200, Note_on_c, 0, 67, 0
2, 20736, Note_on_c, 0, 58, 90
2, 20832, Note_on_c, 0, 58, 0
2, 20832, Note_on_c, 0, 62, 90
2, 20928, Note_on_c, 0, 62, 0
2, 20928, Note_on_c, 0, 60, 90
2, 21024, Note_on_c, 0, 60, 0
2, 21024, Note_on_c, 0, 62, 90
2, 21120, Note_on_c, 0, 62, 0
2, 21120, Note_on_c, 0, 54, 90
2, 21216, Note_on_c, 0, 54, 0
2, 21216, Note_on_c, 0, 62, 90
2, 21312, Note_on_c, 0, 62, 0
2, 21312, Note_on_c, 0, 60, 90
2, 21408, Note_on_c, 0, 60, 0
2, 21408, Note_on_c, 0, 62, 90
2, 21504, Note_on_c, 0, 62, 0
2, 21504, Note_on_c, 0, 55, 90
2, 21600, Note_on_c, 0, 55, 0
2, 21600, Note_on_c, 0, 62, 90
2, 21696, Note_on_c, 0, 62, 0
2, 21696, Note_on_c, 0, 60, 90
2, 21792, Note_on_c, 0, 60, 0
2, 21792, Note_on_c, 0, 62, 90
2, 21888, Note_on_c, 0, 62, 0
2, 21888, Note_on_c, 0, 54, 90
2, 21984, Note_on_c, 0, 54, 0
2, 21984, Note_on_c, 0, 62, 90
2, 22080, Note_on_c, 0, 62, 0
2, 22080, Note_on_c, 0, 60, 90
2, 22176, Note_on_c, 0, 60, 0
2, 22176, Note_on_c, 0, 62, 90
2, 22272, Note_on_c, 0, 62, 0
2, 22272, Note_on_c, 0, 58, 90
2, 22656, Note_on_c, 0, 58, 0
2, 22656, Note_on_c, 0, 60, 90
2, 23040, Note_on_c, 0, 60, 0
2, 23040, Note_on_c, 0, 62, 90
2, 23424, Note_on_c, 0, 62, 0
2, 23424, Note_on_c, 0, 60, 90
2, 23808, Note_on_c, 0, 60, 0
2, 24000, Note_on_c, 0, 58, 90
2, 24192, Note_on_c, 0, 58, 0
2, 24384, Note_on_c, 0, 57, 90
2, 24576, Note_on_c, 0, 57, 0
2, 24768, Note_on_c, 0, 53, 90
2, 24960, Note_on_c, 0, 53, 0
2, 24960, Note_on_c, 0, 55, 90
2, 25056, Note_on_c, 0, 55, 0
2, 25056, Note_on_c, 0, 57, 90
2, 25152, Note_on_c, 0, 57, 0
2, 25152, Note_on_c, 0, 58, 90
2, 25248, Note_on_c, 0, 58, 0
2, 25248, Note_on_c, 0, 55, 90
2, 25344, Note_on_c, 0, 55, 0
2, 25344, Note_on_c, 0, 57, 90
2, 25536, Note_on_c, 0, 57, 0
2, 25536, Note_on_c, 0, 62, 90
2, 25728, Note_on_c, 0, 62, 0
2, 25728, Note_on_c, 0, 61, 90
2, 25920, Note_on_c, 0, 61, 0
2, 25920, Note_on_c, 0, 64, 90
2, 26112, Note_on_c, 0, 64, 0
2, 26112, Note_on_c, 0, 69, 90
2, 26208, Note_on_c, 0, 69, 0
2, 26208, Note_on_c, 0, 70, 90
2, 26304, Note_on_c, 0, 70, 0
2, 26304, Note_on_c, 0, 69, 90
2, 26400, Note_on_c, 0, 69, 0
2, 26400, Note_on_c, 0, 67, 90
2, 26496, Note_on_c, 0, 67, 0
2, 26496, Note_on_c, 0, 65, 90
2, 26592, Note_on_c, 0, 65, 0
2, 26592, Note_on_c, 0, 64, 90
2, 26688, Note_on_c, 0, 64, 0
2, 26688, Note_on_c, 0, 62, 90
2, 26784, Note_on_c, 0, 62, 0
2, 26784, Note_on_c, 0, 61, 90
2, 26880, Note_on_c, 0, 61, 0
2, 26880, Note_on_c, 0, 62, 90
2, 27072, Note_on_c, 0, 62, 0
2, 27264, Note_on_c, 0, 58, 90
2, 27456, Note_on_c, 0, 58, 0
2, 27648, Note_on_c, 0, 64, 90
2, 27840, Note_on_c, 0, 64, 0
2, 28224, Note_on_c, 0, 69, 90
2, 28416, Note_on_c, 0, 69, 0
2, 28416, Note_on_c, 0, 69, 90
2, 31584, Note_on_c, 0, 69, 0
2, 31584, Note_on_c, 0, 67, 90
2, 31680, Note_on_c, 0, 67, 0
2, 31680, Note_on_c, 0, 69, 90
2, 31776, Note_on_c, 0, 69, 0
2, 31776, Note_on_c, 0, 70, 90
2, 31872, Note_on_c, 0, 70, 0
2, 31872, Note_on_c, 0, 69, 90
2, 31968, Note_on_c, 0, 69, 0
2, 31968, Note_on_c, 0, 67, 90
2, 32064, Note_on_c, 0, 67, 0
2, 32064, Note_on_c, 0, 65, 90
2, 32160, Note_on_c, 0, 65, 0
2, 32160, Note_on_c, 0, 64, 90
2, 32256, Note_on_c, 0, 64, 0
2, 32256, Note_on_c, 0, 65, 90
2, 33024, Note_on_c, 0, 65, 0
2, 33216, Note_on_c, 0, 62, 90
2, 33408, Note_on_c, 0, 62, 0
2, 33408, Note_on_c, 0, 67, 90
2, 33600, Note_on_c, 0, 67, 0
2, 33600, Note_on_c, 0, 65, 90
2, 33792, Note_on_c, 0, 65, 0
2, 33792, Note_on_c, 0, 63, 90
2, 34752, Note_on_c, 0, 63, 0
2, 34752, Note_on_c, 0, 60, 90
2, 34944, Note_on_c, 0, 60, 0
2, 34944, Note_on_c, 0, 65, 90
2, 35136, Note_on_c, 0, 65, 0
2, 35136, Note_on_c, 0, 63, 90
2, 35328, Note_on_c, 0, 63, 0
2, 35328, Note_on_c, 0, 62, 90
2, 35808, Note_on_c, 0, 62, 0
2, 35808, Note_on_c, 0, 67, 90
2, 35904, Note_on_c, 0, 67, 0
2, 35904, Note_on_c, 0, 66, 90
2, 36000, Note_on_c, 0, 66, 0
2, 36000, Note_on_c, 0, 67, 90
2, 36096, Note_on_c, 0, 67, 0
2, 36096, Note_on_c, 0, 60, 90
2, 36576, Note_on_c, 0, 60, 0
2, 36576, Note_on_c, 0, 58, 90
2, 36672, Note_on_c, 0, 58, 0
2, 36672, Note_on_c, 0, 57, 90
2, 36768, Note_on_c, 0, 57, 0
2, 36768, Note_on_c, 0, 60, 90
2, 36864, Note_on_c, 0, 60, 0
2, 36864, Note_on_c, 0, 58, 90
2, 36960, Note_on_c, 0, 58, 0
2, 36960, Note_on_c, 0, 57, 90
2, 37056, Note_on_c, 0, 57, 0
2, 37056, Note_on_c, 0, 55, 90
2, 37152, Note_on_c, 0, 55, 0
2, 37152, Note_on_c, 0, 58, 90
2, 37248, Note_on_c, 0, 58, 0
2, 37248, Note_on_c, 0, 57, 90
2, 37344, Note_on_c, 0, 57, 0
2, 37344, Note_on_c, 0, 55, 90
2, 37440, Note_on_c, 0, 55, 0
2, 37440, Note_on_c, 0, 54, 90
2, 37536, Note_on_c, 0, 54, 0
2, 37536, Note_on_c, 0, 57, 90
2, 37632, Note_on_c, 0, 57, 0
2, 37632, Note_on_c, 0, 55, 90
2, 37728, Note_on_c, 0, 55, 0
2, 37728, Note_on_c, 0, 50, 90
2, 37824, Note_on_c, 0, 50, 0
2, 37824, Note_on_c, 0, 52, 90
2, 37920, Note_on_c, 0, 52, 0
2, 37920, Note_on_c, 0, 54, 90
2, 38016, Note_on_c, 0, 54, 0
2, 38016, Note_on_c, 0, 55, 90
2, 38112, Note_on_c, 0, 55, 0
2, 38112, Note_on_c, 0, 50, 90
2, 38208, Note_on_c, 0, 50, 0
2, 38208, Note_on_c, 0, 55, 90
2, 38304, Note_on_c, 0, 55, 0
2, 38304, Note_on_c, 0, 57, 90
2, 38400, Note_on_c, 0, 57, 0
2, 38400, Note_on_c, 0, 58, 90
2, 38496, Note_on_c, 0, 58, 0
2, 38496, Note_on_c, 0, 55, 90
2, 38592, Note_on_c, 0, 55, 0
2, 38592, Note_on_c, 0, 58, 90
2, 38688, Note_on_c, 0, 58, 0
2, 38688, Note_on_c, 0, 60, 90
2, 38784, Note_on_c, 0, 60, 0
2, 38784, Note_on_c, 0, 62, 90
2, 38880, Note_on_c, 0, 62, 0
2, 38880, Note_on_c, 0, 57, 90
2, 38976, Note_on_c, 0, 57, 0
2, 38976, Note_on_c, 0, 62, 90
2, 39072, Note_on_c, 0, 62, 0
2, 39072, Note_on_c, 0, 60, 90
2, 39168, Note_on_c, 0, 60, 0
2, 39168, Note_on_c, 0, 58, 90
2, 39744, Note_on_c, 0, 58, 0
2, 39744, Note_on_c, 0, 57, 90
2, 39936, Note_on_c, 0, 57, 0
2, 39936, Note_on_c, 0, 55, 90
2, 40128, Note_on_c, 0, 55, 0
2, 40128, Note_on_c, 0, 58, 90
2, 40320, Note_on_c, 0, 58, 0
2, 40320, Note_on_c, 0, 57, 90
2, 40512, Note_on_c, 0, 57, 0
2, 40512, Note_on_c, 0, 55, 90
2, 40704, Note_on_c, 0, 55, 0
2, 40704, Note_on_c, 0, 54, 90
2, 40896, Note_on_c, 0, 54, 0
2, 40896, Note_on_c, 0, 57, 90
2, 41088, Note_on_c, 0, 57, 0
2, 41088, Note_on_c, 0, 50, 90
2, 41472, Note_on_c, 0, 50, 0
2, 41472, Note_on_c, 0, 55, 90
2, 41664, Note_on_c, 0, 55, 0
2, 41664, Note_on_c, 0, 50, 90
2, 41856, Note_on_c, 0, 50, 0
2, 41856, Note_on_c, 0, 57, 90
2, 42048, Note_on_c, 0, 57, 0
2, 42048, Note_on_c, 0, 50, 90
2, 42240, Note_on_c, 0, 50, 0
2, 42240, Note_on_c, 0, 58, 90
2, 42432, Note_on_c, 0, 58, 0
2, 42432, Note_on_c, 0, 57, 90
2, 42528, Note_on_c, 0, 57, 0
2, 42528, Note_on_c, 0, 55, 90
2, 42624, Note_on_c, 0, 55, 0
2, 42624, Note_on_c, 0, 57, 90
2, 42816, Note_on_c, 0, 57, 0
2, 42816, Note_on_c, 0, 50, 90
2, 43008, Note_on_c, 0, 50, 0
2, 43008, Note_on_c, 0, 55, 90
2, 43200, Note_on_c, 0, 55, 0
2, 43200, Note_on_c, 0, 50, 90
2, 43296, Note_on_c, 0, 50, 0
2, 43296, Note_on_c, 0, 55, 90
2, 43392, Note_on_c, 0, 55, 0
2, 43392, Note_on_c, 0, 57, 90
2, 43584, Note_on_c, 0, 57, 0
2, 43584, Note_on_c, 0, 50, 90
2, 43680, Note_on_c, 0, 50, 0
2, 43680, Note_on_c, 0, 57, 90
2, 43776, Note_on_c, 0, 57, 0
2, 43776, Note_on_c, 0, 58, 90
2, 43968, Note_on_c, 0, 58, 0
2, 43968, Note_on_c, 0, 57, 90
2, 44064, Note_on_c, 0, 57, 0
2, 44064, Note_on_c, 0, 55, 90
2, 44160, Note_on_c, 0, 55, 0
2, 44160, Note_on_c, 0, 57, 90
2, 44256, Note_on_c, 0, 57, 0
2, 44256, Note_on_c, 0, 50, 90
2, 44352, Note_on_c, 0, 50, 0
2, 44352, Note_on_c, 0, 62, 90
2, 44448, Note_on_c, 0, 62, 0
2, 44448, Note_on_c, 0, 60, 90
2, 44544, Note_on_c, 0, 60, 0
2, 44544, Note_on_c, 0, 58, 90
2, 44640, Note_on_c, 0, 58, 0
2, 44640, Note_on_c, 0, 57, 90
2, 44736, Note_on_c, 0, 57, 0
2, 44736, Note_on_c, 0, 55, 90
2, 44832, Note_on_c, 0, 55, 0
2, 44832, Note_on_c, 0, 58, 90
2, 44928, Note_on_c, 0, 58, 0
2, 44928, Note_on_c, 0, 57, 90
2, 45024, Note_on_c, 0, 57, 0
2, 45024, Note_on_c, 0, 55, 90
2, 45120, Note_on_c, 0, 55, 0
2, 45120, Note_on_c, 0, 54, 90
2, 45216, Note_on_c, 0, 54, 0
2, 45216, Note_on_c, 0, 57, 90
2, 45312, Note_on_c, 0, 57, 0
2, 45312, Note_on_c, 0, 55, 90
2, 45408, Note_on_c, 0, 55, 0
2, 45408, Note_on_c, 0, 58, 90
2, 45504, Note_on_c, 0, 58, 0
2, 45504, Note_on_c, 0, 60, 90
2, 45600, Note_on_c, 0, 60, 0
2, 45600, Note_on_c, 0, 62, 90
2, 45696, Note_on_c, 0, 62, 0
2, 45696, Note_on_c, 0, 63, 90
2, 45792, Note_on_c, 0, 63, 0
2, 45792, Note_on_c, 0, 58, 90
2, 45888, Note_on_c, 0, 58, 0
2, 45888, Note_on_c, 0, 57, 90
2, 45984, Note_on_c, 0, 57, 0
2, 45984, Note_on_c, 0, 55, 90
2, 46080, Note_on_c, 0, 55, 0
2, 46080, Note_on_c, 0, 54, 90
2, 46176, Note_on_c, 0, 54, 0
2, 46176, Note_on_c, 0, 57, 90
2, 46272, Note_on_c, 0, 57, 0
2, 46272, Note_on_c, 0, 58, 90
2, 46368, Note_on_c, 0, 58, 0
2, 46368, Note_on_c, 0, 60, 90
2, 46464, Note_on_c, 0, 60, 0
2, 46464, Note_on_c, 0, 62, 90
2, 46560, Note_on_c, 0, 62, 0
2, 46560, Note_on_c, 0, 57, 90
2, 46656, Note_on_c, 0, 57, 0
2, 46656, Note_on_c, 0, 55, 90
2, 46752, Note_on_c, 0, 55, 0
2, 46752, Note_on_c, 0, 53, 90
2, 46848, Note_on_c, 0, 53, 0
2, 46848, Note_on_c, 0, 51, 90
2, 46944, Note_on_c, 0, 51, 0
2, 46944, Note_on_c, 0, 55, 90
2, 47040, Note_on_c, 0, 55, 0
2, 47040, Note_on_c, 0, 57, 90
2, 47136, Note_on_c, 0, 57, 0
2, 47136, Note_on_c, 0, 58, 90
2, 47232, Note_on_c, 0, 58, 0
2, 47232, Note_on_c, 0, 60, 90
2, 47328, Note_on_c, 0, 60, 0
2, 47328, Note_on_c, 0, 55, 90
2, 47424, Note_on_c, 0, 55, 0
2, 47424, Note_on_c, 0, 53, 90
2, 47520, Note_on_c, 0, 53, 0
2, 47520, Note_on_c, 0, 51, 90
2, 47616, Note_on_c, 0, 51, 0
2, 47616, Note_on_c, 0, 50, 90
2, 47712, Note_on_c, 0, 50, 0
2, 47712, Note_on_c, 0, 53, 90
2, 47808, Note_on_c, 0, 53, 0
2, 47808, Note_on_c, 0, 55, 90
2, 47904, Note_on_c, 0, 55, 0
2, 47904, Note_on_c, 0, 57, 90
2, 48000, Note_on_c, 0, 57, 0
2, 48000, Note_on_c, 0, 58, 90
2, 48096, Note_on_c, 0, 58, 0
2, 48096, Note_on_c, 0, 62, 90
2, 48192, Note_on_c, 0, 62, 0
2, 48192, Note_on_c, 0, 60, 90
2, 48288, Note_on_c, 0, 60, 0
2, 48288, Note_on_c, 0, 58, 90
2, 48384, Note_on_c, 0, 58, 0
2, 48384, Note_on_c, 0, 57, 90
2, 48480, Note_on_c, 0, 57, 0
2, 48480, Note_on_c, 0, 60, 90
2, 48576, Note_on_c, 0, 60, 0
2, 48576, Note_on_c, 0, 62, 90
2, 48672, Note_on_c, 0, 62, 0
2, 48672, Note_on_c, 0, 63, 90
2, 48768, Note_on_c, 0, 63, 0
2, 48768, Note_on_c, 0, 65, 90
2, 48864, Note_on_c, 0, 65, 0
2, 48864, Note_on_c, 0, 67, 90
2, 48960, Note_on_c, 0, 67, 0
2, 48960, Note_on_c, 0, 65, 90
2, 49056, Note_on_c, 0, 65, 0
2, 49056, Note_on_c, 0, 63, 90
2, 49152, Note_on_c, 0, 63, 0
2, 49152, Note_on_c, 0, 62, 90
2, 49248, Note_on_c, 0, 62, 0
2, 49248, Note_on_c, 0, 65, 90
2, 49344, Note_on_c, 0, 65, 0
2, 49344, Note_on_c, 0, 63, 90
2, 49440, Note_on_c, 0, 63, 0
2, 49440, Note_on_c, 0, 62, 90
2, 49536, Note_on_c, 0, 62, 0
2, 49536, Note_on_c, 0, 60, 90
2, 49632, Note_on_c, 0, 60, 0
2, 49632, Note_on_c, 0, 58, 90
2, 49728, Note_on_c, 0, 58, 0
2, 49728, Note_on_c, 0, 57, 90
2, 49824, Note_on_c, 0, 57, 0
2, 49824, Note_on_c, 0, 60, 90
2, 49920, Note_on_c, 0, 60, 0
2, 49920, Note_on_c, 0, 58, 90
2, 50016, Note_on_c, 0, 58, 0
2, 50016, Note_on_c, 0, 53, 90
2, 50112, Note_on_c, 0, 53, 0
2, 50112, Note_on_c, 0, 55, 90
2, 50208, Note_on_c, 0, 55, 0
2, 50208, Note_on_c, 0, 57, 90
2, 50304, Note_on_c, 0, 57, 0
2, 50304, Note_on_c, 0, 58, 90
2, 50400, Note_on_c, 0, 58, 0
2, 50400, Note_on_c, 0, 60, 90
2, 50496, Note_on_c, 0, 60, 0
2, 50496, Note_on_c, 0, 58, 90
2, 50592, Note_on_c, 0, 58, 0
2, 50592, Note_on_c, 0, 60, 90
2, 50688, Note_on_c, 0, 60, 0
2, 50688, Note_on_c, 0, 62, 90
2, 50784, Note_on_c, 0, 62, 0
2, 50784, Note_on_c, 0, 64, 90
2, 50880, Note_on_c, 0, 64, 0
2, 50880, Note_on_c, 0, 62, 90
2, 50976, Note_on_c, 0, 62, 0
2, 50976, Note_on_c, 0, 64, 90
2, 51072, Note_on_c, 0, 64, 0
2, 51072, Note_on_c, 0, 64, 90
2, 51360, Note_on_c, 0, 64, 0
2, 51360, Note_on_c, 0, 62, 90
2, 51408, Note_on_c, 0, 62, 0
2, 51408, Note_on_c, 0, 64, 90
2, 51456, Note_on_c, 0, 64, 0
2, 51456, Note_on_c, 0, 65, 90
2, 51552, Note_on_c, 0, 65, 0
2, 51552, Note_on_c, 0, 63, 90
2, 51648, Note_on_c, 0, 63, 0
2, 51648, Note_on_c, 0, 65, 90
2, 51744, Note_on_c, 0, 65, 0
2, 51744, Note_on_c, 0, 67, 90
2, 51840, Note_on_c, 0, 67, 0
2, 51840, Note_on_c, 0, 65, 90
2, 51936, Note_on_c, 0, 65, 0
2, 51936, Note_on_c, 0, 63, 90
2, 52032, Note_on_c, 0, 63, 0
2, 52032, Note_on_c, 0, 62, 90
2, 52128, Note_on_c, 0, 62, 0
2, 52128, Note_on_c, 0, 60, 90
2, 52224, Note_on_c, 0, 60, 0
2, 52224, Note_on_c, 0, 62, 90
2, 52320, Note_on_c, 0, 62, 0
2, 52320, Note_on_c, 0, 65, 90
2, 52416, Note_on_c, 0, 65, 0
2, 52416, Note_on_c, 0, 63, 90
2, 52512, Note_on_c, 0, 63, 0
2, 52512, Note_on_c, 0, 65, 90
2, 52608, Note_on_c, 0, 65, 0
2, 52608, Note_on_c, 0, 57, 90
2, 52704, Note_on_c, 0, 57, 0
2, 52704, Note_on_c, 0, 65, 90
2, 52800, Note_on_c, 0, 65, 0
2, 52800, Note_on_c, 0, 63, 90
2, 52896, Note_on_c, 0, 63, 0
2, 52896, Note_on_c, 0, 65, 90
2, 52992, Note_on_c, 0, 65, 0
2, 52992, Note_on_c, 0, 58, 90
2, 53088, Note_on_c, 0, 58, 0
2, 53088, Note_on_c, 0, 65, 90
2, 53184, Note_on_c, 0, 65, 0
2, 53184, Note_on_c, 0, 63, 90
2, 53280, Note_on_c, 0, 63, 0
2, 53280, Note_on_c, 0, 65, 90
2, 53376, Note_on_c, 0, 65, 0
2, 53376, Note_on_c, 0, 57, 90
2, 53472, Note_on_c, 0, 57, 0
2, 53472, Note_on_c, 0, 65, 90
2, 53568, Note_on_c, 0, 65, 0
2, 53568, Note_on_c, 0, 63, 90
2, 53664, Note_on_c, 0, 63, 0
2, 53664, Note_on_c, 0, 65, 90
2, 53760, Note_on_c, 0, 65, 0
2, 53760, Note_on_c, 0, 62, 90
2, 53856, Note_on_c, 0, 62, 0
2, 53856, Note_on_c, 0, 58, 90
2, 53952, Note_on_c, 0, 58, 0
2, 53952, Note_on_c, 0, 57, 90
2, 54048, Note_on_c, 0, 57, 0
2, 54048, Note_on_c, 0, 58, 90
2, 54144, Note_on_c, 0, 58, 0
2, 54144, Note_on_c, 0, 63, 90
2, 54240, Note_on_c, 0, 63, 0
2, 54240, Note_on_c, 0, 58, 90
2, 54336, Note_on_c, 0, 58, 0
2, 54336, Note_on_c, 0, 57, 90
2, 54432, Note_on_c, 0, 57, 0
2, 54432, Note_on_c, 0, 58, 90
2, 54528, Note_on_c, 0, 58, 0
2, 54528, Note_on_c, 0, 65, 90
2, 54624, Note_on_c, 0, 65, 0
2, 54624, Note_on_c, 0, 58, 90
2, 54720, Note_on_c, 0, 58, 0
2, 54720, Note_on_c, 0, 57, 90
2, 54816, Note_on_c, 0, 57, 0
2, 54816, Note_on_c, 0, 58, 90
2, 54912, Note_on_c, 0, 58, 0
2, 54912, Note_on_c, 0, 63, 90
2, 55008, Note_on_c, 0, 63, 0
2, 55008, Note_on_c, 0, 58, 90
2, 55104, Note_on_c, 0, 58, 0
2, 55104, Note_on_c, 0, 57, 90
2, 55200, Note_on_c, 0, 57, 0
2, 55200, Note_on_c, 0, 58, 90
2, 55296, Note_on_c, 0, 58, 0
2, 55296, Note_on_c, 0, 58, 90
2, 55392, Note_on_c, 0, 58, 0
2, 55392, Note_on_c, 0, 60, 90
2, 55488, Note_on_c, 0, 60, 0
2, 55488, Note_on_c, 0, 58, 90
2, 55584, Note_on_c, 0, 58, 0
2, 55584, Note_on_c, 0, 62, 90
2, 55680, Note_on_c, 0, 62, 0
2, 55680, Note_on_c, 0, 63, 90
2, 55776, Note_on_c, 0, 63, 0
2, 55776, Note_on_c, 0, 62, 90
2, 55872, Note_on_c, 0, 62, 0
2, 55872, Note_on_c, 0, 60, 90
2, 55968, Note_on_c, 0, 60, 0
2, 55968, Note_on_c, 0, 63, 90
2, 56064, Note_on_c, 0, 63, 0
2, 56064, Note_on_c, 0, 62, 90
2, 56160, Note_on_c, 0, 62, 0
2, 56160, Note_on_c, 0, 60, 90
2, 56256, Note_on_c, 0, 60, 0
2, 56256, Note_on_c, 0, 62, 90
2, 56352, Note_on_c, 0, 62, 0
2, 56352, Note_on_c, 0, 63, 90
2, 56448, Note_on_c, 0, 63, 0
2, 56448, Note_on_c, 0, 62, 90
2, 56544, Note_on_c, 0, 62, 0
2, 56544, Note_on_c, 0, 60, 90
2, 56640, Note_on_c, 0, 60, 0
2, 56640, Note_on_c, 0, 58, 90
2, 56736, Note_on_c, 0, 58, 0
2, 56736, Note_on_c, 0, 62, 90
2, 56832, Note_on_c, 0, 62, 0
2, 56832, Note_on_c, 0, 60, 90
2, 56928, Note_on_c, 0, 60, 0
2, 56928, Note_on_c, 0, 58, 90
2, 57024, Note_on_c, 0, 58, 0
2, 57024, Note_on_c, 0, 60, 90
2, 57120, Note_on_c, 0, 60, 0
2, 57120, Note_on_c, 0, 62, 90
2, 57216, Note_on_c, 0, 62, 0
2, 57216, Note_on_c, 0, 60, 90
2, 57312, Note_on_c, 0, 60, 0
2, 57312, Note_on_c, 0, 58, 90
2, 57408, Note_on_c, 0, 58, 0
2, 57408, Note_on_c, 0, 57, 90
2, 57504, Note_on_c, 0, 57, 0
2, 57504, Note_on_c, 0, 60, 90
2, 57600, Note_on_c, 0, 60, 0
2, 57600, Note_on_c, 0, 58, 90
2, 57696, Note_on_c, 0, 58, 0
2, 57696, Note_on_c, 0, 57, 90
2, 57792, Note_on_c, 0, 57, 0
2, 57792, Note_on_c, 0, 58, 90
2, 57888, Note_on_c, 0, 58, 0
2, 57888, Note_on_c, 0, 60, 90
2, 57984, Note_on_c, 0, 60, 0
2, 57984, Note_on_c, 0, 58, 90
2, 58080, Note_on_c, 0, 58, 0
2, 58080, Note_on_c, 0, 57, 90
2, 58176, Note_on_c, 0, 57, 0
2, 58176, Note_on_c, 0, 55, 90
2, 58272, Note_on_c, 0, 55, 0
2, 58272, Note_on_c, 0, 58, 90
2, 58368, Note_on_c, 0, 58, 0
2, 58368, Note_on_c, 0, 57, 90
2, 58560, Note_on_c, 0, 57, 0
2, 58560, Note_on_c, 0, 65, 90
2, 58752, Note_on_c, 0, 65, 0
2, 58944, Note_on_c, 0, 56, 90
2, 59136, Note_on_c, 0, 56, 0
2, 59136, Note_on_c, 0, 55, 90
2, 59328, Note_on_c, 0, 55, 0
2, 59328, Note_on_c, 0, 63, 90
2, 59520, Note_on_c, 0, 63, 0
2, 59712, Note_on_c, 0, 55, 90
2, 59904, Note_on_c, 0, 55, 0
2, 59904, Note_on_c, 0, 53, 90
2, 60096, Note_on_c, 0, 53, 0
2, 60096, Note_on_c, 0, 62, 90
2, 60288, Note_on_c, 0, 62, 0
2, 60480, Note_on_c, 0, 53, 90
2, 60672, Note_on_c, 0, 53, 0
2, 60672, Note_on_c, 0, 51, 90
2, 60768, Note_on_c, 0, 51, 0
2, 60768, Note_on_c, 0, 55, 90
2, 60864, Note_on_c, 0, 55, 0
2, 60864, Note_on_c, 0, 60, 90
2, 60960, Note_on_c, 0, 60, 0
2, 60960, Note_on_c, 0, 58, 90
2, 61056, Note_on_c, 0, 58, 0
2, 61056, Note_on_c, 0, 57, 90
2, 61152, Note_on_c, 0, 57, 0
2, 61152, Note_on_c, 0, 55, 90
2, 61248, Note_on_c, 0, 55, 0
2, 61248, Note_on_c, 0, 53, 90
2, 61344, Note_on_c, 0, 53, 0
2, 61344, Note_on_c, 0, 51, 90
2, 61440, Note_on_c, 0, 51, 0
2, 61440, Note_on_c, 0, 50, 90
2, 61536, Note_on_c, 0, 50, 0
2, 61536, Note_on_c, 0, 51, 90
2, 61632, Note_on_c, 0, 51, 0
2, 61632, Note_on_c, 0, 53, 90
2, 61728, Note_on_c, 0, 53, 0
2, 61728, Note_on_c, 0, 55, 90
2, 61824, Note_on_c, 0, 55, 0
2, 61824, Note_on_c, 0, 57, 90
2, 61920, Note_on_c, 0, 57, 0
2, 61920, Note_on_c, 0, 58, 90
2, 62016, Note_on_c, 0, 58, 0
2, 62016, Note_on_c, 0, 60, 90
2, 62112, Note_on_c, 0, 60, 0
2, 62112, Note_on_c, 0, 57, 90
2, 62208, Note_on_c, 0, 57, 0
2, 62208, Note_on_c, 0, 58, 90
2, 62304, Note_on_c, 0, 58, 0
2, 62304, Note_on_c, 0, 53, 90
2, 62400, Note_on_c, 0, 53, 0
2, 62400, Note_on_c, 0, 55, 90
2, 62496, Note_on_c, 0, 55, 0
2, 62496, Note_on_c, 0, 57, 90
2, 62592, Note_on_c, 0, 57, 0
2, 62592, Note_on_c, 0, 58, 90
2, 62688, Note_on_c, 0, 58, 0
2, 62688, Note_on_c, 0, 60, 90
2, 62784, Note_on_c, 0, 60, 0
2, 62784, Note_on_c, 0, 58, 90
2, 62880, Note_on_c, 0, 58, 0
2, 62880, Note_on_c, 0, 60, 90
2, 62976, Note_on_c, 0, 60, 0
2, 62976, Note_on_c, 0, 62, 90
2, 63072, Note_on_c, 0, 62, 0
2, 63072, Note_on_c, 0, 64, 90
2, 63168, Note_on_c, 0, 64, 0
2, 63168, Note_on_c, 0, 62, 90
2, 63264, Note_on_c, 0, 62, 0
2, 63264, Note_on_c, 0, 64, 90
2, 63360, Note_on_c, 0, 64, 0
2, 63360, Note_on_c, 0, 64, 90
2, 63648, Note_on_c, 0, 64, 0
2, 63648, Note_on_c, 0, 62, 90
2, 63696, Note_on_c, 0, 62, 0
2, 63696, Note_on_c, 0, 64, 90
2, 63744, Note_on_c, 0, 64, 0
2, 63744, Note_on_c, 0, 65, 90
2, 63840, Note_on_c, 0, 65, 0
2, 63840, Note_on_c, 0, 64, 90
2, 63936, Note_on_c, 0, 64, 0
2, 63936, Note_on_c, 0, 65, 90
2, 64032, Note_on_c, 0, 65, 0
2, 64032, Note_on_c, 0, 67, 90
2, 64128, Note_on_c, 0, 67, 0
2, 64128, Note_on_c, 0, 65, 90
2, 64320, Note_on_c, 0, 65, 0
2, 64320, Note_on_c, 0, 65, 90
2, 64512, Note_on_c, 0, 65, 0
2, 64512, Note_on_c, 0, 65, 90
2, 67680, Note_on_c, 0, 65, 0
2, 67680, Note_on_c, 0, 63, 90
2, 67776, Note_on_c, 0, 63, 0
2, 67776, Note_on_c, 0, 65, 90
2, 67872, Note_on_c, 0, 65, 0
2, 67872, Note_on_c, 0, 67, 90
2, 67968, Note_on_c, 0, 67, 0
2, 67968, Note_on_c, 0, 60, 90
2, 68256, Note_on_c, 0, 60, 0
2, 68256, Note_on_c, 0, 69, 90
2, 68352, Note_on_c, 0, 69, 0
2, 68352, Note_on_c, 0, 70, 90
2, 68448, Note_on_c, 0, 70, 0
2, 68448, Note_on_c, 0, 69, 90
2, 68544, Note_on_c, 0, 69, 0
2, 68544, Note_on_c, 0, 70, 90
2, 68640, Note_on_c, 0, 70, 0
2, 68640, Note_on_c, 0, 72, 90
2, 68736, Note_on_c, 0, 72, 0
2, 68736, Note_on_c, 0, 70, 90
2, 68832, Note_on_c, 0, 70, 0
2, 68832, Note_on_c, 0, 69, 90
2, 68928, Note_on_c, 0, 69, 0
2, 68928, Note_on_c, 0, 67, 90
2, 69024, Note_on_c, 0, 67, 0
2, 69024, Note_on_c, 0, 65, 90
2, 69120, Note_on_c, 0, 65, 0
2, 69120, Note_on_c, 0, 63, 90
2, 69216, Note_on_c, 0, 63, 0
2, 69216, Note_on_c, 0, 62, 90
2, 69312, Note_on_c, 0, 62, 0
2, 69312, Note_on_c, 0, 63, 90
2, 69408, Note_on_c, 0, 63, 0
2, 69408, Note_on_c, 0, 65, 90
2, 69504, Note_on_c, 0, 65, 0
2, 69504, Note_on_c, 0, 63, 90
2, 69600, Note_on_c, 0, 63, 0
2, 69600, Note_on_c, 0, 62, 90
2, 69696, Note_on_c, 0, 62, 0
2, 69696, Note_on_c, 0, 60, 90
2, 69792, Note_on_c, 0, 60, 0
2, 69792, Note_on_c, 0, 58, 90
2, 69888, Note_on_c, 0, 58, 0
2, 69888, Note_on_c, 0, 69, 90
2, 69984, Note_on_c, 0, 69, 0
2, 69984, Note_on_c, 0, 67, 90
2, 70080, Note_on_c, 0, 67, 0
2, 70080, Note_on_c, 0, 69, 90
2, 70176, Note_on_c, 0, 69, 0
2, 70176, Note_on_c, 0, 70, 90
2, 70272, Note_on_c, 0, 70, 0
2, 70272, Note_on_c, 0, 69, 90
2, 70368, Note_on_c, 0, 69, 0
2, 70368, Note_on_c, 0, 67, 90
2, 70464, Note_on_c, 0, 67, 0
2, 70464, Note_on_c, 0, 65, 90
2, 70560, Note_on_c, 0, 65, 0
2, 70560, Note_on_c, 0, 63, 90
2, 70656, Note_on_c, 0, 63, 0
2, 70656, Note_on_c, 0, 62, 90
2, 70752, Note_on_c, 0, 62, 0
2, 70752, Note_on_c, 0, 60, 90
2, 70848, Note_on_c, 0, 60, 0
2, 70848, Note_on_c, 0, 62, 90
2, 70944, Note_on_c, 0, 62, 0
2, 70944, Note_on_c, 0, 63, 90
2, 71040, Note_on_c, 0, 63, 0
2, 71040, Note_on_c, 0, 62, 90
2, 71136, Note_on_c, 0, 62, 0
2, 71136, Note_on_c, 0, 60, 90
2, 71232, Note_on_c, 0, 60, 0
2, 71232, Note_on_c, 0, 58, 90
2, 71328, Note_on_c, 0, 58, 0
2, 71328, Note_on_c, 0, 57, 90
2, 71424, Note_on_c, 0, 57, 0
2, 71424, Note_on_c, 0, 67, 90
2, 71520, Note_on_c, 0, 67, 0
2, 71520, Note_on_c, 0, 65, 90
2, 71616, Note_on_c, 0, 65, 0
2, 71616, Note_on_c, 0, 67, 90
2, 71712, Note_on_c, 0, 67, 0
2, 71712, Note_on_c, 0, 68, 90
2, 71808, Note_on_c, 0, 68, 0
2, 71808, Note_on_c, 0, 67, 90
2, 71904, Note_on_c, 0, 67, 0
2, 71904, Note_on_c, 0, 65, 90
2, 72000, Note_on_c, 0, 65, 0
2, 72000, Note_on_c, 0, 63, 90
2, 72096, Note_on_c, 0, 63, 0
2, 72096, Note_on_c, 0, 62, 90
2, 72192, Note_on_c, 0, 62, 0
2, 72192, Note_on_c, 0, 60, 90
2, 72288, Note_on_c, 0, 60, 0
2, 72288, Note_on_c, 0, 59, 90
2, 72384, Note_on_c, 0, 59, 0
2, 72384, Note_on_c, 0, 60, 90
2, 72480, Note_on_c, 0, 60, 0
2, 72480, Note_on_c, 0, 62, 90
2, 72576, Note_on_c, 0, 62, 0
2, 72576, Note_on_c, 0, 60, 90
2, 72672, Note_on_c, 0, 60, 0
2, 72672, Note_on_c, 0, 62, 90
2, 72768, Note_on_c, 0, 62, 0
2, 72768, Note_on_c, 0, 63, 90
2, 72864, Note_on_c, 0, 63, 0
2, 72864, Note_on_c, 0, 60, 90
2, 72960, Note_on_c, 0, 60, 0
2, 72960, Note_on_c, 0, 65, 90
2, 73440, Note_on_c, 0, 65, 0
2, 73440, Note_on_c, 0, 68, 90
2, 73536, Note_on_c, 0, 68, 0
2, 73536, Note_on_c, 0, 67, 90
2, 73632, Note_on_c, 0, 67, 0
2, 73632, Note_on_c, 0, 65, 90
2, 73728, Note_on_c, 0, 65, 0
2, 73728, Note_on_c, 0, 63, 90
2, 74592, Note_on_c, 0, 63, 0
2, 74592, Note_on_c, 0, 60, 90
2, 74688, Note_on_c, 0, 60, 0
2, 74688, Note_on_c, 0, 62, 90
2, 74784, Note_on_c, 0, 62, 0
2, 74784, Note_on_c, 0, 63, 90
2, 74880, Note_on_c, 0, 63, 0
2, 74880, Note_on_c, 0, 65, 90
2, 74976, Note_on_c, 0, 65, 0
2, 74976, Note_on_c, 0, 67, 90
2, 75072, Note_on_c, 0, 67, 0
2, 75072, Note_on_c, 0, 68, 90
2, 75168, Note_on_c, 0, 68, 0
2, 75168, Note_on_c, 0, 65, 90
2, 75264, Note_on_c, 0, 65, 0
2, 75264, Note_on_c, 0, 71, 90
2, 75360, Note_on_c, 0, 71, 0
2, 75360, Note_on_c, 0, 72, 90
2, 75456, Note_on_c, 0, 72, 0
2, 75456, Note_on_c, 0, 74, 90
2, 75552, Note_on_c, 0, 74, 0
2, 75552, Note_on_c, 0, 71, 90
2, 75648, Note_on_c, 0, 71, 0
2, 75648, Note_on_c, 0, 67, 90
2, 75840, Note_on_c, 0, 67, 0
2, 76032, Note_on_c, 0, 60, 90
2, 76416, Note_on_c, 0, 60, 0
2, 76416, Note_on_c, 0, 67, 90
2, 76800, Note_on_c, 0, 67, 0
2, 76800, Note_on_c, 0, 63, 90
2, 77376, Note_on_c, 0, 63, 0
2, 77376, Note_on_c, 0, 62, 90
2, 77568, Note_on_c, 0, 62, 0
2, 77568, Note_on_c, 0, 60, 90
2, 77760, Note_on_c, 0, 60, 0
2, 77760, Note_on_c, 0, 63, 90
2, 77952, Note_on_c, 0, 63, 0
2, 77952, Note_on_c, 0, 62, 90
2, 78144, Note_on_c, 0, 62, 0
2, 78144, Note_on_c, 0, 60, 90
2, 78336, Note_on_c, 0, 60, 0
2, 78336, Note_on_c, 0, 59, 90
2, 78528, Note_on_c, 0, 59, 0
2, 78528, Note_on_c, 0, 62, 90
2, 78720, Note_on_c, 0, 62, 0
2, 78720, Note_on_c, 0, 55, 90
2, 79104, Note_on_c, 0, 55, 0
2, 79104, Note_on_c, 0, 60, 90
2, 79296, Note_on_c, 0, 60, 0
2, 79296, Note_on_c, 0, 55, 90
2, 79488, Note_on_c, 0, 55, 0
2, 79488, Note_on_c, 0, 62, 90
2, 79680, Note_on_c, 0, 62, 0
2, 79680, Note_on_c, 0, 67, 90
2, 79872, Note_on_c, 0, 67, 0
2, 79872, Note_on_c, 0, 75, 90
2, 80064, Note_on_c, 0, 75, 0
2, 80064, Note_on_c, 0, 74, 90
2, 80160, Note_on_c, 0, 74, 0
2, 80160, Note_on_c, 0, 72, 90
2, 80256, Note_on_c, 0, 72, 0
2, 80256, Note_on_c, 0, 74, 90
2, 80448, Note_on_c, 0, 74, 0
2, 80448, Note_on_c, 0, 67, 90
2, 80640, Note_on_c, 0, 67, 0
2, 80640, Note_on_c, 0, 72, 90
2, 80832, Note_on_c, 0, 72, 0
2, 80832, Note_on_c, 0, 67, 90
2, 80928, Note_on_c, 0, 67, 0
2, 80928, Note_on_c, 0, 72, 90
2, 81024, Note_on_c, 0, 72, 0
2, 81024, Note_on_c, 0, 74, 90
2, 81216, Note_on_c, 0, 74, 0
2, 81216, Note_on_c, 0, 67, 90
2, 81312, Note_on_c, 0, 67, 0
2, 81312, Note_on_c, 0, 74, 90
2, 81408, Note_on_c, 0, 74, 0
2, 81408, Note_on_c, 0, 75, 90
2, 81600, Note_on_c, 0, 75, 0
2, 81600, Note_on_c, 0, 74, 90
2, 81696, Note_on_c, 0, 74, 0
2, 81696, Note_on_c, 0, 72, 90
2, 81792, Note_on_c, 0, 72, 0
2, 81792, Note_on_c, 0, 74, 90
2, 81888, Note_on_c, 0, 74, 0
2, 81888, Note_on_c, 0, 67, 90
2, 81984, Note_on_c, 0, 67, 0
2, 81984, Note_on_c, 0, 79, 90
2, 82080, Note_on_c, 0, 79, 0
2, 82080, Note_on_c, 0, 77, 90
2, 82176, Note_on_c, 0, 77, 0
2, 82176, Note_on_c, 0, 75, 90
2, 82272, Note_on_c, 0, 75, 0
2, 82272, Note_on_c, 0, 74, 90
2, 82368, Note_on_c, 0, 74, 0
2, 82368, Note_on_c, 0, 72, 90
2, 82464, Note_on_c, 0, 72, 0
2, 82464, Note_on_c, 0, 75, 90
2, 82560, Note_on_c, 0, 75, 0
2, 82560, Note_on_c, 0, 74, 90
2, 82656, Note_on_c, 0, 74, 0
2, 82656, Note_on_c, 0, 72, 90
2, 82752, Note_on_c, 0, 72, 0
2, 82752, Note_on_c, 0, 71, 90
2, 82848, Note_on_c, 0, 71, 0
2, 82848, Note_on_c, 0, 74, 90
2, 82944, Note_on_c, 0, 74, 0
2, 82944, Note_on_c, 0, 72, 90
2, 83040, Note_on_c, 0, 72, 0
2, 83040, Note_on_c, 0, 79, 90
2, 83136, Note_on_c, 0, 79, 0
2, 83136, Note_on_c, 0, 75, 90
2, 83232, Note_on_c, 0, 75, 0
2, 83232, Note_on_c, 0, 79, 90
2, 83328, Note_on_c, 0, 79, 0
2, 83328, Note_on_c, 0, 72, 90
2, 83424, Note_on_c, 0, 72, 0
2, 83424, Note_on_c, 0, 75, 90
2, 83520, Note_on_c, 0, 75, 0
2, 83520, Note_on_c, 0, 67, 90
2, 83616, Note_on_c, 0, 67, 0
2, 83616, Note_on_c, 0, 70, 90
2, 83712, Note_on_c, 0, 70, 0
2, 83712, Note_on_c, 0, 69, 90
2, 83808, Note_on_c, 0, 69, 0
2, 83808, Note_on_c, 0, 72, 90
2, 83904, Note_on_c, 0, 72, 0
2, 83904, Note_on_c, 0, 69, 90
2, 84000, Note_on_c, 0, 69, 0
2, 84000, Note_on_c, 0, 72, 90
2, 84096, Note_on_c, 0, 72, 0
2, 84096, Note_on_c, 0, 65, 90
2, 84192, Note_on_c, 0, 65, 0
2, 84192, Note_on_c, 0, 69, 90
2, 84288, Note_on_c, 0, 69, 0
2, 84288, Note_on_c, 0, 60, 90
2, 84384, Note_on_c, 0, 60, 0
2, 84384, Note_on_c, 0, 64, 90
2, 84480, Note_on_c, 0, 64, 0
2, 84480, Note_on_c, 0, 62, 90
2, 84576, Note_on_c, 0, 62, 0
2, 84576, Note_on_c, 0, 77, 90
2, 84672, Note_on_c, 0, 77, 0
2, 84672, Note_on_c, 0, 74, 90
2, 84768, Note_on_c, 0, 74, 0
2, 84768, Note_on_c, 0, 77, 90
2, 84864, Note_on_c, 0, 77, 0
2, 84864, Note_on_c, 0, 70, 90
2, 84960, Note_on_c, 0, 70, 0
2, 84960, Note_on_c, 0, 74, 90
2, 85056, Note_on_c, 0, 74, 0
2, 85056, Note_on_c, 0, 65, 90
2, 85152, Note_on_c, 0, 65, 0
2, 85152, Note_on_c, 0, 69, 90
2, 85248, Note_on_c, 0, 69, 0
2, 85248, Note_on_c, 0, 67, 90
2, 85344, Note_on_c, 0, 67, 0
2, 85344, Note_on_c, 0, 70, 90
2, 85440, Note_on_c, 0, 70, 0
2, 85440, Note_on_c, 0, 67, 90
2, 85536, Note_on_c, 0, 67, 0
2, 85536, Note_on_c, 0, 70, 90
2, 85632, Note_on_c, 0, 70, 0
2, 85632, Note_on_c, 0, 63, 90
2, 85728, Note_on_c, 0, 63, 0
2, 85728, Note_on_c, 0, 67, 90
2, 85824, Note_on_c, 0, 67, 0
2, 85824, Note_on_c, 0, 58, 90
2, 85920, Note_on_c, 0, 58, 0
2, 85920, Note_on_c, 0, 62, 90
2, 86016, Note_on_c, 0, 62, 0
2, 86016, Note_on_c, 0, 60, 90
2, 86112, Note_on_c, 0, 60, 0
2, 86112, Note_on_c, 0, 75, 90
2, 86208, Note_on_c, 0, 75, 0
2, 86208, Note_on_c, 0, 72, 90
2, 86304, Note_on_c, 0, 72, 0
2, 86304, Note_on_c, 0, 75, 90
2, 86400, Note_on_c, 0, 75, 0
2, 86400, Note_on_c, 0, 69, 90
2, 86496, Note_on_c, 0, 69, 0
2, 86496, Note_on_c, 0, 72, 90
2, 86592, Note_on_c, 0, 72, 0
2, 86592, Note_on_c, 0, 64, 90
2, 86688, Note_on_c, 0, 64, 0
2, 86688, Note_on_c, 0, 67, 90
2, 86784, Note_on_c, 0, 67, 0
2, 86784, Note_on_c, 0, 66, 90
2, 86880, Note_on_c, 0, 66, 0
2, 86880, Note_on_c, 0, 69, 90
2, 86976, Note_on_c, 0, 69, 0
2, 86976, Note_on_c, 0, 66, 90
2, 87072, Note_on_c, 0, 66, 0
2, 87072, Note_on_c, 0, 69, 90
2, 87168, Note_on_c, 0, 69, 0
2, 87168, Note_on_c, 0, 62, 90
2, 87264, Note_on_c, 0, 62, 0
2, 87264, Note_on_c, 0, 65, 90
2, 87360, Note_on_c, 0, 65, 0
2, 87360, Note_on_c, 0, 57, 90
2, 87456, Note_on_c, 0, 57, 0
2, 87456, Note_on_c, 0, 60, 90
2, 87552, Note_on_c, 0, 60, 0
2, 87552, Note_on_c, 0, 58, 90
2, 87744, Note_on_c, 0, 58, 0
2, 87744, Note_on_c, 0, 67, 90
2, 87936, Note_on_c, 0, 67, 0
2, 87936, Note_on_c, 0, 57, 90
2, 88128, Note_on_c, 0, 57, 0
2, 88128, Note_on_c, 0, 66, 90
2, 88320, Note_on_c, 0, 66, 0
2, 88320, Note_on_c, 0, 67, 90
2, 88704, Note_on_c, 0, 67, 0
2, 89088, Note_on_c, 0, 55, 90
2, 89184, Note_on_c, 0, 55, 0
2, 89184, Note_on_c, 0, 58, 90
2, 89280, Note_on_c, 0, 58, 0
2, 89280, Note_on_c, 0, 57, 90
2, 89376, Note_on_c, 0, 57, 0
2, 89376, Note_on_c, 0, 55, 90
2, 89472, Note_on_c, 0, 55, 0
2, 89472, Note_on_c, 0, 62, 90
2, 89568, Note_on_c, 0, 62, 0
2, 89568, Note_on_c, 0, 57, 90
2, 89664, Note_on_c, 0, 57, 0
2, 89664, Note_on_c, 0, 50, 90
2, 89760, Note_on_c, 0, 50, 0
2, 89760, Note_on_c, 0, 60, 90
2, 89856, Note_on_c, 0, 60, 0
2, 89856, Note_on_c, 0, 58, 90
2, 89952, Note_on_c, 0, 58, 0
2, 89952, Note_on_c, 0, 62, 90
2, 90048, Note_on_c, 0, 62, 0
2, 90048, Note_on_c, 0, 60, 90
2, 90144, Note_on_c, 0, 60, 0
2, 90144, Note_on_c, 0, 58, 90
2, 90240, Note_on_c, 0, 58, 0
2, 90240, Note_on_c, 0, 65, 90
2, 90336, Note_on_c, 0, 65, 0
2, 90336, Note_on_c, 0, 60, 90
2, 90432, Note_on_c, 0, 60, 0
2, 90432, Note_on_c, 0, 53, 90
2, 90528, Note_on_c, 0, 53, 0
2, 90528, Note_on_c, 0, 63, 90
2, 90624, Note_on_c, 0, 63, 0
2, 90624, Note_on_c, 0, 62, 90
2, 90720, Note_on_c, 0, 62, 0
2, 90720, Note_on_c, 0, 65, 90
2, 90816, Note_on_c, 0, 65, 0
2, 90816, Note_on_c, 0, 63, 90
2, 90912, Note_on_c, 0, 63, 0
2, 90912, Note_on_c, 0, 62, 90
2, 91008, Note_on_c, 0, 62, 0
2, 91008, Note_on_c, 0, 67, 90
2, 91104, Note_on_c, 0, 67, 0
2, 91104, Note_on_c, 0, 62, 90
2, 91200, Note_on_c, 0, 62, 0
2, 91200, Note_on_c, 0, 55, 90
2, 91296, Note_on_c, 0, 55, 0
2, 91296, Note_on_c, 0, 65, 90
2, 91392, Note_on_c, 0, 65, 0
2, 91392, Note_on_c, 0, 64, 90
2, 91488, Note_on_c, 0, 64, 0
2, 91488, Note_on_c, 0, 67, 90
2, 91584, Note_on_c, 0, 67, 0
2, 91584, Note_on_c, 0, 65, 90
2, 91680, Note_on_c, 0, 65, 0
2, 91680, Note_on_c, 0, 63, 90
2, 91776, Note_on_c, 0, 63, 0
2, 91776, Note_on_c, 0, 69, 90
2, 91872, Note_on_c, 0, 69, 0
2, 91872, Note_on_c, 0, 63, 90
2, 91968, Note_on_c, 0, 63, 0
2, 91968, Note_on_c, 0, 57, 90
2, 92064, Note_on_c, 0, 57, 0
2, 92064, Note_on_c, 0, 67, 90
2, 92160, Note_on_c, 0, 67, 0
2, 92160, Note_on_c, 0, 66, 90
2, 92544, Note_on_c, 0, 66, 0
2, 92544, Note_on_c, 0, 67, 90
2, 92736, Note_on_c, 0, 67, 0
2, 92736, Note_on_c, 0, 69, 90
2, 92928, Note_on_c, 0, 69, 0
2, 92928, Note_on_c, 0, 70, 90
2, 94080, Note_on_c, 0, 70, 0
2, 94080, Note_on_c, 0, 69, 90
2, 94848, Note_on_c, 0, 69, 0
2, 94848, Note_on_c, 0, 67, 90
2, 95616, Note_on_c, 0, 67, 0
2, 95616, Note_on_c, 0, 66, 90
2, 96000, Note_on_c, 0, 66, 0
2, 96000, Note_on_c, 0, 67, 90
2, 96384, Note_on_c, 0, 67, 0
2, 96960, Note_on_c, 0, 62, 90
2, 97152, Note_on_c, 0, 62, 0
2, 97152, Note_on_c, 0, 67, 90
2, 97344, Note_on_c, 0, 67, 0
2, 97344, Note_on_c, 0, 69, 90
2, 97536, Note_on_c, 0, 69, 0
2, 97536, Note_on_c, 0, 70, 90
2, 97632, Note_on_c, 0, 70, 0
2, 97632, Note_on_c, 0, 69, 90
2, 97728, Note_on_c, 0, 69, 0
2, 97728, Note_on_c, 0, 67, 90
2, 97824, Note_on_c, 0, 67, 0
2, 97824, Note_on_c, 0, 69, 90
2, 97920, Note_on_c, 0, 69, 0
2, 97920, Note_on_c, 0, 66, 90
2, 98016, Note_on_c, 0, 66, 0
2, 98016, Note_on_c, 0, 67, 90
2, 98112, Note_on_c, 0, 67, 0
2, 98112, Note_on_c, 0, 66, 90
2, 98208, Note_on_c, 0, 66, 0
2, 98208, Note_on_c, 0, 67, 90
2, 98304, Note_on_c, 0, 67, 0
2, 98304, Note_on_c, 0, 69, 90
2, 98400, Note_on_c, 0, 69, 0
2, 98400, Note_on_c, 0, 67, 90
2, 98496, Note_on_c, 0, 67, 0
2, 98496, Note_on_c, 0, 66, 90
2, 98592, Note_on_c, 0, 66, 0
2, 98592, Note_on_c, 0, 64, 90
2, 98688, Note_on_c, 0, 64, 0
2, 98688, Note_on_c, 0, 62, 90
2, 98784, Note_on_c, 0, 62, 0
2, 98784, Note_on_c, 0, 60, 90
2, 98880, Note_on_c, 0, 60, 0
2, 98880, Note_on_c, 0, 58, 90
2, 98976, Note_on_c, 0, 58, 0
2, 98976, Note_on_c, 0, 57, 90
2, 99072, Note_on_c, 0, 57, 0
2, 99072, Note_on_c, 0, 58, 90
2, 99168, Note_on_c, 0, 58, 0
2, 99168, Note_on_c, 0, 62, 90
2, 99264, Note_on_c, 0, 62, 0
2, 99264, Note_on_c, 0, 60, 90
2, 99360, Note_on_c, 0, 60, 0
2, 99360, Note_on_c, 0, 62, 90
2, 99456, Note_on_c, 0, 62, 0
2, 99456, Note_on_c, 0, 54, 90
2, 99552, Note_on_c, 0, 54, 0
2, 99552, Note_on_c, 0, 62, 90
2, 99648, Note_on_c, 0, 62, 0
2, 99648, Note_on_c, 0, 60, 90
2, 99744, Note_on_c, 0, 60, 0
2, 99744, Note_on_c, 0, 62, 90
2, 99840, Note_on_c, 0, 62, 0
2, 99840, Note_on_c, 0, 55, 90
2, 99936, Note_on_c, 0, 55, 0
2, 99936, Note_on_c, 0, 62, 90
2, 100032, Note_on_c, 0, 62, 0
2, 100032, Note_on_c, 0, 60, 90
2, 100128, Note_on_c, 0, 60, 0
2, 100128, Note_on_c, 0, 62, 90
2, 100224, Note_on_c, 0, 62, 0
2, 100224, Note_on_c, 0, 54, 90
2, 100320, Note_on_c, 0, 54, 0
2, 100320, Note_on_c, 0, 62, 90
2, 100416, Note_on_c, 0, 62, 0
2, 100416, Note_on_c, 0, 60, 90
2, 100512, Note_on_c, 0, 60, 0
2, 100512, Note_on_c, 0, 62, 90
2, 100608, Note_on_c, 0, 62, 0
2, 100608, Note_on_c, 0, 58, 90
2, 100704, Note_on_c, 0, 58, 0
2, 100704, Note_on_c, 0, 55, 90
2, 100800, Note_on_c, 0, 55, 0
2, 100800, Note_on_c, 0, 54, 90
2, 100896, Note_on_c, 0, 54, 0
2, 100896, Note_on_c, 0, 55, 90
2, 100992, Note_on_c, 0, 55, 0
2, 100992, Note_on_c, 0, 60, 90
2, 101088, Note_on_c, 0, 60, 0
2, 101088, Note_on_c, 0, 55, 90
2, 101184, Note_on_c, 0, 55, 0
2, 101184, Note_on_c, 0, 54, 90
2, 101280, Note_on_c, 0, 54, 0
2, 101280, Note_on_c, 0, 55, 90
2, 101376, Note_on_c, 0, 55, 0
2, 101376, Note_on_c, 0, 62, 90
2, 101472, Note_on_c, 0, 62, 0
2, 101472, Note_on_c, 0, 55, 90
2, 101568, Note_on_c, 0, 55, 0
2, 101568, Note_on_c, 0, 54, 90
2, 101664, Note_on_c, 0, 54, 0
2, 101664, Note_on_c, 0, 55, 90
2, 101760, Note_on_c, 0, 55, 0
2, 101760, Note_on_c, 0, 60, 90
2, 101856, Note_on_c, 0, 60, 0
2, 101856, Note_on_c, 0, 55, 90
2, 101952, Note_on_c, 0, 55, 0
2, 101952, Note_on_c, 0, 54, 90
2, 102048, Note_on_c, 0, 54, 0
2, 102048, Note_on_c, 0, 55, 90
2, 102144, Note_on_c, 0, 55, 0
2, 102144, Note_on_c, 0, 58, 90
2, 102336, Note_on_c, 0, 58, 0
2, 102336, Note_on_c, 0, 67, 90
2, 102528, Note_on_c, 0, 67, 0
2, 102528, Note_on_c, 0, 57, 90
2, 102720, Note_on_c, 0, 57, 0
2, 102720, Note_on_c, 0, 66, 90
2, 102912, Note_on_c, 0, 66, 0
2, 102912, Note_on_c, 0, 67, 90
2, 104448, Note_on_c, 0, 67, 0
2, 104448, End_track
3, 0, Start_track
3, 0, Program_c, 1, 65
3, 0, Program_c, 1, 65
3, 0, Key_signature, -2, "minor"
3, 0, Instrument_name_t, "alto sax"
3, 0, Control_c, 1, 7, 100
3, 7680, Note_on_c, 1, 62, 90
3, 8064, Note_on_c, 1, 62, 0
3, 8064, Note_on_c, 1, 69, 90
3, 8448, Note_on_c, 1, 69, 0
3, 8448, Note_on_c, 1, 65, 90
3, 9024, Note_on_c, 1, 65, 0
3, 9024, Note_on_c, 1, 64, 90
3, 9216, Note_on_c, 1, 64, 0
3, 9216, Note_on_c, 1, 62, 90
3, 9408, Note_on_c, 1, 62, 0
3, 9408, Note_on_c, 1, 65, 90
3, 9600, Note_on_c, 1, 65, 0
3, 9600, Note_on_c, 1, 64, 90
3, 9792, Note_on_c, 1, 64, 0
3, 9792, Note_on_c, 1, 62, 90
3, 9984, Note_on_c, 1, 62, 0
3, 9984, Note_on_c, 1, 61, 90
3, 10176, Note_on_c, 1, 61, 0
3, 10176, Note_on_c, 1, 64, 90
3, 10368, Note_on_c, 1, 64, 0
3, 10368, Note_on_c, 1, 57, 90
3, 10752, Note_on_c, 1, 57, 0
3, 10752, Note_on_c, 1, 62, 90
3, 10944, Note_on_c, 1, 62, 0
3, 10944, Note_on_c, 1, 57, 90
3, 11136, Note_on_c, 1, 57, 0
3, 11136, Note_on_c, 1, 64, 90
3, 11328, Note_on_c, 1, 64, 0
3, 11328, Note_on_c, 1, 57, 90
3, 11520, Note_on_c, 1, 57, 0
3, 11520, Note_on_c, 1, 65, 90
3, 11712, Note_on_c, 1, 65, 0
3, 11712, Note_on_c, 1, 64, 90
3, 11808, Note_on_c, 1, 64, 0
3, 11808, Note_on_c, 1, 62, 90
3, 11904, Note_on_c, 1, 62, 0
3, 11904, Note_on_c, 1, 64, 90
3, 12096, Note_on_c, 1, 64, 0
3, 12096, Note_on_c, 1, 57, 90
3, 12288, Note_on_c, 1, 57, 0
3, 12288, Note_on_c, 1, 62, 90
3, 12480, Note_on_c, 1, 62, 0
3, 12480, Note_on_c, 1, 57, 90
3, 12576, Note_on_c, 1, 57, 0
3, 12576, Note_on_c, 1, 62, 90
3, 12672, Note_on_c, 1, 62, 0
3, 12672, Note_on_c, 1, 64, 90
3, 12864, Note_on_c, 1, 64, 0
3, 12864, Note_on_c, 1, 57, 90
3, 12960, Note_on_c, 1, 57, 0
3, 12960, Note_on_c, 1, 64, 90
3, 13056, Note_on_c, 1, 64, 0
3, 13056, Note_on_c, 1, 65, 90
3, 13248, Note_on_c, 1, 65, 0
3, 13248, Note_on_c, 1, 64, 90
3, 13344, Note_on_c, 1, 64, 0
3, 13344, Note_on_c, 1, 62, 90
3, 13440, Note_on_c, 1, 62, 0
3, 13440, Note_on_c, 1, 64, 90
3, 13536, Note_on_c, 1, 64, 0
3, 13536, Note_on_c, 1, 57, 90
3, 13632, Note_on_c, 1, 57, 0
3, 13632, Note_on_c, 1, 69, 90
3, 13728, Note_on_c, 1, 69, 0
3, 13728, Note_on_c, 1, 67, 90
3, 13824, Note_on_c, 1, 67, 0
3, 13824, Note_on_c, 1, 65, 90
3, 13920, Note_on_c, 1, 65, 0
3, 13920, Note_on_c, 1, 64, 90
3, 14016, Note_on_c, 1, 64, 0
3, 14016, Note_on_c, 1, 62, 90
3, 14112, Note_on_c, 1, 62, 0
3, 14112, Note_on_c, 1, 65, 90
3, 14208, Note_on_c, 1, 65, 0
3, 14208, Note_on_c, 1, 64, 90
3, 14304, Note_on_c, 1, 64, 0
3, 14304, Note_on_c, 1, 62, 90
3, 14400, Note_on_c, 1, 62, 0
3, 14400, Note_on_c, 1, 61, 90
3, 14496, Note_on_c, 1, 61, 0
3, 14496, Note_on_c, 1, 64, 90
3, 14592, Note_on_c, 1, 64, 0
3, 14592, Note_on_c, 1, 62, 90
3, 14688, Note_on_c, 1, 62, 0
3, 14688, Note_on_c, 1, 57, 90
3, 14784, Note_on_c, 1, 57, 0
3, 14784, Note_on_c, 1, 62, 90
3, 14880, Note_on_c, 1, 62, 0
3, 14880, Note_on_c, 1, 64, 90
3, 14976, Note_on_c, 1, 64, 0
3, 14976, Note_on_c, 1, 65, 90
3, 15072, Note_on_c, 1, 65, 0
3, 15072, Note_on_c, 1, 67, 90
3, 15168, Note_on_c, 1, 67, 0
3, 15168, Note_on_c, 1, 69, 90
3, 15264, Note_on_c, 1, 69, 0
3, 15264, Note_on_c, 1, 71, 90
3, 15360, Note_on_c, 1, 71, 0
3, 15360, Note_on_c, 1, 72, 90
3, 15456, Note_on_c, 1, 72, 0
3, 15456, Note_on_c, 1, 70, 90
3, 15552, Note_on_c, 1, 70, 0
3, 15552, Note_on_c, 1, 72, 90
3, 15648, Note_on_c, 1, 72, 0
3, 15648, Note_on_c, 1, 74, 90
3, 15744, Note_on_c, 1, 74, 0
3, 15744, Note_on_c, 1, 72, 90
3, 15840, Note_on_c, 1, 72, 0
3, 15840, Note_on_c, 1, 70, 90
3, 15936, Note_on_c, 1, 70, 0
3, 15936, Note_on_c, 1, 69, 90
3, 16032, Note_on_c, 1, 69, 0
3, 16032, Note_on_c, 1, 72, 90
3, 16128, Note_on_c, 1, 72, 0
3, 16128, Note_on_c, 1, 70, 90
3, 16224, Note_on_c, 1, 70, 0
3, 16224, Note_on_c, 1, 69, 90
3, 16320, Note_on_c, 1, 69, 0
3, 16320, Note_on_c, 1, 70, 90
3, 16416, Note_on_c, 1, 70, 0
3, 16416, Note_on_c, 1, 72, 90
3, 16512, Note_on_c, 1, 72, 0
3, 16512, Note_on_c, 1, 70, 90
3, 16608, Note_on_c, 1, 70, 0
3, 16608, Note_on_c, 1, 69, 90
3, 16704, Note_on_c, 1, 69, 0
3, 16704, Note_on_c, 1, 67, 90
3, 16800, Note_on_c, 1, 67, 0
3, 16800, Note_on_c, 1, 70, 90
3, 16896, Note_on_c, 1, 70, 0
3, 16896, Note_on_c, 1, 69, 90
3, 17088, Note_on_c, 1, 69, 0
3, 17088, Note_on_c, 1, 67, 90
3, 17280, Note_on_c, 1, 67, 0
3, 17280, Note_on_c, 1, 66, 90
3, 17472, Note_on_c, 1, 66, 0
3, 17472, Note_on_c, 1, 62, 90
3, 17664, Note_on_c, 1, 62, 0
3, 17664, Note_on_c, 1, 67, 90
3, 18048, Note_on_c, 1, 67, 0
3, 18624, Note_on_c, 1, 50, 90
3, 18816, Note_on_c, 1, 50, 0
3, 18816, Note_on_c, 1, 55, 90
3, 19008, Note_on_c, 1, 55, 0
3, 19008, Note_on_c, 1, 57, 90
3, 19200, Note_on_c, 1, 57, 0
3, 19200, Note_on_c, 1, 58, 90
3, 19296, Note_on_c, 1, 58, 0
3, 19296, Note_on_c, 1, 60, 90
3, 19392, Note_on_c, 1, 60, 0
3, 19392, Note_on_c, 1, 58, 90
3, 19488, Note_on_c, 1, 58, 0
3, 19488, Note_on_c, 1, 60, 90
3, 19584, Note_on_c, 1, 60, 0
3, 19584, Note_on_c, 1, 60, 90
3, 19872, Note_on_c, 1, 60, 0
3, 19872, Note_on_c, 1, 58, 90
3, 19920, Note_on_c, 1, 58, 0
3, 19920, Note_on_c, 1, 60, 90
3, 19968, Note_on_c, 1, 60, 0
3, 19968, Note_on_c, 1, 62, 90
3, 20064, Note_on_c, 1, 62, 0
3, 20064, Note_on_c, 1, 60, 90
3, 20160, Note_on_c, 1, 60, 0
3, 20160, Note_on_c, 1, 62, 90
3, 20256, Note_on_c, 1, 62, 0
3, 20256, Note_on_c, 1, 63, 90
3, 20352, Note_on_c, 1, 63, 0
3, 20352, Note_on_c, 1, 62, 90
3, 20448, Note_on_c, 1, 62, 0
3, 20448, Note_on_c, 1, 60, 90
3, 20544, Note_on_c, 1, 60, 0
3, 20544, Note_on_c, 1, 58, 90
3, 20640, Note_on_c, 1, 58, 0
3, 20640, Note_on_c, 1, 57, 90
3, 20736, Note_on_c, 1, 57, 0
3, 20736, Note_on_c, 1, 58, 90
3, 20832, Note_on_c, 1, 58, 0
3, 20832, Note_on_c, 1, 62, 90
3, 20928, Note_on_c, 1, 62, 0
3, 20928, Note_on_c, 1, 60, 90
3, 21024, Note_on_c, 1, 60, 0
3, 21024, Note_on_c, 1, 62, 90
3, 21120, Note_on_c, 1, 62, 0
3, 21120, Note_on_c, 1, 54, 90
3, 21216, Note_on_c, 1, 54, 0
3, 21216, Note_on_c, 1, 62, 90
3, 21312, Note_on_c, 1, 62, 0
3, 21312, Note_on_c, 1, 60, 90
3, 21408, Note_on_c, 1, 60, 0
3, 21408, Note_on_c, 1, 62, 90
3, 21504, Note_on_c, 1, 62, 0
3, 21504, Note_on_c, 1, 55, 90
3, 21600, Note_on_c, 1, 55, 0
3, 21600, Note_on_c, 1, 62, 90
3, 21696, Note_on_c, 1, 62, 0
3, 21696, Note_on_c, 1, 60, 90
3, 21792, Note_on_c, 1, 60, 0
3, 21792, Note_on_c, 1, 62, 90
3, 21888, Note_on_c, 1, 62, 0
3, 21888, Note_on_c, 1, 54, 90
3, 21984, Note_on_c, 1, 54, 0
3, 21984, Note_on_c, 1, 62, 90
3, 22080, Note_on_c, 1, 62, 0
3, 22080, Note_on_c, 1, 60, 90
3, 22176, Note_on_c, 1, 60, 0
3, 22176, Note_on_c, 1, 62, 90
3, 22272, Note_on_c, 1, 62, 0
3, 22368, Note_on_c, 1, 67, 90
3, 22464, Note_on_c, 1, 67, 0
3, 22464, Note_on_c, 1, 66, 90
3, 22560, Note_on_c, 1, 66, 0
3, 22560, Note_on_c, 1, 67, 90
3, 22656, Note_on_c, 1, 67, 0
3, 22752, Note_on_c, 1, 67, 90
3, 22848, Note_on_c, 1, 67, 0
3, 22848, Note_on_c, 1, 66, 90
3, 22944, Note_on_c, 1, 66, 0
3, 22944, Note_on_c, 1, 67, 90
3, 23040, Note_on_c, 1, 67, 0
3, 23136, Note_on_c, 1, 67, 90
3, 23232, Note_on_c, 1, 67, 0
3, 23232, Note_on_c, 1, 66, 90
3, 23328, Note_on_c, 1, 66, 0
3, 23328, Note_on_c, 1, 67, 90
3, 23424, Note_on_c, 1, 67, 0
3, 23520, Note_on_c, 1, 67, 90
3, 23616, Note_on_c, 1, 67, 0
3, 23616, Note_on_c, 1, 66, 90
3, 23712, Note_on_c, 1, 66, 0
3, 23712, Note_on_c, 1, 67, 90
3, 23808, Note_on_c, 1, 67, 0
3, 23808, Note_on_c, 1, 62, 90
3, 24192, Note_on_c, 1, 62, 0
3, 24192, Note_on_c, 1, 60, 90
3, 24576, Note_on_c, 1, 60, 0
3, 24576, Note_on_c, 1, 58, 90
3, 24960, Note_on_c, 1, 58, 0
3, 32448, Note_on_c, 1, 57, 90
3, 32640, Note_on_c, 1, 57, 0
3, 32640, Note_on_c, 1, 62, 90
3, 32832, Note_on_c, 1, 62, 0
3, 32832, Note_on_c, 1, 60, 90
3, 33024, Note_on_c, 1, 60, 0
3, 33024, Note_on_c, 1, 58, 90
3, 33984, Note_on_c, 1, 58, 0
3, 33984, Note_on_c, 1, 55, 90
3, 34176, Note_on_c, 1, 55, 0
3, 34176, Note_on_c, 1, 60, 90
3, 34368, Note_on_c, 1, 60, 0
3, 34368, Note_on_c, 1, 58, 90
3, 34560, Note_on_c, 1, 58, 0
3, 34560, Note_on_c, 1, 57, 90
3, 35712, Note_on_c, 1, 57, 0
3, 35712, Note_on_c, 1, 55, 90
3, 36480, Note_on_c, 1, 55, 0
3, 36480, Note_on_c, 1, 54, 90
3, 36864, Note_on_c, 1, 54, 0
3, 36864, Note_on_c, 1, 55, 90
3, 37056, Note_on_c, 1, 55, 0
3, 49152, Note_on_c, 1, 58, 90
3, 49536, Note_on_c, 1, 58, 0
3, 49536, Note_on_c, 1, 65, 90
3, 49920, Note_on_c, 1, 65, 0
3, 49920, Note_on_c, 1, 62, 90
3, 50496, Note_on_c, 1, 62, 0
3, 50496, Note_on_c, 1, 60, 90
3, 50688, Note_on_c, 1, 60, 0
3, 50688, Note_on_c, 1, 58, 90
3, 50880, Note_on_c, 1, 58, 0
3, 50880, Note_on_c, 1, 62, 90
3, 51072, Note_on_c, 1, 62, 0
3, 51072, Note_on_c, 1, 60, 90
3, 51264, Note_on_c, 1, 60, 0
3, 51264, Note_on_c, 1, 58, 90
3, 51456, Note_on_c, 1, 58, 0
3, 51456, Note_on_c, 1, 57, 90
3, 51648, Note_on_c, 1, 57, 0
3, 51648, Note_on_c, 1, 60, 90
3, 51840, Note_on_c, 1, 60, 0
3, 52032, Note_on_c, 1, 65, 90
3, 52224, Note_on_c, 1, 65, 0
3, 52224, Note_on_c, 1, 65, 90
3, 56064, Note_on_c, 1, 65, 0
3, 68544, Note_on_c, 1, 65, 90
3, 68736, Note_on_c, 1, 65, 0
3, 68736, Note_on_c, 1, 70, 90
3, 68928, Note_on_c, 1, 70, 0
3, 68928, Note_on_c, 1, 69, 90
3, 69120, Note_on_c, 1, 69, 0
3, 69120, Note_on_c, 1, 67, 90
3, 70080, Note_on_c, 1, 67, 0
3, 70080, Note_on_c, 1, 60, 90
3, 70272, Note_on_c, 1, 60, 0
3, 70272, Note_on_c, 1, 69, 90
3, 70464, Note_on_c, 1, 69, 0
3, 70464, Note_on_c, 1, 67, 90
3, 70656, Note_on_c, 1, 67, 0
3, 70656, Note_on_c, 1, 65, 90
3, 71616, Note_on_c, 1, 65, 0
3, 71616, Note_on_c, 1, 58, 90
3, 71808, Note_on_c, 1, 58, 0
3, 71808, Note_on_c, 1, 67, 90
3, 72000, Note_on_c, 1, 67, 0
3, 72000, Note_on_c, 1, 65, 90
3, 72192, Note_on_c, 1, 65, 0
3, 72192, Note_on_c, 1, 63, 90
3, 73056, Note_on_c, 1, 63, 0
3, 73056, Note_on_c, 1, 63, 90
3, 73152, Note_on_c, 1, 63, 0
3, 73152, Note_on_c, 1, 62, 90
3, 73248, Note_on_c, 1, 62, 0
3, 73248, Note_on_c, 1, 60, 90
3, 73344, Note_on_c, 1, 60, 0
3, 73344, Note_on_c, 1, 59, 90
3, 73728, Note_on_c, 1, 59, 0
3, 73728, Note_on_c, 1, 60, 90
3, 74112, Note_on_c, 1, 60, 0
3, 74688, Note_on_c, 1, 72, 90
3, 74880, Note_on_c, 1, 72, 0
3, 74880, Note_on_c, 1, 68, 90
3, 75072, Note_on_c, 1, 68, 0
3, 75072, Note_on_c, 1, 65, 90
3, 75744, Note_on_c, 1, 65, 0
3, 75744, Note_on_c, 1, 65, 90
3, 75840, Note_on_c, 1, 65, 0
3, 75840, Note_on_c, 1, 63, 90
3, 75936, Note_on_c, 1, 63, 0
3, 75936, Note_on_c, 1, 62, 90
3, 76032, Note_on_c, 1, 62, 0
3, 76032, Note_on_c, 1, 63, 90
3, 76128, Note_on_c, 1, 63, 0
3, 76128, Note_on_c, 1, 62, 90
3, 76224, Note_on_c, 1, 62, 0
3, 76224, Note_on_c, 1, 60, 90
3, 76320, Note_on_c, 1, 60, 0
3, 76320, Note_on_c, 1, 63, 90
3, 76416, Note_on_c, 1, 63, 0
3, 76416, Note_on_c, 1, 62, 90
3, 76512, Note_on_c, 1, 62, 0
3, 76512, Note_on_c, 1, 60, 90
3, 76608, Note_on_c, 1, 60, 0
3, 76608, Note_on_c, 1, 59, 90
3, 76704, Note_on_c, 1, 59, 0
3, 76704, Note_on_c, 1, 62, 90
3, 76800, Note_on_c, 1, 62, 0
3, 76800, Note_on_c, 1, 60, 90
3, 76896, Note_on_c, 1, 60, 0
3, 76896, Note_on_c, 1, 55, 90
3, 76992, Note_on_c, 1, 55, 0
3, 76992, Note_on_c, 1, 60, 90
3, 77088, Note_on_c, 1, 60, 0
3, 77088, Note_on_c, 1, 62, 90
3, 77184, Note_on_c, 1, 62, 0
3, 77184, Note_on_c, 1, 63, 90
3, 77280, Note_on_c, 1, 63, 0
3, 77280, Note_on_c, 1, 65, 90
3, 77376, Note_on_c, 1, 65, 0
3, 77376, Note_on_c, 1, 63, 90
3, 77472, Note_on_c, 1, 63, 0
3, 77472, Note_on_c, 1, 65, 90
3, 77568, Note_on_c, 1, 65, 0
3, 77568, Note_on_c, 1, 67, 90
3, 77664, Note_on_c, 1, 67, 0
3, 77664, Note_on_c, 1, 63, 90
3, 77760, Note_on_c, 1, 63, 0
3, 77760, Note_on_c, 1, 60, 90
3, 77856, Note_on_c, 1, 60, 0
3, 77856, Note_on_c, 1, 63, 90
3, 77952, Note_on_c, 1, 63, 0
3, 77952, Note_on_c, 1, 68, 90
3, 78048, Note_on_c, 1, 68, 0
3, 78048, Note_on_c, 1, 65, 90
3, 78144, Note_on_c, 1, 65, 0
3, 78144, Note_on_c, 1, 67, 90
3, 78240, Note_on_c, 1, 67, 0
3, 78240, Note_on_c, 1, 68, 90
3, 78336, Note_on_c, 1, 68, 0
3, 78336, Note_on_c, 1, 62, 90
3, 78432, Note_on_c, 1, 62, 0
3, 78432, Note_on_c, 1, 63, 90
3, 78528, Note_on_c, 1, 63, 0
3, 78528, Note_on_c, 1, 62, 90
3, 78624, Note_on_c, 1, 62, 0
3, 78624, Note_on_c, 1, 60, 90
3, 78720, Note_on_c, 1, 60, 0
3, 78720, Note_on_c, 1, 59, 90
3, 78912, Note_on_c, 1, 59, 0
3, 78912, Note_on_c, 1, 62, 90
3, 79104, Note_on_c, 1, 62, 0
3, 79104, Note_on_c, 1, 67, 90
3, 82368, Note_on_c, 1, 67, 0
3, 82368, Note_on_c, 1, 79, 90
3, 82560, Note_on_c, 1, 79, 0
3, 82560, Note_on_c, 1, 77, 90
3, 82656, Note_on_c, 1, 77, 0
3, 82656, Note_on_c, 1, 75, 90
3, 82752, Note_on_c, 1, 75, 0
3, 82752, Note_on_c, 1, 74, 90
3, 82848, Note_on_c, 1, 74, 0
3, 82848, Note_on_c, 1, 77, 90
3, 82944, Note_on_c, 1, 77, 0
3, 82944, Note_on_c, 1, 75, 90
3, 83328, Note_on_c, 1, 75, 0
3, 83904, Note_on_c, 1, 72, 90
3, 84096, Note_on_c, 1, 72, 0
3, 84096, Note_on_c, 1, 69, 90
3, 84288, Note_on_c, 1, 69, 0
3, 84288, Note_on_c, 1, 65, 90
3, 84480, Note_on_c, 1, 65, 0
3, 84480, Note_on_c, 1, 70, 90
3, 85440, Note_on_c, 1, 70, 0
3, 85440, Note_on_c, 1, 70, 90
3, 85632, Note_on_c, 1, 70, 0
3, 85632, Note_on_c, 1, 67, 90
3, 85824, Note_on_c, 1, 67, 0
3, 85824, Note_on_c, 1, 63, 90
3, 86016, Note_on_c, 1, 63, 0
3, 86016, Note_on_c, 1, 72, 90
3, 86976, Note_on_c, 1, 72, 0
3, 86976, Note_on_c, 1, 72, 90
3, 87168, Note_on_c, 1, 72, 0
3, 87168, Note_on_c, 1, 66, 90
3, 87360, Note_on_c, 1, 66, 0
3, 87360, Note_on_c, 1, 62, 90
3, 87552, Note_on_c, 1, 62, 0
3, 87552, Note_on_c, 1, 67, 90
3, 87936, Note_on_c, 1, 67, 0
3, 88320, Note_on_c, 1, 55, 90
3, 88416, Note_on_c, 1, 55, 0
3, 88416, Note_on_c, 1, 58, 90
3, 88512, Note_on_c, 1, 58, 0
3, 88512, Note_on_c, 1, 57, 90
3, 88608, Note_on_c, 1, 57, 0
3, 88608, Note_on_c, 1, 55, 90
3, 88704, Note_on_c, 1, 55, 0
3, 88704, Note_on_c, 1, 62, 90
3, 88800, Note_on_c, 1, 62, 0
3, 88800, Note_on_c, 1, 57, 90
3, 88896, Note_on_c, 1, 57, 0
3, 88896, Note_on_c, 1, 50, 90
3, 88992, Note_on_c, 1, 50, 0
3, 88992, Note_on_c, 1, 60, 90
3, 89088, Note_on_c, 1, 60, 0
3, 89088, Note_on_c, 1, 58, 90
3, 89280, Note_on_c, 1, 58, 0
3, 89280, Note_on_c, 1, 62, 90
3, 89472, Note_on_c, 1, 62, 0
3, 89472, Note_on_c, 1, 57, 90
3, 89664, Note_on_c, 1, 57, 0
3, 89664, Note_on_c, 1, 62, 90
3, 90048, Note_on_c, 1, 62, 0
3, 90048, Note_on_c, 1, 67, 90
3, 90240, Note_on_c, 1, 67, 0
3, 90240, Note_on_c, 1, 60, 90
3, 90432, Note_on_c, 1, 60, 0
3, 90432, Note_on_c, 1, 65, 90
3, 90816, Note_on_c, 1, 65, 0
3, 90816, Note_on_c, 1, 65, 90
3, 91008, Note_on_c, 1, 65, 0
3, 91008, Note_on_c, 1, 62, 90
3, 91200, Note_on_c, 1, 62, 0
3, 91200, Note_on_c, 1, 67, 90
3, 91584, Note_on_c, 1, 67, 0
3, 91584, Note_on_c, 1, 67, 90
3, 91776, Note_on_c, 1, 67, 0
3, 91776, Note_on_c, 1, 63, 90
3, 91968, Note_on_c, 1, 63, 0
3, 91968, Note_on_c, 1, 69, 90
3, 92256, Note_on_c, 1, 69, 0
3, 92256, Note_on_c, 1, 75, 90
3, 92352, Note_on_c, 1, 75, 0
3, 92352, Note_on_c, 1, 74, 90
3, 92448, Note_on_c, 1, 74, 0
3, 92448, Note_on_c, 1, 72, 90
3, 92544, Note_on_c, 1, 72, 0
3, 92544, Note_on_c, 1, 70, 90
3, 92640, Note_on_c, 1, 70, 0
3, 92640, Note_on_c, 1, 74, 90
3, 92736, Note_on_c, 1, 74, 0
3, 92736, Note_on_c, 1, 69, 90
3, 92832, Note_on_c, 1, 69, 0
3, 92832, Note_on_c, 1, 74, 90
3, 92928, Note_on_c, 1, 74, 0
3, 92928, Note_on_c, 1, 67, 90
3, 93024, Note_on_c, 1, 67, 0
3, 93024, Note_on_c, 1, 80, 90
3, 93120, Note_on_c, 1, 80, 0
3, 93120, Note_on_c, 1, 79, 90
3, 93216, Note_on_c, 1, 79, 0
3, 93216, Note_on_c, 1, 77, 90
3, 93312, Note_on_c, 1, 77, 0
3, 93312, Note_on_c, 1, 79, 90
3, 93408, Note_on_c, 1, 79, 0
3, 93408, Note_on_c, 1, 77, 90
3, 93504, Note_on_c, 1, 77, 0
3, 93504, Note_on_c, 1, 75, 90
3, 93600, Note_on_c, 1, 75, 0
3, 93600, Note_on_c, 1, 74, 90
3, 93696, Note_on_c, 1, 74, 0
3, 93696, Note_on_c, 1, 75, 90
3, 94464, Note_on_c, 1, 75, 0
3, 94464, Note_on_c, 1, 74, 90
3, 95232, Note_on_c, 1, 74, 0
3, 95232, Note_on_c, 1, 72, 90
3, 96000, Note_on_c, 1, 72, 0
3, 96000, Note_on_c, 1, 70, 90
3, 96096, Note_on_c, 1, 70, 0
3, 96096, Note_on_c, 1, 74, 90
3, 96192, Note_on_c, 1, 74, 0
3, 96192, Note_on_c, 1, 72, 90
3, 96288, Note_on_c, 1, 72, 0
3, 96288, Note_on_c, 1, 70, 90
3, 96384, Note_on_c, 1, 70, 0
3, 96384, Note_on_c, 1, 69, 90
3, 96480, Note_on_c, 1, 69, 0
3, 96480, Note_on_c, 1, 70, 90
3, 96576, Note_on_c, 1, 70, 0
3, 96576, Note_on_c, 1, 67, 90
3, 96672, Note_on_c, 1, 67, 0
3, 96672, Note_on_c, 1, 69, 90
3, 96768, Note_on_c, 1, 69, 0
3, 96768, Note_on_c, 1, 70, 90
3, 96864, Note_on_c, 1, 70, 0
3, 96864, Note_on_c, 1, 72, 90
3, 96960, Note_on_c, 1, 72, 0
3, 96960, Note_on_c, 1, 70, 90
3, 97056, Note_on_c, 1, 70, 0
3, 97056, Note_on_c, 1, 72, 90
3, 97152, Note_on_c, 1, 72, 0
3, 97152, Note_on_c, 1, 74, 90
3, 97248, Note_on_c, 1, 74, 0
3, 97248, Note_on_c, 1, 75, 90
3, 97344, Note_on_c, 1, 75, 0
3, 97344, Note_on_c, 1, 74, 90
3, 97440, Note_on_c, 1, 74, 0
3, 97440, Note_on_c, 1, 72, 90
3, 97536, Note_on_c, 1, 72, 0
3, 97536, Note_on_c, 1, 70, 90
3, 97728, Note_on_c, 1, 70, 0
3, 97728, Note_on_c, 1, 74, 90
3, 97920, Note_on_c, 1, 74, 0
3, 97920, Note_on_c, 1, 72, 90
3, 98112, Note_on_c, 1, 72, 0
3, 98112, Note_on_c, 1, 70, 90
3, 98304, Note_on_c, 1, 70, 0
3, 98304, Note_on_c, 1, 69, 90
3, 98688, Note_on_c, 1, 69, 0
3, 98880, Note_on_c, 1, 62, 90
3, 99072, Note_on_c, 1, 62, 0
3, 99072, Note_on_c, 1, 62, 90
3, 102336, Note_on_c, 1, 62, 0
3, 102336, Note_on_c, 1, 63, 90
3, 102528, Note_on_c, 1, 63, 0
3, 102528, Note_on_c, 1, 63, 90
3, 102720, Note_on_c, 1, 63, 0
3, 102720, Note_on_c, 1, 62, 90
3, 102912, Note_on_c, 1, 62, 0
3, 102912, Note_on_c, 1, 62, 90
3, 104448, Note_on_c, 1, 62, 0
3, 104448, End_track
4, 0, Start_track
4, 0, Program_c, 2, 66
4, 0, Program_c, 2, 66
4, 0, Key_signature, -2, "minor"
4, 0, Instrument_name_t, "tenor sax"
4, 0, Control_c, 2, 7, 100
4, 17664, Note_on_c, 2, 55, 90
4, 18048, Note_on_c, 2, 55, 0
4, 18048, Note_on_c, 2, 62, 90
4, 18432, Note_on_c, 2, 62, 0
4, 18432, Note_on_c, 2, 58, 90
4, 19008, Note_on_c, 2, 58, 0
4, 19008, Note_on_c, 2, 57, 90
4, 19200, Note_on_c, 2, 57, 0
4, 19200, Note_on_c, 2, 55, 90
4, 19392, Note_on_c, 2, 55, 0
4, 19392, Note_on_c, 2, 58, 90
4, 19584, Note_on_c, 2, 58, 0
4, 19584, Note_on_c, 2, 57, 90
4, 19776, Note_on_c, 2, 57, 0
4, 19776, Note_on_c, 2, 55, 90
4, 19968, Note_on_c, 2, 55, 0
4, 19968, Note_on_c, 2, 54, 90
4, 20160, Note_on_c, 2, 54, 0
4, 20160, Note_on_c, 2, 57, 90
4, 20352, Note_on_c, 2, 57, 0
4, 20352, Note_on_c, 2, 50, 90
4, 20736, Note_on_c, 2, 50, 0
4, 20736, Note_on_c, 2, 55, 90
4, 20928, Note_on_c, 2, 55, 0
4, 20928, Note_on_c, 2, 50, 90
4, 21120, Note_on_c, 2, 50, 0
4, 21120, Note_on_c, 2, 57, 90
4, 21312, Note_on_c, 2, 57, 0
4, 21312, Note_on_c, 2, 50, 90
4, 21504, Note_on_c, 2, 50, 0
4, 21504, Note_on_c, 2, 58, 90
4, 21696, Note_on_c, 2, 58, 0
4, 21696, Note_on_c, 2, 57, 90
4, 21792, Note_on_c, 2, 57, 0
4, 21792, Note_on_c, 2, 55, 90
4, 21888, Note_on_c, 2, 55, 0
4, 21888, Note_on_c, 2, 57, 90
4, 22080, Note_on_c, 2, 57, 0
4, 22080, Note_on_c, 2, 50, 90
4, 22272, Note_on_c, 2, 50, 0
4, 22272, Note_on_c, 2, 55, 90
4, 22464, Note_on_c, 2, 55, 0
4, 22464, Note_on_c, 2, 50, 90
4, 22560, Note_on_c, 2, 50, 0
4, 22560, Note_on_c, 2, 55, 90
4, 22656, Note_on_c, 2, 55, 0
4, 22656, Note_on_c, 2, 57, 90
4, 22848, Note_on_c, 2, 57, 0
4, 22848, Note_on_c, 2, 50, 90
4, 22944, Note_on_c, 2, 50, 0
4, 22944, Note_on_c, 2, 57, 90
4, 23040, Note_on_c, 2, 57, 0
4, 23040, Note_on_c, 2, 58, 90
4, 23232, Note_on_c, 2, 58, 0
4, 23232, Note_on_c, 2, 57, 90
4, 23328, Note_on_c, 2, 57, 0
4, 23328, Note_on_c, 2, 55, 90
4, 23424, Note_on_c, 2, 55, 0
4, 23424, Note_on_c, 2, 57, 90
4, 23520, Note_on_c, 2, 57, 0
4, 23520, Note_on_c, 2, 50, 90
4, 23616, Note_on_c, 2, 50, 0
4, 23616, Note_on_c, 2, 62, 90
4, 23712, Note_on_c, 2, 62, 0
4, 23712, Note_on_c, 2, 60, 90
4, 23808, Note_on_c, 2, 60, 0
4, 23808, Note_on_c, 2, 58, 90
4, 23904, Note_on_c, 2, 58, 0
4, 23904, Note_on_c, 2, 57, 90
4, 24000, Note_on_c, 2, 57, 0
4, 24000, Note_on_c, 2, 55, 90
4, 24096, Note_on_c, 2, 55, 0
4, 24096, Note_on_c, 2, 58, 90
4, 24192, Note_on_c, 2, 58, 0
4, 24192, Note_on_c, 2, 57, 90
4, 24288, Note_on_c, 2, 57, 0
4, 24288, Note_on_c, 2, 55, 90
4, 24384, Note_on_c, 2, 55, 0
4, 24384, Note_on_c, 2, 54, 90
4, 24480, Note_on_c, 2, 54, 0
4, 24480, Note_on_c, 2, 57, 90
4, 24576, Note_on_c, 2, 57, 0
4, 24576, Note_on_c, 2, 55, 90
4, 24672, Note_on_c, 2, 55, 0
4, 24672, Note_on_c, 2, 50, 90
4, 24768, Note_on_c, 2, 50, 0
4, 24768, Note_on_c, 2, 55, 90
4, 24864, Note_on_c, 2, 55, 0
4, 24864, Note_on_c, 2, 57, 90
4, 24960, Note_on_c, 2, 57, 0
4, 24960, Note_on_c, 2, 58, 90
4, 25056, Note_on_c, 2, 58, 0
4, 25056, Note_on_c, 2, 60, 90
4, 25152, Note_on_c, 2, 60, 0
4, 25152, Note_on_c, 2, 62, 90
4, 25248, Note_on_c, 2, 62, 0
4, 25248, Note_on_c, 2, 64, 90
4, 25344, Note_on_c, 2, 64, 0
4, 25344, Note_on_c, 2, 65, 90
4, 25440, Note_on_c, 2, 65, 0
4, 25440, Note_on_c, 2, 64, 90
4, 25536, Note_on_c, 2, 64, 0
4, 25536, Note_on_c, 2, 62, 90
4, 25632, Note_on_c, 2, 62, 0
4, 25632, Note_on_c, 2, 65, 90
4, 25728, Note_on_c, 2, 65, 0
4, 25728, Note_on_c, 2, 64, 90
4, 25824, Note_on_c, 2, 64, 0
4, 25824, Note_on_c, 2, 62, 90
4, 25920, Note_on_c, 2, 62, 0
4, 25920, Note_on_c, 2, 61, 90
4, 26016, Note_on_c, 2, 61, 0
4, 26016, Note_on_c, 2, 64, 90
4, 26112, Note_on_c, 2, 64, 0
4, 26112, Note_on_c, 2, 62, 90
4, 26304, Note_on_c, 2, 62, 0
4, 26304, Note_on_c, 2, 57, 90
4, 26496, Note_on_c, 2, 57, 0
4, 26496, Note_on_c, 2, 62, 90
4, 26688, Note_on_c, 2, 62, 0
4, 26688, Note_on_c, 2, 64, 90
4, 26880, Note_on_c, 2, 64, 0
4, 26880, Note_on_c, 2, 65, 90
4, 26976, Note_on_c, 2, 65, 0
4, 26976, Note_on_c, 2, 67, 90
4, 27072, Note_on_c, 2, 67, 0
4, 27072, Note_on_c, 2, 65, 90
4, 27168, Note_on_c, 2, 65, 0
4, 27168, Note_on_c, 2, 67, 90
4, 27264, Note_on_c, 2, 67, 0
4, 27264, Note_on_c, 2, 67, 90
4, 27552, Note_on_c, 2, 67, 0
4, 27552, Note_on_c, 2, 65, 90
4, 27600, Note_on_c, 2, 65, 0
4, 27600, Note_on_c, 2, 67, 90
4, 27648, Note_on_c, 2, 67, 0
4, 27648, Note_on_c, 2, 69, 90
4, 27744, Note_on_c, 2, 69, 0
4, 27744, Note_on_c, 2, 67, 90
4, 27840, Note_on_c, 2, 67, 0
4, 27840, Note_on_c, 2, 69, 90
4, 27936, Note_on_c, 2, 69, 0
4, 27936, Note_on_c, 2, 70, 90
4, 28032, Note_on_c, 2, 70, 0
4, 28032, Note_on_c, 2, 69, 90
4, 28128, Note_on_c, 2, 69, 0
4, 28128, Note_on_c, 2, 67, 90
4, 28224, Note_on_c, 2, 67, 0
4, 28224, Note_on_c, 2, 65, 90
4, 28320, Note_on_c, 2, 65, 0
4, 28320, Note_on_c, 2, 64, 90
4, 28416, Note_on_c, 2, 64, 0
4, 28416, Note_on_c, 2, 65, 90
4, 28512, Note_on_c, 2, 65, 0
4, 28512, Note_on_c, 2, 69, 90
4, 28608, Note_on_c, 2, 69, 0
4, 28608, Note_on_c, 2, 67, 90
4, 28704, Note_on_c, 2, 67, 0
4, 28704, Note_on_c, 2, 69, 90
4, 28800, Note_on_c, 2, 69, 0
4, 28800, Note_on_c, 2, 61, 90
4, 28896, Note_on_c, 2, 61, 0
4, 28896, Note_on_c, 2, 69, 90
4, 28992, Note_on_c, 2, 69, 0
4, 28992, Note_on_c, 2, 67, 90
4, 29088, Note_on_c, 2, 67, 0
4, 29088, Note_on_c, 2, 69, 90
4, 29184, Note_on_c, 2, 69, 0
4, 29184, Note_on_c, 2, 62, 90
4, 29280, Note_on_c, 2, 62, 0
4, 29280, Note_on_c, 2, 69, 90
4, 29376, Note_on_c, 2, 69, 0
4, 29376, Note_on_c, 2, 67, 90
4, 29472, Note_on_c, 2, 67, 0
4, 29472, Note_on_c, 2, 69, 90
4, 29568, Note_on_c, 2, 69, 0
4, 29568, Note_on_c, 2, 61, 90
4, 29664, Note_on_c, 2, 61, 0
4, 29664, Note_on_c, 2, 69, 90
4, 29760, Note_on_c, 2, 69, 0
4, 29760, Note_on_c, 2, 67, 90
4, 29856, Note_on_c, 2, 67, 0
4, 29856, Note_on_c, 2, 69, 90
4, 29952, Note_on_c, 2, 69, 0
4, 29952, Note_on_c, 2, 65, 90
4, 30048, Note_on_c, 2, 65, 0
4, 30048, Note_on_c, 2, 62, 90
4, 30144, Note_on_c, 2, 62, 0
4, 30144, Note_on_c, 2, 61, 90
4, 30240, Note_on_c, 2, 61, 0
4, 30240, Note_on_c, 2, 62, 90
4, 30336, Note_on_c, 2, 62, 0
4, 30336, Note_on_c, 2, 67, 90
4, 30432, Note_on_c, 2, 67, 0
4, 30432, Note_on_c, 2, 62, 90
4, 30528, Note_on_c, 2, 62, 0
4, 30528, Note_on_c, 2, 61, 90
4, 30624, Note_on_c, 2, 61, 0
4, 30624, Note_on_c, 2, 62, 90
4, 30720, Note_on_c, 2, 62, 0
4, 30720, Note_on_c, 2, 69, 90
4, 30816, Note_on_c, 2, 69, 0
4, 30816, Note_on_c, 2, 62, 90
4, 30912, Note_on_c, 2, 62, 0
4, 30912, Note_on_c, 2, 61, 90
4, 31008, Note_on_c, 2, 61, 0
4, 31008, Note_on_c, 2, 62, 90
4, 31104, Note_on_c, 2, 62, 0
4, 31104, Note_on_c, 2, 67, 90
4, 31200, Note_on_c, 2, 67, 0
4, 31200, Note_on_c, 2, 62, 90
4, 31296, Note_on_c, 2, 62, 0
4, 31296, Note_on_c, 2, 61, 90
4, 31392, Note_on_c, 2, 61, 0
4, 31392, Note_on_c, 2, 62, 90
4, 31488, Note_on_c, 2, 62, 0
4, 31488, Note_on_c, 2, 65, 90
4, 31680, Note_on_c, 2, 65, 0
4, 31680, Note_on_c, 2, 64, 90
4, 31776, Note_on_c, 2, 64, 0
4, 31776, Note_on_c, 2, 62, 90
4, 31872, Note_on_c, 2, 62, 0
4, 31872, Note_on_c, 2, 61, 90
4, 32160, Note_on_c, 2, 61, 0
4, 32160, Note_on_c, 2, 62, 90
4, 32256, Note_on_c, 2, 62, 0
4, 32256, Note_on_c, 2, 62, 90
4, 32352, Note_on_c, 2, 62, 0
4, 32352, Note_on_c, 2, 60, 90
4, 32448, Note_on_c, 2, 60, 0
4, 32448, Note_on_c, 2, 62, 90
4, 32544, Note_on_c, 2, 62, 0
4, 32544, Note_on_c, 2, 64, 90
4, 32640, Note_on_c, 2, 64, 0
4, 32640, Note_on_c, 2, 62, 90
4, 32736, Note_on_c, 2, 62, 0
4, 32736, Note_on_c, 2, 60, 90
4, 32832, Note_on_c, 2, 60, 0
4, 32832, Note_on_c, 2, 58, 90
4, 32928, Note_on_c, 2, 58, 0
4, 32928, Note_on_c, 2, 57, 90
4, 33024, Note_on_c, 2, 57, 0
4, 33024, Note_on_c, 2, 55, 90
4, 33120, Note_on_c, 2, 55, 0
4, 33120, Note_on_c, 2, 53, 90
4, 33216, Note_on_c, 2, 53, 0
4, 33216, Note_on_c, 2, 55, 90
4, 33312, Note_on_c, 2, 55, 0
4, 33312, Note_on_c, 2, 57, 90
4, 33408, Note_on_c, 2, 57, 0
4, 33408, Note_on_c, 2, 55, 90
4, 33504, Note_on_c, 2, 55, 0
4, 33504, Note_on_c, 2, 53, 90
4, 33600, Note_on_c, 2, 53, 0
4, 33600, Note_on_c, 2, 51, 90
4, 33696, Note_on_c, 2, 51, 0
4, 33696, Note_on_c, 2, 50, 90
4, 33792, Note_on_c, 2, 50, 0
4, 33792, Note_on_c, 2, 48, 90
4, 33888, Note_on_c, 2, 48, 0
4, 33888, Note_on_c, 2, 46, 90
4, 33984, Note_on_c, 2, 46, 0
4, 33984, Note_on_c, 2, 48, 90
4, 34080, Note_on_c, 2, 48, 0
4, 34080, Note_on_c, 2, 62, 90
4, 34176, Note_on_c, 2, 62, 0
4, 34176, Note_on_c, 2, 60, 90
4, 34272, Note_on_c, 2, 60, 0
4, 34272, Note_on_c, 2, 58, 90
4, 34368, Note_on_c, 2, 58, 0
4, 34368, Note_on_c, 2, 57, 90
4, 34464, Note_on_c, 2, 57, 0
4, 34464, Note_on_c, 2, 55, 90
4, 34560, Note_on_c, 2, 55, 0
4, 34560, Note_on_c, 2, 53, 90
4, 34656, Note_on_c, 2, 53, 0
4, 34656, Note_on_c, 2, 51, 90
4, 34752, Note_on_c, 2, 51, 0
4, 34752, Note_on_c, 2, 53, 90
4, 34848, Note_on_c, 2, 53, 0
4, 34848, Note_on_c, 2, 55, 90
4, 34944, Note_on_c, 2, 55, 0
4, 34944, Note_on_c, 2, 53, 90
4, 35040, Note_on_c, 2, 53, 0
4, 35040, Note_on_c, 2, 51, 90
4, 35136, Note_on_c, 2, 51, 0
4, 35136, Note_on_c, 2, 50, 90
4, 35232, Note_on_c, 2, 50, 0
4, 35232, Note_on_c, 2, 48, 90
4, 35328, Note_on_c, 2, 48, 0
4, 35328, Note_on_c, 2, 46, 90
4, 35424, Note_on_c, 2, 46, 0
4, 35424, Note_on_c, 2, 58, 90
4, 35520, Note_on_c, 2, 58, 0
4, 35520, Note_on_c, 2, 60, 90
4, 35616, Note_on_c, 2, 60, 0
4, 35616, Note_on_c, 2, 62, 90
4, 35712, Note_on_c, 2, 62, 0
4, 35712, Note_on_c, 2, 63, 90
4, 36096, Note_on_c, 2, 63, 0
4, 36192, Note_on_c, 2, 57, 90
4, 36288, Note_on_c, 2, 57, 0
4, 36288, Note_on_c, 2, 58, 90
4, 36384, Note_on_c, 2, 58, 0
4, 36384, Note_on_c, 2, 60, 90
4, 36480, Note_on_c, 2, 60, 0
4, 36480, Note_on_c, 2, 62, 90
4, 36864, Note_on_c, 2, 62, 0
4, 36864, Note_on_c, 2, 55, 90
4, 37248, Note_on_c, 2, 55, 0
4, 37248, Note_on_c, 2, 62, 90
4, 37632, Note_on_c, 2, 62, 0
4, 37632, Note_on_c, 2, 58, 90
4, 38208, Note_on_c, 2, 58, 0
4, 38208, Note_on_c, 2, 57, 90
4, 38400, Note_on_c, 2, 57, 0
4, 38400, Note_on_c, 2, 55, 90
4, 38496, Note_on_c, 2, 55, 0
4, 38496, Note_on_c, 2, 58, 90
4, 38592, Note_on_c, 2, 58, 0
4, 38592, Note_on_c, 2, 57, 90
4, 38688, Note_on_c, 2, 57, 0
4, 38688, Note_on_c, 2, 55, 90
4, 38784, Note_on_c, 2, 55, 0
4, 38784, Note_on_c, 2, 54, 90
4, 38880, Note_on_c, 2, 54, 0
4, 38880, Note_on_c, 2, 55, 90
4, 38976, Note_on_c, 2, 55, 0
4, 38976, Note_on_c, 2, 52, 90
4, 39072, Note_on_c, 2, 52, 0
4, 39072, Note_on_c, 2, 54, 90
4, 39168, Note_on_c, 2, 54, 0
4, 39168, Note_on_c, 2, 55, 90
4, 39264, Note_on_c, 2, 55, 0
4, 39264, Note_on_c, 2, 50, 90
4, 39360, Note_on_c, 2, 50, 0
4, 39360, Note_on_c, 2, 52, 90
4, 39456, Note_on_c, 2, 52, 0
4, 39456, Note_on_c, 2, 54, 90
4, 39552, Note_on_c, 2, 54, 0
4, 39552, Note_on_c, 2, 55, 90
4, 39648, Note_on_c, 2, 55, 0
4, 39648, Note_on_c, 2, 50, 90
4, 39744, Note_on_c, 2, 50, 0
4, 39744, Note_on_c, 2, 55, 90
4, 39840, Note_on_c, 2, 55, 0
4, 39840, Note_on_c, 2, 57, 90
4, 39936, Note_on_c, 2, 57, 0
4, 39936, Note_on_c, 2, 58, 90
4, 40032, Note_on_c, 2, 58, 0
4, 40032, Note_on_c, 2, 60, 90
4, 40128, Note_on_c, 2, 60, 0
4, 40128, Note_on_c, 2, 58, 90
4, 40224, Note_on_c, 2, 58, 0
4, 40224, Note_on_c, 2, 60, 90
4, 40320, Note_on_c, 2, 60, 0
4, 40320, Note_on_c, 2, 57, 90
4, 40608, Note_on_c, 2, 57, 0
4, 40608, Note_on_c, 2, 58, 90
4, 40656, Note_on_c, 2, 58, 0
4, 40656, Note_on_c, 2, 60, 90
4, 40704, Note_on_c, 2, 60, 0
4, 40704, Note_on_c, 2, 62, 90
4, 40800, Note_on_c, 2, 62, 0
4, 40800, Note_on_c, 2, 60, 90
4, 40896, Note_on_c, 2, 60, 0
4, 40896, Note_on_c, 2, 62, 90
4, 40992, Note_on_c, 2, 62, 0
4, 40992, Note_on_c, 2, 63, 90
4, 41088, Note_on_c, 2, 63, 0
4, 41088, Note_on_c, 2, 62, 90
4, 41184, Note_on_c, 2, 62, 0
4, 41184, Note_on_c, 2, 60, 90
4, 41280, Note_on_c, 2, 60, 0
4, 41280, Note_on_c, 2, 58, 90
4, 41376, Note_on_c, 2, 58, 0
4, 41376, Note_on_c, 2, 57, 90
4, 41472, Note_on_c, 2, 57, 0
4, 41472, Note_on_c, 2, 58, 90
4, 41568, Note_on_c, 2, 58, 0
4, 41568, Note_on_c, 2, 62, 90
4, 41664, Note_on_c, 2, 62, 0
4, 41664, Note_on_c, 2, 60, 90
4, 41760, Note_on_c, 2, 60, 0
4, 41760, Note_on_c, 2, 62, 90
4, 41856, Note_on_c, 2, 62, 0
4, 41856, Note_on_c, 2, 54, 90
4, 41952, Note_on_c, 2, 54, 0
4, 41952, Note_on_c, 2, 62, 90
4, 42048, Note_on_c, 2, 62, 0
4, 42048, Note_on_c, 2, 60, 90
4, 42144, Note_on_c, 2, 60, 0
4, 42144, Note_on_c, 2, 62, 90
4, 42240, Note_on_c, 2, 62, 0
4, 42240, Note_on_c, 2, 55, 90
4, 42336, Note_on_c, 2, 55, 0
4, 42336, Note_on_c, 2, 62, 90
4, 42432, Note_on_c, 2, 62, 0
4, 42432, Note_on_c, 2, 60, 90
4, 42528, Note_on_c, 2, 60, 0
4, 42528, Note_on_c, 2, 62, 90
4, 42624, Note_on_c, 2, 62, 0
4, 42624, Note_on_c, 2, 54, 90
4, 42720, Note_on_c, 2, 54, 0
4, 42720, Note_on_c, 2, 62, 90
4, 42816, Note_on_c, 2, 62, 0
4, 42816, Note_on_c, 2, 60, 90
4, 42912, Note_on_c, 2, 60, 0
4, 42912, Note_on_c, 2, 62, 90
4, 43008, Note_on_c, 2, 62, 0
4, 43008, Note_on_c, 2, 58, 90
4, 43104, Note_on_c, 2, 58, 0
4, 43104, Note_on_c, 2, 55, 90
4, 43200, Note_on_c, 2, 55, 0
4, 43200, Note_on_c, 2, 54, 90
4, 43296, Note_on_c, 2, 54, 0
4, 43296, Note_on_c, 2, 55, 90
4, 43392, Note_on_c, 2, 55, 0
4, 43392, Note_on_c, 2, 60, 90
4, 43488, Note_on_c, 2, 60, 0
4, 43488, Note_on_c, 2, 55, 90
4, 43584, Note_on_c, 2, 55, 0
4, 43584, Note_on_c, 2, 54, 90
4, 43680, Note_on_c, 2, 54, 0
4, 43680, Note_on_c, 2, 55, 90
4, 43776, Note_on_c, 2, 55, 0
4, 43776, Note_on_c, 2, 62, 90
4, 43872, Note_on_c, 2, 62, 0
4, 43872, Note_on_c, 2, 55, 90
4, 43968, Note_on_c, 2, 55, 0
4, 43968, Note_on_c, 2, 54, 90
4, 44064, Note_on_c, 2, 54, 0
4, 44064, Note_on_c, 2, 55, 90
4, 44160, Note_on_c, 2, 55, 0
4, 44160, Note_on_c, 2, 60, 90
4, 44256, Note_on_c, 2, 60, 0
4, 44256, Note_on_c, 2, 55, 90
4, 44352, Note_on_c, 2, 55, 0
4, 44352, Note_on_c, 2, 54, 90
4, 44448, Note_on_c, 2, 54, 0
4, 44448, Note_on_c, 2, 55, 90
4, 44544, Note_on_c, 2, 55, 0
4, 44544, Note_on_c, 2, 55, 90
4, 44736, Note_on_c, 2, 55, 0
4, 44736, Note_on_c, 2, 58, 90
4, 44928, Note_on_c, 2, 58, 0
4, 44928, Note_on_c, 2, 60, 90
4, 45024, Note_on_c, 2, 60, 0
4, 45024, Note_on_c, 2, 58, 90
4, 45120, Note_on_c, 2, 58, 0
4, 45120, Note_on_c, 2, 55, 90
4, 45216, Note_on_c, 2, 55, 0
4, 45216, Note_on_c, 2, 60, 90
4, 45312, Note_on_c, 2, 60, 0
4, 45312, Note_on_c, 2, 58, 90
4, 45792, Note_on_c, 2, 58, 0
4, 45792, Note_on_c, 2, 62, 90
4, 45888, Note_on_c, 2, 62, 0
4, 45888, Note_on_c, 2, 60, 90
4, 45984, Note_on_c, 2, 60, 0
4, 45984, Note_on_c, 2, 58, 90
4, 46080, Note_on_c, 2, 58, 0
4, 46080, Note_on_c, 2, 57, 90
4, 46560, Note_on_c, 2, 57, 0
4, 46560, Note_on_c, 2, 60, 90
4, 46656, Note_on_c, 2, 60, 0
4, 46656, Note_on_c, 2, 58, 90
4, 46752, Note_on_c, 2, 58, 0
4, 46752, Note_on_c, 2, 57, 90
4, 46848, Note_on_c, 2, 57, 0
4, 46848, Note_on_c, 2, 55, 90
4, 47328, Note_on_c, 2, 55, 0
4, 47328, Note_on_c, 2, 58, 90
4, 47424, Note_on_c, 2, 58, 0
4, 47424, Note_on_c, 2, 57, 90
4, 47520, Note_on_c, 2, 57, 0
4, 47520, Note_on_c, 2, 55, 90
4, 47616, Note_on_c, 2, 55, 0
4, 47616, Note_on_c, 2, 53, 90
4, 48192, Note_on_c, 2, 53, 0
4, 48192, Note_on_c, 2, 52, 90
4, 48384, Note_on_c, 2, 52, 0
4, 48384, Note_on_c, 2, 53, 90
4, 48576, Note_on_c, 2, 53, 0
4, 48576, Note_on_c, 2, 51, 90
4, 48768, Note_on_c, 2, 51, 0
4, 48768, Note_on_c, 2, 50, 90
4, 48960, Note_on_c, 2, 50, 0
4, 48960, Note_on_c, 2, 48, 90
4, 49152, Note_on_c, 2, 48, 0
4, 49152, Note_on_c, 2, 46, 90
4, 49536, Note_on_c, 2, 46, 0
4, 50112, Note_on_c, 2, 60, 90
4, 50304, Note_on_c, 2, 60, 0
4, 50304, Note_on_c, 2, 58, 90
4, 50496, Note_on_c, 2, 58, 0
4, 50496, Note_on_c, 2, 57, 90
4, 50688, Note_on_c, 2, 57, 0
4, 50688, Note_on_c, 2, 55, 90
4, 51456, Note_on_c, 2, 55, 0
4, 51456, Note_on_c, 2, 53, 90
4, 51840, Note_on_c, 2, 53, 0
4, 51840, Note_on_c, 2, 53, 90
4, 52224, Note_on_c, 2, 53, 0
4, 52224, Note_on_c, 2, 58, 90
4, 52416, Note_on_c, 2, 58, 0
4, 52416, Note_on_c, 2, 53, 90
4, 52608, Note_on_c, 2, 53, 0
4, 52608, Note_on_c, 2, 60, 90
4, 52800, Note_on_c, 2, 60, 0
4, 52800, Note_on_c, 2, 53, 90
4, 52992, Note_on_c, 2, 53, 0
4, 52992, Note_on_c, 2, 62, 90
4, 53184, Note_on_c, 2, 62, 0
4, 53184, Note_on_c, 2, 60, 90
4, 53280, Note_on_c, 2, 60, 0
4, 53280, Note_on_c, 2, 58, 90
4, 53376, Note_on_c, 2, 58, 0
4, 53376, Note_on_c, 2, 60, 90
4, 53568, Note_on_c, 2, 60, 0
4, 53568, Note_on_c, 2, 53, 90
4, 53760, Note_on_c, 2, 53, 0
4, 53760, Note_on_c, 2, 58, 90
4, 53952, Note_on_c, 2, 58, 0
4, 53952, Note_on_c, 2, 53, 90
4, 54048, Note_on_c, 2, 53, 0
4, 54048, Note_on_c, 2, 58, 90
4, 54144, Note_on_c, 2, 58, 0
4, 54144, Note_on_c, 2, 60, 90
4, 54336, Note_on_c, 2, 60, 0
4, 54336, Note_on_c, 2, 65, 90
4, 54432, Note_on_c, 2, 65, 0
4, 54432, Note_on_c, 2, 60, 90
4, 54528, Note_on_c, 2, 60, 0
4, 54528, Note_on_c, 2, 62, 90
4, 54720, Note_on_c, 2, 62, 0
4, 54720, Note_on_c, 2, 60, 90
4, 54816, Note_on_c, 2, 60, 0
4, 54816, Note_on_c, 2, 58, 90
4, 54912, Note_on_c, 2, 58, 0
4, 54912, Note_on_c, 2, 60, 90
4, 55008, Note_on_c, 2, 60, 0
4, 55008, Note_on_c, 2, 53, 90
4, 55104, Note_on_c, 2, 53, 0
4, 55104, Note_on_c, 2, 65, 90
4, 55200, Note_on_c, 2, 65, 0
4, 55200, Note_on_c, 2, 63, 90
4, 55296, Note_on_c, 2, 63, 0
4, 55296, Note_on_c, 2, 62, 90
4, 55392, Note_on_c, 2, 62, 0
4, 55392, Note_on_c, 2, 60, 90
4, 55488, Note_on_c, 2, 60, 0
4, 55488, Note_on_c, 2, 58, 90
4, 55584, Note_on_c, 2, 58, 0
4, 55584, Note_on_c, 2, 62, 90
4, 55680, Note_on_c, 2, 62, 0
4, 55680, Note_on_c, 2, 60, 90
4, 55776, Note_on_c, 2, 60, 0
4, 55776, Note_on_c, 2, 58, 90
4, 55872, Note_on_c, 2, 58, 0
4, 55872, Note_on_c, 2, 57, 90
4, 55968, Note_on_c, 2, 57, 0
4, 55968, Note_on_c, 2, 60, 90
4, 56064, Note_on_c, 2, 60, 0
4, 56064, Note_on_c, 2, 58, 90
4, 56256, Note_on_c, 2, 58, 0
4, 56256, Note_on_c, 2, 67, 90
4, 56448, Note_on_c, 2, 67, 0
4, 56640, Note_on_c, 2, 55, 90
4, 56832, Note_on_c, 2, 55, 0
4, 56832, Note_on_c, 2, 57, 90
4, 57024, Note_on_c, 2, 57, 0
4, 57024, Note_on_c, 2, 65, 90
4, 57216, Note_on_c, 2, 65, 0
4, 57408, Note_on_c, 2, 53, 90
4, 57600, Note_on_c, 2, 53, 0
4, 57600, Note_on_c, 2, 55, 90
4, 57792, Note_on_c, 2, 55, 0
4, 57792, Note_on_c, 2, 65, 90
4, 57984, Note_on_c, 2, 65, 0
4, 57984, Note_on_c, 2, 60, 90
4, 58176, Note_on_c, 2, 60, 0
4, 58176, Note_on_c, 2, 64, 90
4, 58368, Note_on_c, 2, 64, 0
4, 58368, Note_on_c, 2, 65, 90
4, 58464, Note_on_c, 2, 65, 0
4, 58464, Note_on_c, 2, 63, 90
4, 58560, Note_on_c, 2, 63, 0
4, 58560, Note_on_c, 2, 65, 90
4, 58656, Note_on_c, 2, 65, 0
4, 58656, Note_on_c, 2, 67, 90
4, 58752, Note_on_c, 2, 67, 0
4, 58752, Note_on_c, 2, 65, 90
4, 58848, Note_on_c, 2, 65, 0
4, 58848, Note_on_c, 2, 63, 90
4, 58944, Note_on_c, 2, 63, 0
4, 58944, Note_on_c, 2, 62, 90
4, 59040, Note_on_c, 2, 62, 0
4, 59040, Note_on_c, 2, 65, 90
4, 59136, Note_on_c, 2, 65, 0
4, 59136, Note_on_c, 2, 63, 90
4, 59232, Note_on_c, 2, 63, 0
4, 59232, Note_on_c, 2, 62, 90
4, 59328, Note_on_c, 2, 62, 0
4, 59328, Note_on_c, 2, 63, 90
4, 59424, Note_on_c, 2, 63, 0
4, 59424, Note_on_c, 2, 65, 90
4, 59520, Note_on_c, 2, 65, 0
4, 59520, Note_on_c, 2, 63, 90
4, 59616, Note_on_c, 2, 63, 0
4, 59616, Note_on_c, 2, 62, 90
4, 59712, Note_on_c, 2, 62, 0
4, 59712, Note_on_c, 2, 60, 90
4, 59808, Note_on_c, 2, 60, 0
4, 59808, Note_on_c, 2, 63, 90
4, 59904, Note_on_c, 2, 63, 0
4, 59904, Note_on_c, 2, 62, 90
4, 60000, Note_on_c, 2, 62, 0
4, 60000, Note_on_c, 2, 60, 90
4, 60096, Note_on_c, 2, 60, 0
4, 60096, Note_on_c, 2, 62, 90
4, 60192, Note_on_c, 2, 62, 0
4, 60192, Note_on_c, 2, 63, 90
4, 60288, Note_on_c, 2, 63, 0
4, 60288, Note_on_c, 2, 62, 90
4, 60384, Note_on_c, 2, 62, 0
4, 60384, Note_on_c, 2, 60, 90
4, 60480, Note_on_c, 2, 60, 0
4, 60480, Note_on_c, 2, 58, 90
4, 60576, Note_on_c, 2, 58, 0
4, 60576, Note_on_c, 2, 62, 90
4, 60672, Note_on_c, 2, 62, 0
4, 60672, Note_on_c, 2, 60, 90
4, 60768, Note_on_c, 2, 60, 0
4, 60768, Note_on_c, 2, 58, 90
4, 60864, Note_on_c, 2, 58, 0
4, 60864, Note_on_c, 2, 60, 90
4, 60960, Note_on_c, 2, 60, 0
4, 60960, Note_on_c, 2, 62, 90
4, 61056, Note_on_c, 2, 62, 0
4, 61056, Note_on_c, 2, 60, 90
4, 61152, Note_on_c, 2, 60, 0
4, 61152, Note_on_c, 2, 58, 90
4, 61248, Note_on_c, 2, 58, 0
4, 61248, Note_on_c, 2, 57, 90
4, 61344, Note_on_c, 2, 57, 0
4, 61344, Note_on_c, 2, 60, 90
4, 61440, Note_on_c, 2, 60, 0
4, 61440, Note_on_c, 2, 58, 90
4, 61536, Note_on_c, 2, 58, 0
4, 61536, Note_on_c, 2, 60, 90
4, 61632, Note_on_c, 2, 60, 0
4, 61632, Note_on_c, 2, 62, 90
4, 61728, Note_on_c, 2, 62, 0
4, 61728, Note_on_c, 2, 58, 90
4, 61824, Note_on_c, 2, 58, 0
4, 61824, Note_on_c, 2, 60, 90
4, 61920, Note_on_c, 2, 60, 0
4, 61920, Note_on_c, 2, 62, 90
4, 62016, Note_on_c, 2, 62, 0
4, 62016, Note_on_c, 2, 63, 90
4, 62112, Note_on_c, 2, 63, 0
4, 62112, Note_on_c, 2, 60, 90
4, 62208, Note_on_c, 2, 60, 0
4, 62208, Note_on_c, 2, 62, 90
4, 62304, Note_on_c, 2, 62, 0
4, 62304, Note_on_c, 2, 60, 90
4, 62400, Note_on_c, 2, 60, 0
4, 62400, Note_on_c, 2, 58, 90
4, 62496, Note_on_c, 2, 58, 0
4, 62496, Note_on_c, 2, 60, 90
4, 62592, Note_on_c, 2, 60, 0
4, 62592, Note_on_c, 2, 62, 90
4, 62688, Note_on_c, 2, 62, 0
4, 62688, Note_on_c, 2, 63, 90
4, 62784, Note_on_c, 2, 63, 0
4, 62784, Note_on_c, 2, 62, 90
4, 62880, Note_on_c, 2, 62, 0
4, 62880, Note_on_c, 2, 63, 90
4, 62976, Note_on_c, 2, 63, 0
4, 62976, Note_on_c, 2, 65, 90
4, 63072, Note_on_c, 2, 65, 0
4, 63072, Note_on_c, 2, 67, 90
4, 63168, Note_on_c, 2, 67, 0
4, 63168, Note_on_c, 2, 65, 90
4, 63264, Note_on_c, 2, 65, 0
4, 63264, Note_on_c, 2, 67, 90
4, 63360, Note_on_c, 2, 67, 0
4, 63360, Note_on_c, 2, 67, 90
4, 63648, Note_on_c, 2, 67, 0
4, 63648, Note_on_c, 2, 65, 90
4, 63696, Note_on_c, 2, 65, 0
4, 63696, Note_on_c, 2, 67, 90
4, 63744, Note_on_c, 2, 67, 0
4, 63744, Note_on_c, 2, 69, 90
4, 63840, Note_on_c, 2, 69, 0
4, 63840, Note_on_c, 2, 67, 90
4, 63936, Note_on_c, 2, 67, 0
4, 63936, Note_on_c, 2, 69, 90
4, 64032, Note_on_c, 2, 69, 0
4, 64032, Note_on_c, 2, 70, 90
4, 64128, Note_on_c, 2, 70, 0
4, 64128, Note_on_c, 2, 69, 90
4, 64224, Note_on_c, 2, 69, 0
4, 64224, Note_on_c, 2, 67, 90
4, 64320, Note_on_c, 2, 67, 0
4, 64320, Note_on_c, 2, 65, 90
4, 64416, Note_on_c, 2, 65, 0
4, 64416, Note_on_c, 2, 63, 90
4, 64512, Note_on_c, 2, 63, 0
4, 64512, Note_on_c, 2, 62, 90
4, 64608, Note_on_c, 2, 62, 0
4, 64608, Note_on_c, 2, 65, 90
4, 64704, Note_on_c, 2, 65, 0
4, 64704, Note_on_c, 2, 63, 90
4, 64800, Note_on_c, 2, 63, 0
4, 64800, Note_on_c, 2, 65, 90
4, 64896, Note_on_c, 2, 65, 0
4, 64896, Note_on_c, 2, 57, 90
4, 64992, Note_on_c, 2, 57, 0
4, 64992, Note_on_c, 2, 65, 90
4, 65088, Note_on_c, 2, 65, 0
4, 65088, Note_on_c, 2, 63, 90
4, 65184, Note_on_c, 2, 63, 0
4, 65184, Note_on_c, 2, 65, 90
4, 65280, Note_on_c, 2, 65, 0
4, 65280, Note_on_c, 2, 58, 90
4, 65376, Note_on_c, 2, 58, 0
4, 65376, Note_on_c, 2, 65, 90
4, 65472, Note_on_c, 2, 65, 0
4, 65472, Note_on_c, 2, 63, 90
4, 65568, Note_on_c, 2, 63, 0
4, 65568, Note_on_c, 2, 65, 90
4, 65664, Note_on_c, 2, 65, 0
4, 65664, Note_on_c, 2, 57, 90
4, 65760, Note_on_c, 2, 57, 0
4, 65760, Note_on_c, 2, 65, 90
4, 65856, Note_on_c, 2, 65, 0
4, 65856, Note_on_c, 2, 63, 90
4, 65952, Note_on_c, 2, 63, 0
4, 65952, Note_on_c, 2, 65, 90
4, 66048, Note_on_c, 2, 65, 0
4, 66048, Note_on_c, 2, 62, 90
4, 66144, Note_on_c, 2, 62, 0
4, 66144, Note_on_c, 2, 70, 90
4, 66240, Note_on_c, 2, 70, 0
4, 66240, Note_on_c, 2, 69, 90
4, 66336, Note_on_c, 2, 69, 0
4, 66336, Note_on_c, 2, 70, 90
4, 66432, Note_on_c, 2, 70, 0
4, 66432, Note_on_c, 2, 63, 90
4, 66528, Note_on_c, 2, 63, 0
4, 66528, Note_on_c, 2, 70, 90
4, 66624, Note_on_c, 2, 70, 0
4, 66624, Note_on_c, 2, 69, 90
4, 66720, Note_on_c, 2, 69, 0
4, 66720, Note_on_c, 2, 70, 90
4, 66816, Note_on_c, 2, 70, 0
4, 66816, Note_on_c, 2, 53, 90
4, 66912, Note_on_c, 2, 53, 0
4, 66912, Note_on_c, 2, 70, 90
4, 67008, Note_on_c, 2, 70, 0
4, 67008, Note_on_c, 2, 69, 90
4, 67104, Note_on_c, 2, 69, 0
4, 67104, Note_on_c, 2, 70, 90
4, 67200, Note_on_c, 2, 70, 0
4, 67200, Note_on_c, 2, 63, 90
4, 67296, Note_on_c, 2, 63, 0
4, 67296, Note_on_c, 2, 70, 90
4, 67392, Note_on_c, 2, 70, 0
4, 67392, Note_on_c, 2, 69, 90
4, 67488, Note_on_c, 2, 69, 0
4, 67488, Note_on_c, 2, 70, 90
4, 67584, Note_on_c, 2, 70, 0
4, 67584, Note_on_c, 2, 70, 90
4, 67680, Note_on_c, 2, 70, 0
4, 67680, Note_on_c, 2, 74, 90
4, 67776, Note_on_c, 2, 74, 0
4, 67776, Note_on_c, 2, 72, 90
4, 67872, Note_on_c, 2, 72, 0
4, 67872, Note_on_c, 2, 70, 90
4, 67968, Note_on_c, 2, 70, 0
4, 67968, Note_on_c, 2, 69, 90
4, 68064, Note_on_c, 2, 69, 0
4, 68064, Note_on_c, 2, 67, 90
4, 68160, Note_on_c, 2, 67, 0
4, 68160, Note_on_c, 2, 65, 90
4, 68256, Note_on_c, 2, 65, 0
4, 68256, Note_on_c, 2, 63, 90
4, 68352, Note_on_c, 2, 63, 0
4, 68352, Note_on_c, 2, 62, 90
4, 69312, Note_on_c, 2, 62, 0
4, 69312, Note_on_c, 2, 55, 90
4, 69504, Note_on_c, 2, 55, 0
4, 69504, Note_on_c, 2, 60, 90
4, 69696, Note_on_c, 2, 60, 0
4, 69696, Note_on_c, 2, 58, 90
4, 69888, Note_on_c, 2, 58, 0
4, 69888, Note_on_c, 2, 57, 90
4, 70848, Note_on_c, 2, 57, 0
4, 70848, Note_on_c, 2, 53, 90
4, 71040, Note_on_c, 2, 53, 0
4, 71040, Note_on_c, 2, 58, 90
4, 71232, Note_on_c, 2, 58, 0
4, 71232, Note_on_c, 2, 57, 90
4, 71424, Note_on_c, 2, 57, 0
4, 71424, Note_on_c, 2, 55, 90
4, 72384, Note_on_c, 2, 55, 0
4, 72384, Note_on_c, 2, 51, 90
4, 72576, Note_on_c, 2, 51, 0
4, 72576, Note_on_c, 2, 56, 90
4, 72768, Note_on_c, 2, 56, 0
4, 72768, Note_on_c, 2, 55, 90
4, 72960, Note_on_c, 2, 55, 0
4, 72960, Note_on_c, 2, 53, 90
4, 73344, Note_on_c, 2, 53, 0
4, 73344, Note_on_c, 2, 55, 90
4, 73824, Note_on_c, 2, 55, 0
4, 73824, Note_on_c, 2, 55, 90
4, 73920, Note_on_c, 2, 55, 0
4, 73920, Note_on_c, 2, 57, 90
4, 74016, Note_on_c, 2, 57, 0
4, 74016, Note_on_c, 2, 59, 90
4, 74112, Note_on_c, 2, 59, 0
4, 74112, Note_on_c, 2, 60, 90
4, 74208, Note_on_c, 2, 60, 0
4, 74208, Note_on_c, 2, 62, 90
4, 74304, Note_on_c, 2, 62, 0
4, 74304, Note_on_c, 2, 63, 90
4, 74400, Note_on_c, 2, 63, 0
4, 74400, Note_on_c, 2, 60, 90
4, 74496, Note_on_c, 2, 60, 0
4, 74496, Note_on_c, 2, 56, 90
4, 75264, Note_on_c, 2, 56, 0
4, 75264, Note_on_c, 2, 55, 90
4, 75456, Note_on_c, 2, 55, 0
4, 75456, Note_on_c, 2, 57, 90
4, 75648, Note_on_c, 2, 57, 0
4, 75648, Note_on_c, 2, 59, 90
4, 76032, Note_on_c, 2, 59, 0
4, 76032, Note_on_c, 2, 60, 90
4, 76224, Note_on_c, 2, 60, 0
4, 83136, Note_on_c, 2, 55, 90
4, 83328, Note_on_c, 2, 55, 0
4, 83328, Note_on_c, 2, 51, 90
4, 83520, Note_on_c, 2, 51, 0
4, 83520, Note_on_c, 2, 48, 90
4, 83712, Note_on_c, 2, 48, 0
4, 83712, Note_on_c, 2, 65, 90
4, 84096, Note_on_c, 2, 65, 0
4, 84672, Note_on_c, 2, 65, 90
4, 84864, Note_on_c, 2, 65, 0
4, 84864, Note_on_c, 2, 62, 90
4, 85056, Note_on_c, 2, 62, 0
4, 85056, Note_on_c, 2, 58, 90
4, 85248, Note_on_c, 2, 58, 0
4, 85248, Note_on_c, 2, 63, 90
4, 85632, Note_on_c, 2, 63, 0
4, 86208, Note_on_c, 2, 63, 90
4, 86400, Note_on_c, 2, 63, 0
4, 86400, Note_on_c, 2, 60, 90
4, 86592, Note_on_c, 2, 60, 0
4, 86592, Note_on_c, 2, 57, 90
4, 86784, Note_on_c, 2, 57, 0
4, 86784, Note_on_c, 2, 62, 90
4, 87168, Note_on_c, 2, 62, 0
4, 87552, Note_on_c, 2, 55, 90
4, 87648, Note_on_c, 2, 55, 0
4, 87648, Note_on_c, 2, 58, 90
4, 87744, Note_on_c, 2, 58, 0
4, 87744, Note_on_c, 2, 57, 90
4, 87840, Note_on_c, 2, 57, 0
4, 87840, Note_on_c, 2, 55, 90
4, 87936, Note_on_c, 2, 55, 0
4, 87936, Note_on_c, 2, 62, 90
4, 88032, Note_on_c, 2, 62, 0
4, 88032, Note_on_c, 2, 57, 90
4, 88128, Note_on_c, 2, 57, 0
4, 88128, Note_on_c, 2, 50, 90
4, 88224, Note_on_c, 2, 50, 0
4, 88224, Note_on_c, 2, 60, 90
4, 88320, Note_on_c, 2, 60, 0
4, 88320, Note_on_c, 2, 58, 90
4, 88512, Note_on_c, 2, 58, 0
4, 88512, Note_on_c, 2, 62, 90
4, 88704, Note_on_c, 2, 62, 0
4, 88704, Note_on_c, 2, 54, 90
4, 88896, Note_on_c, 2, 54, 0
4, 88896, Note_on_c, 2, 62, 90
4, 89088, Note_on_c, 2, 62, 0
4, 89088, Note_on_c, 2, 55, 90
4, 89472, Note_on_c, 2, 55, 0
4, 89472, Note_on_c, 2, 54, 90
4, 89856, Note_on_c, 2, 54, 0
4, 89856, Note_on_c, 2, 55, 90
4, 90240, Note_on_c, 2, 55, 0
4, 90240, Note_on_c, 2, 57, 90
4, 90624, Note_on_c, 2, 57, 0
4, 90624, Note_on_c, 2, 58, 90
4, 91008, Note_on_c, 2, 58, 0
4, 91008, Note_on_c, 2, 59, 90
4, 91392, Note_on_c, 2, 59, 0
4, 91392, Note_on_c, 2, 60, 90
4, 91776, Note_on_c, 2, 60, 0
4, 91776, Note_on_c, 2, 61, 90
4, 92160, Note_on_c, 2, 61, 0
4, 92160, Note_on_c, 2, 62, 90
4, 92544, Note_on_c, 2, 62, 0
4, 92544, Note_on_c, 2, 64, 90
4, 92736, Note_on_c, 2, 64, 0
4, 92736, Note_on_c, 2, 66, 90
4, 92928, Note_on_c, 2, 66, 0
4, 92928, Note_on_c, 2, 67, 90
4, 93312, Note_on_c, 2, 67, 0
4, 93312, Note_on_c, 2, 69, 90
4, 93504, Note_on_c, 2, 69, 0
4, 93504, Note_on_c, 2, 70, 90
4, 93696, Note_on_c, 2, 70, 0
4, 93696, Note_on_c, 2, 72, 90
4, 93792, Note_on_c, 2, 72, 0
4, 93792, Note_on_c, 2, 67, 90
4, 93888, Note_on_c, 2, 67, 0
4, 93888, Note_on_c, 2, 65, 90
4, 93984, Note_on_c, 2, 65, 0
4, 93984, Note_on_c, 2, 63, 90
4, 94080, Note_on_c, 2, 63, 0
4, 94080, Note_on_c, 2, 72, 90
4, 94176, Note_on_c, 2, 72, 0
4, 94176, Note_on_c, 2, 69, 90
4, 94272, Note_on_c, 2, 69, 0
4, 94272, Note_on_c, 2, 65, 90
4, 94368, Note_on_c, 2, 65, 0
4, 94368, Note_on_c, 2, 69, 90
4, 94464, Note_on_c, 2, 69, 0
4, 94464, Note_on_c, 2, 70, 90
4, 94560, Note_on_c, 2, 70, 0
4, 94560, Note_on_c, 2, 65, 90
4, 94656, Note_on_c, 2, 65, 0
4, 94656, Note_on_c, 2, 63, 90
4, 94752, Note_on_c, 2, 63, 0
4, 94752, Note_on_c, 2, 62, 90
4, 94848, Note_on_c, 2, 62, 0
4, 94848, Note_on_c, 2, 70, 90
4, 94944, Note_on_c, 2, 70, 0
4, 94944, Note_on_c, 2, 67, 90
4, 95040, Note_on_c, 2, 67, 0
4, 95040, Note_on_c, 2, 63, 90
4, 95136, Note_on_c, 2, 63, 0
4, 95136, Note_on_c, 2, 67, 90
4, 95232, Note_on_c, 2, 67, 0
4, 95232, Note_on_c, 2, 69, 90
4, 95328, Note_on_c, 2, 69, 0
4, 95328, Note_on_c, 2, 63, 90
4, 95424, Note_on_c, 2, 63, 0
4, 95424, Note_on_c, 2, 62, 90
4, 95520, Note_on_c, 2, 62, 0
4, 95520, Note_on_c, 2, 60, 90
4, 95616, Note_on_c, 2, 60, 0
4, 95616, Note_on_c, 2, 69, 90
4, 95712, Note_on_c, 2, 69, 0
4, 95712, Note_on_c, 2, 66, 90
4, 95808, Note_on_c, 2, 66, 0
4, 95808, Note_on_c, 2, 62, 90
4, 95904, Note_on_c, 2, 62, 0
4, 95904, Note_on_c, 2, 66, 90
4, 96000, Note_on_c, 2, 66, 0
4, 96000, Note_on_c, 2, 55, 90
4, 96096, Note_on_c, 2, 55, 0
4, 96096, Note_on_c, 2, 58, 90
4, 96192, Note_on_c, 2, 58, 0
4, 96192, Note_on_c, 2, 62, 90
4, 96288, Note_on_c, 2, 62, 0
4, 96288, Note_on_c, 2, 67, 90
4, 96384, Note_on_c, 2, 67, 0
4, 96384, Note_on_c, 2, 66, 90
4, 96480, Note_on_c, 2, 66, 0
4, 96480, Note_on_c, 2, 67, 90
4, 96576, Note_on_c, 2, 67, 0
4, 96576, Note_on_c, 2, 64, 90
4, 96672, Note_on_c, 2, 64, 0
4, 96672, Note_on_c, 2, 66, 90
4, 96768, Note_on_c, 2, 66, 0
4, 96768, Note_on_c, 2, 67, 90
4, 97344, Note_on_c, 2, 67, 0
4, 97344, Note_on_c, 2, 66, 90
4, 97536, Note_on_c, 2, 66, 0
4, 97536, Note_on_c, 2, 67, 90
4, 97920, Note_on_c, 2, 67, 0
4, 97920, Note_on_c, 2, 69, 90
4, 98112, Note_on_c, 2, 69, 0
4, 98112, Note_on_c, 2, 62, 90
4, 98304, Note_on_c, 2, 62, 0
4, 98304, Note_on_c, 2, 58, 90
4, 98688, Note_on_c, 2, 58, 0
4, 98880, Note_on_c, 2, 54, 90
4, 99072, Note_on_c, 2, 54, 0
4, 99072, Note_on_c, 2, 55, 90
4, 99264, Note_on_c, 2, 55, 0
4, 99456, Note_on_c, 2, 60, 90
4, 99648, Note_on_c, 2, 60, 0
4, 99840, Note_on_c, 2, 58, 90
4, 100032, Note_on_c, 2, 58, 0
4, 100224, Note_on_c, 2, 60, 90
4, 100416, Note_on_c, 2, 60, 0
4, 100608, Note_on_c, 2, 58, 90
4, 100800, Note_on_c, 2, 58, 0
4, 100992, Note_on_c, 2, 57, 90
4, 101184, Note_on_c, 2, 57, 0
4, 101376, Note_on_c, 2, 55, 90
4, 101568, Note_on_c, 2, 55, 0
4, 101760, Note_on_c, 2, 57, 90
4, 101952, Note_on_c, 2, 57, 0
4, 102144, Note_on_c, 2, 55, 90
4, 102336, Note_on_c, 2, 55, 0
4, 102336, Note_on_c, 2, 58, 90
4, 102528, Note_on_c, 2, 58, 0
4, 102528, Note_on_c, 2, 60, 90
4, 102720, Note_on_c, 2, 60, 0
4, 102720, Note_on_c, 2, 57, 90
4, 102912, Note_on_c, 2, 57, 0
4, 102912, Note_on_c, 2, 58, 90
4, 104448, Note_on_c, 2, 58, 0
4, 104448, End_track
5, 0, Start_track
5, 0, Program_c, 3, 67
5, 0, Program_c, 3, 67
5, 0, Key_signature, -2, "minor"
5, 0, Instrument_name_t, "baritone sax"
5, 0, Control_c, 3, 7, 100
5, 25344, Note_on_c, 3, 50, 90
5, 25728, Note_on_c, 3, 50, 0
5, 25728, Note_on_c, 3, 57, 90
5, 26112, Note_on_c, 3, 57, 0
5, 26112, Note_on_c, 3, 53, 90
5, 26688, Note_on_c, 3, 53, 0
5, 26688, Note_on_c, 3, 52, 90
5, 26880, Note_on_c, 3, 52, 0
5, 26880, Note_on_c, 3, 50, 90
5, 27072, Note_on_c, 3, 50, 0
5, 27072, Note_on_c, 3, 53, 90
5, 27264, Note_on_c, 3, 53, 0
5, 27264, Note_on_c, 3, 52, 90
5, 27456, Note_on_c, 3, 52, 0
5, 27456, Note_on_c, 3, 50, 90
5, 27648, Note_on_c, 3, 50, 0
5, 27648, Note_on_c, 3, 49, 90
5, 27840, Note_on_c, 3, 49, 0
5, 27840, Note_on_c, 3, 52, 90
5, 28032, Note_on_c, 3, 52, 0
5, 28032, Note_on_c, 3, 45, 90
5, 28416, Note_on_c, 3, 45, 0
5, 28416, Note_on_c, 3, 50, 90
5, 28608, Note_on_c, 3, 50, 0
5, 28608, Note_on_c, 3, 45, 90
5, 28800, Note_on_c, 3, 45, 0
5, 28800, Note_on_c, 3, 52, 90
5, 28992, Note_on_c, 3, 52, 0
5, 28992, Note_on_c, 3, 45, 90
5, 29184, Note_on_c, 3, 45, 0
5, 29184, Note_on_c, 3, 53, 90
5, 29376, Note_on_c, 3, 53, 0
5, 29376, Note_on_c, 3, 52, 90
5, 29472, Note_on_c, 3, 52, 0
5, 29472, Note_on_c, 3, 50, 90
5, 29568, Note_on_c, 3, 50, 0
5, 29568, Note_on_c, 3, 52, 90
5, 29760, Note_on_c, 3, 52, 0
5, 29760, Note_on_c, 3, 45, 90
5, 29952, Note_on_c, 3, 45, 0
5, 29952, Note_on_c, 3, 50, 90
5, 30144, Note_on_c, 3, 50, 0
5, 30144, Note_on_c, 3, 45, 90
5, 30240, Note_on_c, 3, 45, 0
5, 30240, Note_on_c, 3, 50, 90
5, 30336, Note_on_c, 3, 50, 0
5, 30336, Note_on_c, 3, 52, 90
5, 30528, Note_on_c, 3, 52, 0
5, 30528, Note_on_c, 3, 45, 90
5, 30624, Note_on_c, 3, 45, 0
5, 30624, Note_on_c, 3, 52, 90
5, 30720, Note_on_c, 3, 52, 0
5, 30720, Note_on_c, 3, 53, 90
5, 30912, Note_on_c, 3, 53, 0
5, 30912, Note_on_c, 3, 52, 90
5, 31008, Note_on_c, 3, 52, 0
5, 31008, Note_on_c, 3, 50, 90
5, 31104, Note_on_c, 3, 50, 0
5, 31104, Note_on_c, 3, 52, 90
5, 31296, Note_on_c, 3, 52, 0
5, 31296, Note_on_c, 3, 45, 90
5, 31488, Note_on_c, 3, 45, 0
5, 31488, Note_on_c, 3, 50, 90
5, 31680, Note_on_c, 3, 50, 0
5, 31680, Note_on_c, 3, 43, 90
5, 31872, Note_on_c, 3, 43, 0
5, 31872, Note_on_c, 3, 45, 90
5, 32256, Note_on_c, 3, 45, 0
5, 32256, Note_on_c, 3, 38, 90
5, 32640, Note_on_c, 3, 38, 0
5, 39360, Note_on_c, 3, 43, 90
5, 39552, Note_on_c, 3, 43, 0
5, 39552, Note_on_c, 3, 55, 90
5, 39744, Note_on_c, 3, 55, 0
5, 39744, Note_on_c, 3, 53, 90
5, 39936, Note_on_c, 3, 53, 0
5, 39936, Note_on_c, 3, 51, 90
5, 40128, Note_on_c, 3, 51, 0
5, 40320, Note_on_c, 3, 39, 90
5, 40512, Note_on_c, 3, 39, 0
5, 40704, Note_on_c, 3, 38, 90
5, 40896, Note_on_c, 3, 38, 0
5, 40896, Note_on_c, 3, 50, 90
5, 41088, Note_on_c, 3, 50, 0
5, 41088, Note_on_c, 3, 50, 90
5, 45696, Note_on_c, 3, 50, 0
5, 45696, Note_on_c, 3, 48, 90
5, 46464, Note_on_c, 3, 48, 0
5, 46464, Note_on_c, 3, 46, 90
5, 47232, Note_on_c, 3, 46, 0
5, 47232, Note_on_c, 3, 45, 90
5, 47616, Note_on_c, 3, 45, 0
5, 47616, Note_on_c, 3, 46, 90
5, 47808, Note_on_c, 3, 46, 0
5, 47808, Note_on_c, 3, 45, 90
5, 48000, Note_on_c, 3, 45, 0
5, 48000, Note_on_c, 3, 43, 90
5, 48384, Note_on_c, 3, 43, 0
5, 48384, Note_on_c, 3, 41, 90
5, 48768, Note_on_c, 3, 41, 0
5, 61440, Note_on_c, 3, 46, 90
5, 61824, Note_on_c, 3, 46, 0
5, 61824, Note_on_c, 3, 53, 90
5, 62208, Note_on_c, 3, 53, 0
5, 62208, Note_on_c, 3, 50, 90
5, 62784, Note_on_c, 3, 50, 0
5, 62784, Note_on_c, 3, 48, 90
5, 62976, Note_on_c, 3, 48, 0
5, 62976, Note_on_c, 3, 46, 90
5, 63168, Note_on_c, 3, 46, 0
5, 63168, Note_on_c, 3, 50, 90
5, 63360, Note_on_c, 3, 50, 0
5, 63360, Note_on_c, 3, 48, 90
5, 63552, Note_on_c, 3, 48, 0
5, 63552, Note_on_c, 3, 46, 90
5, 63744, Note_on_c, 3, 46, 0
5, 63744, Note_on_c, 3, 45, 90
5, 63936, Note_on_c, 3, 45, 0
5, 63936, Note_on_c, 3, 48, 90
5, 64128, Note_on_c, 3, 48, 0
5, 64128, Note_on_c, 3, 41, 90
5, 64512, Note_on_c, 3, 41, 0
5, 64512, Note_on_c, 3, 46, 90
5, 64704, Note_on_c, 3, 46, 0
5, 64704, Note_on_c, 3, 41, 90
5, 64896, Note_on_c, 3, 41, 0
5, 64896, Note_on_c, 3, 48, 90
5, 65088, Note_on_c, 3, 48, 0
5, 65088, Note_on_c, 3, 41, 90
5, 65280, Note_on_c, 3, 41, 0
5, 65280, Note_on_c, 3, 50, 90
5, 65472, Note_on_c, 3, 50, 0
5, 65472, Note_on_c, 3, 48, 90
5, 65568, Note_on_c, 3, 48, 0
5, 65568, Note_on_c, 3, 46, 90
5, 65664, Note_on_c, 3, 46, 0
5, 65664, Note_on_c, 3, 48, 90
5, 65856, Note_on_c, 3, 48, 0
5, 65856, Note_on_c, 3, 41, 90
5, 66048, Note_on_c, 3, 41, 0
5, 66048, Note_on_c, 3, 46, 90
5, 66240, Note_on_c, 3, 46, 0
5, 66240, Note_on_c, 3, 41, 90
5, 66336, Note_on_c, 3, 41, 0
5, 66336, Note_on_c, 3, 46, 90
5, 66432, Note_on_c, 3, 46, 0
5, 66432, Note_on_c, 3, 48, 90
5, 66624, Note_on_c, 3, 48, 0
5, 66624, Note_on_c, 3, 41, 90
5, 66720, Note_on_c, 3, 41, 0
5, 66720, Note_on_c, 3, 48, 90
5, 66816, Note_on_c, 3, 48, 0
5, 66816, Note_on_c, 3, 50, 90
5, 67008, Note_on_c, 3, 50, 0
5, 67008, Note_on_c, 3, 48, 90
5, 67104, Note_on_c, 3, 48, 0
5, 67104, Note_on_c, 3, 46, 90
5, 67200, Note_on_c, 3, 46, 0
5, 67200, Note_on_c, 3, 48, 90
5, 67392, Note_on_c, 3, 48, 0
5, 67392, Note_on_c, 3, 41, 90
5, 67584, Note_on_c, 3, 41, 0
5, 67584, Note_on_c, 3, 50, 90
5, 67776, Note_on_c, 3, 50, 0
5, 67776, Note_on_c, 3, 51, 90
5, 67968, Note_on_c, 3, 51, 0
5, 67968, Note_on_c, 3, 53, 90
5, 68160, Note_on_c, 3, 53, 0
5, 68160, Note_on_c, 3, 41, 90
5, 68352, Note_on_c, 3, 41, 0
5, 68352, Note_on_c, 3, 46, 90
5, 68736, Note_on_c, 3, 46, 0
5, 69120, Note_on_c, 3, 48, 90
5, 69504, Note_on_c, 3, 48, 0
5, 69888, Note_on_c, 3, 41, 90
5, 70272, Note_on_c, 3, 41, 0
5, 70656, Note_on_c, 3, 46, 90
5, 71040, Note_on_c, 3, 46, 0
5, 71424, Note_on_c, 3, 39, 90
5, 71808, Note_on_c, 3, 39, 0
5, 72192, Note_on_c, 3, 44, 90
5, 72576, Note_on_c, 3, 44, 0
5, 72960, Note_on_c, 3, 38, 90
5, 73344, Note_on_c, 3, 38, 0
5, 73344, Note_on_c, 3, 43, 90
5, 73728, Note_on_c, 3, 43, 0
5, 73728, Note_on_c, 3, 36, 90
5, 74112, Note_on_c, 3, 36, 0
5, 74496, Note_on_c, 3, 41, 90
5, 74880, Note_on_c, 3, 41, 0
5, 75264, Note_on_c, 3, 43, 90
5, 76800, Note_on_c, 3, 43, 0
5, 76800, Note_on_c, 3, 36, 90
5, 76992, Note_on_c, 3, 36, 0
5, 76992, Note_on_c, 3, 43, 90
5, 77184, Note_on_c, 3, 43, 0
5, 77184, Note_on_c, 3, 48, 90
5, 77376, Note_on_c, 3, 48, 0
5, 77376, Note_on_c, 3, 50, 90
5, 77568, Note_on_c, 3, 50, 0
5, 77568, Note_on_c, 3, 51, 90
5, 77952, Note_on_c, 3, 51, 0
5, 77952, Note_on_c, 3, 53, 90
5, 78336, Note_on_c, 3, 53, 0
5, 78336, Note_on_c, 3, 55, 90
5, 78816, Note_on_c, 3, 55, 0
5, 78816, Note_on_c, 3, 55, 90
5, 78912, Note_on_c, 3, 55, 0
5, 78912, Note_on_c, 3, 53, 90
5, 79008, Note_on_c, 3, 53, 0
5, 79008, Note_on_c, 3, 55, 90
5, 79104, Note_on_c, 3, 55, 0
5, 79104, Note_on_c, 3, 51, 90
5, 79200, Note_on_c, 3, 51, 0
5, 79200, Note_on_c, 3, 55, 90
5, 79296, Note_on_c, 3, 55, 0
5, 79296, Note_on_c, 3, 53, 90
5, 79392, Note_on_c, 3, 53, 0
5, 79392, Note_on_c, 3, 55, 90
5, 79488, Note_on_c, 3, 55, 0
5, 79488, Note_on_c, 3, 47, 90
5, 79584, Note_on_c, 3, 47, 0
5, 79584, Note_on_c, 3, 55, 90
5, 79680, Note_on_c, 3, 55, 0
5, 79680, Note_on_c, 3, 53, 90
5, 79776, Note_on_c, 3, 53, 0
5, 79776, Note_on_c, 3, 55, 90
5, 79872, Note_on_c, 3, 55, 0
5, 79872, Note_on_c, 3, 48, 90
5, 79968, Note_on_c, 3, 48, 0
5, 79968, Note_on_c, 3, 55, 90
5, 80064, Note_on_c, 3, 55, 0
5, 80064, Note_on_c, 3, 53, 90
5, 80160, Note_on_c, 3, 53, 0
5, 80160, Note_on_c, 3, 55, 90
5, 80256, Note_on_c, 3, 55, 0
5, 80256, Note_on_c, 3, 47, 90
5, 80352, Note_on_c, 3, 47, 0
5, 80352, Note_on_c, 3, 55, 90
5, 80448, Note_on_c, 3, 55, 0
5, 80448, Note_on_c, 3, 53, 90
5, 80544, Note_on_c, 3, 53, 0
5, 80544, Note_on_c, 3, 55, 90
5, 80640, Note_on_c, 3, 55, 0
5, 80640, Note_on_c, 3, 51, 90
5, 80736, Note_on_c, 3, 51, 0
5, 80736, Note_on_c, 3, 60, 90
5, 80832, Note_on_c, 3, 60, 0
5, 80832, Note_on_c, 3, 59, 90
5, 80928, Note_on_c, 3, 59, 0
5, 80928, Note_on_c, 3, 60, 90
5, 81024, Note_on_c, 3, 60, 0
5, 81024, Note_on_c, 3, 53, 90
5, 81120, Note_on_c, 3, 53, 0
5, 81120, Note_on_c, 3, 60, 90
5, 81216, Note_on_c, 3, 60, 0
5, 81216, Note_on_c, 3, 59, 90
5, 81312, Note_on_c, 3, 59, 0
5, 81312, Note_on_c, 3, 60, 90
5, 81408, Note_on_c, 3, 60, 0
5, 81408, Note_on_c, 3, 55, 90
5, 81504, Note_on_c, 3, 55, 0
5, 81504, Note_on_c, 3, 60, 90
5, 81600, Note_on_c, 3, 60, 0
5, 81600, Note_on_c, 3, 59, 90
5, 81696, Note_on_c, 3, 59, 0
5, 81696, Note_on_c, 3, 60, 90
5, 81792, Note_on_c, 3, 60, 0
5, 81792, Note_on_c, 3, 55, 90
5, 81888, Note_on_c, 3, 55, 0
5, 81888, Note_on_c, 3, 59, 90
5, 81984, Note_on_c, 3, 59, 0
5, 81984, Note_on_c, 3, 57, 90
5, 82080, Note_on_c, 3, 57, 0
5, 82080, Note_on_c, 3, 59, 90
5, 82176, Note_on_c, 3, 59, 0
5, 82176, Note_on_c, 3, 48, 90
5, 82368, Note_on_c, 3, 48, 0
5, 82368, Note_on_c, 3, 51, 90
5, 82560, Note_on_c, 3, 51, 0
5, 82560, Note_on_c, 3, 53, 90
5, 82752, Note_on_c, 3, 53, 0
5, 82752, Note_on_c, 3, 55, 90
5, 82944, Note_on_c, 3, 55, 0
5, 82944, Note_on_c, 3, 48, 90
5, 83328, Note_on_c, 3, 48, 0
5, 96000, Note_on_c, 3, 55, 90
5, 96384, Note_on_c, 3, 55, 0
5, 96384, Note_on_c, 3, 62, 90
5, 96768, Note_on_c, 3, 62, 0
5, 96768, Note_on_c, 3, 58, 90
5, 97344, Note_on_c, 3, 58, 0
5, 97344, Note_on_c, 3, 57, 90
5, 97536, Note_on_c, 3, 57, 0
5, 97536, Note_on_c, 3, 55, 90
5, 97728, Note_on_c, 3, 55, 0
5, 97728, Note_on_c, 3, 58, 90
5, 97920, Note_on_c, 3, 58, 0
5, 97920, Note_on_c, 3, 57, 90
5, 98112, Note_on_c, 3, 57, 0
5, 98112, Note_on_c, 3, 55, 90
5, 98304, Note_on_c, 3, 55, 0
5, 98304, Note_on_c, 3, 54, 90
5, 98496, Note_on_c, 3, 54, 0
5, 98496, Note_on_c, 3, 57, 90
5, 98688, Note_on_c, 3, 57, 0
5, 98688, Note_on_c, 3, 50, 90
5, 99072, Note_on_c, 3, 50, 0
5, 99072, Note_on_c, 3, 55, 90
5, 99264, Note_on_c, 3, 55, 0
5, 99264, Note_on_c, 3, 50, 90
5, 99456, Note_on_c, 3, 50, 0
5, 99456, Note_on_c, 3, 57, 90
5, 99648, Note_on_c, 3, 57, 0
5, 99648, Note_on_c, 3, 50, 90
5, 99840, Note_on_c, 3, 50, 0
5, 99840, Note_on_c, 3, 58, 90
5, 100032, Note_on_c, 3, 58, 0
5, 100032, Note_on_c, 3, 57, 90
5, 100128, Note_on_c, 3, 57, 0
5, 100128, Note_on_c, 3, 55, 90
5, 100224, Note_on_c, 3, 55, 0
5, 100224, Note_on_c, 3, 57, 90
5, 100416, Note_on_c, 3, 57, 0
5, 100416, Note_on_c, 3, 50, 90
5, 100608, Note_on_c, 3, 50, 0
5, 100608, Note_on_c, 3, 55, 90
5, 100800, Note_on_c, 3, 55, 0
5, 100800, Note_on_c, 3, 50, 90
5, 100896, Note_on_c, 3, 50, 0
5, 100896, Note_on_c, 3, 55, 90
5, 100992, Note_on_c, 3, 55, 0
5, 100992, Note_on_c, 3, 57, 90
5, 101184, Note_on_c, 3, 57, 0
5, 101184, Note_on_c, 3, 50, 90
5, 101280, Note_on_c, 3, 50, 0
5, 101280, Note_on_c, 3, 57, 90
5, 101376, Note_on_c, 3, 57, 0
5, 101376, Note_on_c, 3, 58, 90
5, 101568, Note_on_c, 3, 58, 0
5, 101568, Note_on_c, 3, 57, 90
5, 101664, Note_on_c, 3, 57, 0
5, 101664, Note_on_c, 3, 55, 90
5, 101760, Note_on_c, 3, 55, 0
5, 101760, Note_on_c, 3, 57, 90
5, 101952, Note_on_c, 3, 57, 0
5, 101952, Note_on_c, 3, 50, 90
5, 102144, Note_on_c, 3, 50, 0
5, 102144, Note_on_c, 3, 55, 90
5, 102336, Note_on_c, 3, 55, 0
5, 102336, Note_on_c, 3, 51, 90
5, 102528, Note_on_c, 3, 51, 0
5, 102528, Note_on_c, 3, 48, 90
5, 102720, Note_on_c, 3, 48, 0
5, 102720, Note_on_c, 3, 50, 90
5, 102912, Note_on_c, 3, 50, 0
5, 102912, Note_on_c, 3, 43, 90
5, 104448, Note_on_c, 3, 43, 0
5, 104448, End_track
0, 0, End_of_file
