0, 0, Header, 1, 5, 384
1, 0, Start_track
1, 0, Title_t, "control track"
1, 0, Text_t, "creator: "
1, 0, Text_t, "GNU LilyPond 2.18.2           "
1, 0, Time_signature, 9, 3, 18, 8
1, 0, Tempo, 555555
1, 0, End_track
2, 0, Start_track
2, 0, Key_signature, 1, "major"
2, 0, Control_c, 0, 7, 100
2, 192, Note_on_c, 0, 67, 90
2, 384, Note_on_c, 0, 67, 0
2, 384, Note_on_c, 0, 69, 90
2, 576, Note_on_c, 0, 69, 0
2, 576, Note_on_c, 0, 71, 90
2, 768, Note_on_c, 0, 71, 0
2, 768, Note_on_c, 0, 74, 90
2, 960, Note_on_c, 0, 74, 0
2, 960, Note_on_c, 0, 72, 90
2, 1152, Note_on_c, 0, 72, 0
2, 1152, Note_on_c, 0, 72, 90
2, 1344, Note_on_c, 0, 72, 0
2, 1344, Note_on_c, 0, 76, 90
2, 1536, Note_on_c, 0, 76, 0
2, 1536, Note_on_c, 0, 74, 90
2, 1728, Note_on_c, 0, 74, 0
2, 1728, Note_on_c, 0, 74, 90
2, 1920, Note_on_c, 0, 74, 0
2, 1920, Note_on_c, 0, 79, 90
2, 2112, Note_on_c, 0, 79, 0
2, 2112, Note_on_c, 0, 78, 90
2, 2304, Note_on_c, 0, 78, 0
2, 2304, Note_on_c, 0, 79, 90
2, 2496, Note_on_c, 0, 79, 0
2, 2496, Note_on_c, 0, 74, 90
2, 2688, Note_on_c, 0, 74, 0
2, 2688, Note_on_c, 0, 71, 90
2, 2880, Note_on_c, 0, 71, 0
2, 2880, Note_on_c, 0, 67, 90
2, 3072, Note_on_c, 0, 67, 0
2, 3072, Note_on_c, 0, 69, 90
2, 3264, Note_on_c, 0, 69, 0
2, 3264, Note_on_c, 0, 71, 90
2, 3456, Note_on_c, 0, 71, 0
2, 3456, Note_on_c, 0, 72, 90
2, 3648, Note_on_c, 0, 72, 0
2, 3648, Note_on_c, 0, 74, 90
2, 3840, Note_on_c, 0, 74, 0
2, 3840, Note_on_c, 0, 76, 90
2, 4032, Note_on_c, 0, 76, 0
2, 4032, Note_on_c, 0, 74, 90
2, 4224, Note_on_c, 0, 74, 0
2, 4224, Note_on_c, 0, 72, 90
2, 4416, Note_on_c, 0, 72, 0
2, 4416, Note_on_c, 0, 71, 90
2, 4608, Note_on_c, 0, 71, 0
2, 4608, Note_on_c, 0, 69, 90
2, 4800, Note_on_c, 0, 69, 0
2, 4800, Note_on_c, 0, 71, 90
2, 4992, Note_on_c, 0, 71, 0
2, 4992, Note_on_c, 0, 67, 90
2, 5184, Note_on_c, 0, 67, 0
2, 5184, Note_on_c, 0, 66, 90
2, 5376, Note_on_c, 0, 66, 0
2, 5376, Note_on_c, 0, 67, 90
2, 5568, Note_on_c, 0, 67, 0
2, 5568, Note_on_c, 0, 69, 90
2, 5760, Note_on_c, 0, 69, 0
2, 5760, Note_on_c, 0, 62, 90
2, 5952, Note_on_c, 0, 62, 0
2, 5952, Note_on_c, 0, 66, 90
2, 6144, Note_on_c, 0, 66, 0
2, 6144, Note_on_c, 0, 69, 90
2, 6336, Note_on_c, 0, 69, 0
2, 6336, Note_on_c, 0, 72, 90
2, 6528, Note_on_c, 0, 72, 0
2, 6528, Note_on_c, 0, 71, 90
2, 6720, Note_on_c, 0, 71, 0
2, 6720, Note_on_c, 0, 69, 90
2, 6912, Note_on_c, 0, 69, 0
2, 6912, Note_on_c, 0, 71, 90
2, 7104, Note_on_c, 0, 71, 0
2, 7104, Note_on_c, 0, 67, 90
2, 7296, Note_on_c, 0, 67, 0
2, 7296, Note_on_c, 0, 69, 90
2, 7488, Note_on_c, 0, 69, 0
2, 7488, Note_on_c, 0, 71, 90
2, 7680, Note_on_c, 0, 71, 0
2, 7680, Note_on_c, 0, 74, 90
2, 7872, Note_on_c, 0, 74, 0
2, 7872, Note_on_c, 0, 72, 90
2, 8064, Note_on_c, 0, 72, 0
2, 8064, Note_on_c, 0, 72, 90
2, 8256, Note_on_c, 0, 72, 0
2, 8256, Note_on_c, 0, 76, 90
2, 8448, Note_on_c, 0, 76, 0
2, 8448, Note_on_c, 0, 74, 90
2, 8640, Note_on_c, 0, 74, 0
2, 8640, Note_on_c, 0, 74, 90
2, 8832, Note_on_c, 0, 74, 0
2, 8832, Note_on_c, 0, 79, 90
2, 9024, Note_on_c, 0, 79, 0
2, 9024, Note_on_c, 0, 78, 90
2, 9216, Note_on_c, 0, 78, 0
2, 9216, Note_on_c, 0, 79, 90
2, 9408, Note_on_c, 0, 79, 0
2, 9408, Note_on_c, 0, 74, 90
2, 9600, Note_on_c, 0, 74, 0
2, 9600, Note_on_c, 0, 71, 90
2, 9792, Note_on_c, 0, 71, 0
2, 9792, Note_on_c, 0, 67, 90
2, 9984, Note_on_c, 0, 67, 0
2, 9984, Note_on_c, 0, 69, 90
2, 10176, Note_on_c, 0, 69, 0
2, 10176, Note_on_c, 0, 71, 90
2, 10368, Note_on_c, 0, 71, 0
2, 10368, Note_on_c, 0, 64, 90
2, 10560, Note_on_c, 0, 64, 0
2, 10560, Note_on_c, 0, 74, 90
2, 10752, Note_on_c, 0, 74, 0
2, 10752, Note_on_c, 0, 72, 90
2, 10944, Note_on_c, 0, 72, 0
2, 10944, Note_on_c, 0, 71, 90
2, 11136, Note_on_c, 0, 71, 0
2, 11136, Note_on_c, 0, 69, 90
2, 11328, Note_on_c, 0, 69, 0
2, 11328, Note_on_c, 0, 67, 90
2, 11520, Note_on_c, 0, 67, 0
2, 11520, Note_on_c, 0, 62, 90
2, 11712, Note_on_c, 0, 62, 0
2, 11712, Note_on_c, 0, 67, 90
2, 11904, Note_on_c, 0, 67, 0
2, 11904, Note_on_c, 0, 66, 90
2, 12096, Note_on_c, 0, 66, 0
2, 12096, Note_on_c, 0, 67, 90
2, 12288, Note_on_c, 0, 67, 0
2, 12288, Note_on_c, 0, 71, 90
2, 12480, Note_on_c, 0, 71, 0
2, 12480, Note_on_c, 0, 74, 90
2, 12672, Note_on_c, 0, 74, 0
2, 12672, Note_on_c, 0, 79, 90
2, 12864, Note_on_c, 0, 79, 0
2, 12864, Note_on_c, 0, 74, 90
2, 13056, Note_on_c, 0, 74, 0
2, 13056, Note_on_c, 0, 71, 90
2, 13248, Note_on_c, 0, 71, 0
2, 13248, Note_on_c, 0, 67, 90
2, 13440, Note_on_c, 0, 67, 0
2, 13440, Note_on_c, 0, 71, 90
2, 13632, Note_on_c, 0, 71, 0
2, 13632, Note_on_c, 0, 74, 90
2, 13824, Note_on_c, 0, 74, 0
2, 13824, Note_on_c, 0, 79, 90
2, 14400, Note_on_c, 0, 79, 0
2, 14976, Note_on_c, 0, 67, 90
2, 15552, Note_on_c, 0, 67, 0
2, 15552, Note_on_c, 0, 69, 90
2, 16128, Note_on_c, 0, 69, 0
2, 16128, Note_on_c, 0, 67, 90
2, 16704, Note_on_c, 0, 67, 0
2, 16704, Note_on_c, 0, 66, 90
2, 17280, Note_on_c, 0, 66, 0
2, 17280, Note_on_c, 0, 67, 90
2, 17856, Note_on_c, 0, 67, 0
2, 17856, Note_on_c, 0, 62, 90
2, 19008, Note_on_c, 0, 62, 0
2, 19200, Note_on_c, 0, 62, 90
2, 19392, Note_on_c, 0, 62, 0
2, 19392, Note_on_c, 0, 64, 90
2, 19584, Note_on_c, 0, 64, 0
2, 19584, Note_on_c, 0, 66, 90
2, 19776, Note_on_c, 0, 66, 0
2, 19776, Note_on_c, 0, 69, 90
2, 19968, Note_on_c, 0, 69, 0
2, 19968, Note_on_c, 0, 67, 90
2, 20160, Note_on_c, 0, 67, 0
2, 20160, Note_on_c, 0, 69, 90
2, 20352, Note_on_c, 0, 69, 0
2, 20352, Note_on_c, 0, 72, 90
2, 20544, Note_on_c, 0, 72, 0
2, 20544, Note_on_c, 0, 71, 90
2, 20736, Note_on_c, 0, 71, 0
2, 20736, Note_on_c, 0, 72, 90
2, 20928, Note_on_c, 0, 72, 0
2, 20928, Note_on_c, 0, 69, 90
2, 21120, Note_on_c, 0, 69, 0
2, 21120, Note_on_c, 0, 66, 90
2, 21312, Note_on_c, 0, 66, 0
2, 21312, Note_on_c, 0, 62, 90
2, 21504, Note_on_c, 0, 62, 0
2, 21504, Note_on_c, 0, 66, 90
2, 21696, Note_on_c, 0, 66, 0
2, 21696, Note_on_c, 0, 69, 90
2, 21888, Note_on_c, 0, 69, 0
2, 21888, Note_on_c, 0, 72, 90
2, 22080, Note_on_c, 0, 72, 0
2, 22080, Note_on_c, 0, 71, 90
2, 22272, Note_on_c, 0, 71, 0
2, 22272, Note_on_c, 0, 69, 90
2, 22464, Note_on_c, 0, 69, 0
2, 22464, Note_on_c, 0, 71, 90
2, 22656, Note_on_c, 0, 71, 0
2, 22656, Note_on_c, 0, 67, 90
2, 22848, Note_on_c, 0, 67, 0
2, 22848, Note_on_c, 0, 69, 90
2, 23040, Note_on_c, 0, 69, 0
2, 23040, Note_on_c, 0, 71, 90
2, 23232, Note_on_c, 0, 71, 0
2, 23232, Note_on_c, 0, 74, 90
2, 23424, Note_on_c, 0, 74, 0
2, 23424, Note_on_c, 0, 72, 90
2, 23616, Note_on_c, 0, 72, 0
2, 23616, Note_on_c, 0, 72, 90
2, 23808, Note_on_c, 0, 72, 0
2, 23808, Note_on_c, 0, 76, 90
2, 24000, Note_on_c, 0, 76, 0
2, 24000, Note_on_c, 0, 74, 90
2, 24192, Note_on_c, 0, 74, 0
2, 24192, Note_on_c, 0, 74, 90
2, 24384, Note_on_c, 0, 74, 0
2, 24384, Note_on_c, 0, 79, 90
2, 24576, Note_on_c, 0, 79, 0
2, 24576, Note_on_c, 0, 78, 90
2, 24768, Note_on_c, 0, 78, 0
2, 24768, Note_on_c, 0, 79, 90
2, 24960, Note_on_c, 0, 79, 0
2, 24960, Note_on_c, 0, 74, 90
2, 25152, Note_on_c, 0, 74, 0
2, 25152, Note_on_c, 0, 71, 90
2, 25344, Note_on_c, 0, 71, 0
2, 25344, Note_on_c, 0, 67, 90
2, 25536, Note_on_c, 0, 67, 0
2, 25536, Note_on_c, 0, 69, 90
2, 25728, Note_on_c, 0, 69, 0
2, 25728, Note_on_c, 0, 71, 90
2, 25920, Note_on_c, 0, 71, 0
2, 25920, Note_on_c, 0, 64, 90
2, 26112, Note_on_c, 0, 64, 0
2, 26112, Note_on_c, 0, 74, 90
2, 26304, Note_on_c, 0, 74, 0
2, 26304, Note_on_c, 0, 72, 90
2, 26496, Note_on_c, 0, 72, 0
2, 26496, Note_on_c, 0, 71, 90
2, 26688, Note_on_c, 0, 71, 0
2, 26688, Note_on_c, 0, 69, 90
2, 26880, Note_on_c, 0, 69, 0
2, 26880, Note_on_c, 0, 67, 90
2, 27072, Note_on_c, 0, 67, 0
2, 27072, Note_on_c, 0, 62, 90
2, 27264, Note_on_c, 0, 62, 0
2, 27264, Note_on_c, 0, 67, 90
2, 27456, Note_on_c, 0, 67, 0
2, 27456, Note_on_c, 0, 66, 90
2, 27648, Note_on_c, 0, 66, 0
2, 27648, Note_on_c, 0, 67, 90
2, 27840, Note_on_c, 0, 67, 0
2, 27840, Note_on_c, 0, 71, 90
2, 28032, Note_on_c, 0, 71, 0
2, 28032, Note_on_c, 0, 69, 90
2, 28224, Note_on_c, 0, 69, 0
2, 28224, Note_on_c, 0, 71, 90
2, 28416, Note_on_c, 0, 71, 0
2, 28416, Note_on_c, 0, 74, 90
2, 28608, Note_on_c, 0, 74, 0
2, 28608, Note_on_c, 0, 72, 90
2, 28800, Note_on_c, 0, 72, 0
2, 28800, Note_on_c, 0, 72, 90
2, 28992, Note_on_c, 0, 72, 0
2, 28992, Note_on_c, 0, 76, 90
2, 29184, Note_on_c, 0, 76, 0
2, 29184, Note_on_c, 0, 74, 90
2, 29376, Note_on_c, 0, 74, 0
2, 29376, Note_on_c, 0, 74, 90
2, 29568, Note_on_c, 0, 74, 0
2, 29568, Note_on_c, 0, 79, 90
2, 29760, Note_on_c, 0, 79, 0
2, 29760, Note_on_c, 0, 78, 90
2, 29952, Note_on_c, 0, 78, 0
2, 29952, Note_on_c, 0, 79, 90
2, 30144, Note_on_c, 0, 79, 0
2, 30144, Note_on_c, 0, 74, 90
2, 30336, Note_on_c, 0, 74, 0
2, 30336, Note_on_c, 0, 71, 90
2, 30528, Note_on_c, 0, 71, 0
2, 30528, Note_on_c, 0, 67, 90
2, 30720, Note_on_c, 0, 67, 0
2, 30720, Note_on_c, 0, 69, 90
2, 30912, Note_on_c, 0, 69, 0
2, 30912, Note_on_c, 0, 71, 90
2, 31104, Note_on_c, 0, 71, 0
2, 31104, Note_on_c, 0, 72, 90
2, 31296, Note_on_c, 0, 72, 0
2, 31296, Note_on_c, 0, 74, 90
2, 31488, Note_on_c, 0, 74, 0
2, 31488, Note_on_c, 0, 76, 90
2, 31680, Note_on_c, 0, 76, 0
2, 31680, Note_on_c, 0, 74, 90
2, 31872, Note_on_c, 0, 74, 0
2, 31872, Note_on_c, 0, 72, 90
2, 32064, Note_on_c, 0, 72, 0
2, 32064, Note_on_c, 0, 71, 90
2, 32256, Note_on_c, 0, 71, 0
2, 32256, Note_on_c, 0, 69, 90
2, 32448, Note_on_c, 0, 69, 0
2, 32448, Note_on_c, 0, 71, 90
2, 32640, Note_on_c, 0, 71, 0
2, 32640, Note_on_c, 0, 67, 90
2, 32832, Note_on_c, 0, 67, 0
2, 32832, Note_on_c, 0, 66, 90
2, 33024, Note_on_c, 0, 66, 0
2, 33024, Note_on_c, 0, 67, 90
2, 33216, Note_on_c, 0, 67, 0
2, 33216, Note_on_c, 0, 69, 90
2, 33408, Note_on_c, 0, 69, 0
2, 33408, Note_on_c, 0, 62, 90
2, 33600, Note_on_c, 0, 62, 0
2, 33600, Note_on_c, 0, 66, 90
2, 33792, Note_on_c, 0, 66, 0
2, 33792, Note_on_c, 0, 69, 90
2, 33984, Note_on_c, 0, 69, 0
2, 33984, Note_on_c, 0, 72, 90
2, 34176, Note_on_c, 0, 72, 0
2, 34176, Note_on_c, 0, 71, 90
2, 34368, Note_on_c, 0, 71, 0
2, 34368, Note_on_c, 0, 69, 90
2, 34560, Note_on_c, 0, 69, 0
2, 34560, Note_on_c, 0, 71, 90
2, 34752, Note_on_c, 0, 71, 0
2, 34752, Note_on_c, 0, 67, 90
2, 34944, Note_on_c, 0, 67, 0
2, 34944, Note_on_c, 0, 69, 90
2, 35136, Note_on_c, 0, 69, 0
2, 35136, Note_on_c, 0, 71, 90
2, 35328, Note_on_c, 0, 71, 0
2, 35328, Note_on_c, 0, 74, 90
2, 35520, Note_on_c, 0, 74, 0
2, 35520, Note_on_c, 0, 72, 90
2, 35712, Note_on_c, 0, 72, 0
2, 35712, Note_on_c, 0, 72, 90
2, 35904, Note_on_c, 0, 72, 0
2, 35904, Note_on_c, 0, 76, 90
2, 36096, Note_on_c, 0, 76, 0
2, 36096, Note_on_c, 0, 74, 90
2, 36288, Note_on_c, 0, 74, 0
2, 36288, Note_on_c, 0, 74, 90
2, 36480, Note_on_c, 0, 74, 0
2, 36480, Note_on_c, 0, 79, 90
2, 36672, Note_on_c, 0, 79, 0
2, 36672, Note_on_c, 0, 78, 90
2, 36864, Note_on_c, 0, 78, 0
2, 36864, Note_on_c, 0, 79, 90
2, 37056, Note_on_c, 0, 79, 0
2, 37056, Note_on_c, 0, 74, 90
2, 37248, Note_on_c, 0, 74, 0
2, 37248, Note_on_c, 0, 71, 90
2, 37440, Note_on_c, 0, 71, 0
2, 37440, Note_on_c, 0, 67, 90
2, 37632, Note_on_c, 0, 67, 0
2, 37632, Note_on_c, 0, 69, 90
2, 37824, Note_on_c, 0, 69, 0
2, 37824, Note_on_c, 0, 71, 90
2, 38016, Note_on_c, 0, 71, 0
2, 38016, Note_on_c, 0, 64, 90
2, 38208, Note_on_c, 0, 64, 0
2, 38208, Note_on_c, 0, 74, 90
2, 38400, Note_on_c, 0, 74, 0
2, 38400, Note_on_c, 0, 72, 90
2, 38592, Note_on_c, 0, 72, 0
2, 38592, Note_on_c, 0, 71, 90
2, 38784, Note_on_c, 0, 71, 0
2, 38784, Note_on_c, 0, 69, 90
2, 38976, Note_on_c, 0, 69, 0
2, 38976, Note_on_c, 0, 67, 90
2, 39168, Note_on_c, 0, 67, 0
2, 39168, Note_on_c, 0, 62, 90
2, 39360, Note_on_c, 0, 62, 0
2, 39360, Note_on_c, 0, 67, 90
2, 39552, Note_on_c, 0, 67, 0
2, 39552, Note_on_c, 0, 66, 90
2, 39744, Note_on_c, 0, 66, 0
2, 39744, Note_on_c, 0, 67, 90
2, 40320, Note_on_c, 0, 67, 0
2, 40896, Note_on_c, 0, 67, 90
2, 41472, Note_on_c, 0, 67, 0
2, 41472, Note_on_c, 0, 69, 90
2, 42048, Note_on_c, 0, 69, 0
2, 42048, Note_on_c, 0, 67, 90
2, 42624, Note_on_c, 0, 67, 0
2, 42624, Note_on_c, 0, 66, 90
2, 43200, Note_on_c, 0, 66, 0
2, 43200, Note_on_c, 0, 67, 90
2, 43776, Note_on_c, 0, 67, 0
2, 43776, Note_on_c, 0, 62, 90
2, 44928, Note_on_c, 0, 62, 0
2, 45120, Note_on_c, 0, 62, 90
2, 45312, Note_on_c, 0, 62, 0
2, 45312, Note_on_c, 0, 64, 90
2, 45504, Note_on_c, 0, 64, 0
2, 45504, Note_on_c, 0, 66, 90
2, 45696, Note_on_c, 0, 66, 0
2, 45696, Note_on_c, 0, 69, 90
2, 45888, Note_on_c, 0, 69, 0
2, 45888, Note_on_c, 0, 67, 90
2, 46080, Note_on_c, 0, 67, 0
2, 46080, Note_on_c, 0, 69, 90
2, 46272, Note_on_c, 0, 69, 0
2, 46272, Note_on_c, 0, 72, 90
2, 46464, Note_on_c, 0, 72, 0
2, 46464, Note_on_c, 0, 71, 90
2, 46656, Note_on_c, 0, 71, 0
2, 46656, Note_on_c, 0, 72, 90
2, 46848, Note_on_c, 0, 72, 0
2, 46848, Note_on_c, 0, 69, 90
2, 47040, Note_on_c, 0, 69, 0
2, 47040, Note_on_c, 0, 66, 90
2, 47232, Note_on_c, 0, 66, 0
2, 47232, Note_on_c, 0, 62, 90
2, 47424, Note_on_c, 0, 62, 0
2, 47424, Note_on_c, 0, 66, 90
2, 47616, Note_on_c, 0, 66, 0
2, 47616, Note_on_c, 0, 69, 90
2, 47808, Note_on_c, 0, 69, 0
2, 47808, Note_on_c, 0, 72, 90
2, 48000, Note_on_c, 0, 72, 0
2, 48000, Note_on_c, 0, 71, 90
2, 48192, Note_on_c, 0, 71, 0
2, 48192, Note_on_c, 0, 69, 90
2, 48384, Note_on_c, 0, 69, 0
2, 48384, Note_on_c, 0, 71, 90
2, 48576, Note_on_c, 0, 71, 0
2, 48576, Note_on_c, 0, 67, 90
2, 48768, Note_on_c, 0, 67, 0
2, 48768, Note_on_c, 0, 69, 90
2, 48960, Note_on_c, 0, 69, 0
2, 48960, Note_on_c, 0, 71, 90
2, 49152, Note_on_c, 0, 71, 0
2, 49152, Note_on_c, 0, 74, 90
2, 49344, Note_on_c, 0, 74, 0
2, 49344, Note_on_c, 0, 72, 90
2, 49536, Note_on_c, 0, 72, 0
2, 49536, Note_on_c, 0, 72, 90
2, 49728, Note_on_c, 0, 72, 0
2, 49728, Note_on_c, 0, 76, 90
2, 49920, Note_on_c, 0, 76, 0
2, 49920, Note_on_c, 0, 74, 90
2, 50112, Note_on_c, 0, 74, 0
2, 50112, Note_on_c, 0, 74, 90
2, 50304, Note_on_c, 0, 74, 0
2, 50304, Note_on_c, 0, 79, 90
2, 50496, Note_on_c, 0, 79, 0
2, 50496, Note_on_c, 0, 78, 90
2, 50688, Note_on_c, 0, 78, 0
2, 50688, Note_on_c, 0, 79, 90
2, 50880, Note_on_c, 0, 79, 0
2, 50880, Note_on_c, 0, 74, 90
2, 51072, Note_on_c, 0, 74, 0
2, 51072, Note_on_c, 0, 71, 90
2, 51264, Note_on_c, 0, 71, 0
2, 51264, Note_on_c, 0, 67, 90
2, 51456, Note_on_c, 0, 67, 0
2, 51456, Note_on_c, 0, 69, 90
2, 51648, Note_on_c, 0, 69, 0
2, 51648, Note_on_c, 0, 71, 90
2, 51840, Note_on_c, 0, 71, 0
2, 51840, Note_on_c, 0, 64, 90
2, 52032, Note_on_c, 0, 64, 0
2, 52032, Note_on_c, 0, 74, 90
2, 52224, Note_on_c, 0, 74, 0
2, 52224, Note_on_c, 0, 72, 90
2, 52416, Note_on_c, 0, 72, 0
2, 52416, Note_on_c, 0, 71, 90
2, 52608, Note_on_c, 0, 71, 0
2, 52608, Note_on_c, 0, 69, 90
2, 52800, Note_on_c, 0, 69, 0
2, 52800, Note_on_c, 0, 67, 90
2, 52992, Note_on_c, 0, 67, 0
2, 52992, Note_on_c, 0, 64, 90
2, 53184, Note_on_c, 0, 64, 0
2, 53184, Note_on_c, 0, 67, 90
2, 53376, Note_on_c, 0, 67, 0
2, 53376, Note_on_c, 0, 66, 90
2, 53568, Note_on_c, 0, 66, 0
2, 53568, Note_on_c, 0, 67, 90
2, 53760, Note_on_c, 0, 67, 0
2, 53760, Note_on_c, 0, 71, 90
2, 53952, Note_on_c, 0, 71, 0
2, 53952, Note_on_c, 0, 69, 90
2, 54144, Note_on_c, 0, 69, 0
2, 54144, Note_on_c, 0, 71, 90
2, 54336, Note_on_c, 0, 71, 0
2, 54336, Note_on_c, 0, 74, 90
2, 54528, Note_on_c, 0, 74, 0
2, 54528, Note_on_c, 0, 72, 90
2, 54720, Note_on_c, 0, 72, 0
2, 54720, Note_on_c, 0, 72, 90
2, 54912, Note_on_c, 0, 72, 0
2, 54912, Note_on_c, 0, 76, 90
2, 55104, Note_on_c, 0, 76, 0
2, 55104, Note_on_c, 0, 74, 90
2, 55296, Note_on_c, 0, 74, 0
2, 55296, Note_on_c, 0, 74, 90
2, 55488, Note_on_c, 0, 74, 0
2, 55488, Note_on_c, 0, 79, 90
2, 55680, Note_on_c, 0, 79, 0
2, 55680, Note_on_c, 0, 78, 90
2, 55872, Note_on_c, 0, 78, 0
2, 55872, Note_on_c, 0, 79, 90
2, 56064, Note_on_c, 0, 79, 0
2, 56064, Note_on_c, 0, 74, 90
2, 56256, Note_on_c, 0, 74, 0
2, 56256, Note_on_c, 0, 71, 90
2, 56448, Note_on_c, 0, 71, 0
2, 56448, Note_on_c, 0, 67, 90
2, 56640, Note_on_c, 0, 67, 0
2, 56640, Note_on_c, 0, 69, 90
2, 56832, Note_on_c, 0, 69, 0
2, 56832, Note_on_c, 0, 71, 90
2, 57024, Note_on_c, 0, 71, 0
2, 57024, Note_on_c, 0, 72, 90
2, 57216, Note_on_c, 0, 72, 0
2, 57216, Note_on_c, 0, 74, 90
2, 57408, Note_on_c, 0, 74, 0
2, 57408, Note_on_c, 0, 76, 90
2, 57600, Note_on_c, 0, 76, 0
2, 57600, Note_on_c, 0, 74, 90
2, 57792, Note_on_c, 0, 74, 0
2, 57792, Note_on_c, 0, 72, 90
2, 57984, Note_on_c, 0, 72, 0
2, 57984, Note_on_c, 0, 71, 90
2, 58176, Note_on_c, 0, 71, 0
2, 58176, Note_on_c, 0, 69, 90
2, 58368, Note_on_c, 0, 69, 0
2, 58368, Note_on_c, 0, 71, 90
2, 58560, Note_on_c, 0, 71, 0
2, 58560, Note_on_c, 0, 67, 90
2, 58752, Note_on_c, 0, 67, 0
2, 58752, Note_on_c, 0, 66, 90
2, 58944, Note_on_c, 0, 66, 0
2, 58944, Note_on_c, 0, 67, 90
2, 59136, Note_on_c, 0, 67, 0
2, 59136, Note_on_c, 0, 69, 90
2, 59328, Note_on_c, 0, 69, 0
2, 59328, Note_on_c, 0, 62, 90
2, 59520, Note_on_c, 0, 62, 0
2, 59520, Note_on_c, 0, 66, 90
2, 59712, Note_on_c, 0, 66, 0
2, 59712, Note_on_c, 0, 69, 90
2, 59904, Note_on_c, 0, 69, 0
2, 59904, Note_on_c, 0, 72, 90
2, 60096, Note_on_c, 0, 72, 0
2, 60096, Note_on_c, 0, 71, 90
2, 60288, Note_on_c, 0, 71, 0
2, 60288, Note_on_c, 0, 69, 90
2, 60480, Note_on_c, 0, 69, 0
2, 60480, Note_on_c, 0, 71, 90
2, 60672, Note_on_c, 0, 71, 0
2, 60672, Note_on_c, 0, 67, 90
2, 60864, Note_on_c, 0, 67, 0
2, 60864, Note_on_c, 0, 69, 90
2, 61056, Note_on_c, 0, 69, 0
2, 61056, Note_on_c, 0, 71, 90
2, 61248, Note_on_c, 0, 71, 0
2, 61248, Note_on_c, 0, 74, 90
2, 61440, Note_on_c, 0, 74, 0
2, 61440, Note_on_c, 0, 72, 90
2, 61632, Note_on_c, 0, 72, 0
2, 61632, Note_on_c, 0, 72, 90
2, 61824, Note_on_c, 0, 72, 0
2, 61824, Note_on_c, 0, 76, 90
2, 62016, Note_on_c, 0, 76, 0
2, 62016, Note_on_c, 0, 74, 90
2, 62208, Note_on_c, 0, 74, 0
2, 62208, Note_on_c, 0, 74, 90
2, 62400, Note_on_c, 0, 74, 0
2, 62400, Note_on_c, 0, 79, 90
2, 62592, Note_on_c, 0, 79, 0
2, 62592, Note_on_c, 0, 78, 90
2, 62784, Note_on_c, 0, 78, 0
2, 62784, Note_on_c, 0, 79, 90
2, 62976, Note_on_c, 0, 79, 0
2, 62976, Note_on_c, 0, 74, 90
2, 63168, Note_on_c, 0, 74, 0
2, 63168, Note_on_c, 0, 71, 90
2, 63360, Note_on_c, 0, 71, 0
2, 63360, Note_on_c, 0, 67, 90
2, 63552, Note_on_c, 0, 67, 0
2, 63552, Note_on_c, 0, 69, 90
2, 63744, Note_on_c, 0, 69, 0
2, 63744, Note_on_c, 0, 71, 90
2, 63936, Note_on_c, 0, 71, 0
2, 63936, Note_on_c, 0, 64, 90
2, 64128, Note_on_c, 0, 64, 0
2, 64128, Note_on_c, 0, 74, 90
2, 64320, Note_on_c, 0, 74, 0
2, 64320, Note_on_c, 0, 72, 90
2, 64512, Note_on_c, 0, 72, 0
2, 64512, Note_on_c, 0, 71, 90
2, 64704, Note_on_c, 0, 71, 0
2, 64704, Note_on_c, 0, 69, 90
2, 64896, Note_on_c, 0, 69, 0
2, 64896, Note_on_c, 0, 67, 90
2, 65088, Note_on_c, 0, 67, 0
2, 65088, Note_on_c, 0, 62, 90
2, 65280, Note_on_c, 0, 62, 0
2, 65280, Note_on_c, 0, 67, 90
2, 65472, Note_on_c, 0, 67, 0
2, 65472, Note_on_c, 0, 66, 90
2, 65664, Note_on_c, 0, 66, 0
2, 65664, Note_on_c, 0, 67, 90
2, 65856, Note_on_c, 0, 67, 0
2, 65856, Note_on_c, 0, 71, 90
2, 66048, Note_on_c, 0, 71, 0
2, 66048, Note_on_c, 0, 74, 90
2, 66240, Note_on_c, 0, 74, 0
2, 66240, Note_on_c, 0, 79, 90
2, 66432, Note_on_c, 0, 79, 0
2, 66432, Note_on_c, 0, 74, 90
2, 66624, Note_on_c, 0, 74, 0
2, 66624, Note_on_c, 0, 71, 90
2, 66816, Note_on_c, 0, 71, 0
2, 66816, Note_on_c, 0, 67, 90
2, 67008, Note_on_c, 0, 67, 0
2, 67008, Note_on_c, 0, 71, 90
2, 67200, Note_on_c, 0, 71, 0
2, 67200, Note_on_c, 0, 73, 90
2, 67392, Note_on_c, 0, 73, 0
2, 67392, Note_on_c, 0, 74, 90
2, 67584, Note_on_c, 0, 74, 0
2, 67584, Note_on_c, 0, 62, 90
2, 67776, Note_on_c, 0, 62, 0
2, 67776, Note_on_c, 0, 64, 90
2, 67968, Note_on_c, 0, 64, 0
2, 67968, Note_on_c, 0, 66, 90
2, 68160, Note_on_c, 0, 66, 0
2, 68160, Note_on_c, 0, 69, 90
2, 68352, Note_on_c, 0, 69, 0
2, 68352, Note_on_c, 0, 68, 90
2, 68544, Note_on_c, 0, 68, 0
2, 68544, Note_on_c, 0, 68, 90
2, 68736, Note_on_c, 0, 68, 0
2, 68736, Note_on_c, 0, 71, 90
2, 68928, Note_on_c, 0, 71, 0
2, 68928, Note_on_c, 0, 69, 90
2, 69120, Note_on_c, 0, 69, 0
2, 69120, Note_on_c, 0, 69, 90
2, 69312, Note_on_c, 0, 69, 0
2, 69312, Note_on_c, 0, 72, 90
2, 69504, Note_on_c, 0, 72, 0
2, 69504, Note_on_c, 0, 71, 90
2, 69696, Note_on_c, 0, 71, 0
2, 69696, Note_on_c, 0, 72, 90
2, 69888, Note_on_c, 0, 72, 0
2, 69888, Note_on_c, 0, 69, 90
2, 70080, Note_on_c, 0, 69, 0
2, 70080, Note_on_c, 0, 64, 90
2, 70272, Note_on_c, 0, 64, 0
2, 70272, Note_on_c, 0, 60, 90
2, 70464, Note_on_c, 0, 60, 0
2, 70464, Note_on_c, 0, 62, 90
2, 70656, Note_on_c, 0, 62, 0
2, 70656, Note_on_c, 0, 64, 90
2, 70848, Note_on_c, 0, 64, 0
2, 70848, Note_on_c, 0, 65, 90
2, 71040, Note_on_c, 0, 65, 0
2, 71040, Note_on_c, 0, 74, 90
2, 71232, Note_on_c, 0, 74, 0
2, 71232, Note_on_c, 0, 72, 90
2, 71424, Note_on_c, 0, 72, 0
2, 71424, Note_on_c, 0, 74, 90
2, 71616, Note_on_c, 0, 74, 0
2, 71616, Note_on_c, 0, 71, 90
2, 71808, Note_on_c, 0, 71, 0
2, 71808, Note_on_c, 0, 68, 90
2, 72000, Note_on_c, 0, 68, 0
2, 72000, Note_on_c, 0, 64, 90
2, 72192, Note_on_c, 0, 64, 0
2, 72192, Note_on_c, 0, 66, 90
2, 72384, Note_on_c, 0, 66, 0
2, 72384, Note_on_c, 0, 67, 90
2, 72576, Note_on_c, 0, 67, 0
2, 72576, Note_on_c, 0, 69, 90
2, 72768, Note_on_c, 0, 69, 0
2, 72768, Note_on_c, 0, 72, 90
2, 72960, Note_on_c, 0, 72, 0
2, 72960, Note_on_c, 0, 71, 90
2, 73152, Note_on_c, 0, 71, 0
2, 73152, Note_on_c, 0, 72, 90
2, 73344, Note_on_c, 0, 72, 0
2, 73344, Note_on_c, 0, 76, 90
2, 73536, Note_on_c, 0, 76, 0
2, 73536, Note_on_c, 0, 74, 90
2, 73728, Note_on_c, 0, 74, 0
2, 73728, Note_on_c, 0, 74, 90
2, 73920, Note_on_c, 0, 74, 0
2, 73920, Note_on_c, 0, 77, 90
2, 74112, Note_on_c, 0, 77, 0
2, 74112, Note_on_c, 0, 76, 90
2, 74304, Note_on_c, 0, 76, 0
2, 74304, Note_on_c, 0, 76, 90
2, 74496, Note_on_c, 0, 76, 0
2, 74496, Note_on_c, 0, 81, 90
2, 74688, Note_on_c, 0, 81, 0
2, 74688, Note_on_c, 0, 80, 90
2, 74880, Note_on_c, 0, 80, 0
2, 74880, Note_on_c, 0, 81, 90
2, 75072, Note_on_c, 0, 81, 0
2, 75072, Note_on_c, 0, 76, 90
2, 75264, Note_on_c, 0, 76, 0
2, 75264, Note_on_c, 0, 72, 90
2, 75456, Note_on_c, 0, 72, 0
2, 75456, Note_on_c, 0, 69, 90
2, 75648, Note_on_c, 0, 69, 0
2, 75648, Note_on_c, 0, 71, 90
2, 75840, Note_on_c, 0, 71, 0
2, 75840, Note_on_c, 0, 72, 90
2, 76032, Note_on_c, 0, 72, 0
2, 76032, Note_on_c, 0, 77, 90
2, 76224, Note_on_c, 0, 77, 0
2, 76224, Note_on_c, 0, 76, 90
2, 76416, Note_on_c, 0, 76, 0
2, 76416, Note_on_c, 0, 74, 90
2, 76608, Note_on_c, 0, 74, 0
2, 76608, Note_on_c, 0, 72, 90
2, 76800, Note_on_c, 0, 72, 0
2, 76800, Note_on_c, 0, 71, 90
2, 76992, Note_on_c, 0, 71, 0
2, 76992, Note_on_c, 0, 69, 90
2, 77184, Note_on_c, 0, 69, 0
2, 77184, Note_on_c, 0, 64, 90
2, 77376, Note_on_c, 0, 64, 0
2, 77376, Note_on_c, 0, 69, 90
2, 77568, Note_on_c, 0, 69, 0
2, 77568, Note_on_c, 0, 68, 90
2, 77760, Note_on_c, 0, 68, 0
2, 77760, Note_on_c, 0, 69, 90
2, 77952, Note_on_c, 0, 69, 0
2, 77952, Note_on_c, 0, 72, 90
2, 78144, Note_on_c, 0, 72, 0
2, 78144, Note_on_c, 0, 76, 90
2, 78336, Note_on_c, 0, 76, 0
2, 78336, Note_on_c, 0, 81, 90
2, 78528, Note_on_c, 0, 81, 0
2, 79680, Note_on_c, 0, 72, 90
2, 79872, Note_on_c, 0, 72, 0
2, 79872, Note_on_c, 0, 74, 90
2, 80064, Note_on_c, 0, 74, 0
2, 80064, Note_on_c, 0, 76, 90
2, 80256, Note_on_c, 0, 76, 0
2, 80256, Note_on_c, 0, 79, 90
2, 80448, Note_on_c, 0, 79, 0
2, 80448, Note_on_c, 0, 77, 90
2, 80640, Note_on_c, 0, 77, 0
2, 80640, Note_on_c, 0, 79, 90
2, 80832, Note_on_c, 0, 79, 0
2, 80832, Note_on_c, 0, 82, 90
2, 81024, Note_on_c, 0, 82, 0
2, 81024, Note_on_c, 0, 81, 90
2, 81216, Note_on_c, 0, 81, 0
2, 81216, Note_on_c, 0, 81, 90
2, 81408, Note_on_c, 0, 81, 0
2, 81408, Note_on_c, 0, 84, 90
2, 81600, Note_on_c, 0, 84, 0
2, 81600, Note_on_c, 0, 83, 90
2, 81792, Note_on_c, 0, 83, 0
2, 81792, Note_on_c, 0, 84, 90
2, 81984, Note_on_c, 0, 84, 0
2, 81984, Note_on_c, 0, 81, 90
2, 82176, Note_on_c, 0, 81, 0
2, 82176, Note_on_c, 0, 77, 90
2, 82368, Note_on_c, 0, 77, 0
2, 82368, Note_on_c, 0, 74, 90
2, 82560, Note_on_c, 0, 74, 0
2, 82560, Note_on_c, 0, 76, 90
2, 82752, Note_on_c, 0, 76, 0
2, 82752, Note_on_c, 0, 77, 90
2, 82944, Note_on_c, 0, 77, 0
2, 82944, Note_on_c, 0, 76, 90
2, 83136, Note_on_c, 0, 76, 0
2, 83136, Note_on_c, 0, 79, 90
2, 83328, Note_on_c, 0, 79, 0
2, 83328, Note_on_c, 0, 78, 90
2, 83520, Note_on_c, 0, 78, 0
2, 83520, Note_on_c, 0, 79, 90
2, 83712, Note_on_c, 0, 79, 0
2, 83712, Note_on_c, 0, 76, 90
2, 83904, Note_on_c, 0, 76, 0
2, 83904, Note_on_c, 0, 72, 90
2, 84096, Note_on_c, 0, 72, 0
2, 84096, Note_on_c, 0, 67, 90
2, 84288, Note_on_c, 0, 67, 0
2, 84288, Note_on_c, 0, 69, 90
2, 84480, Note_on_c, 0, 69, 0
2, 84480, Note_on_c, 0, 70, 90
2, 84672, Note_on_c, 0, 70, 0
2, 84672, Note_on_c, 0, 69, 90
2, 84864, Note_on_c, 0, 69, 0
2, 84864, Note_on_c, 0, 72, 90
2, 85056, Note_on_c, 0, 72, 0
2, 85056, Note_on_c, 0, 71, 90
2, 85248, Note_on_c, 0, 71, 0
2, 85248, Note_on_c, 0, 72, 90
2, 85440, Note_on_c, 0, 72, 0
2, 85440, Note_on_c, 0, 69, 90
2, 85632, Note_on_c, 0, 69, 0
2, 85632, Note_on_c, 0, 65, 90
2, 85824, Note_on_c, 0, 65, 0
2, 85824, Note_on_c, 0, 62, 90
2, 86016, Note_on_c, 0, 62, 0
2, 86016, Note_on_c, 0, 64, 90
2, 86208, Note_on_c, 0, 64, 0
2, 86208, Note_on_c, 0, 65, 90
2, 86400, Note_on_c, 0, 65, 0
2, 86400, Note_on_c, 0, 64, 90
2, 86592, Note_on_c, 0, 64, 0
2, 86592, Note_on_c, 0, 60, 90
2, 86784, Note_on_c, 0, 60, 0
2, 86784, Note_on_c, 0, 62, 90
2, 86976, Note_on_c, 0, 62, 0
2, 86976, Note_on_c, 0, 64, 90
2, 87168, Note_on_c, 0, 64, 0
2, 87168, Note_on_c, 0, 67, 90
2, 87360, Note_on_c, 0, 67, 0
2, 87360, Note_on_c, 0, 66, 90
2, 87552, Note_on_c, 0, 66, 0
2, 87552, Note_on_c, 0, 67, 90
2, 87744, Note_on_c, 0, 67, 0
2, 87744, Note_on_c, 0, 69, 90
2, 87936, Note_on_c, 0, 69, 0
2, 87936, Note_on_c, 0, 71, 90
2, 88128, Note_on_c, 0, 71, 0
2, 88128, Note_on_c, 0, 71, 90
2, 88320, Note_on_c, 0, 71, 0
2, 88320, Note_on_c, 0, 67, 90
2, 88512, Note_on_c, 0, 67, 0
2, 88512, Note_on_c, 0, 69, 90
2, 88704, Note_on_c, 0, 69, 0
2, 88704, Note_on_c, 0, 71, 90
2, 88896, Note_on_c, 0, 71, 0
2, 88896, Note_on_c, 0, 74, 90
2, 89088, Note_on_c, 0, 74, 0
2, 89088, Note_on_c, 0, 72, 90
2, 89280, Note_on_c, 0, 72, 0
2, 89280, Note_on_c, 0, 72, 90
2, 89472, Note_on_c, 0, 72, 0
2, 89472, Note_on_c, 0, 76, 90
2, 89664, Note_on_c, 0, 76, 0
2, 89664, Note_on_c, 0, 74, 90
2, 89856, Note_on_c, 0, 74, 0
2, 89856, Note_on_c, 0, 74, 90
2, 90048, Note_on_c, 0, 74, 0
2, 90048, Note_on_c, 0, 79, 90
2, 90240, Note_on_c, 0, 79, 0
2, 90240, Note_on_c, 0, 78, 90
2, 90432, Note_on_c, 0, 78, 0
2, 90432, Note_on_c, 0, 79, 90
2, 90624, Note_on_c, 0, 79, 0
2, 90624, Note_on_c, 0, 74, 90
2, 90816, Note_on_c, 0, 74, 0
2, 90816, Note_on_c, 0, 71, 90
2, 91008, Note_on_c, 0, 71, 0
2, 91008, Note_on_c, 0, 67, 90
2, 91200, Note_on_c, 0, 67, 0
2, 91200, Note_on_c, 0, 69, 90
2, 91392, Note_on_c, 0, 69, 0
2, 91392, Note_on_c, 0, 71, 90
2, 91584, Note_on_c, 0, 71, 0
2, 91584, Note_on_c, 0, 72, 90
2, 91776, Note_on_c, 0, 72, 0
2, 91776, Note_on_c, 0, 74, 90
2, 91968, Note_on_c, 0, 74, 0
2, 91968, Note_on_c, 0, 76, 90
2, 92160, Note_on_c, 0, 76, 0
2, 92160, Note_on_c, 0, 74, 90
2, 92352, Note_on_c, 0, 74, 0
2, 92352, Note_on_c, 0, 72, 90
2, 92544, Note_on_c, 0, 72, 0
2, 92544, Note_on_c, 0, 71, 90
2, 92736, Note_on_c, 0, 71, 0
2, 92736, Note_on_c, 0, 69, 90
2, 92928, Note_on_c, 0, 69, 0
2, 92928, Note_on_c, 0, 71, 90
2, 93120, Note_on_c, 0, 71, 0
2, 93120, Note_on_c, 0, 67, 90
2, 93312, Note_on_c, 0, 67, 0
2, 93312, Note_on_c, 0, 66, 90
2, 93504, Note_on_c, 0, 66, 0
2, 93504, Note_on_c, 0, 62, 90
2, 93696, Note_on_c, 0, 62, 0
2, 93696, Note_on_c, 0, 64, 90
2, 93888, Note_on_c, 0, 64, 0
2, 93888, Note_on_c, 0, 66, 90
2, 94080, Note_on_c, 0, 66, 0
2, 94080, Note_on_c, 0, 69, 90
2, 94272, Note_on_c, 0, 69, 0
2, 94272, Note_on_c, 0, 67, 90
2, 94464, Note_on_c, 0, 67, 0
2, 94464, Note_on_c, 0, 69, 90
2, 94656, Note_on_c, 0, 69, 0
2, 94656, Note_on_c, 0, 72, 90
2, 94848, Note_on_c, 0, 72, 0
2, 94848, Note_on_c, 0, 71, 90
2, 95040, Note_on_c, 0, 71, 0
2, 95040, Note_on_c, 0, 72, 90
2, 95232, Note_on_c, 0, 72, 0
2, 95232, Note_on_c, 0, 69, 90
2, 95424, Note_on_c, 0, 69, 0
2, 95424, Note_on_c, 0, 66, 90
2, 95616, Note_on_c, 0, 66, 0
2, 95616, Note_on_c, 0, 62, 90
2, 95808, Note_on_c, 0, 62, 0
2, 95808, Note_on_c, 0, 66, 90
2, 96000, Note_on_c, 0, 66, 0
2, 96000, Note_on_c, 0, 69, 90
2, 96192, Note_on_c, 0, 69, 0
2, 96192, Note_on_c, 0, 72, 90
2, 96384, Note_on_c, 0, 72, 0
2, 96384, Note_on_c, 0, 71, 90
2, 96576, Note_on_c, 0, 71, 0
2, 96576, Note_on_c, 0, 69, 90
2, 96768, Note_on_c, 0, 69, 0
2, 96768, Note_on_c, 0, 71, 90
2, 96960, Note_on_c, 0, 71, 0
2, 96960, Note_on_c, 0, 67, 90
2, 97152, Note_on_c, 0, 67, 0
2, 97152, Note_on_c, 0, 69, 90
2, 97344, Note_on_c, 0, 69, 0
2, 97344, Note_on_c, 0, 71, 90
2, 97536, Note_on_c, 0, 71, 0
2, 97536, Note_on_c, 0, 74, 90
2, 97728, Note_on_c, 0, 74, 0
2, 97728, Note_on_c, 0, 72, 90
2, 97920, Note_on_c, 0, 72, 0
2, 97920, Note_on_c, 0, 72, 90
2, 98112, Note_on_c, 0, 72, 0
2, 98112, Note_on_c, 0, 76, 90
2, 98304, Note_on_c, 0, 76, 0
2, 98304, Note_on_c, 0, 74, 90
2, 98496, Note_on_c, 0, 74, 0
2, 98496, Note_on_c, 0, 74, 90
2, 98688, Note_on_c, 0, 74, 0
2, 98688, Note_on_c, 0, 79, 90
2, 98880, Note_on_c, 0, 79, 0
2, 98880, Note_on_c, 0, 78, 90
2, 99072, Note_on_c, 0, 78, 0
2, 99072, Note_on_c, 0, 79, 90
2, 99264, Note_on_c, 0, 79, 0
2, 99264, Note_on_c, 0, 74, 90
2, 99456, Note_on_c, 0, 74, 0
2, 99456, Note_on_c, 0, 71, 90
2, 99648, Note_on_c, 0, 71, 0
2, 99648, Note_on_c, 0, 67, 90
2, 99840, Note_on_c, 0, 67, 0
2, 99840, Note_on_c, 0, 69, 90
2, 100032, Note_on_c, 0, 69, 0
2, 100032, Note_on_c, 0, 71, 90
2, 100224, Note_on_c, 0, 71, 0
2, 100224, Note_on_c, 0, 64, 90
2, 100416, Note_on_c, 0, 64, 0
2, 100416, Note_on_c, 0, 74, 90
2, 100608, Note_on_c, 0, 74, 0
2, 100608, Note_on_c, 0, 72, 90
2, 100800, Note_on_c, 0, 72, 0
2, 100800, Note_on_c, 0, 71, 90
2, 100992, Note_on_c, 0, 71, 0
2, 100992, Note_on_c, 0, 69, 90
2, 101184, Note_on_c, 0, 69, 0
2, 101184, Note_on_c, 0, 67, 90
2, 101376, Note_on_c, 0, 67, 0
2, 101376, Note_on_c, 0, 62, 90
2, 101568, Note_on_c, 0, 62, 0
2, 101568, Note_on_c, 0, 67, 90
2, 101760, Note_on_c, 0, 67, 0
2, 101760, Note_on_c, 0, 66, 90
2, 101952, Note_on_c, 0, 66, 0
2, 101952, Note_on_c, 0, 67, 90
2, 102144, Note_on_c, 0, 67, 0
2, 102144, Note_on_c, 0, 71, 90
2, 102336, Note_on_c, 0, 71, 0
2, 102336, Note_on_c, 0, 74, 90
2, 102528, Note_on_c, 0, 74, 0
2, 102528, Note_on_c, 0, 79, 90
2, 102720, Note_on_c, 0, 79, 0
2, 102720, Note_on_c, 0, 74, 90
2, 102912, Note_on_c, 0, 74, 0
2, 102912, Note_on_c, 0, 71, 90
2, 103104, Note_on_c, 0, 71, 0
2, 103104, Note_on_c, 0, 67, 90
2, 103296, Note_on_c, 0, 67, 0
2, 103296, Note_on_c, 0, 71, 90
2, 103488, Note_on_c, 0, 71, 0
2, 103488, Note_on_c, 0, 74, 90
2, 103680, Note_on_c, 0, 74, 0
2, 103680, Note_on_c, 0, 77, 90
2, 103872, Note_on_c, 0, 77, 0
2, 103872, Note_on_c, 0, 74, 90
2, 104064, Note_on_c, 0, 74, 0
2, 104064, Note_on_c, 0, 71, 90
2, 104256, Note_on_c, 0, 71, 0
2, 104256, Note_on_c, 0, 67, 90
2, 104448, Note_on_c, 0, 67, 0
2, 104448, Note_on_c, 0, 71, 90
2, 104640, Note_on_c, 0, 71, 0
2, 104640, Note_on_c, 0, 74, 90
2, 104832, Note_on_c, 0, 74, 0
2, 104832, Note_on_c, 0, 76, 90
2, 105024, Note_on_c, 0, 76, 0
2, 105024, Note_on_c, 0, 72, 90
2, 105216, Note_on_c, 0, 72, 0
2, 105216, Note_on_c, 0, 69, 90
2, 105408, Note_on_c, 0, 69, 0
2, 105408, Note_on_c, 0, 66, 90
2, 105600, Note_on_c, 0, 66, 0
2, 105600, Note_on_c, 0, 69, 90
2, 105792, Note_on_c, 0, 69, 0
2, 105792, Note_on_c, 0, 72, 90
2, 105984, Note_on_c, 0, 72, 0
2, 105984, Note_on_c, 0, 74, 90
2, 106176, Note_on_c, 0, 74, 0
2, 106176, Note_on_c, 0, 71, 90
2, 106368, Note_on_c, 0, 71, 0
2, 106368, Note_on_c, 0, 67, 90
2, 106560, Note_on_c, 0, 67, 0
2, 106560, Note_on_c, 0, 64, 90
2, 106752, Note_on_c, 0, 64, 0
2, 106752, Note_on_c, 0, 67, 90
2, 106944, Note_on_c, 0, 67, 0
2, 106944, Note_on_c, 0, 71, 90
2, 107136, Note_on_c, 0, 71, 0
2, 107136, Note_on_c, 0, 72, 90
2, 107328, Note_on_c, 0, 72, 0
2, 107328, Note_on_c, 0, 69, 90
2, 107520, Note_on_c, 0, 69, 0
2, 107520, Note_on_c, 0, 66, 90
2, 107712, Note_on_c, 0, 66, 0
2, 107712, Note_on_c, 0, 62, 90
2, 107904, Note_on_c, 0, 62, 0
2, 107904, Note_on_c, 0, 66, 90
2, 108096, Note_on_c, 0, 66, 0
2, 108096, Note_on_c, 0, 69, 90
2, 108288, Note_on_c, 0, 69, 0
2, 108288, Note_on_c, 0, 72, 90
2, 108480, Note_on_c, 0, 72, 0
2, 108480, Note_on_c, 0, 71, 90
2, 108672, Note_on_c, 0, 71, 0
2, 108672, Note_on_c, 0, 69, 90
2, 108864, Note_on_c, 0, 69, 0
2, 108864, Note_on_c, 0, 71, 90
2, 109056, Note_on_c, 0, 71, 0
2, 109056, Note_on_c, 0, 67, 90
2, 109248, Note_on_c, 0, 67, 0
2, 109248, Note_on_c, 0, 69, 90
2, 109440, Note_on_c, 0, 69, 0
2, 109440, Note_on_c, 0, 71, 90
2, 109632, Note_on_c, 0, 71, 0
2, 109632, Note_on_c, 0, 74, 90
2, 109824, Note_on_c, 0, 74, 0
2, 109824, Note_on_c, 0, 72, 90
2, 110016, Note_on_c, 0, 72, 0
2, 110016, Note_on_c, 0, 72, 90
2, 110208, Note_on_c, 0, 72, 0
2, 110208, Note_on_c, 0, 76, 90
2, 110400, Note_on_c, 0, 76, 0
2, 110400, Note_on_c, 0, 74, 90
2, 110592, Note_on_c, 0, 74, 0
2, 110592, Note_on_c, 0, 74, 90
2, 110784, Note_on_c, 0, 74, 0
2, 110784, Note_on_c, 0, 79, 90
2, 110976, Note_on_c, 0, 79, 0
2, 110976, Note_on_c, 0, 78, 90
2, 111168, Note_on_c, 0, 78, 0
2, 111168, Note_on_c, 0, 79, 90
2, 111360, Note_on_c, 0, 79, 0
2, 111360, Note_on_c, 0, 74, 90
2, 111552, Note_on_c, 0, 74, 0
2, 111552, Note_on_c, 0, 71, 90
2, 111744, Note_on_c, 0, 71, 0
2, 111744, Note_on_c, 0, 67, 90
2, 111936, Note_on_c, 0, 67, 0
2, 111936, Note_on_c, 0, 69, 90
2, 112128, Note_on_c, 0, 69, 0
2, 112128, Note_on_c, 0, 71, 90
2, 112320, Note_on_c, 0, 71, 0
2, 112320, Note_on_c, 0, 72, 90
2, 112512, Note_on_c, 0, 72, 0
2, 112512, Note_on_c, 0, 74, 90
2, 112704, Note_on_c, 0, 74, 0
2, 112704, Note_on_c, 0, 76, 90
2, 112896, Note_on_c, 0, 76, 0
2, 112896, Note_on_c, 0, 74, 90
2, 113088, Note_on_c, 0, 74, 0
2, 113088, Note_on_c, 0, 72, 90
2, 113280, Note_on_c, 0, 72, 0
2, 113280, Note_on_c, 0, 71, 90
2, 113472, Note_on_c, 0, 71, 0
2, 113472, Note_on_c, 0, 69, 90
2, 113664, Note_on_c, 0, 69, 0
2, 113664, Note_on_c, 0, 71, 90
2, 113856, Note_on_c, 0, 71, 0
2, 113856, Note_on_c, 0, 67, 90
2, 114048, Note_on_c, 0, 67, 0
2, 114048, Note_on_c, 0, 66, 90
2, 114240, Note_on_c, 0, 66, 0
2, 114240, Note_on_c, 0, 67, 90
2, 114432, Note_on_c, 0, 67, 0
2, 114432, Note_on_c, 0, 69, 90
2, 114624, Note_on_c, 0, 69, 0
2, 114624, Note_on_c, 0, 62, 90
2, 114816, Note_on_c, 0, 62, 0
2, 114816, Note_on_c, 0, 66, 90
2, 115008, Note_on_c, 0, 66, 0
2, 115008, Note_on_c, 0, 69, 90
2, 115200, Note_on_c, 0, 69, 0
2, 115200, Note_on_c, 0, 72, 90
2, 115392, Note_on_c, 0, 72, 0
2, 115392, Note_on_c, 0, 71, 90
2, 115584, Note_on_c, 0, 71, 0
2, 115584, Note_on_c, 0, 69, 90
2, 115776, Note_on_c, 0, 69, 0
2, 115776, Note_on_c, 0, 71, 90
2, 115968, Note_on_c, 0, 71, 0
2, 115968, Note_on_c, 0, 67, 90
2, 116160, Note_on_c, 0, 67, 0
2, 116160, Note_on_c, 0, 69, 90
2, 116352, Note_on_c, 0, 69, 0
2, 116352, Note_on_c, 0, 71, 90
2, 116544, Note_on_c, 0, 71, 0
2, 116544, Note_on_c, 0, 74, 90
2, 116736, Note_on_c, 0, 74, 0
2, 116736, Note_on_c, 0, 72, 90
2, 116928, Note_on_c, 0, 72, 0
2, 116928, Note_on_c, 0, 72, 90
2, 117120, Note_on_c, 0, 72, 0
2, 117120, Note_on_c, 0, 76, 90
2, 117312, Note_on_c, 0, 76, 0
2, 117312, Note_on_c, 0, 74, 90
2, 117504, Note_on_c, 0, 74, 0
2, 117504, Note_on_c, 0, 74, 90
2, 117696, Note_on_c, 0, 74, 0
2, 117696, Note_on_c, 0, 79, 90
2, 117888, Note_on_c, 0, 79, 0
2, 117888, Note_on_c, 0, 78, 90
2, 118080, Note_on_c, 0, 78, 0
2, 118080, Note_on_c, 0, 79, 90
2, 118272, Note_on_c, 0, 79, 0
2, 118272, Note_on_c, 0, 74, 90
2, 118464, Note_on_c, 0, 74, 0
2, 118464, Note_on_c, 0, 71, 90
2, 118656, Note_on_c, 0, 71, 0
2, 118656, Note_on_c, 0, 67, 90
2, 118848, Note_on_c, 0, 67, 0
2, 118848, Note_on_c, 0, 69, 90
2, 119040, Note_on_c, 0, 69, 0
2, 119040, Note_on_c, 0, 71, 90
2, 119232, Note_on_c, 0, 71, 0
2, 119232, Note_on_c, 0, 64, 90
2, 119424, Note_on_c, 0, 64, 0
2, 119424, Note_on_c, 0, 74, 90
2, 119616, Note_on_c, 0, 74, 0
2, 119616, Note_on_c, 0, 72, 90
2, 119808, Note_on_c, 0, 72, 0
2, 119808, Note_on_c, 0, 71, 90
2, 120000, Note_on_c, 0, 71, 0
2, 120000, Note_on_c, 0, 69, 90
2, 120192, Note_on_c, 0, 69, 0
2, 120192, Note_on_c, 0, 67, 90
2, 120384, Note_on_c, 0, 67, 0
2, 120384, Note_on_c, 0, 62, 90
2, 120576, Note_on_c, 0, 62, 0
2, 120576, Note_on_c, 0, 67, 90
2, 120768, Note_on_c, 0, 67, 0
2, 120768, Note_on_c, 0, 66, 90
2, 120960, Note_on_c, 0, 66, 0
2, 120960, Note_on_c, 0, 67, 90
2, 122688, Note_on_c, 0, 67, 0
2, 122688, End_track
3, 0, Start_track
3, 0, Key_signature, 1, "major"
3, 0, Control_c, 1, 7, 100
3, 576, Note_on_c, 1, 67, 90
3, 960, Note_on_c, 1, 67, 0
3, 960, Note_on_c, 1, 66, 90
3, 1152, Note_on_c, 1, 66, 0
3, 1152, Note_on_c, 1, 67, 90
3, 1536, Note_on_c, 1, 67, 0
3, 1536, Note_on_c, 1, 69, 90
3, 1728, Note_on_c, 1, 69, 0
3, 1728, Note_on_c, 1, 71, 90
3, 2112, Note_on_c, 1, 71, 0
3, 2112, Note_on_c, 1, 69, 90
3, 2304, Note_on_c, 1, 69, 0
3, 2304, Note_on_c, 1, 71, 90
3, 2688, Note_on_c, 1, 71, 0
3, 2688, Note_on_c, 1, 67, 90
3, 2880, Note_on_c, 1, 67, 0
3, 2880, Note_on_c, 1, 64, 90
3, 3264, Note_on_c, 1, 64, 0
3, 3264, Note_on_c, 1, 62, 90
3, 3456, Note_on_c, 1, 62, 0
3, 3456, Note_on_c, 1, 64, 90
3, 3840, Note_on_c, 1, 64, 0
3, 3840, Note_on_c, 1, 66, 90
3, 4032, Note_on_c, 1, 66, 0
3, 4032, Note_on_c, 1, 67, 90
3, 4416, Note_on_c, 1, 67, 0
3, 4416, Note_on_c, 1, 62, 90
3, 4608, Note_on_c, 1, 62, 0
3, 4608, Note_on_c, 1, 64, 90
3, 4992, Note_on_c, 1, 64, 0
3, 4992, Note_on_c, 1, 59, 90
3, 5184, Note_on_c, 1, 59, 0
3, 5184, Note_on_c, 1, 60, 90
3, 5568, Note_on_c, 1, 60, 0
3, 5568, Note_on_c, 1, 62, 90
3, 5760, Note_on_c, 1, 62, 0
3, 5760, Note_on_c, 1, 69, 90
3, 6144, Note_on_c, 1, 69, 0
3, 6144, Note_on_c, 1, 67, 90
3, 6336, Note_on_c, 1, 67, 0
3, 6336, Note_on_c, 1, 69, 90
3, 6720, Note_on_c, 1, 69, 0
3, 6720, Note_on_c, 1, 66, 90
3, 6912, Note_on_c, 1, 66, 0
3, 6912, Note_on_c, 1, 67, 90
3, 7296, Note_on_c, 1, 67, 0
3, 7296, Note_on_c, 1, 66, 90
3, 7488, Note_on_c, 1, 66, 0
3, 7488, Note_on_c, 1, 67, 90
3, 7872, Note_on_c, 1, 67, 0
3, 7872, Note_on_c, 1, 66, 90
3, 8064, Note_on_c, 1, 66, 0
3, 8064, Note_on_c, 1, 67, 90
3, 8448, Note_on_c, 1, 67, 0
3, 8448, Note_on_c, 1, 69, 90
3, 8640, Note_on_c, 1, 69, 0
3, 8640, Note_on_c, 1, 71, 90
3, 9024, Note_on_c, 1, 71, 0
3, 9024, Note_on_c, 1, 69, 90
3, 9216, Note_on_c, 1, 69, 0
3, 9216, Note_on_c, 1, 71, 90
3, 9600, Note_on_c, 1, 71, 0
3, 9600, Note_on_c, 1, 67, 90
3, 9792, Note_on_c, 1, 67, 0
3, 9792, Note_on_c, 1, 64, 90
3, 10176, Note_on_c, 1, 64, 0
3, 10176, Note_on_c, 1, 67, 90
3, 10368, Note_on_c, 1, 67, 0
3, 10368, Note_on_c, 1, 69, 90
3, 10752, Note_on_c, 1, 69, 0
3, 10752, Note_on_c, 1, 66, 90
3, 10944, Note_on_c, 1, 66, 0
3, 10944, Note_on_c, 1, 67, 90
3, 11328, Note_on_c, 1, 67, 0
3, 11328, Note_on_c, 1, 64, 90
3, 11520, Note_on_c, 1, 64, 0
3, 11520, Note_on_c, 1, 62, 90
3, 11904, Note_on_c, 1, 62, 0
3, 11904, Note_on_c, 1, 60, 90
3, 12096, Note_on_c, 1, 60, 0
3, 12096, Note_on_c, 1, 62, 90
3, 12480, Note_on_c, 1, 62, 0
3, 12480, Note_on_c, 1, 67, 90
3, 12672, Note_on_c, 1, 67, 0
3, 12672, Note_on_c, 1, 71, 90
3, 13056, Note_on_c, 1, 71, 0
3, 13056, Note_on_c, 1, 74, 90
3, 13248, Note_on_c, 1, 74, 0
3, 13248, Note_on_c, 1, 67, 90
3, 13632, Note_on_c, 1, 67, 0
3, 13632, Note_on_c, 1, 64, 90
3, 13824, Note_on_c, 1, 64, 0
3, 14976, Note_on_c, 1, 64, 90
3, 15552, Note_on_c, 1, 64, 0
3, 15552, Note_on_c, 1, 57, 90
3, 16704, Note_on_c, 1, 57, 0
3, 16704, Note_on_c, 1, 59, 90
3, 17856, Note_on_c, 1, 59, 0
3, 17856, Note_on_c, 1, 57, 90
3, 18432, Note_on_c, 1, 57, 0
3, 18432, Note_on_c, 1, 57, 90
3, 19008, Note_on_c, 1, 57, 0
3, 19008, Note_on_c, 1, 57, 90
3, 19584, Note_on_c, 1, 57, 0
3, 19584, Note_on_c, 1, 57, 90
3, 20160, Note_on_c, 1, 57, 0
3, 22464, Note_on_c, 1, 59, 90
3, 23616, Note_on_c, 1, 59, 0
3, 23616, Note_on_c, 1, 60, 90
3, 24192, Note_on_c, 1, 60, 0
3, 24192, Note_on_c, 1, 62, 90
3, 25344, Note_on_c, 1, 62, 0
3, 25344, Note_on_c, 1, 59, 90
3, 25920, Note_on_c, 1, 59, 0
3, 25920, Note_on_c, 1, 57, 90
3, 26208, Note_on_c, 1, 57, 0
3, 26208, Note_on_c, 1, 59, 90
3, 26352, Note_on_c, 1, 59, 0
3, 26352, Note_on_c, 1, 60, 90
3, 26496, Note_on_c, 1, 60, 0
3, 26496, Note_on_c, 1, 59, 90
3, 27072, Note_on_c, 1, 59, 0
3, 27072, Note_on_c, 1, 57, 90
3, 27648, Note_on_c, 1, 57, 0
3, 27648, Note_on_c, 1, 55, 90
3, 28800, Note_on_c, 1, 55, 0
3, 28800, Note_on_c, 1, 67, 90
3, 29184, Note_on_c, 1, 67, 0
3, 29184, Note_on_c, 1, 69, 90
3, 29376, Note_on_c, 1, 69, 0
3, 29376, Note_on_c, 1, 71, 90
3, 29760, Note_on_c, 1, 71, 0
3, 29760, Note_on_c, 1, 69, 90
3, 29952, Note_on_c, 1, 69, 0
3, 29952, Note_on_c, 1, 71, 90
3, 30336, Note_on_c, 1, 71, 0
3, 30336, Note_on_c, 1, 67, 90
3, 30528, Note_on_c, 1, 67, 0
3, 30528, Note_on_c, 1, 64, 90
3, 30912, Note_on_c, 1, 64, 0
3, 30912, Note_on_c, 1, 62, 90
3, 31104, Note_on_c, 1, 62, 0
3, 31104, Note_on_c, 1, 64, 90
3, 31488, Note_on_c, 1, 64, 0
3, 31488, Note_on_c, 1, 66, 90
3, 31680, Note_on_c, 1, 66, 0
3, 31680, Note_on_c, 1, 67, 90
3, 32064, Note_on_c, 1, 67, 0
3, 32064, Note_on_c, 1, 62, 90
3, 32256, Note_on_c, 1, 62, 0
3, 32256, Note_on_c, 1, 64, 90
3, 32640, Note_on_c, 1, 64, 0
3, 32640, Note_on_c, 1, 59, 90
3, 32832, Note_on_c, 1, 59, 0
3, 32832, Note_on_c, 1, 60, 90
3, 33216, Note_on_c, 1, 60, 0
3, 33216, Note_on_c, 1, 62, 90
3, 33408, Note_on_c, 1, 62, 0
3, 33408, Note_on_c, 1, 69, 90
3, 33792, Note_on_c, 1, 69, 0
3, 33792, Note_on_c, 1, 67, 90
3, 33984, Note_on_c, 1, 67, 0
3, 33984, Note_on_c, 1, 69, 90
3, 34368, Note_on_c, 1, 69, 0
3, 34368, Note_on_c, 1, 66, 90
3, 34560, Note_on_c, 1, 66, 0
3, 34560, Note_on_c, 1, 67, 90
3, 34944, Note_on_c, 1, 67, 0
3, 34944, Note_on_c, 1, 66, 90
3, 35136, Note_on_c, 1, 66, 0
3, 35136, Note_on_c, 1, 67, 90
3, 35520, Note_on_c, 1, 67, 0
3, 35520, Note_on_c, 1, 66, 90
3, 35712, Note_on_c, 1, 66, 0
3, 35712, Note_on_c, 1, 67, 90
3, 36096, Note_on_c, 1, 67, 0
3, 36096, Note_on_c, 1, 69, 90
3, 36288, Note_on_c, 1, 69, 0
3, 36288, Note_on_c, 1, 71, 90
3, 36672, Note_on_c, 1, 71, 0
3, 36672, Note_on_c, 1, 69, 90
3, 36864, Note_on_c, 1, 69, 0
3, 36864, Note_on_c, 1, 71, 90
3, 37248, Note_on_c, 1, 71, 0
3, 37248, Note_on_c, 1, 67, 90
3, 37440, Note_on_c, 1, 67, 0
3, 37440, Note_on_c, 1, 64, 90
3, 37824, Note_on_c, 1, 64, 0
3, 37824, Note_on_c, 1, 67, 90
3, 38016, Note_on_c, 1, 67, 0
3, 38016, Note_on_c, 1, 69, 90
3, 38400, Note_on_c, 1, 69, 0
3, 38400, Note_on_c, 1, 66, 90
3, 38592, Note_on_c, 1, 66, 0
3, 38592, Note_on_c, 1, 67, 90
3, 38976, Note_on_c, 1, 67, 0
3, 38976, Note_on_c, 1, 64, 90
3, 39168, Note_on_c, 1, 64, 0
3, 39168, Note_on_c, 1, 62, 90
3, 39552, Note_on_c, 1, 62, 0
3, 39552, Note_on_c, 1, 60, 90
3, 39744, Note_on_c, 1, 60, 0
3, 40896, Note_on_c, 1, 64, 90
3, 41472, Note_on_c, 1, 64, 0
3, 41472, Note_on_c, 1, 57, 90
3, 42624, Note_on_c, 1, 57, 0
3, 42624, Note_on_c, 1, 59, 90
3, 43776, Note_on_c, 1, 59, 0
3, 43776, Note_on_c, 1, 57, 90
3, 44352, Note_on_c, 1, 57, 0
3, 44352, Note_on_c, 1, 55, 90
3, 44928, Note_on_c, 1, 55, 0
3, 44928, Note_on_c, 1, 57, 90
3, 45504, Note_on_c, 1, 57, 0
3, 45504, Note_on_c, 1, 57, 90
3, 46080, Note_on_c, 1, 57, 0
3, 48384, Note_on_c, 1, 59, 90
3, 49536, Note_on_c, 1, 59, 0
3, 49536, Note_on_c, 1, 60, 90
3, 50112, Note_on_c, 1, 60, 0
3, 50112, Note_on_c, 1, 62, 90
3, 51264, Note_on_c, 1, 62, 0
3, 51264, Note_on_c, 1, 59, 90
3, 51840, Note_on_c, 1, 59, 0
3, 51840, Note_on_c, 1, 57, 90
3, 52128, Note_on_c, 1, 57, 0
3, 52128, Note_on_c, 1, 59, 90
3, 52272, Note_on_c, 1, 59, 0
3, 52272, Note_on_c, 1, 60, 90
3, 52416, Note_on_c, 1, 60, 0
3, 52416, Note_on_c, 1, 59, 90
3, 52992, Note_on_c, 1, 59, 0
3, 52992, Note_on_c, 1, 57, 90
3, 53568, Note_on_c, 1, 57, 0
3, 53568, Note_on_c, 1, 55, 90
3, 54720, Note_on_c, 1, 55, 0
3, 54720, Note_on_c, 1, 67, 90
3, 55104, Note_on_c, 1, 67, 0
3, 55104, Note_on_c, 1, 69, 90
3, 55296, Note_on_c, 1, 69, 0
3, 55296, Note_on_c, 1, 71, 90
3, 55680, Note_on_c, 1, 71, 0
3, 55680, Note_on_c, 1, 69, 90
3, 55872, Note_on_c, 1, 69, 0
3, 55872, Note_on_c, 1, 71, 90
3, 56256, Note_on_c, 1, 71, 0
3, 56256, Note_on_c, 1, 67, 90
3, 56448, Note_on_c, 1, 67, 0
3, 56448, Note_on_c, 1, 64, 90
3, 56832, Note_on_c, 1, 64, 0
3, 56832, Note_on_c, 1, 62, 90
3, 57024, Note_on_c, 1, 62, 0
3, 57024, Note_on_c, 1, 64, 90
3, 57408, Note_on_c, 1, 64, 0
3, 57408, Note_on_c, 1, 66, 90
3, 57600, Note_on_c, 1, 66, 0
3, 57600, Note_on_c, 1, 67, 90
3, 57984, Note_on_c, 1, 67, 0
3, 57984, Note_on_c, 1, 62, 90
3, 58176, Note_on_c, 1, 62, 0
3, 58176, Note_on_c, 1, 64, 90
3, 58560, Note_on_c, 1, 64, 0
3, 58560, Note_on_c, 1, 59, 90
3, 58752, Note_on_c, 1, 59, 0
3, 58752, Note_on_c, 1, 60, 90
3, 59136, Note_on_c, 1, 60, 0
3, 59136, Note_on_c, 1, 62, 90
3, 59328, Note_on_c, 1, 62, 0
3, 59328, Note_on_c, 1, 69, 90
3, 59712, Note_on_c, 1, 69, 0
3, 59712, Note_on_c, 1, 67, 90
3, 59904, Note_on_c, 1, 67, 0
3, 59904, Note_on_c, 1, 69, 90
3, 60288, Note_on_c, 1, 69, 0
3, 60288, Note_on_c, 1, 66, 90
3, 60480, Note_on_c, 1, 66, 0
3, 60480, Note_on_c, 1, 67, 90
3, 60864, Note_on_c, 1, 67, 0
3, 60864, Note_on_c, 1, 66, 90
3, 61056, Note_on_c, 1, 66, 0
3, 61056, Note_on_c, 1, 67, 90
3, 61440, Note_on_c, 1, 67, 0
3, 61440, Note_on_c, 1, 66, 90
3, 61632, Note_on_c, 1, 66, 0
3, 61632, Note_on_c, 1, 67, 90
3, 62016, Note_on_c, 1, 67, 0
3, 62016, Note_on_c, 1, 69, 90
3, 62208, Note_on_c, 1, 69, 0
3, 62208, Note_on_c, 1, 71, 90
3, 62592, Note_on_c, 1, 71, 0
3, 62592, Note_on_c, 1, 69, 90
3, 62784, Note_on_c, 1, 69, 0
3, 62784, Note_on_c, 1, 71, 90
3, 63168, Note_on_c, 1, 71, 0
3, 63168, Note_on_c, 1, 67, 90
3, 63360, Note_on_c, 1, 67, 0
3, 63360, Note_on_c, 1, 64, 90
3, 63744, Note_on_c, 1, 64, 0
3, 63744, Note_on_c, 1, 67, 90
3, 63936, Note_on_c, 1, 67, 0
3, 63936, Note_on_c, 1, 69, 90
3, 64320, Note_on_c, 1, 69, 0
3, 64320, Note_on_c, 1, 66, 90
3, 64512, Note_on_c, 1, 66, 0
3, 64512, Note_on_c, 1, 67, 90
3, 64896, Note_on_c, 1, 67, 0
3, 64896, Note_on_c, 1, 64, 90
3, 65088, Note_on_c, 1, 64, 0
3, 65088, Note_on_c, 1, 62, 90
3, 65472, Note_on_c, 1, 62, 0
3, 65472, Note_on_c, 1, 60, 90
3, 65664, Note_on_c, 1, 60, 0
3, 65664, Note_on_c, 1, 62, 90
3, 66816, Note_on_c, 1, 62, 0
3, 67392, Note_on_c, 1, 57, 90
3, 68544, Note_on_c, 1, 57, 0
3, 68544, Note_on_c, 1, 59, 90
3, 69120, Note_on_c, 1, 59, 0
3, 69120, Note_on_c, 1, 60, 90
3, 70272, Note_on_c, 1, 60, 0
3, 70272, Note_on_c, 1, 60, 90
3, 70848, Note_on_c, 1, 60, 0
3, 70848, Note_on_c, 1, 59, 90
3, 71712, Note_on_c, 1, 59, 0
3, 71712, Note_on_c, 1, 60, 90
3, 71856, Note_on_c, 1, 60, 0
3, 71856, Note_on_c, 1, 62, 90
3, 72000, Note_on_c, 1, 62, 0
3, 72000, Note_on_c, 1, 59, 90
3, 72576, Note_on_c, 1, 59, 0
3, 72576, Note_on_c, 1, 57, 90
3, 73152, Note_on_c, 1, 57, 0
3, 73152, Note_on_c, 1, 57, 90
3, 73728, Note_on_c, 1, 57, 0
3, 74304, Note_on_c, 1, 72, 90
3, 74688, Note_on_c, 1, 72, 0
3, 74688, Note_on_c, 1, 71, 90
3, 74880, Note_on_c, 1, 71, 0
3, 74880, Note_on_c, 1, 72, 90
3, 75264, Note_on_c, 1, 72, 0
3, 75264, Note_on_c, 1, 69, 90
3, 75456, Note_on_c, 1, 69, 0
3, 75456, Note_on_c, 1, 66, 90
3, 75840, Note_on_c, 1, 66, 0
3, 75840, Note_on_c, 1, 69, 90
3, 76032, Note_on_c, 1, 69, 0
3, 76032, Note_on_c, 1, 69, 90
3, 76416, Note_on_c, 1, 69, 0
3, 76416, Note_on_c, 1, 68, 90
3, 76608, Note_on_c, 1, 68, 0
3, 76608, Note_on_c, 1, 69, 90
3, 76992, Note_on_c, 1, 69, 0
3, 76992, Note_on_c, 1, 66, 90
3, 77184, Note_on_c, 1, 66, 0
3, 77184, Note_on_c, 1, 64, 90
3, 77568, Note_on_c, 1, 64, 0
3, 77568, Note_on_c, 1, 62, 90
3, 77760, Note_on_c, 1, 62, 0
3, 77760, Note_on_c, 1, 60, 90
3, 78912, Note_on_c, 1, 60, 0
3, 78912, Note_on_c, 1, 62, 90
3, 79488, Note_on_c, 1, 62, 0
3, 79488, Note_on_c, 1, 64, 90
3, 80640, Note_on_c, 1, 64, 0
3, 80640, Note_on_c, 1, 64, 90
3, 81216, Note_on_c, 1, 64, 0
3, 81216, Note_on_c, 1, 62, 90
3, 82080, Note_on_c, 1, 62, 0
3, 82080, Note_on_c, 1, 64, 90
3, 82224, Note_on_c, 1, 64, 0
3, 82224, Note_on_c, 1, 65, 90
3, 82368, Note_on_c, 1, 65, 0
3, 82368, Note_on_c, 1, 62, 90
3, 82944, Note_on_c, 1, 62, 0
3, 82944, Note_on_c, 1, 60, 90
3, 83520, Note_on_c, 1, 60, 0
3, 83520, Note_on_c, 1, 60, 90
3, 84096, Note_on_c, 1, 60, 0
3, 84672, Note_on_c, 1, 65, 90
3, 85056, Note_on_c, 1, 65, 0
3, 85056, Note_on_c, 1, 62, 90
3, 85248, Note_on_c, 1, 62, 0
3, 85248, Note_on_c, 1, 69, 90
3, 85632, Note_on_c, 1, 69, 0
3, 85632, Note_on_c, 1, 69, 90
3, 85824, Note_on_c, 1, 69, 0
3, 85824, Note_on_c, 1, 71, 90
3, 86208, Note_on_c, 1, 71, 0
3, 86208, Note_on_c, 1, 74, 90
3, 86400, Note_on_c, 1, 74, 0
3, 86400, Note_on_c, 1, 72, 90
3, 86784, Note_on_c, 1, 72, 0
3, 86784, Note_on_c, 1, 67, 90
3, 86976, Note_on_c, 1, 67, 0
3, 86976, Note_on_c, 1, 72, 90
3, 87360, Note_on_c, 1, 72, 0
3, 87360, Note_on_c, 1, 69, 90
3, 87552, Note_on_c, 1, 69, 0
3, 87552, Note_on_c, 1, 74, 90
3, 87936, Note_on_c, 1, 74, 0
3, 87936, Note_on_c, 1, 62, 90
3, 88128, Note_on_c, 1, 62, 0
3, 88128, Note_on_c, 1, 59, 90
3, 89280, Note_on_c, 1, 59, 0
3, 89280, Note_on_c, 1, 60, 90
3, 89856, Note_on_c, 1, 60, 0
3, 89856, Note_on_c, 1, 62, 90
3, 91008, Note_on_c, 1, 62, 0
3, 91008, Note_on_c, 1, 62, 90
3, 91584, Note_on_c, 1, 62, 0
3, 91584, Note_on_c, 1, 60, 90
3, 92160, Note_on_c, 1, 60, 0
3, 92160, Note_on_c, 1, 59, 90
3, 93312, Note_on_c, 1, 59, 0
3, 93312, Note_on_c, 1, 57, 90
3, 94464, Note_on_c, 1, 57, 0
3, 96768, Note_on_c, 1, 59, 90
3, 97920, Note_on_c, 1, 59, 0
3, 97920, Note_on_c, 1, 60, 90
3, 98496, Note_on_c, 1, 60, 0
3, 98496, Note_on_c, 1, 62, 90
3, 99648, Note_on_c, 1, 62, 0
3, 99648, Note_on_c, 1, 59, 90
3, 100224, Note_on_c, 1, 59, 0
3, 100224, Note_on_c, 1, 57, 90
3, 100512, Note_on_c, 1, 57, 0
3, 100512, Note_on_c, 1, 59, 90
3, 100656, Note_on_c, 1, 59, 0
3, 100656, Note_on_c, 1, 60, 90
3, 100800, Note_on_c, 1, 60, 0
3, 100800, Note_on_c, 1, 57, 90
3, 101952, Note_on_c, 1, 57, 0
3, 101952, Note_on_c, 1, 55, 90
3, 103680, Note_on_c, 1, 55, 0
3, 109440, Note_on_c, 1, 67, 90
3, 109824, Note_on_c, 1, 67, 0
3, 109824, Note_on_c, 1, 66, 90
3, 110016, Note_on_c, 1, 66, 0
3, 110016, Note_on_c, 1, 67, 90
3, 110400, Note_on_c, 1, 67, 0
3, 110400, Note_on_c, 1, 69, 90
3, 110592, Note_on_c, 1, 69, 0
3, 110592, Note_on_c, 1, 71, 90
3, 110976, Note_on_c, 1, 71, 0
3, 110976, Note_on_c, 1, 69, 90
3, 111168, Note_on_c, 1, 69, 0
3, 111168, Note_on_c, 1, 71, 90
3, 111552, Note_on_c, 1, 71, 0
3, 111552, Note_on_c, 1, 67, 90
3, 111744, Note_on_c, 1, 67, 0
3, 111744, Note_on_c, 1, 64, 90
3, 112128, Note_on_c, 1, 64, 0
3, 112128, Note_on_c, 1, 62, 90
3, 112320, Note_on_c, 1, 62, 0
3, 112320, Note_on_c, 1, 64, 90
3, 112704, Note_on_c, 1, 64, 0
3, 112704, Note_on_c, 1, 66, 90
3, 112896, Note_on_c, 1, 66, 0
3, 112896, Note_on_c, 1, 67, 90
3, 113280, Note_on_c, 1, 67, 0
3, 113280, Note_on_c, 1, 62, 90
3, 113472, Note_on_c, 1, 62, 0
3, 113472, Note_on_c, 1, 64, 90
3, 113856, Note_on_c, 1, 64, 0
3, 113856, Note_on_c, 1, 59, 90
3, 114048, Note_on_c, 1, 59, 0
3, 114048, Note_on_c, 1, 60, 90
3, 114432, Note_on_c, 1, 60, 0
3, 114432, Note_on_c, 1, 62, 90
3, 114624, Note_on_c, 1, 62, 0
3, 114624, Note_on_c, 1, 69, 90
3, 115008, Note_on_c, 1, 69, 0
3, 115008, Note_on_c, 1, 67, 90
3, 115200, Note_on_c, 1, 67, 0
3, 115200, Note_on_c, 1, 69, 90
3, 115584, Note_on_c, 1, 69, 0
3, 115584, Note_on_c, 1, 66, 90
3, 115776, Note_on_c, 1, 66, 0
3, 115776, Note_on_c, 1, 67, 90
3, 116160, Note_on_c, 1, 67, 0
3, 116160, Note_on_c, 1, 66, 90
3, 116352, Note_on_c, 1, 66, 0
3, 116352, Note_on_c, 1, 67, 90
3, 116736, Note_on_c, 1, 67, 0
3, 116736, Note_on_c, 1, 66, 90
3, 116928, Note_on_c, 1, 66, 0
3, 116928, Note_on_c, 1, 67, 90
3, 117312, Note_on_c, 1, 67, 0
3, 117312, Note_on_c, 1, 69, 90
3, 117504, Note_on_c, 1, 69, 0
3, 117504, Note_on_c, 1, 71, 90
3, 117888, Note_on_c, 1, 71, 0
3, 117888, Note_on_c, 1, 69, 90
3, 118080, Note_on_c, 1, 69, 0
3, 118080, Note_on_c, 1, 71, 90
3, 118464, Note_on_c, 1, 71, 0
3, 118464, Note_on_c, 1, 67, 90
3, 118656, Note_on_c, 1, 67, 0
3, 118656, Note_on_c, 1, 64, 90
3, 119040, Note_on_c, 1, 64, 0
3, 119040, Note_on_c, 1, 67, 90
3, 119232, Note_on_c, 1, 67, 0
3, 119232, Note_on_c, 1, 69, 90
3, 119616, Note_on_c, 1, 69, 0
3, 119616, Note_on_c, 1, 66, 90
3, 119808, Note_on_c, 1, 66, 0
3, 119808, Note_on_c, 1, 67, 90
3, 120192, Note_on_c, 1, 67, 0
3, 120192, Note_on_c, 1, 64, 90
3, 120384, Note_on_c, 1, 64, 0
3, 120384, Note_on_c, 1, 62, 90
3, 120768, Note_on_c, 1, 62, 0
3, 120768, Note_on_c, 1, 60, 90
3, 120960, Note_on_c, 1, 60, 0
3, 120960, Note_on_c, 1, 62, 90
3, 122688, Note_on_c, 1, 62, 0
3, 122688, End_track
4, 0, Start_track
4, 0, Key_signature, 1, "major"
4, 0, Control_c, 2, 7, 100
4, 576, Note_on_c, 2, 62, 90
4, 960, Note_on_c, 2, 62, 0
4, 1152, Note_on_c, 2, 64, 90
4, 1536, Note_on_c, 2, 64, 0
4, 1728, Note_on_c, 2, 67, 90
4, 2112, Note_on_c, 2, 67, 0
4, 2304, Note_on_c, 2, 64, 90
4, 2688, Note_on_c, 2, 64, 0
4, 2880, Note_on_c, 2, 59, 90
4, 3264, Note_on_c, 2, 59, 0
4, 3456, Note_on_c, 2, 57, 90
4, 3840, Note_on_c, 2, 57, 0
4, 4032, Note_on_c, 2, 62, 90
4, 4416, Note_on_c, 2, 62, 0
4, 4608, Note_on_c, 2, 60, 90
4, 4992, Note_on_c, 2, 60, 0
4, 5184, Note_on_c, 2, 57, 90
4, 5568, Note_on_c, 2, 57, 0
4, 5760, Note_on_c, 2, 57, 90
4, 6144, Note_on_c, 2, 57, 0
4, 6336, Note_on_c, 2, 66, 90
4, 6720, Note_on_c, 2, 66, 0
4, 6912, Note_on_c, 2, 62, 90
4, 7296, Note_on_c, 2, 62, 0
4, 7488, Note_on_c, 2, 57, 90
4, 7872, Note_on_c, 2, 57, 0
4, 8064, Note_on_c, 2, 64, 90
4, 8448, Note_on_c, 2, 64, 0
4, 8640, Note_on_c, 2, 67, 90
4, 9024, Note_on_c, 2, 67, 0
4, 9216, Note_on_c, 2, 64, 90
4, 9600, Note_on_c, 2, 64, 0
4, 9792, Note_on_c, 2, 59, 90
4, 10176, Note_on_c, 2, 59, 0
4, 10368, Note_on_c, 2, 60, 90
4, 10752, Note_on_c, 2, 60, 0
4, 10944, Note_on_c, 2, 64, 90
4, 11328, Note_on_c, 2, 64, 0
4, 11520, Note_on_c, 2, 57, 90
4, 11904, Note_on_c, 2, 57, 0
4, 12096, Note_on_c, 2, 59, 90
4, 12480, Note_on_c, 2, 59, 0
4, 13056, Note_on_c, 2, 62, 90
4, 13248, Note_on_c, 2, 62, 0
4, 13248, Note_on_c, 2, 59, 90
4, 13632, Note_on_c, 2, 59, 0
4, 13824, Note_on_c, 2, 59, 90
4, 14976, Note_on_c, 2, 59, 0
4, 14976, Note_on_c, 2, 60, 90
4, 15552, Note_on_c, 2, 60, 0
4, 15552, Note_on_c, 2, 62, 90
4, 16704, Note_on_c, 2, 62, 0
4, 16704, Note_on_c, 2, 62, 90
4, 17280, Note_on_c, 2, 62, 0
4, 17280, Note_on_c, 2, 60, 90
4, 18432, Note_on_c, 2, 60, 0
4, 18432, Note_on_c, 2, 59, 90
4, 19008, Note_on_c, 2, 59, 0
4, 19008, Note_on_c, 2, 57, 90
4, 19584, Note_on_c, 2, 57, 0
4, 19584, Note_on_c, 2, 57, 90
4, 20160, Note_on_c, 2, 57, 0
4, 22464, Note_on_c, 2, 59, 90
4, 23616, Note_on_c, 2, 59, 0
4, 23616, Note_on_c, 2, 60, 90
4, 24192, Note_on_c, 2, 60, 0
4, 24192, Note_on_c, 2, 62, 90
4, 25344, Note_on_c, 2, 62, 0
4, 25344, Note_on_c, 2, 59, 90
4, 25920, Note_on_c, 2, 59, 0
4, 25920, Note_on_c, 2, 57, 90
4, 26208, Note_on_c, 2, 57, 0
4, 26208, Note_on_c, 2, 59, 90
4, 26352, Note_on_c, 2, 59, 0
4, 26352, Note_on_c, 2, 60, 90
4, 26496, Note_on_c, 2, 60, 0
4, 26496, Note_on_c, 2, 59, 90
4, 27072, Note_on_c, 2, 59, 0
4, 27072, Note_on_c, 2, 57, 90
4, 27648, Note_on_c, 2, 57, 0
4, 27648, Note_on_c, 2, 55, 90
4, 28800, Note_on_c, 2, 55, 0
4, 28800, Note_on_c, 2, 64, 90
4, 29184, Note_on_c, 2, 64, 0
4, 29376, Note_on_c, 2, 67, 90
4, 29760, Note_on_c, 2, 67, 0
4, 29952, Note_on_c, 2, 64, 90
4, 30336, Note_on_c, 2, 64, 0
4, 30528, Note_on_c, 2, 59, 90
4, 30912, Note_on_c, 2, 59, 0
4, 31104, Note_on_c, 2, 57, 90
4, 31488, Note_on_c, 2, 57, 0
4, 31680, Note_on_c, 2, 62, 90
4, 32064, Note_on_c, 2, 62, 0
4, 32256, Note_on_c, 2, 60, 90
4, 32640, Note_on_c, 2, 60, 0
4, 32832, Note_on_c, 2, 57, 90
4, 33216, Note_on_c, 2, 57, 0
4, 33408, Note_on_c, 2, 57, 90
4, 33792, Note_on_c, 2, 57, 0
4, 33984, Note_on_c, 2, 66, 90
4, 34368, Note_on_c, 2, 66, 0
4, 34560, Note_on_c, 2, 62, 90
4, 34944, Note_on_c, 2, 62, 0
4, 35136, Note_on_c, 2, 55, 90
4, 35520, Note_on_c, 2, 55, 0
4, 35712, Note_on_c, 2, 64, 90
4, 36096, Note_on_c, 2, 64, 0
4, 36288, Note_on_c, 2, 67, 90
4, 36672, Note_on_c, 2, 67, 0
4, 36864, Note_on_c, 2, 64, 90
4, 37248, Note_on_c, 2, 64, 0
4, 37440, Note_on_c, 2, 59, 90
4, 37824, Note_on_c, 2, 59, 0
4, 38016, Note_on_c, 2, 60, 90
4, 38400, Note_on_c, 2, 60, 0
4, 38592, Note_on_c, 2, 64, 90
4, 38976, Note_on_c, 2, 64, 0
4, 39168, Note_on_c, 2, 57, 90
4, 39552, Note_on_c, 2, 57, 0
4, 39744, Note_on_c, 2, 59, 90
4, 40896, Note_on_c, 2, 59, 0
4, 40896, Note_on_c, 2, 60, 90
4, 41472, Note_on_c, 2, 60, 0
4, 41472, Note_on_c, 2, 62, 90
4, 42624, Note_on_c, 2, 62, 0
4, 42624, Note_on_c, 2, 62, 90
4, 43200, Note_on_c, 2, 62, 0
4, 43200, Note_on_c, 2, 60, 90
4, 44352, Note_on_c, 2, 60, 0
4, 44352, Note_on_c, 2, 59, 90
4, 44928, Note_on_c, 2, 59, 0
4, 44928, Note_on_c, 2, 57, 90
4, 45504, Note_on_c, 2, 57, 0
4, 45504, Note_on_c, 2, 57, 90
4, 46080, Note_on_c, 2, 57, 0
4, 48384, Note_on_c, 2, 59, 90
4, 49536, Note_on_c, 2, 59, 0
4, 49536, Note_on_c, 2, 60, 90
4, 50112, Note_on_c, 2, 60, 0
4, 50112, Note_on_c, 2, 62, 90
4, 51264, Note_on_c, 2, 62, 0
4, 51264, Note_on_c, 2, 59, 90
4, 51840, Note_on_c, 2, 59, 0
4, 51840, Note_on_c, 2, 57, 90
4, 52128, Note_on_c, 2, 57, 0
4, 52128, Note_on_c, 2, 59, 90
4, 52272, Note_on_c, 2, 59, 0
4, 52272, Note_on_c, 2, 60, 90
4, 52416, Note_on_c, 2, 60, 0
4, 52416, Note_on_c, 2, 59, 90
4, 52992, Note_on_c, 2, 59, 0
4, 52992, Note_on_c, 2, 57, 90
4, 53568, Note_on_c, 2, 57, 0
4, 53568, Note_on_c, 2, 55, 90
4, 54720, Note_on_c, 2, 55, 0
4, 54720, Note_on_c, 2, 64, 90
4, 55104, Note_on_c, 2, 64, 0
4, 55296, Note_on_c, 2, 67, 90
4, 55680, Note_on_c, 2, 67, 0
4, 55872, Note_on_c, 2, 64, 90
4, 56256, Note_on_c, 2, 64, 0
4, 56448, Note_on_c, 2, 59, 90
4, 56832, Note_on_c, 2, 59, 0
4, 57024, Note_on_c, 2, 57, 90
4, 57408, Note_on_c, 2, 57, 0
4, 57600, Note_on_c, 2, 62, 90
4, 57984, Note_on_c, 2, 62, 0
4, 58176, Note_on_c, 2, 60, 90
4, 58560, Note_on_c, 2, 60, 0
4, 58752, Note_on_c, 2, 57, 90
4, 59136, Note_on_c, 2, 57, 0
4, 59328, Note_on_c, 2, 57, 90
4, 59712, Note_on_c, 2, 57, 0
4, 59904, Note_on_c, 2, 66, 90
4, 60288, Note_on_c, 2, 66, 0
4, 60480, Note_on_c, 2, 62, 90
4, 60864, Note_on_c, 2, 62, 0
4, 61056, Note_on_c, 2, 55, 90
4, 61440, Note_on_c, 2, 55, 0
4, 61632, Note_on_c, 2, 64, 90
4, 62016, Note_on_c, 2, 64, 0
4, 62208, Note_on_c, 2, 67, 90
4, 62592, Note_on_c, 2, 67, 0
4, 62784, Note_on_c, 2, 64, 90
4, 63168, Note_on_c, 2, 64, 0
4, 63360, Note_on_c, 2, 59, 90
4, 63744, Note_on_c, 2, 59, 0
4, 63936, Note_on_c, 2, 60, 90
4, 64320, Note_on_c, 2, 60, 0
4, 64512, Note_on_c, 2, 64, 90
4, 64896, Note_on_c, 2, 64, 0
4, 65088, Note_on_c, 2, 57, 90
4, 65472, Note_on_c, 2, 57, 0
4, 65664, Note_on_c, 2, 59, 90
4, 66816, Note_on_c, 2, 59, 0
4, 67392, Note_on_c, 2, 57, 90
4, 68544, Note_on_c, 2, 57, 0
4, 68544, Note_on_c, 2, 59, 90
4, 69120, Note_on_c, 2, 59, 0
4, 69120, Note_on_c, 2, 60, 90
4, 70272, Note_on_c, 2, 60, 0
4, 70272, Note_on_c, 2, 60, 90
4, 70848, Note_on_c, 2, 60, 0
4, 70848, Note_on_c, 2, 59, 90
4, 71712, Note_on_c, 2, 59, 0
4, 71712, Note_on_c, 2, 60, 90
4, 71856, Note_on_c, 2, 60, 0
4, 71856, Note_on_c, 2, 62, 90
4, 72000, Note_on_c, 2, 62, 0
4, 72000, Note_on_c, 2, 59, 90
4, 72576, Note_on_c, 2, 59, 0
4, 72576, Note_on_c, 2, 57, 90
4, 73152, Note_on_c, 2, 57, 0
4, 73152, Note_on_c, 2, 57, 90
4, 73728, Note_on_c, 2, 57, 0
4, 74304, Note_on_c, 2, 69, 90
4, 74688, Note_on_c, 2, 69, 0
4, 74880, Note_on_c, 2, 65, 90
4, 75264, Note_on_c, 2, 65, 0
4, 75456, Note_on_c, 2, 60, 90
4, 75840, Note_on_c, 2, 60, 0
4, 76032, Note_on_c, 2, 62, 90
4, 76416, Note_on_c, 2, 62, 0
4, 76608, Note_on_c, 2, 66, 90
4, 76992, Note_on_c, 2, 66, 0
4, 77184, Note_on_c, 2, 60, 90
4, 77568, Note_on_c, 2, 60, 0
4, 77760, Note_on_c, 2, 60, 90
4, 78912, Note_on_c, 2, 60, 0
4, 78912, Note_on_c, 2, 62, 90
4, 79488, Note_on_c, 2, 62, 0
4, 79488, Note_on_c, 2, 64, 90
4, 80640, Note_on_c, 2, 64, 0
4, 80640, Note_on_c, 2, 64, 90
4, 81216, Note_on_c, 2, 64, 0
4, 81216, Note_on_c, 2, 62, 90
4, 82080, Note_on_c, 2, 62, 0
4, 82080, Note_on_c, 2, 64, 90
4, 82224, Note_on_c, 2, 64, 0
4, 82224, Note_on_c, 2, 65, 90
4, 82368, Note_on_c, 2, 65, 0
4, 82368, Note_on_c, 2, 62, 90
4, 82944, Note_on_c, 2, 62, 0
4, 82944, Note_on_c, 2, 60, 90
4, 83520, Note_on_c, 2, 60, 0
4, 83520, Note_on_c, 2, 60, 90
4, 84096, Note_on_c, 2, 60, 0
4, 84672, Note_on_c, 2, 60, 90
4, 85056, Note_on_c, 2, 60, 0
4, 85248, Note_on_c, 2, 78, 90
4, 85632, Note_on_c, 2, 78, 0
4, 85824, Note_on_c, 2, 79, 90
4, 86208, Note_on_c, 2, 79, 0
4, 86400, Note_on_c, 2, 79, 90
4, 86784, Note_on_c, 2, 79, 0
4, 86976, Note_on_c, 2, 78, 90
4, 87360, Note_on_c, 2, 78, 0
4, 87552, Note_on_c, 2, 74, 90
4, 87936, Note_on_c, 2, 74, 0
4, 88128, Note_on_c, 2, 71, 90
4, 89280, Note_on_c, 2, 71, 0
4, 89280, Note_on_c, 2, 72, 90
4, 89856, Note_on_c, 2, 72, 0
4, 89856, Note_on_c, 2, 74, 90
4, 91008, Note_on_c, 2, 74, 0
4, 91008, Note_on_c, 2, 74, 90
4, 91584, Note_on_c, 2, 74, 0
4, 91584, Note_on_c, 2, 72, 90
4, 92160, Note_on_c, 2, 72, 0
4, 92160, Note_on_c, 2, 71, 90
4, 93312, Note_on_c, 2, 71, 0
4, 93312, Note_on_c, 2, 69, 90
4, 94464, Note_on_c, 2, 69, 0
4, 96768, Note_on_c, 2, 71, 90
4, 97920, Note_on_c, 2, 71, 0
4, 97920, Note_on_c, 2, 72, 90
4, 98496, Note_on_c, 2, 72, 0
4, 98496, Note_on_c, 2, 74, 90
4, 99648, Note_on_c, 2, 74, 0
4, 99648, Note_on_c, 2, 71, 90
4, 100224, Note_on_c, 2, 71, 0
4, 100224, Note_on_c, 2, 69, 90
4, 100512, Note_on_c, 2, 69, 0
4, 100512, Note_on_c, 2, 71, 90
4, 100656, Note_on_c, 2, 71, 0
4, 100656, Note_on_c, 2, 72, 90
4, 100800, Note_on_c, 2, 72, 0
4, 100800, Note_on_c, 2, 69, 90
4, 101952, Note_on_c, 2, 69, 0
4, 101952, Note_on_c, 2, 67, 90
4, 103680, Note_on_c, 2, 67, 0
4, 109440, Note_on_c, 2, 62, 90
4, 109824, Note_on_c, 2, 62, 0
4, 110016, Note_on_c, 2, 64, 90
4, 110400, Note_on_c, 2, 64, 0
4, 110592, Note_on_c, 2, 67, 90
4, 110976, Note_on_c, 2, 67, 0
4, 111168, Note_on_c, 2, 64, 90
4, 111552, Note_on_c, 2, 64, 0
4, 111744, Note_on_c, 2, 59, 90
4, 112128, Note_on_c, 2, 59, 0
4, 112320, Note_on_c, 2, 57, 90
4, 112704, Note_on_c, 2, 57, 0
4, 112896, Note_on_c, 2, 62, 90
4, 113280, Note_on_c, 2, 62, 0
4, 113472, Note_on_c, 2, 60, 90
4, 113856, Note_on_c, 2, 60, 0
4, 114048, Note_on_c, 2, 57, 90
4, 114432, Note_on_c, 2, 57, 0
4, 114624, Note_on_c, 2, 57, 90
4, 115008, Note_on_c, 2, 57, 0
4, 115200, Note_on_c, 2, 66, 90
4, 115584, Note_on_c, 2, 66, 0
4, 115776, Note_on_c, 2, 62, 90
4, 116160, Note_on_c, 2, 62, 0
4, 116352, Note_on_c, 2, 55, 90
4, 116736, Note_on_c, 2, 55, 0
4, 116928, Note_on_c, 2, 64, 90
4, 117312, Note_on_c, 2, 64, 0
4, 117504, Note_on_c, 2, 67, 90
4, 117888, Note_on_c, 2, 67, 0
4, 118080, Note_on_c, 2, 64, 90
4, 118464, Note_on_c, 2, 64, 0
4, 118656, Note_on_c, 2, 59, 90
4, 119040, Note_on_c, 2, 59, 0
4, 119232, Note_on_c, 2, 60, 90
4, 119616, Note_on_c, 2, 60, 0
4, 119808, Note_on_c, 2, 64, 90
4, 120192, Note_on_c, 2, 64, 0
4, 120384, Note_on_c, 2, 57, 90
4, 120768, Note_on_c, 2, 57, 0
4, 120960, Note_on_c, 2, 59, 90
4, 122688, Note_on_c, 2, 59, 0
4, 122688, End_track
5, 0, Start_track
5, 0, Control_c, 3, 7, 100
5, 0, Key_signature, 1, "major"
5, 0, Note_on_c, 3, 43, 90
5, 576, Note_on_c, 3, 43, 0
5, 576, Note_on_c, 3, 55, 90
5, 1152, Note_on_c, 3, 55, 0
5, 1152, Note_on_c, 3, 52, 90
5, 1728, Note_on_c, 3, 52, 0
5, 1728, Note_on_c, 3, 47, 90
5, 2304, Note_on_c, 3, 47, 0
5, 2304, Note_on_c, 3, 52, 90
5, 2880, Note_on_c, 3, 52, 0
5, 2880, Note_on_c, 3, 40, 90
5, 3456, Note_on_c, 3, 40, 0
5, 3456, Note_on_c, 3, 45, 90
5, 4032, Note_on_c, 3, 45, 0
5, 4032, Note_on_c, 3, 47, 90
5, 4608, Note_on_c, 3, 47, 0
5, 4608, Note_on_c, 3, 48, 90
5, 5184, Note_on_c, 3, 48, 0
5, 5184, Note_on_c, 3, 50, 90
5, 5760, Note_on_c, 3, 50, 0
5, 5760, Note_on_c, 3, 54, 90
5, 6336, Note_on_c, 3, 54, 0
5, 6336, Note_on_c, 3, 50, 90
5, 6912, Note_on_c, 3, 50, 0
5, 6912, Note_on_c, 3, 55, 90
5, 7488, Note_on_c, 3, 55, 0
5, 7488, Note_on_c, 3, 52, 90
5, 8064, Note_on_c, 3, 52, 0
5, 8064, Note_on_c, 3, 48, 90
5, 8640, Note_on_c, 3, 48, 0
5, 8640, Note_on_c, 3, 47, 90
5, 9216, Note_on_c, 3, 47, 0
5, 9216, Note_on_c, 3, 52, 90
5, 9792, Note_on_c, 3, 52, 0
5, 9792, Note_on_c, 3, 50, 90
5, 10368, Note_on_c, 3, 50, 0
5, 10368, Note_on_c, 3, 48, 90
5, 10944, Note_on_c, 3, 48, 0
5, 10944, Note_on_c, 3, 49, 90
5, 11520, Note_on_c, 3, 49, 0
5, 11520, Note_on_c, 3, 50, 90
5, 12096, Note_on_c, 3, 50, 0
5, 12096, Note_on_c, 3, 43, 90
5, 12672, Note_on_c, 3, 43, 0
5, 13056, Note_on_c, 3, 55, 90
5, 13248, Note_on_c, 3, 55, 0
5, 13248, Note_on_c, 3, 50, 90
5, 13632, Note_on_c, 3, 50, 0
5, 13632, Note_on_c, 3, 47, 90
5, 13824, Note_on_c, 3, 47, 0
5, 13824, Note_on_c, 3, 43, 90
5, 14400, Note_on_c, 3, 43, 0
5, 14400, Note_on_c, 3, 54, 90
5, 14976, Note_on_c, 3, 54, 0
5, 14976, Note_on_c, 3, 52, 90
5, 15552, Note_on_c, 3, 52, 0
5, 15552, Note_on_c, 3, 54, 90
5, 16128, Note_on_c, 3, 54, 0
5, 16128, Note_on_c, 3, 52, 90
5, 16704, Note_on_c, 3, 52, 0
5, 16704, Note_on_c, 3, 50, 90
5, 17280, Note_on_c, 3, 50, 0
5, 17280, Note_on_c, 3, 52, 90
5, 17856, Note_on_c, 3, 52, 0
5, 17856, Note_on_c, 3, 54, 90
5, 18432, Note_on_c, 3, 54, 0
5, 18432, Note_on_c, 3, 55, 90
5, 19008, Note_on_c, 3, 55, 0
5, 19008, Note_on_c, 3, 50, 90
5, 19584, Note_on_c, 3, 50, 0
5, 19968, Note_on_c, 3, 50, 90
5, 20160, Note_on_c, 3, 50, 0
5, 20160, Note_on_c, 3, 50, 90
5, 20544, Note_on_c, 3, 50, 0
5, 20544, Note_on_c, 3, 50, 90
5, 20736, Note_on_c, 3, 50, 0
5, 20736, Note_on_c, 3, 38, 90
5, 21312, Note_on_c, 3, 38, 0
5, 21696, Note_on_c, 3, 50, 90
5, 21888, Note_on_c, 3, 50, 0
5, 21888, Note_on_c, 3, 50, 90
5, 22272, Note_on_c, 3, 50, 0
5, 22272, Note_on_c, 3, 50, 90
5, 22464, Note_on_c, 3, 50, 0
5, 22464, Note_on_c, 3, 55, 90
5, 23040, Note_on_c, 3, 55, 0
5, 23040, Note_on_c, 3, 54, 90
5, 23616, Note_on_c, 3, 54, 0
5, 23616, Note_on_c, 3, 52, 90
5, 24192, Note_on_c, 3, 52, 0
5, 24192, Note_on_c, 3, 59, 90
5, 24768, Note_on_c, 3, 59, 0
5, 24768, Note_on_c, 3, 47, 90
5, 25344, Note_on_c, 3, 47, 0
5, 25344, Note_on_c, 3, 52, 90
5, 25920, Note_on_c, 3, 52, 0
5, 25920, Note_on_c, 3, 48, 90
5, 26496, Note_on_c, 3, 48, 0
5, 26496, Note_on_c, 3, 50, 90
5, 27072, Note_on_c, 3, 50, 0
5, 27072, Note_on_c, 3, 38, 90
5, 27648, Note_on_c, 3, 38, 0
5, 27648, Note_on_c, 3, 43, 90
5, 28224, Note_on_c, 3, 43, 0
5, 28224, Note_on_c, 3, 55, 90
5, 28800, Note_on_c, 3, 55, 0
5, 28800, Note_on_c, 3, 52, 90
5, 29376, Note_on_c, 3, 52, 0
5, 29376, Note_on_c, 3, 47, 90
5, 29952, Note_on_c, 3, 47, 0
5, 29952, Note_on_c, 3, 52, 90
5, 30528, Note_on_c, 3, 52, 0
5, 30528, Note_on_c, 3, 40, 90
5, 31104, Note_on_c, 3, 40, 0
5, 31104, Note_on_c, 3, 45, 90
5, 31680, Note_on_c, 3, 45, 0
5, 31680, Note_on_c, 3, 47, 90
5, 32256, Note_on_c, 3, 47, 0
5, 32256, Note_on_c, 3, 48, 90
5, 32832, Note_on_c, 3, 48, 0
5, 32832, Note_on_c, 3, 50, 90
5, 33408, Note_on_c, 3, 50, 0
5, 33408, Note_on_c, 3, 54, 90
5, 33984, Note_on_c, 3, 54, 0
5, 33984, Note_on_c, 3, 50, 90
5, 34560, Note_on_c, 3, 50, 0
5, 34560, Note_on_c, 3, 55, 90
5, 35136, Note_on_c, 3, 55, 0
5, 35136, Note_on_c, 3, 52, 90
5, 35712, Note_on_c, 3, 52, 0
5, 35712, Note_on_c, 3, 48, 90
5, 36288, Note_on_c, 3, 48, 0
5, 36288, Note_on_c, 3, 47, 90
5, 36864, Note_on_c, 3, 47, 0
5, 36864, Note_on_c, 3, 52, 90
5, 37440, Note_on_c, 3, 52, 0
5, 37440, Note_on_c, 3, 50, 90
5, 38016, Note_on_c, 3, 50, 0
5, 38016, Note_on_c, 3, 48, 90
5, 38592, Note_on_c, 3, 48, 0
5, 38592, Note_on_c, 3, 49, 90
5, 39168, Note_on_c, 3, 49, 0
5, 39168, Note_on_c, 3, 50, 90
5, 39744, Note_on_c, 3, 50, 0
5, 39744, Note_on_c, 3, 43, 90
5, 40320, Note_on_c, 3, 43, 0
5, 40320, Note_on_c, 3, 54, 90
5, 40896, Note_on_c, 3, 54, 0
5, 40896, Note_on_c, 3, 52, 90
5, 41472, Note_on_c, 3, 52, 0
5, 41472, Note_on_c, 3, 54, 90
5, 42048, Note_on_c, 3, 54, 0
5, 42048, Note_on_c, 3, 52, 90
5, 42624, Note_on_c, 3, 52, 0
5, 42624, Note_on_c, 3, 50, 90
5, 43200, Note_on_c, 3, 50, 0
5, 43200, Note_on_c, 3, 52, 90
5, 43776, Note_on_c, 3, 52, 0
5, 43776, Note_on_c, 3, 54, 90
5, 44352, Note_on_c, 3, 54, 0
5, 44352, Note_on_c, 3, 55, 90
5, 44928, Note_on_c, 3, 55, 0
5, 44928, Note_on_c, 3, 50, 90
5, 45504, Note_on_c, 3, 50, 0
5, 45888, Note_on_c, 3, 50, 90
5, 46080, Note_on_c, 3, 50, 0
5, 46080, Note_on_c, 3, 50, 90
5, 46464, Note_on_c, 3, 50, 0
5, 46464, Note_on_c, 3, 50, 90
5, 46656, Note_on_c, 3, 50, 0
5, 46656, Note_on_c, 3, 38, 90
5, 47232, Note_on_c, 3, 38, 0
5, 47616, Note_on_c, 3, 50, 90
5, 47808, Note_on_c, 3, 50, 0
5, 47808, Note_on_c, 3, 50, 90
5, 48192, Note_on_c, 3, 50, 0
5, 48192, Note_on_c, 3, 50, 90
5, 48384, Note_on_c, 3, 50, 0
5, 48384, Note_on_c, 3, 55, 90
5, 48960, Note_on_c, 3, 55, 0
5, 48960, Note_on_c, 3, 54, 90
5, 49536, Note_on_c, 3, 54, 0
5, 49536, Note_on_c, 3, 52, 90
5, 50112, Note_on_c, 3, 52, 0
5, 50112, Note_on_c, 3, 59, 90
5, 50688, Note_on_c, 3, 59, 0
5, 50688, Note_on_c, 3, 47, 90
5, 51264, Note_on_c, 3, 47, 0
5, 51264, Note_on_c, 3, 52, 90
5, 51840, Note_on_c, 3, 52, 0
5, 51840, Note_on_c, 3, 48, 90
5, 52416, Note_on_c, 3, 48, 0
5, 52416, Note_on_c, 3, 50, 90
5, 52992, Note_on_c, 3, 50, 0
5, 52992, Note_on_c, 3, 38, 90
5, 53568, Note_on_c, 3, 38, 0
5, 53568, Note_on_c, 3, 43, 90
5, 54144, Note_on_c, 3, 43, 0
5, 54144, Note_on_c, 3, 55, 90
5, 54720, Note_on_c, 3, 55, 0
5, 54720, Note_on_c, 3, 52, 90
5, 55296, Note_on_c, 3, 52, 0
5, 55296, Note_on_c, 3, 47, 90
5, 55872, Note_on_c, 3, 47, 0
5, 55872, Note_on_c, 3, 52, 90
5, 56448, Note_on_c, 3, 52, 0
5, 56448, Note_on_c, 3, 40, 90
5, 57024, Note_on_c, 3, 40, 0
5, 57024, Note_on_c, 3, 45, 90
5, 57600, Note_on_c, 3, 45, 0
5, 57600, Note_on_c, 3, 47, 90
5, 58176, Note_on_c, 3, 47, 0
5, 58176, Note_on_c, 3, 48, 90
5, 58752, Note_on_c, 3, 48, 0
5, 58752, Note_on_c, 3, 50, 90
5, 59328, Note_on_c, 3, 50, 0
5, 59328, Note_on_c, 3, 54, 90
5, 59904, Note_on_c, 3, 54, 0
5, 59904, Note_on_c, 3, 50, 90
5, 60480, Note_on_c, 3, 50, 0
5, 60480, Note_on_c, 3, 55, 90
5, 61056, Note_on_c, 3, 55, 0
5, 61056, Note_on_c, 3, 52, 90
5, 61632, Note_on_c, 3, 52, 0
5, 61632, Note_on_c, 3, 48, 90
5, 62208, Note_on_c, 3, 48, 0
5, 62208, Note_on_c, 3, 47, 90
5, 62784, Note_on_c, 3, 47, 0
5, 62784, Note_on_c, 3, 52, 90
5, 63360, Note_on_c, 3, 52, 0
5, 63360, Note_on_c, 3, 50, 90
5, 63936, Note_on_c, 3, 50, 0
5, 63936, Note_on_c, 3, 48, 90
5, 64512, Note_on_c, 3, 48, 0
5, 64512, Note_on_c, 3, 49, 90
5, 65088, Note_on_c, 3, 49, 0
5, 65088, Note_on_c, 3, 50, 90
5, 65664, Note_on_c, 3, 50, 0
5, 65664, Note_on_c, 3, 43, 90
5, 66240, Note_on_c, 3, 43, 0
5, 66624, Note_on_c, 3, 55, 90
5, 66816, Note_on_c, 3, 55, 0
5, 66816, Note_on_c, 3, 54, 90
5, 67200, Note_on_c, 3, 54, 0
5, 67200, Note_on_c, 3, 52, 90
5, 67392, Note_on_c, 3, 52, 0
5, 67392, Note_on_c, 3, 50, 90
5, 67968, Note_on_c, 3, 50, 0
5, 67968, Note_on_c, 3, 48, 90
5, 68544, Note_on_c, 3, 48, 0
5, 68544, Note_on_c, 3, 47, 90
5, 69120, Note_on_c, 3, 47, 0
5, 69120, Note_on_c, 3, 45, 90
5, 69696, Note_on_c, 3, 45, 0
5, 69696, Note_on_c, 3, 57, 90
5, 69984, Note_on_c, 3, 57, 0
5, 69984, Note_on_c, 3, 55, 90
5, 70272, Note_on_c, 3, 55, 0
5, 70272, Note_on_c, 3, 53, 90
5, 70560, Note_on_c, 3, 53, 0
5, 70560, Note_on_c, 3, 52, 90
5, 70848, Note_on_c, 3, 52, 0
5, 70848, Note_on_c, 3, 50, 90
5, 71424, Note_on_c, 3, 50, 0
5, 71424, Note_on_c, 3, 47, 90
5, 72000, Note_on_c, 3, 47, 0
5, 72000, Note_on_c, 3, 52, 90
5, 72576, Note_on_c, 3, 52, 0
5, 72576, Note_on_c, 3, 45, 90
5, 73152, Note_on_c, 3, 45, 0
5, 73152, Note_on_c, 3, 53, 90
5, 73728, Note_on_c, 3, 53, 0
5, 73728, Note_on_c, 3, 50, 90
5, 74304, Note_on_c, 3, 50, 0
5, 74304, Note_on_c, 3, 48, 90
5, 74880, Note_on_c, 3, 48, 0
5, 74880, Note_on_c, 3, 53, 90
5, 75456, Note_on_c, 3, 53, 0
5, 75456, Note_on_c, 3, 52, 90
5, 76032, Note_on_c, 3, 52, 0
5, 76032, Note_on_c, 3, 50, 90
5, 76608, Note_on_c, 3, 50, 0
5, 76608, Note_on_c, 3, 51, 90
5, 77184, Note_on_c, 3, 51, 0
5, 77184, Note_on_c, 3, 52, 90
5, 77760, Note_on_c, 3, 52, 0
5, 77760, Note_on_c, 3, 45, 90
5, 78336, Note_on_c, 3, 45, 0
5, 78336, Note_on_c, 3, 57, 90
5, 78912, Note_on_c, 3, 57, 0
5, 78912, Note_on_c, 3, 59, 90
5, 79488, Note_on_c, 3, 59, 0
5, 79488, Note_on_c, 3, 60, 90
5, 80064, Note_on_c, 3, 60, 0
5, 80064, Note_on_c, 3, 57, 90
5, 80640, Note_on_c, 3, 57, 0
5, 80640, Note_on_c, 3, 52, 90
5, 81216, Note_on_c, 3, 52, 0
5, 81216, Note_on_c, 3, 53, 90
5, 81792, Note_on_c, 3, 53, 0
5, 81792, Note_on_c, 3, 50, 90
5, 82368, Note_on_c, 3, 50, 0
5, 82368, Note_on_c, 3, 55, 90
5, 82944, Note_on_c, 3, 55, 0
5, 82944, Note_on_c, 3, 48, 90
5, 83520, Note_on_c, 3, 48, 0
5, 83520, Note_on_c, 3, 52, 90
5, 84096, Note_on_c, 3, 52, 0
5, 84096, Note_on_c, 3, 48, 90
5, 84672, Note_on_c, 3, 48, 0
5, 84672, Note_on_c, 3, 53, 90
5, 85248, Note_on_c, 3, 53, 0
5, 85248, Note_on_c, 3, 50, 90
5, 85824, Note_on_c, 3, 50, 0
5, 85824, Note_on_c, 3, 55, 90
5, 86400, Note_on_c, 3, 55, 0
5, 86400, Note_on_c, 3, 48, 90
5, 86976, Note_on_c, 3, 48, 0
5, 87360, Note_on_c, 3, 48, 90
5, 87552, Note_on_c, 3, 48, 0
5, 87552, Note_on_c, 3, 47, 90
5, 87936, Note_on_c, 3, 47, 0
5, 87936, Note_on_c, 3, 50, 90
5, 88128, Note_on_c, 3, 50, 0
5, 88128, Note_on_c, 3, 43, 90
5, 88704, Note_on_c, 3, 43, 0
5, 88704, Note_on_c, 3, 55, 90
5, 89280, Note_on_c, 3, 55, 0
5, 89280, Note_on_c, 3, 52, 90
5, 89856, Note_on_c, 3, 52, 0
5, 89856, Note_on_c, 3, 47, 90
5, 90432, Note_on_c, 3, 47, 0
5, 90432, Note_on_c, 3, 52, 90
5, 91008, Note_on_c, 3, 52, 0
5, 91008, Note_on_c, 3, 40, 90
5, 91584, Note_on_c, 3, 40, 0
5, 91584, Note_on_c, 3, 45, 90
5, 92160, Note_on_c, 3, 45, 0
5, 92160, Note_on_c, 3, 47, 90
5, 92736, Note_on_c, 3, 47, 0
5, 92736, Note_on_c, 3, 48, 90
5, 93312, Note_on_c, 3, 48, 0
5, 93312, Note_on_c, 3, 50, 90
5, 93888, Note_on_c, 3, 50, 0
5, 94272, Note_on_c, 3, 50, 90
5, 94464, Note_on_c, 3, 50, 0
5, 94464, Note_on_c, 3, 50, 90
5, 94848, Note_on_c, 3, 50, 0
5, 94848, Note_on_c, 3, 50, 90
5, 95040, Note_on_c, 3, 50, 0
5, 95040, Note_on_c, 3, 38, 90
5, 95616, Note_on_c, 3, 38, 0
5, 96000, Note_on_c, 3, 50, 90
5, 96192, Note_on_c, 3, 50, 0
5, 96192, Note_on_c, 3, 50, 90
5, 96576, Note_on_c, 3, 50, 0
5, 96576, Note_on_c, 3, 50, 90
5, 96768, Note_on_c, 3, 50, 0
5, 96768, Note_on_c, 3, 55, 90
5, 97344, Note_on_c, 3, 55, 0
5, 97344, Note_on_c, 3, 54, 90
5, 97920, Note_on_c, 3, 54, 0
5, 97920, Note_on_c, 3, 52, 90
5, 98496, Note_on_c, 3, 52, 0
5, 98496, Note_on_c, 3, 59, 90
5, 99072, Note_on_c, 3, 59, 0
5, 99072, Note_on_c, 3, 47, 90
5, 99648, Note_on_c, 3, 47, 0
5, 99648, Note_on_c, 3, 52, 90
5, 100224, Note_on_c, 3, 52, 0
5, 100224, Note_on_c, 3, 48, 90
5, 100800, Note_on_c, 3, 48, 0
5, 100800, Note_on_c, 3, 50, 90
5, 101376, Note_on_c, 3, 50, 0
5, 101376, Note_on_c, 3, 38, 90
5, 101952, Note_on_c, 3, 38, 0
5, 101952, Note_on_c, 3, 43, 90
5, 109440, Note_on_c, 3, 43, 0
5, 109440, Note_on_c, 3, 55, 90
5, 110016, Note_on_c, 3, 55, 0
5, 110016, Note_on_c, 3, 52, 90
5, 110592, Note_on_c, 3, 52, 0
5, 110592, Note_on_c, 3, 47, 90
5, 111168, Note_on_c, 3, 47, 0
5, 111168, Note_on_c, 3, 52, 90
5, 111744, Note_on_c, 3, 52, 0
5, 111744, Note_on_c, 3, 40, 90
5, 112320, Note_on_c, 3, 40, 0
5, 112320, Note_on_c, 3, 45, 90
5, 112896, Note_on_c, 3, 45, 0
5, 112896, Note_on_c, 3, 47, 90
5, 113472, Note_on_c, 3, 47, 0
5, 113472, Note_on_c, 3, 48, 90
5, 114048, Note_on_c, 3, 48, 0
5, 114048, Note_on_c, 3, 50, 90
5, 114624, Note_on_c, 3, 50, 0
5, 114624, Note_on_c, 3, 54, 90
5, 115200, Note_on_c, 3, 54, 0
5, 115200, Note_on_c, 3, 50, 90
5, 115776, Note_on_c, 3, 50, 0
5, 115776, Note_on_c, 3, 55, 90
5, 116352, Note_on_c, 3, 55, 0
5, 116352, Note_on_c, 3, 52, 90
5, 116928, Note_on_c, 3, 52, 0
5, 116928, Note_on_c, 3, 48, 90
5, 117504, Note_on_c, 3, 48, 0
5, 117504, Note_on_c, 3, 47, 90
5, 118080, Note_on_c, 3, 47, 0
5, 118080, Note_on_c, 3, 52, 90
5, 118656, Note_on_c, 3, 52, 0
5, 118656, Note_on_c, 3, 50, 90
5, 119232, Note_on_c, 3, 50, 0
5, 119232, Note_on_c, 3, 48, 90
5, 119808, Note_on_c, 3, 48, 0
5, 119808, Note_on_c, 3, 49, 90
5, 120384, Note_on_c, 3, 49, 0
5, 120384, Note_on_c, 3, 50, 90
5, 120960, Note_on_c, 3, 50, 0
5, 120960, Note_on_c, 3, 43, 90
5, 122688, Note_on_c, 3, 43, 0
5, 122688, End_track
0, 0, End_of_file
