0, 0, Header, 1, 5, 480
1, 0, Start_track
1, 0, Tempo, 869565
1, 0, Key_signature, -2, "minor"
1, 0, Time_signature, 4, 2, 48, 8
1, 0, Title_t, "Fuga"
1, 0, Title_t, "BWV 578"
1, 132480, End_track
2, 0, Start_track
2, 0, Title_t, "Fuga"
2, 0, Title_t, "BWV 578"
2, 0, Text_t, "O:Germany"
2, 0, Text_t, "Z:Transcribed by Frank Nordberg - http://www.musicaviva.com"
2, 0, Text_t, " %MIDI program 1 58"
2, 0, Text_t, " %MIDI program 2 58"
2, 0, Text_t, " %MIDI program 3 58"
2, 0, Text_t, " %MIDI program 4 58"
2, 0, Text_t, ""
2, 0, Text_t, "%staves \011{1 2 3} | 4"
2, 0, Text_t, "%maxshrink\011.81"
2, 0, Text_t, "%staffsep\01165pt"
2, 0, Text_t, "%sysstaffsep\01135pt"
2, 0, Text_t, "%measurenb\0110"
2, 0, Program_c, 0, 58
2, 0, Note_on_c, 0, 67, 105
2, 479, Note_off_c, 0, 67, 0
2, 480, Note_on_c, 0, 74, 80
2, 959, Note_off_c, 0, 74, 0
2, 960, Note_on_c, 0, 70, 95
2, 1679, Note_off_c, 0, 70, 0
2, 1680, Note_on_c, 0, 69, 80
2, 1919, Note_off_c, 0, 69, 0
2, 1920, Note_on_c, 0, 67, 105
2, 2159, Note_off_c, 0, 67, 0
2, 2160, Note_on_c, 0, 70, 80
2, 2399, Note_off_c, 0, 70, 0
2, 2400, Note_on_c, 0, 69, 80
2, 2639, Note_off_c, 0, 69, 0
2, 2640, Note_on_c, 0, 67, 80
2, 2879, Note_off_c, 0, 67, 0
2, 2880, Note_on_c, 0, 66, 95
2, 3119, Note_off_c, 0, 66, 0
2, 3120, Note_on_c, 0, 69, 80
2, 3359, Note_off_c, 0, 69, 0
2, 3360, Note_on_c, 0, 62, 80
2, 3839, Note_off_c, 0, 62, 0
2, 3840, Note_on_c, 0, 67, 105
2, 4079, Note_off_c, 0, 67, 0
2, 4080, Note_on_c, 0, 62, 80
2, 4319, Note_off_c, 0, 62, 0
2, 4320, Note_on_c, 0, 69, 80
2, 4559, Note_off_c, 0, 69, 0
2, 4560, Note_on_c, 0, 62, 80
2, 4799, Note_off_c, 0, 62, 0
2, 4800, Note_on_c, 0, 70, 95
2, 5039, Note_off_c, 0, 70, 0
2, 5040, Note_on_c, 0, 69, 80
2, 5159, Note_off_c, 0, 69, 0
2, 5160, Note_on_c, 0, 67, 80
2, 5279, Note_off_c, 0, 67, 0
2, 5280, Note_on_c, 0, 69, 80
2, 5519, Note_off_c, 0, 69, 0
2, 5520, Note_on_c, 0, 62, 80
2, 5759, Note_off_c, 0, 62, 0
2, 5760, Note_on_c, 0, 67, 105
2, 5999, Note_off_c, 0, 67, 0
2, 6000, Note_on_c, 0, 62, 80
2, 6119, Note_off_c, 0, 62, 0
2, 6120, Note_on_c, 0, 67, 80
2, 6239, Note_off_c, 0, 67, 0
2, 6240, Note_on_c, 0, 69, 80
2, 6479, Note_off_c, 0, 69, 0
2, 6480, Note_on_c, 0, 62, 80
2, 6599, Note_off_c, 0, 62, 0
2, 6600, Note_on_c, 0, 69, 80
2, 6719, Note_off_c, 0, 69, 0
2, 6720, Note_on_c, 0, 70, 95
2, 6959, Note_off_c, 0, 70, 0
2, 6960, Note_on_c, 0, 69, 80
2, 7079, Note_off_c, 0, 69, 0
2, 7080, Note_on_c, 0, 67, 80
2, 7199, Note_off_c, 0, 67, 0
2, 7200, Note_on_c, 0, 69, 80
2, 7319, Note_off_c, 0, 69, 0
2, 7320, Note_on_c, 0, 62, 80
2, 7439, Note_off_c, 0, 62, 0
2, 7440, Note_on_c, 0, 74, 80
2, 7559, Note_off_c, 0, 74, 0
2, 7560, Note_on_c, 0, 72, 80
2, 7679, Note_off_c, 0, 72, 0
2, 7680, Note_on_c, 0, 70, 105
2, 7799, Note_off_c, 0, 70, 0
2, 7800, Note_on_c, 0, 69, 80
2, 7919, Note_off_c, 0, 69, 0
2, 7920, Note_on_c, 0, 67, 80
2, 8039, Note_off_c, 0, 67, 0
2, 8040, Note_on_c, 0, 70, 80
2, 8159, Note_off_c, 0, 70, 0
2, 8160, Note_on_c, 0, 69, 80
2, 8279, Note_off_c, 0, 69, 0
2, 8280, Note_on_c, 0, 67, 80
2, 8399, Note_off_c, 0, 67, 0
2, 8400, Note_on_c, 0, 66, 80
2, 8519, Note_off_c, 0, 66, 0
2, 8520, Note_on_c, 0, 69, 80
2, 8639, Note_off_c, 0, 69, 0
2, 8640, Note_on_c, 0, 67, 95
2, 8759, Note_off_c, 0, 67, 0
2, 8760, Note_on_c, 0, 62, 80
2, 8879, Note_off_c, 0, 62, 0
2, 8880, Note_on_c, 0, 67, 80
2, 8999, Note_off_c, 0, 67, 0
2, 9000, Note_on_c, 0, 69, 80
2, 9119, Note_off_c, 0, 69, 0
2, 9120, Note_on_c, 0, 70, 80
2, 9239, Note_off_c, 0, 70, 0
2, 9240, Note_on_c, 0, 72, 80
2, 9359, Note_off_c, 0, 72, 0
2, 9360, Note_on_c, 0, 74, 80
2, 9479, Note_off_c, 0, 74, 0
2, 9480, Note_on_c, 0, 76, 80
2, 9599, Note_off_c, 0, 76, 0
2, 9600, Note_on_c, 0, 77, 105
2, 9719, Note_off_c, 0, 77, 0
2, 9720, Note_on_c, 0, 76, 80
2, 9839, Note_off_c, 0, 76, 0
2, 9840, Note_on_c, 0, 74, 80
2, 9959, Note_off_c, 0, 74, 0
2, 9960, Note_on_c, 0, 77, 80
2, 10079, Note_off_c, 0, 77, 0
2, 10080, Note_on_c, 0, 76, 80
2, 10199, Note_off_c, 0, 76, 0
2, 10200, Note_on_c, 0, 74, 80
2, 10319, Note_off_c, 0, 74, 0
2, 10320, Note_on_c, 0, 73, 80
2, 10439, Note_off_c, 0, 73, 0
2, 10440, Note_on_c, 0, 76, 80
2, 10559, Note_off_c, 0, 76, 0
2, 10560, Note_on_c, 0, 74, 95
2, 10799, Note_off_c, 0, 74, 0
2, 10800, Note_on_c, 0, 69, 80
2, 11039, Note_off_c, 0, 69, 0
2, 11040, Note_on_c, 0, 74, 80
2, 11279, Note_off_c, 0, 74, 0
2, 11280, Note_on_c, 0, 76, 80
2, 11519, Note_off_c, 0, 76, 0
2, 11520, Note_on_c, 0, 77, 105
2, 11639, Note_off_c, 0, 77, 0
2, 11640, Note_on_c, 0, 79, 80
2, 11759, Note_off_c, 0, 79, 0
2, 11760, Note_on_c, 0, 77, 80
2, 11879, Note_off_c, 0, 77, 0
2, 11880, Note_on_c, 0, 79, 80
2, 11999, Note_off_c, 0, 79, 0
2, 12000, Note_on_c, 0, 79, 80
2, 12359, Note_off_c, 0, 79, 0
2, 12360, Note_on_c, 0, 77, 80
2, 12419, Note_off_c, 0, 77, 0
2, 12420, Note_on_c, 0, 79, 80
2, 12479, Note_off_c, 0, 79, 0
2, 12480, Note_on_c, 0, 81, 95
2, 12599, Note_off_c, 0, 81, 0
2, 12600, Note_on_c, 0, 79, 80
2, 12719, Note_off_c, 0, 79, 0
2, 12720, Note_on_c, 0, 81, 80
2, 12839, Note_off_c, 0, 81, 0
2, 12840, Note_on_c, 0, 82, 80
2, 12959, Note_off_c, 0, 82, 0
2, 12960, Note_on_c, 0, 81, 80
2, 13079, Note_off_c, 0, 81, 0
2, 13080, Note_on_c, 0, 79, 80
2, 13199, Note_off_c, 0, 79, 0
2, 13200, Note_on_c, 0, 77, 80
2, 13319, Note_off_c, 0, 77, 0
2, 13320, Note_on_c, 0, 76, 80
2, 13439, Note_off_c, 0, 76, 0
2, 13440, Note_on_c, 0, 77, 105
2, 13559, Note_off_c, 0, 77, 0
2, 13560, Note_on_c, 0, 81, 80
2, 13679, Note_off_c, 0, 81, 0
2, 13680, Note_on_c, 0, 79, 80
2, 13799, Note_off_c, 0, 79, 0
2, 13800, Note_on_c, 0, 81, 80
2, 13919, Note_off_c, 0, 81, 0
2, 13920, Note_on_c, 0, 73, 80
2, 14039, Note_off_c, 0, 73, 0
2, 14040, Note_on_c, 0, 81, 80
2, 14159, Note_off_c, 0, 81, 0
2, 14160, Note_on_c, 0, 79, 80
2, 14279, Note_off_c, 0, 79, 0
2, 14280, Note_on_c, 0, 81, 80
2, 14399, Note_off_c, 0, 81, 0
2, 14400, Note_on_c, 0, 74, 95
2, 14519, Note_off_c, 0, 74, 0
2, 14520, Note_on_c, 0, 81, 80
2, 14639, Note_off_c, 0, 81, 0
2, 14640, Note_on_c, 0, 79, 80
2, 14759, Note_off_c, 0, 79, 0
2, 14760, Note_on_c, 0, 81, 80
2, 14879, Note_off_c, 0, 81, 0
2, 14880, Note_on_c, 0, 73, 80
2, 14999, Note_off_c, 0, 73, 0
2, 15000, Note_on_c, 0, 81, 80
2, 15119, Note_off_c, 0, 81, 0
2, 15120, Note_on_c, 0, 79, 80
2, 15239, Note_off_c, 0, 79, 0
2, 15240, Note_on_c, 0, 81, 80
2, 15359, Note_off_c, 0, 81, 0
2, 15360, Note_on_c, 0, 77, 105
2, 15479, Note_off_c, 0, 77, 0
2, 15480, Note_on_c, 0, 74, 80
2, 15599, Note_off_c, 0, 74, 0
2, 15600, Note_on_c, 0, 73, 80
2, 15719, Note_off_c, 0, 73, 0
2, 15720, Note_on_c, 0, 74, 80
2, 15839, Note_off_c, 0, 74, 0
2, 15840, Note_on_c, 0, 79, 80
2, 15959, Note_off_c, 0, 79, 0
2, 15960, Note_on_c, 0, 74, 80
2, 16079, Note_off_c, 0, 74, 0
2, 16080, Note_on_c, 0, 73, 80
2, 16199, Note_off_c, 0, 73, 0
2, 16200, Note_on_c, 0, 74, 80
2, 16319, Note_off_c, 0, 74, 0
2, 16320, Note_on_c, 0, 81, 95
2, 16439, Note_off_c, 0, 81, 0
2, 16440, Note_on_c, 0, 74, 80
2, 16559, Note_off_c, 0, 74, 0
2, 16560, Note_on_c, 0, 73, 80
2, 16679, Note_off_c, 0, 73, 0
2, 16680, Note_on_c, 0, 74, 80
2, 16799, Note_off_c, 0, 74, 0
2, 16800, Note_on_c, 0, 79, 80
2, 16919, Note_off_c, 0, 79, 0
2, 16920, Note_on_c, 0, 74, 80
2, 17039, Note_off_c, 0, 74, 0
2, 17040, Note_on_c, 0, 73, 80
2, 17159, Note_off_c, 0, 73, 0
2, 17160, Note_on_c, 0, 74, 80
2, 17279, Note_off_c, 0, 74, 0
2, 17280, Note_on_c, 0, 69, 105
2, 17519, Note_off_c, 0, 69, 0
2, 17520, Note_on_c, 0, 77, 80
2, 17759, Note_off_c, 0, 77, 0
2, 17760, Note_on_c, 0, 67, 80
2, 17999, Note_off_c, 0, 67, 0
2, 18000, Note_on_c, 0, 76, 80
2, 18239, Note_off_c, 0, 76, 0
2, 18240, Note_on_c, 0, 65, 95
2, 18479, Note_off_c, 0, 65, 0
2, 18480, Note_on_c, 0, 69, 80
2, 18719, Note_off_c, 0, 69, 0
2, 18720, Note_on_c, 0, 74, 80
2, 18959, Note_off_c, 0, 74, 0
2, 18960, Note_on_c, 0, 77, 80
2, 19199, Note_off_c, 0, 77, 0
2, 19200, Note_on_c, 0, 75, 105
2, 19439, Note_off_c, 0, 75, 0
2, 19440, Note_on_c, 0, 81, 80
2, 19679, Note_off_c, 0, 81, 0
2, 19920, Note_on_c, 0, 75, 80
2, 20159, Note_off_c, 0, 75, 0
2, 20160, Note_on_c, 0, 74, 95
2, 20399, Note_off_c, 0, 74, 0
2, 20400, Note_on_c, 0, 79, 80
2, 20639, Note_off_c, 0, 79, 0
2, 20880, Note_on_c, 0, 74, 80
2, 21119, Note_off_c, 0, 74, 0
2, 21120, Note_on_c, 0, 72, 105
2, 21239, Note_off_c, 0, 72, 0
2, 21240, Note_on_c, 0, 70, 80
2, 21359, Note_off_c, 0, 70, 0
2, 21360, Note_on_c, 0, 72, 80
2, 21479, Note_off_c, 0, 72, 0
2, 21480, Note_on_c, 0, 74, 80
2, 21599, Note_off_c, 0, 74, 0
2, 21600, Note_on_c, 0, 72, 80
2, 21719, Note_off_c, 0, 72, 0
2, 21720, Note_on_c, 0, 81, 80
2, 21839, Note_off_c, 0, 81, 0
2, 21840, Note_on_c, 0, 79, 80
2, 21959, Note_off_c, 0, 79, 0
2, 21960, Note_on_c, 0, 81, 80
2, 22079, Note_off_c, 0, 81, 0
2, 22080, Note_on_c, 0, 70, 95
2, 22199, Note_off_c, 0, 70, 0
2, 22200, Note_on_c, 0, 79, 80
2, 22319, Note_off_c, 0, 79, 0
2, 22320, Note_on_c, 0, 78, 80
2, 22439, Note_off_c, 0, 78, 0
2, 22440, Note_on_c, 0, 79, 80
2, 22559, Note_off_c, 0, 79, 0
2, 22560, Note_on_c, 0, 69, 80
2, 22679, Note_off_c, 0, 69, 0
2, 22680, Note_on_c, 0, 78, 80
2, 22799, Note_off_c, 0, 78, 0
2, 22800, Note_on_c, 0, 76, 80
2, 22919, Note_off_c, 0, 76, 0
2, 22920, Note_on_c, 0, 78, 80
2, 23039, Note_off_c, 0, 78, 0
2, 23040, Note_on_c, 0, 79, 105
2, 23999, Note_off_c, 0, 79, 0
2, 25920, Note_on_c, 0, 70, 95
2, 26039, Note_off_c, 0, 70, 0
2, 26040, Note_on_c, 0, 74, 80
2, 26159, Note_off_c, 0, 74, 0
2, 26160, Note_on_c, 0, 72, 80
2, 26279, Note_off_c, 0, 72, 0
2, 26280, Note_on_c, 0, 74, 80
2, 26399, Note_off_c, 0, 74, 0
2, 26400, Note_on_c, 0, 66, 80
2, 26519, Note_off_c, 0, 66, 0
2, 26520, Note_on_c, 0, 74, 80
2, 26639, Note_off_c, 0, 74, 0
2, 26640, Note_on_c, 0, 72, 80
2, 26759, Note_off_c, 0, 72, 0
2, 26760, Note_on_c, 0, 74, 80
2, 26879, Note_off_c, 0, 74, 0
2, 26880, Note_on_c, 0, 67, 105
2, 26999, Note_off_c, 0, 67, 0
2, 27000, Note_on_c, 0, 74, 80
2, 27119, Note_off_c, 0, 74, 0
2, 27120, Note_on_c, 0, 72, 80
2, 27239, Note_off_c, 0, 72, 0
2, 27240, Note_on_c, 0, 74, 80
2, 27359, Note_off_c, 0, 74, 0
2, 27360, Note_on_c, 0, 66, 80
2, 27479, Note_off_c, 0, 66, 0
2, 27480, Note_on_c, 0, 74, 80
2, 27599, Note_off_c, 0, 74, 0
2, 27600, Note_on_c, 0, 72, 80
2, 27719, Note_off_c, 0, 72, 0
2, 27720, Note_on_c, 0, 74, 80
2, 27839, Note_off_c, 0, 74, 0
2, 27840, Note_on_c, 0, 70, 95
2, 28319, Note_off_c, 0, 70, 0
2, 28320, Note_on_c, 0, 72, 80
2, 28799, Note_off_c, 0, 72, 0
2, 28800, Note_on_c, 0, 74, 105
2, 29279, Note_off_c, 0, 74, 0
2, 29280, Note_on_c, 0, 72, 80
2, 29759, Note_off_c, 0, 72, 0
2, 30000, Note_on_c, 0, 70, 80
2, 30239, Note_off_c, 0, 70, 0
2, 30480, Note_on_c, 0, 69, 80
2, 30719, Note_off_c, 0, 69, 0
2, 30960, Note_on_c, 0, 62, 80
2, 31199, Note_off_c, 0, 62, 0
2, 31200, Note_on_c, 0, 67, 80
2, 31319, Note_off_c, 0, 67, 0
2, 31320, Note_on_c, 0, 69, 80
2, 31439, Note_off_c, 0, 69, 0
2, 31440, Note_on_c, 0, 70, 80
2, 31559, Note_off_c, 0, 70, 0
2, 31560, Note_on_c, 0, 67, 80
2, 31679, Note_off_c, 0, 67, 0
2, 31680, Note_on_c, 0, 69, 95
2, 31919, Note_off_c, 0, 69, 0
2, 31920, Note_on_c, 0, 74, 80
2, 32159, Note_off_c, 0, 74, 0
2, 32160, Note_on_c, 0, 73, 80
2, 32399, Note_off_c, 0, 73, 0
2, 32400, Note_on_c, 0, 76, 80
2, 32639, Note_off_c, 0, 76, 0
2, 32640, Note_on_c, 0, 81, 105
2, 32759, Note_off_c, 0, 81, 0
2, 32760, Note_on_c, 0, 82, 80
2, 32879, Note_off_c, 0, 82, 0
2, 32880, Note_on_c, 0, 81, 80
2, 32999, Note_off_c, 0, 81, 0
2, 33000, Note_on_c, 0, 79, 80
2, 33119, Note_off_c, 0, 79, 0
2, 33120, Note_on_c, 0, 77, 80
2, 33239, Note_off_c, 0, 77, 0
2, 33240, Note_on_c, 0, 76, 80
2, 33359, Note_off_c, 0, 76, 0
2, 33360, Note_on_c, 0, 74, 80
2, 33479, Note_off_c, 0, 74, 0
2, 33480, Note_on_c, 0, 73, 80
2, 33599, Note_off_c, 0, 73, 0
2, 33600, Note_on_c, 0, 74, 95
2, 33839, Note_off_c, 0, 74, 0
2, 34080, Note_on_c, 0, 82, 80
2, 34319, Note_off_c, 0, 82, 0
2, 34560, Note_on_c, 0, 76, 105
2, 34799, Note_off_c, 0, 76, 0
2, 35280, Note_on_c, 0, 81, 80
2, 35519, Note_off_c, 0, 81, 0
2, 35520, Note_on_c, 0, 82, 95
2, 35549, Note_off_c, 0, 82, 0
2, 35550, Note_on_c, 0, 81, 80
2, 35579, Note_off_c, 0, 81, 0
2, 35580, Note_on_c, 0, 82, 80
2, 35609, Note_off_c, 0, 82, 0
2, 35610, Note_on_c, 0, 81, 80
2, 35639, Note_off_c, 0, 81, 0
2, 35640, Note_on_c, 0, 82, 80
2, 35669, Note_off_c, 0, 82, 0
2, 35670, Note_on_c, 0, 81, 80
2, 35699, Note_off_c, 0, 81, 0
2, 35700, Note_on_c, 0, 82, 80
2, 35729, Note_off_c, 0, 82, 0
2, 35730, Note_on_c, 0, 81, 80
2, 35759, Note_off_c, 0, 81, 0
2, 35760, Note_on_c, 0, 82, 80
2, 35789, Note_off_c, 0, 82, 0
2, 35790, Note_on_c, 0, 81, 80
2, 35819, Note_off_c, 0, 81, 0
2, 35820, Note_on_c, 0, 82, 80
2, 35849, Note_off_c, 0, 82, 0
2, 35850, Note_on_c, 0, 81, 80
2, 35879, Note_off_c, 0, 81, 0
2, 35880, Note_on_c, 0, 82, 80
2, 35909, Note_off_c, 0, 82, 0
2, 35910, Note_on_c, 0, 81, 80
2, 35939, Note_off_c, 0, 81, 0
2, 35940, Note_on_c, 0, 82, 80
2, 35969, Note_off_c, 0, 82, 0
2, 35970, Note_on_c, 0, 81, 80
2, 35999, Note_off_c, 0, 81, 0
2, 36000, Note_on_c, 0, 82, 80
2, 36029, Note_off_c, 0, 82, 0
2, 36030, Note_on_c, 0, 81, 80
2, 36059, Note_off_c, 0, 81, 0
2, 36060, Note_on_c, 0, 82, 80
2, 36089, Note_off_c, 0, 82, 0
2, 36090, Note_on_c, 0, 81, 80
2, 36119, Note_off_c, 0, 81, 0
2, 36120, Note_on_c, 0, 82, 80
2, 36149, Note_off_c, 0, 82, 0
2, 36150, Note_on_c, 0, 81, 80
2, 36179, Note_off_c, 0, 81, 0
2, 36180, Note_on_c, 0, 82, 80
2, 36209, Note_off_c, 0, 82, 0
2, 36210, Note_on_c, 0, 81, 80
2, 36239, Note_off_c, 0, 81, 0
2, 36240, Note_on_c, 0, 82, 80
2, 36269, Note_off_c, 0, 82, 0
2, 36270, Note_on_c, 0, 81, 80
2, 36299, Note_off_c, 0, 81, 0
2, 36300, Note_on_c, 0, 82, 80
2, 36329, Note_off_c, 0, 82, 0
2, 36330, Note_on_c, 0, 81, 80
2, 36359, Note_off_c, 0, 81, 0
2, 36360, Note_on_c, 0, 82, 80
2, 36389, Note_off_c, 0, 82, 0
2, 36390, Note_on_c, 0, 81, 80
2, 36419, Note_off_c, 0, 81, 0
2, 36420, Note_on_c, 0, 82, 80
2, 36449, Note_off_c, 0, 82, 0
2, 36450, Note_on_c, 0, 81, 80
2, 36479, Note_off_c, 0, 81, 0
2, 36480, Note_on_c, 0, 81, 105
2, 39479, Note_off_c, 0, 81, 0
2, 39480, Note_on_c, 0, 79, 80
2, 39599, Note_off_c, 0, 79, 0
2, 39600, Note_on_c, 0, 81, 80
2, 39719, Note_off_c, 0, 81, 0
2, 39720, Note_on_c, 0, 82, 80
2, 39839, Note_off_c, 0, 82, 0
2, 39840, Note_on_c, 0, 81, 80
2, 39959, Note_off_c, 0, 81, 0
2, 39960, Note_on_c, 0, 79, 80
2, 40079, Note_off_c, 0, 79, 0
2, 40080, Note_on_c, 0, 77, 80
2, 40199, Note_off_c, 0, 77, 0
2, 40200, Note_on_c, 0, 76, 80
2, 40319, Note_off_c, 0, 76, 0
2, 40320, Note_on_c, 0, 77, 105
2, 41279, Note_off_c, 0, 77, 0
2, 41520, Note_on_c, 0, 74, 80
2, 41759, Note_off_c, 0, 74, 0
2, 41760, Note_on_c, 0, 79, 80
2, 41999, Note_off_c, 0, 79, 0
2, 42000, Note_on_c, 0, 77, 80
2, 42239, Note_off_c, 0, 77, 0
2, 42240, Note_on_c, 0, 75, 105
2, 43439, Note_off_c, 0, 75, 0
2, 43440, Note_on_c, 0, 72, 80
2, 43679, Note_off_c, 0, 72, 0
2, 43680, Note_on_c, 0, 77, 80
2, 43919, Note_off_c, 0, 77, 0
2, 43920, Note_on_c, 0, 75, 80
2, 44159, Note_off_c, 0, 75, 0
2, 44160, Note_on_c, 0, 74, 105
2, 44759, Note_off_c, 0, 74, 0
2, 44760, Note_on_c, 0, 79, 80
2, 44879, Note_off_c, 0, 79, 0
2, 44880, Note_on_c, 0, 78, 80
2, 44999, Note_off_c, 0, 78, 0
2, 45000, Note_on_c, 0, 79, 80
2, 45119, Note_off_c, 0, 79, 0
2, 45120, Note_on_c, 0, 72, 95
2, 45719, Note_off_c, 0, 72, 0
2, 45720, Note_on_c, 0, 70, 80
2, 45839, Note_off_c, 0, 70, 0
2, 45840, Note_on_c, 0, 69, 80
2, 45959, Note_off_c, 0, 69, 0
2, 45960, Note_on_c, 0, 72, 80
2, 46079, Note_off_c, 0, 72, 0
2, 46080, Note_on_c, 0, 70, 105
2, 46199, Note_off_c, 0, 70, 0
2, 46200, Note_on_c, 0, 69, 80
2, 46319, Note_off_c, 0, 69, 0
2, 46320, Note_on_c, 0, 67, 80
2, 46439, Note_off_c, 0, 67, 0
2, 46440, Note_on_c, 0, 70, 80
2, 46559, Note_off_c, 0, 70, 0
2, 46560, Note_on_c, 0, 69, 80
2, 46679, Note_off_c, 0, 69, 0
2, 46680, Note_on_c, 0, 67, 80
2, 46799, Note_off_c, 0, 67, 0
2, 46800, Note_on_c, 0, 66, 80
2, 46919, Note_off_c, 0, 66, 0
2, 46920, Note_on_c, 0, 69, 80
2, 47039, Note_off_c, 0, 69, 0
2, 47040, Note_on_c, 0, 67, 95
2, 47159, Note_off_c, 0, 67, 0
2, 47160, Note_on_c, 0, 62, 80
2, 47279, Note_off_c, 0, 62, 0
2, 47280, Note_on_c, 0, 64, 80
2, 47399, Note_off_c, 0, 64, 0
2, 47400, Note_on_c, 0, 66, 80
2, 47519, Note_off_c, 0, 66, 0
2, 47520, Note_on_c, 0, 67, 80
2, 47639, Note_off_c, 0, 67, 0
2, 47640, Note_on_c, 0, 62, 80
2, 47759, Note_off_c, 0, 62, 0
2, 47760, Note_on_c, 0, 67, 80
2, 47879, Note_off_c, 0, 67, 0
2, 47880, Note_on_c, 0, 69, 80
2, 47999, Note_off_c, 0, 69, 0
2, 48000, Note_on_c, 0, 70, 105
2, 48119, Note_off_c, 0, 70, 0
2, 48120, Note_on_c, 0, 67, 80
2, 48239, Note_off_c, 0, 67, 0
2, 48240, Note_on_c, 0, 70, 80
2, 48359, Note_off_c, 0, 70, 0
2, 48360, Note_on_c, 0, 72, 80
2, 48479, Note_off_c, 0, 72, 0
2, 48480, Note_on_c, 0, 74, 80
2, 48599, Note_off_c, 0, 74, 0
2, 48600, Note_on_c, 0, 69, 80
2, 48719, Note_off_c, 0, 69, 0
2, 48720, Note_on_c, 0, 74, 80
2, 48839, Note_off_c, 0, 74, 0
2, 48840, Note_on_c, 0, 72, 80
2, 48959, Note_off_c, 0, 72, 0
2, 48960, Note_on_c, 0, 70, 95
2, 49679, Note_off_c, 0, 70, 0
2, 49680, Note_on_c, 0, 69, 80
2, 49919, Note_off_c, 0, 69, 0
2, 49920, Note_on_c, 0, 67, 105
2, 50159, Note_off_c, 0, 67, 0
2, 50160, Note_on_c, 0, 70, 80
2, 50399, Note_off_c, 0, 70, 0
2, 50400, Note_on_c, 0, 69, 80
2, 50639, Note_off_c, 0, 69, 0
2, 50640, Note_on_c, 0, 67, 80
2, 50879, Note_off_c, 0, 67, 0
2, 50880, Note_on_c, 0, 66, 95
2, 51119, Note_off_c, 0, 66, 0
2, 51120, Note_on_c, 0, 69, 80
2, 51359, Note_off_c, 0, 69, 0
2, 51360, Note_on_c, 0, 62, 80
2, 51839, Note_off_c, 0, 62, 0
2, 51840, Note_on_c, 0, 67, 105
2, 52079, Note_off_c, 0, 67, 0
2, 52080, Note_on_c, 0, 62, 80
2, 52319, Note_off_c, 0, 62, 0
2, 52320, Note_on_c, 0, 69, 80
2, 52559, Note_off_c, 0, 69, 0
2, 52560, Note_on_c, 0, 62, 80
2, 52799, Note_off_c, 0, 62, 0
2, 52800, Note_on_c, 0, 70, 95
2, 53039, Note_off_c, 0, 70, 0
2, 53040, Note_on_c, 0, 69, 80
2, 53159, Note_off_c, 0, 69, 0
2, 53160, Note_on_c, 0, 67, 80
2, 53279, Note_off_c, 0, 67, 0
2, 53280, Note_on_c, 0, 69, 80
2, 53519, Note_off_c, 0, 69, 0
2, 53520, Note_on_c, 0, 62, 80
2, 53759, Note_off_c, 0, 62, 0
2, 53760, Note_on_c, 0, 67, 105
2, 53999, Note_off_c, 0, 67, 0
2, 54000, Note_on_c, 0, 62, 80
2, 54119, Note_off_c, 0, 62, 0
2, 54120, Note_on_c, 0, 67, 80
2, 54239, Note_off_c, 0, 67, 0
2, 54240, Note_on_c, 0, 69, 80
2, 54479, Note_off_c, 0, 69, 0
2, 54480, Note_on_c, 0, 62, 80
2, 54599, Note_off_c, 0, 62, 0
2, 54600, Note_on_c, 0, 69, 80
2, 54719, Note_off_c, 0, 69, 0
2, 54720, Note_on_c, 0, 70, 95
2, 54959, Note_off_c, 0, 70, 0
2, 54960, Note_on_c, 0, 69, 80
2, 55079, Note_off_c, 0, 69, 0
2, 55080, Note_on_c, 0, 67, 80
2, 55199, Note_off_c, 0, 67, 0
2, 55200, Note_on_c, 0, 69, 80
2, 55319, Note_off_c, 0, 69, 0
2, 55320, Note_on_c, 0, 62, 80
2, 55439, Note_off_c, 0, 62, 0
2, 55440, Note_on_c, 0, 74, 80
2, 55559, Note_off_c, 0, 74, 0
2, 55560, Note_on_c, 0, 72, 80
2, 55679, Note_off_c, 0, 72, 0
2, 55680, Note_on_c, 0, 70, 105
2, 55799, Note_off_c, 0, 70, 0
2, 55800, Note_on_c, 0, 69, 80
2, 55919, Note_off_c, 0, 69, 0
2, 55920, Note_on_c, 0, 67, 80
2, 56039, Note_off_c, 0, 67, 0
2, 56040, Note_on_c, 0, 70, 80
2, 56159, Note_off_c, 0, 70, 0
2, 56160, Note_on_c, 0, 69, 80
2, 56279, Note_off_c, 0, 69, 0
2, 56280, Note_on_c, 0, 67, 80
2, 56399, Note_off_c, 0, 67, 0
2, 56400, Note_on_c, 0, 66, 80
2, 56519, Note_off_c, 0, 66, 0
2, 56520, Note_on_c, 0, 69, 80
2, 56639, Note_off_c, 0, 69, 0
2, 56640, Note_on_c, 0, 67, 95
2, 56759, Note_off_c, 0, 67, 0
2, 56760, Note_on_c, 0, 70, 80
2, 56879, Note_off_c, 0, 70, 0
2, 56880, Note_on_c, 0, 72, 80
2, 56999, Note_off_c, 0, 72, 0
2, 57000, Note_on_c, 0, 74, 80
2, 57119, Note_off_c, 0, 74, 0
2, 57120, Note_on_c, 0, 75, 80
2, 57239, Note_off_c, 0, 75, 0
2, 57240, Note_on_c, 0, 70, 80
2, 57359, Note_off_c, 0, 70, 0
2, 57360, Note_on_c, 0, 69, 80
2, 57479, Note_off_c, 0, 69, 0
2, 57480, Note_on_c, 0, 67, 80
2, 57599, Note_off_c, 0, 67, 0
2, 57600, Note_on_c, 0, 66, 105
2, 57719, Note_off_c, 0, 66, 0
2, 57720, Note_on_c, 0, 69, 80
2, 57839, Note_off_c, 0, 69, 0
2, 57840, Note_on_c, 0, 70, 80
2, 57959, Note_off_c, 0, 70, 0
2, 57960, Note_on_c, 0, 72, 80
2, 58079, Note_off_c, 0, 72, 0
2, 58080, Note_on_c, 0, 74, 80
2, 58199, Note_off_c, 0, 74, 0
2, 58200, Note_on_c, 0, 69, 80
2, 58319, Note_off_c, 0, 69, 0
2, 58320, Note_on_c, 0, 67, 80
2, 58439, Note_off_c, 0, 67, 0
2, 58440, Note_on_c, 0, 65, 80
2, 58559, Note_off_c, 0, 65, 0
2, 58560, Note_on_c, 0, 63, 95
2, 58679, Note_off_c, 0, 63, 0
2, 58680, Note_on_c, 0, 67, 80
2, 58799, Note_off_c, 0, 67, 0
2, 58800, Note_on_c, 0, 69, 80
2, 58919, Note_off_c, 0, 69, 0
2, 58920, Note_on_c, 0, 70, 80
2, 59039, Note_off_c, 0, 70, 0
2, 59040, Note_on_c, 0, 72, 80
2, 59159, Note_off_c, 0, 72, 0
2, 59160, Note_on_c, 0, 67, 80
2, 59279, Note_off_c, 0, 67, 0
2, 59280, Note_on_c, 0, 65, 80
2, 59399, Note_off_c, 0, 65, 0
2, 59400, Note_on_c, 0, 63, 80
2, 59519, Note_off_c, 0, 63, 0
2, 59520, Note_on_c, 0, 62, 105
2, 59639, Note_off_c, 0, 62, 0
2, 59640, Note_on_c, 0, 65, 80
2, 59759, Note_off_c, 0, 65, 0
2, 59760, Note_on_c, 0, 67, 80
2, 59879, Note_off_c, 0, 67, 0
2, 59880, Note_on_c, 0, 69, 80
2, 59999, Note_off_c, 0, 69, 0
2, 60000, Note_on_c, 0, 70, 80
2, 60119, Note_off_c, 0, 70, 0
2, 60120, Note_on_c, 0, 74, 80
2, 60239, Note_off_c, 0, 74, 0
2, 60240, Note_on_c, 0, 72, 80
2, 60359, Note_off_c, 0, 72, 0
2, 60360, Note_on_c, 0, 70, 80
2, 60479, Note_off_c, 0, 70, 0
2, 60480, Note_on_c, 0, 69, 95
2, 60599, Note_off_c, 0, 69, 0
2, 60600, Note_on_c, 0, 72, 80
2, 60719, Note_off_c, 0, 72, 0
2, 60720, Note_on_c, 0, 74, 80
2, 60839, Note_off_c, 0, 74, 0
2, 60840, Note_on_c, 0, 75, 80
2, 60959, Note_off_c, 0, 75, 0
2, 60960, Note_on_c, 0, 77, 80
2, 61079, Note_off_c, 0, 77, 0
2, 61080, Note_on_c, 0, 79, 80
2, 61199, Note_off_c, 0, 79, 0
2, 61200, Note_on_c, 0, 77, 80
2, 61319, Note_off_c, 0, 77, 0
2, 61320, Note_on_c, 0, 75, 80
2, 61439, Note_off_c, 0, 75, 0
2, 61440, Note_on_c, 0, 74, 105
2, 61559, Note_off_c, 0, 74, 0
2, 61560, Note_on_c, 0, 77, 80
2, 61679, Note_off_c, 0, 77, 0
2, 61680, Note_on_c, 0, 75, 80
2, 61799, Note_off_c, 0, 75, 0
2, 61800, Note_on_c, 0, 74, 80
2, 61919, Note_off_c, 0, 74, 0
2, 61920, Note_on_c, 0, 72, 80
2, 62039, Note_off_c, 0, 72, 0
2, 62040, Note_on_c, 0, 70, 80
2, 62159, Note_off_c, 0, 70, 0
2, 62160, Note_on_c, 0, 69, 80
2, 62279, Note_off_c, 0, 69, 0
2, 62280, Note_on_c, 0, 72, 80
2, 62399, Note_off_c, 0, 72, 0
2, 62400, Note_on_c, 0, 70, 95
2, 62519, Note_off_c, 0, 70, 0
2, 62520, Note_on_c, 0, 65, 80
2, 62639, Note_off_c, 0, 65, 0
2, 62640, Note_on_c, 0, 67, 80
2, 62759, Note_off_c, 0, 67, 0
2, 62760, Note_on_c, 0, 69, 80
2, 62879, Note_off_c, 0, 69, 0
2, 62880, Note_on_c, 0, 70, 80
2, 62999, Note_off_c, 0, 70, 0
2, 63000, Note_on_c, 0, 72, 80
2, 63119, Note_off_c, 0, 72, 0
2, 63120, Note_on_c, 0, 70, 80
2, 63239, Note_off_c, 0, 70, 0
2, 63240, Note_on_c, 0, 72, 80
2, 63359, Note_off_c, 0, 72, 0
2, 63360, Note_on_c, 0, 74, 105
2, 63479, Note_off_c, 0, 74, 0
2, 63480, Note_on_c, 0, 76, 80
2, 63599, Note_off_c, 0, 76, 0
2, 63600, Note_on_c, 0, 74, 80
2, 63719, Note_off_c, 0, 74, 0
2, 63720, Note_on_c, 0, 76, 80
2, 63839, Note_off_c, 0, 76, 0
2, 63840, Note_on_c, 0, 76, 80
2, 64199, Note_off_c, 0, 76, 0
2, 64200, Note_on_c, 0, 74, 80
2, 64259, Note_off_c, 0, 74, 0
2, 64260, Note_on_c, 0, 76, 80
2, 64319, Note_off_c, 0, 76, 0
2, 64320, Note_on_c, 0, 77, 95
2, 64439, Note_off_c, 0, 77, 0
2, 64440, Note_on_c, 0, 75, 80
2, 64559, Note_off_c, 0, 75, 0
2, 64560, Note_on_c, 0, 77, 80
2, 64679, Note_off_c, 0, 77, 0
2, 64680, Note_on_c, 0, 79, 80
2, 64799, Note_off_c, 0, 79, 0
2, 64800, Note_on_c, 0, 77, 80
2, 64919, Note_off_c, 0, 77, 0
2, 64920, Note_on_c, 0, 75, 80
2, 65039, Note_off_c, 0, 75, 0
2, 65040, Note_on_c, 0, 74, 80
2, 65159, Note_off_c, 0, 74, 0
2, 65160, Note_on_c, 0, 72, 80
2, 65279, Note_off_c, 0, 72, 0
2, 65280, Note_on_c, 0, 74, 105
2, 65399, Note_off_c, 0, 74, 0
2, 65400, Note_on_c, 0, 77, 80
2, 65519, Note_off_c, 0, 77, 0
2, 65520, Note_on_c, 0, 75, 80
2, 65639, Note_off_c, 0, 75, 0
2, 65640, Note_on_c, 0, 77, 80
2, 65759, Note_off_c, 0, 77, 0
2, 65760, Note_on_c, 0, 69, 80
2, 65879, Note_off_c, 0, 69, 0
2, 65880, Note_on_c, 0, 77, 80
2, 65999, Note_off_c, 0, 77, 0
2, 66000, Note_on_c, 0, 75, 80
2, 66119, Note_off_c, 0, 75, 0
2, 66120, Note_on_c, 0, 77, 80
2, 66239, Note_off_c, 0, 77, 0
2, 66240, Note_on_c, 0, 70, 95
2, 66359, Note_off_c, 0, 70, 0
2, 66360, Note_on_c, 0, 77, 80
2, 66479, Note_off_c, 0, 77, 0
2, 66480, Note_on_c, 0, 75, 80
2, 66599, Note_off_c, 0, 75, 0
2, 66600, Note_on_c, 0, 77, 80
2, 66719, Note_off_c, 0, 77, 0
2, 66720, Note_on_c, 0, 69, 80
2, 66839, Note_off_c, 0, 69, 0
2, 66840, Note_on_c, 0, 77, 80
2, 66959, Note_off_c, 0, 77, 0
2, 66960, Note_on_c, 0, 75, 80
2, 67079, Note_off_c, 0, 75, 0
2, 67080, Note_on_c, 0, 77, 80
2, 67199, Note_off_c, 0, 77, 0
2, 67200, Note_on_c, 0, 74, 105
2, 67319, Note_off_c, 0, 74, 0
2, 67320, Note_on_c, 0, 70, 80
2, 67439, Note_off_c, 0, 70, 0
2, 67440, Note_on_c, 0, 69, 80
2, 67559, Note_off_c, 0, 69, 0
2, 67560, Note_on_c, 0, 70, 80
2, 67679, Note_off_c, 0, 70, 0
2, 67680, Note_on_c, 0, 75, 80
2, 67799, Note_off_c, 0, 75, 0
2, 67800, Note_on_c, 0, 70, 80
2, 67919, Note_off_c, 0, 70, 0
2, 67920, Note_on_c, 0, 69, 80
2, 68039, Note_off_c, 0, 69, 0
2, 68040, Note_on_c, 0, 70, 80
2, 68159, Note_off_c, 0, 70, 0
2, 68160, Note_on_c, 0, 77, 95
2, 68279, Note_off_c, 0, 77, 0
2, 68280, Note_on_c, 0, 70, 80
2, 68399, Note_off_c, 0, 70, 0
2, 68400, Note_on_c, 0, 69, 80
2, 68519, Note_off_c, 0, 69, 0
2, 68520, Note_on_c, 0, 70, 80
2, 68639, Note_off_c, 0, 70, 0
2, 68640, Note_on_c, 0, 75, 80
2, 68759, Note_off_c, 0, 75, 0
2, 68760, Note_on_c, 0, 70, 80
2, 68879, Note_off_c, 0, 70, 0
2, 68880, Note_on_c, 0, 69, 80
2, 68999, Note_off_c, 0, 69, 0
2, 69000, Note_on_c, 0, 70, 80
2, 69119, Note_off_c, 0, 70, 0
2, 69120, Note_on_c, 0, 70, 105
2, 69239, Note_off_c, 0, 70, 0
2, 69240, Note_on_c, 0, 72, 80
2, 69359, Note_off_c, 0, 72, 0
2, 69360, Note_on_c, 0, 74, 80
2, 69479, Note_off_c, 0, 74, 0
2, 69480, Note_on_c, 0, 70, 80
2, 69599, Note_off_c, 0, 70, 0
2, 69600, Note_on_c, 0, 75, 80
2, 69719, Note_off_c, 0, 75, 0
2, 69720, Note_on_c, 0, 74, 80
2, 69839, Note_off_c, 0, 74, 0
2, 69840, Note_on_c, 0, 72, 80
2, 69959, Note_off_c, 0, 72, 0
2, 69960, Note_on_c, 0, 75, 80
2, 70079, Note_off_c, 0, 75, 0
2, 70080, Note_on_c, 0, 74, 95
2, 70199, Note_off_c, 0, 74, 0
2, 70200, Note_on_c, 0, 72, 80
2, 70319, Note_off_c, 0, 72, 0
2, 70320, Note_on_c, 0, 74, 80
2, 70439, Note_off_c, 0, 74, 0
2, 70440, Note_on_c, 0, 75, 80
2, 70559, Note_off_c, 0, 75, 0
2, 70560, Note_on_c, 0, 74, 80
2, 70679, Note_off_c, 0, 74, 0
2, 70680, Note_on_c, 0, 72, 80
2, 70799, Note_off_c, 0, 72, 0
2, 70800, Note_on_c, 0, 70, 80
2, 70919, Note_off_c, 0, 70, 0
2, 70920, Note_on_c, 0, 74, 80
2, 71039, Note_off_c, 0, 74, 0
2, 71040, Note_on_c, 0, 72, 105
2, 71159, Note_off_c, 0, 72, 0
2, 71160, Note_on_c, 0, 70, 80
2, 71279, Note_off_c, 0, 70, 0
2, 71280, Note_on_c, 0, 72, 80
2, 71399, Note_off_c, 0, 72, 0
2, 71400, Note_on_c, 0, 74, 80
2, 71519, Note_off_c, 0, 74, 0
2, 71520, Note_on_c, 0, 72, 80
2, 71639, Note_off_c, 0, 72, 0
2, 71640, Note_on_c, 0, 70, 80
2, 71759, Note_off_c, 0, 70, 0
2, 71760, Note_on_c, 0, 69, 80
2, 71879, Note_off_c, 0, 69, 0
2, 71880, Note_on_c, 0, 72, 80
2, 71999, Note_off_c, 0, 72, 0
2, 72000, Note_on_c, 0, 70, 95
2, 72119, Note_off_c, 0, 70, 0
2, 72120, Note_on_c, 0, 69, 80
2, 72239, Note_off_c, 0, 69, 0
2, 72240, Note_on_c, 0, 70, 80
2, 72359, Note_off_c, 0, 70, 0
2, 72360, Note_on_c, 0, 72, 80
2, 72479, Note_off_c, 0, 72, 0
2, 72480, Note_on_c, 0, 70, 80
2, 72599, Note_off_c, 0, 70, 0
2, 72600, Note_on_c, 0, 69, 80
2, 72719, Note_off_c, 0, 69, 0
2, 72720, Note_on_c, 0, 67, 80
2, 72839, Note_off_c, 0, 67, 0
2, 72840, Note_on_c, 0, 70, 80
2, 72959, Note_off_c, 0, 70, 0
2, 72960, Note_on_c, 0, 69, 105
2, 73199, Note_off_c, 0, 69, 0
2, 73200, Note_on_c, 0, 77, 80
2, 73439, Note_off_c, 0, 77, 0
2, 73680, Note_on_c, 0, 68, 80
2, 73919, Note_off_c, 0, 68, 0
2, 73920, Note_on_c, 0, 67, 95
2, 74159, Note_off_c, 0, 67, 0
2, 74160, Note_on_c, 0, 75, 80
2, 74399, Note_off_c, 0, 75, 0
2, 74640, Note_on_c, 0, 67, 80
2, 74879, Note_off_c, 0, 67, 0
2, 74880, Note_on_c, 0, 65, 105
2, 75119, Note_off_c, 0, 65, 0
2, 75120, Note_on_c, 0, 74, 80
2, 75359, Note_off_c, 0, 74, 0
2, 75600, Note_on_c, 0, 65, 80
2, 75839, Note_off_c, 0, 65, 0
2, 75840, Note_on_c, 0, 63, 95
2, 75959, Note_off_c, 0, 63, 0
2, 75960, Note_on_c, 0, 67, 80
2, 76079, Note_off_c, 0, 67, 0
2, 76080, Note_on_c, 0, 72, 80
2, 76199, Note_off_c, 0, 72, 0
2, 76200, Note_on_c, 0, 70, 80
2, 76319, Note_off_c, 0, 70, 0
2, 76320, Note_on_c, 0, 69, 80
2, 76439, Note_off_c, 0, 69, 0
2, 76440, Note_on_c, 0, 67, 80
2, 76559, Note_off_c, 0, 67, 0
2, 76560, Note_on_c, 0, 65, 80
2, 76679, Note_off_c, 0, 65, 0
2, 76680, Note_on_c, 0, 63, 80
2, 76799, Note_off_c, 0, 63, 0
2, 76800, Note_on_c, 0, 62, 105
2, 76919, Note_off_c, 0, 62, 0
2, 76920, Note_on_c, 0, 63, 80
2, 77039, Note_off_c, 0, 63, 0
2, 77040, Note_on_c, 0, 65, 80
2, 77159, Note_off_c, 0, 65, 0
2, 77160, Note_on_c, 0, 67, 80
2, 77279, Note_off_c, 0, 67, 0
2, 77280, Note_on_c, 0, 69, 80
2, 77399, Note_off_c, 0, 69, 0
2, 77400, Note_on_c, 0, 70, 80
2, 77519, Note_off_c, 0, 70, 0
2, 77520, Note_on_c, 0, 72, 80
2, 77639, Note_off_c, 0, 72, 0
2, 77640, Note_on_c, 0, 69, 80
2, 77759, Note_off_c, 0, 69, 0
2, 77760, Note_on_c, 0, 70, 95
2, 77879, Note_off_c, 0, 70, 0
2, 77880, Note_on_c, 0, 65, 80
2, 77999, Note_off_c, 0, 65, 0
2, 78000, Note_on_c, 0, 67, 80
2, 78119, Note_off_c, 0, 67, 0
2, 78120, Note_on_c, 0, 69, 80
2, 78239, Note_off_c, 0, 69, 0
2, 78240, Note_on_c, 0, 70, 80
2, 78359, Note_off_c, 0, 70, 0
2, 78360, Note_on_c, 0, 72, 80
2, 78479, Note_off_c, 0, 72, 0
2, 78480, Note_on_c, 0, 70, 80
2, 78599, Note_off_c, 0, 70, 0
2, 78600, Note_on_c, 0, 72, 80
2, 78719, Note_off_c, 0, 72, 0
2, 78720, Note_on_c, 0, 74, 105
2, 78839, Note_off_c, 0, 74, 0
2, 78840, Note_on_c, 0, 76, 80
2, 78959, Note_off_c, 0, 76, 0
2, 78960, Note_on_c, 0, 74, 80
2, 79079, Note_off_c, 0, 74, 0
2, 79080, Note_on_c, 0, 76, 80
2, 79199, Note_off_c, 0, 76, 0
2, 79200, Note_on_c, 0, 76, 80
2, 79559, Note_off_c, 0, 76, 0
2, 79560, Note_on_c, 0, 74, 80
2, 79619, Note_off_c, 0, 74, 0
2, 79620, Note_on_c, 0, 76, 80
2, 79679, Note_off_c, 0, 76, 0
2, 79680, Note_on_c, 0, 77, 95
2, 79799, Note_off_c, 0, 77, 0
2, 79800, Note_on_c, 0, 76, 80
2, 79919, Note_off_c, 0, 76, 0
2, 79920, Note_on_c, 0, 77, 80
2, 80039, Note_off_c, 0, 77, 0
2, 80040, Note_on_c, 0, 79, 80
2, 80159, Note_off_c, 0, 79, 0
2, 80160, Note_on_c, 0, 77, 80
2, 80399, Note_off_c, 0, 77, 0
2, 80400, Note_on_c, 0, 77, 80
2, 80639, Note_off_c, 0, 77, 0
2, 80640, Note_on_c, 0, 79, 105
2, 80669, Note_off_c, 0, 79, 0
2, 80670, Note_on_c, 0, 77, 80
2, 80699, Note_off_c, 0, 77, 0
2, 80700, Note_on_c, 0, 79, 80
2, 80729, Note_off_c, 0, 79, 0
2, 80730, Note_on_c, 0, 77, 80
2, 80759, Note_off_c, 0, 77, 0
2, 80760, Note_on_c, 0, 79, 80
2, 80789, Note_off_c, 0, 79, 0
2, 80790, Note_on_c, 0, 77, 80
2, 80819, Note_off_c, 0, 77, 0
2, 80820, Note_on_c, 0, 79, 80
2, 80849, Note_off_c, 0, 79, 0
2, 80850, Note_on_c, 0, 77, 80
2, 80879, Note_off_c, 0, 77, 0
2, 80880, Note_on_c, 0, 79, 80
2, 80909, Note_off_c, 0, 79, 0
2, 80910, Note_on_c, 0, 77, 80
2, 80939, Note_off_c, 0, 77, 0
2, 80940, Note_on_c, 0, 79, 80
2, 80969, Note_off_c, 0, 79, 0
2, 80970, Note_on_c, 0, 77, 80
2, 80999, Note_off_c, 0, 77, 0
2, 81000, Note_on_c, 0, 79, 80
2, 81029, Note_off_c, 0, 79, 0
2, 81030, Note_on_c, 0, 77, 80
2, 81059, Note_off_c, 0, 77, 0
2, 81060, Note_on_c, 0, 79, 80
2, 81089, Note_off_c, 0, 79, 0
2, 81090, Note_on_c, 0, 77, 80
2, 81119, Note_off_c, 0, 77, 0
2, 81120, Note_on_c, 0, 79, 80
2, 81149, Note_off_c, 0, 79, 0
2, 81150, Note_on_c, 0, 77, 80
2, 81179, Note_off_c, 0, 77, 0
2, 81180, Note_on_c, 0, 79, 80
2, 81209, Note_off_c, 0, 79, 0
2, 81210, Note_on_c, 0, 77, 80
2, 81239, Note_off_c, 0, 77, 0
2, 81240, Note_on_c, 0, 79, 80
2, 81269, Note_off_c, 0, 79, 0
2, 81270, Note_on_c, 0, 77, 80
2, 81299, Note_off_c, 0, 77, 0
2, 81300, Note_on_c, 0, 79, 80
2, 81329, Note_off_c, 0, 79, 0
2, 81330, Note_on_c, 0, 77, 80
2, 81359, Note_off_c, 0, 77, 0
2, 81360, Note_on_c, 0, 79, 80
2, 81389, Note_off_c, 0, 79, 0
2, 81390, Note_on_c, 0, 77, 80
2, 81419, Note_off_c, 0, 77, 0
2, 81420, Note_on_c, 0, 79, 80
2, 81449, Note_off_c, 0, 79, 0
2, 81450, Note_on_c, 0, 77, 80
2, 81479, Note_off_c, 0, 77, 0
2, 81480, Note_on_c, 0, 79, 80
2, 81509, Note_off_c, 0, 79, 0
2, 81510, Note_on_c, 0, 77, 80
2, 81539, Note_off_c, 0, 77, 0
2, 81540, Note_on_c, 0, 79, 80
2, 81569, Note_off_c, 0, 79, 0
2, 81570, Note_on_c, 0, 77, 80
2, 81599, Note_off_c, 0, 77, 0
2, 81600, Note_on_c, 0, 79, 95
2, 81629, Note_off_c, 0, 79, 0
2, 81630, Note_on_c, 0, 77, 80
2, 81659, Note_off_c, 0, 77, 0
2, 81660, Note_on_c, 0, 79, 80
2, 81689, Note_off_c, 0, 79, 0
2, 81690, Note_on_c, 0, 77, 80
2, 81719, Note_off_c, 0, 77, 0
2, 81720, Note_on_c, 0, 79, 80
2, 81749, Note_off_c, 0, 79, 0
2, 81750, Note_on_c, 0, 77, 80
2, 81779, Note_off_c, 0, 77, 0
2, 81780, Note_on_c, 0, 79, 80
2, 81809, Note_off_c, 0, 79, 0
2, 81810, Note_on_c, 0, 77, 80
2, 81839, Note_off_c, 0, 77, 0
2, 81840, Note_on_c, 0, 79, 80
2, 81869, Note_off_c, 0, 79, 0
2, 81870, Note_on_c, 0, 77, 80
2, 81899, Note_off_c, 0, 77, 0
2, 81900, Note_on_c, 0, 79, 80
2, 81929, Note_off_c, 0, 79, 0
2, 81930, Note_on_c, 0, 77, 80
2, 81959, Note_off_c, 0, 77, 0
2, 81960, Note_on_c, 0, 79, 80
2, 81989, Note_off_c, 0, 79, 0
2, 81990, Note_on_c, 0, 77, 80
2, 82019, Note_off_c, 0, 77, 0
2, 82020, Note_on_c, 0, 79, 80
2, 82049, Note_off_c, 0, 79, 0
2, 82050, Note_on_c, 0, 77, 80
2, 82079, Note_off_c, 0, 77, 0
2, 82080, Note_on_c, 0, 79, 80
2, 82109, Note_off_c, 0, 79, 0
2, 82110, Note_on_c, 0, 77, 80
2, 82139, Note_off_c, 0, 77, 0
2, 82140, Note_on_c, 0, 79, 80
2, 82169, Note_off_c, 0, 79, 0
2, 82170, Note_on_c, 0, 77, 80
2, 82199, Note_off_c, 0, 77, 0
2, 82200, Note_on_c, 0, 79, 80
2, 82229, Note_off_c, 0, 79, 0
2, 82230, Note_on_c, 0, 77, 80
2, 82259, Note_off_c, 0, 77, 0
2, 82260, Note_on_c, 0, 79, 80
2, 82289, Note_off_c, 0, 79, 0
2, 82290, Note_on_c, 0, 77, 80
2, 82319, Note_off_c, 0, 77, 0
2, 82320, Note_on_c, 0, 79, 80
2, 82349, Note_off_c, 0, 79, 0
2, 82350, Note_on_c, 0, 77, 80
2, 82379, Note_off_c, 0, 77, 0
2, 82380, Note_on_c, 0, 79, 80
2, 82409, Note_off_c, 0, 79, 0
2, 82410, Note_on_c, 0, 77, 80
2, 82439, Note_off_c, 0, 77, 0
2, 82440, Note_on_c, 0, 79, 80
2, 82469, Note_off_c, 0, 79, 0
2, 82470, Note_on_c, 0, 77, 80
2, 82499, Note_off_c, 0, 77, 0
2, 82500, Note_on_c, 0, 79, 80
2, 82529, Note_off_c, 0, 79, 0
2, 82530, Note_on_c, 0, 77, 80
2, 82559, Note_off_c, 0, 77, 0
2, 82560, Note_on_c, 0, 77, 105
2, 84599, Note_off_c, 0, 77, 0
2, 84600, Note_on_c, 0, 75, 80
2, 84719, Note_off_c, 0, 75, 0
2, 84720, Note_on_c, 0, 77, 80
2, 84839, Note_off_c, 0, 77, 0
2, 84840, Note_on_c, 0, 79, 80
2, 84959, Note_off_c, 0, 79, 0
2, 84960, Note_on_c, 0, 72, 80
2, 85319, Note_off_c, 0, 72, 0
2, 85320, Note_on_c, 0, 81, 80
2, 85439, Note_off_c, 0, 81, 0
2, 85440, Note_on_c, 0, 82, 95
2, 85559, Note_off_c, 0, 82, 0
2, 85560, Note_on_c, 0, 81, 80
2, 85679, Note_off_c, 0, 81, 0
2, 85680, Note_on_c, 0, 82, 80
2, 85799, Note_off_c, 0, 82, 0
2, 85800, Note_on_c, 0, 84, 80
2, 85919, Note_off_c, 0, 84, 0
2, 85920, Note_on_c, 0, 82, 80
2, 86039, Note_off_c, 0, 82, 0
2, 86040, Note_on_c, 0, 81, 80
2, 86159, Note_off_c, 0, 81, 0
2, 86160, Note_on_c, 0, 79, 80
2, 86279, Note_off_c, 0, 79, 0
2, 86280, Note_on_c, 0, 77, 80
2, 86399, Note_off_c, 0, 77, 0
2, 86400, Note_on_c, 0, 75, 105
2, 86519, Note_off_c, 0, 75, 0
2, 86520, Note_on_c, 0, 74, 80
2, 86639, Note_off_c, 0, 74, 0
2, 86640, Note_on_c, 0, 75, 80
2, 86759, Note_off_c, 0, 75, 0
2, 86760, Note_on_c, 0, 77, 80
2, 86879, Note_off_c, 0, 77, 0
2, 86880, Note_on_c, 0, 75, 80
2, 86999, Note_off_c, 0, 75, 0
2, 87000, Note_on_c, 0, 74, 80
2, 87119, Note_off_c, 0, 74, 0
2, 87120, Note_on_c, 0, 72, 80
2, 87239, Note_off_c, 0, 72, 0
2, 87240, Note_on_c, 0, 70, 80
2, 87359, Note_off_c, 0, 70, 0
2, 87360, Note_on_c, 0, 81, 95
2, 87479, Note_off_c, 0, 81, 0
2, 87480, Note_on_c, 0, 79, 80
2, 87599, Note_off_c, 0, 79, 0
2, 87600, Note_on_c, 0, 81, 80
2, 87719, Note_off_c, 0, 81, 0
2, 87720, Note_on_c, 0, 82, 80
2, 87839, Note_off_c, 0, 82, 0
2, 87840, Note_on_c, 0, 81, 80
2, 87959, Note_off_c, 0, 81, 0
2, 87960, Note_on_c, 0, 79, 80
2, 88079, Note_off_c, 0, 79, 0
2, 88080, Note_on_c, 0, 77, 80
2, 88199, Note_off_c, 0, 77, 0
2, 88200, Note_on_c, 0, 75, 80
2, 88319, Note_off_c, 0, 75, 0
2, 88320, Note_on_c, 0, 74, 105
2, 88439, Note_off_c, 0, 74, 0
2, 88440, Note_on_c, 0, 72, 80
2, 88559, Note_off_c, 0, 72, 0
2, 88560, Note_on_c, 0, 74, 80
2, 88679, Note_off_c, 0, 74, 0
2, 88680, Note_on_c, 0, 75, 80
2, 88799, Note_off_c, 0, 75, 0
2, 88800, Note_on_c, 0, 74, 80
2, 88919, Note_off_c, 0, 74, 0
2, 88920, Note_on_c, 0, 72, 80
2, 89039, Note_off_c, 0, 72, 0
2, 89040, Note_on_c, 0, 70, 80
2, 89159, Note_off_c, 0, 70, 0
2, 89160, Note_on_c, 0, 69, 80
2, 89279, Note_off_c, 0, 69, 0
2, 89280, Note_on_c, 0, 79, 95
2, 89399, Note_off_c, 0, 79, 0
2, 89400, Note_on_c, 0, 77, 80
2, 89519, Note_off_c, 0, 77, 0
2, 89520, Note_on_c, 0, 79, 80
2, 89639, Note_off_c, 0, 79, 0
2, 89640, Note_on_c, 0, 80, 80
2, 89759, Note_off_c, 0, 80, 0
2, 89760, Note_on_c, 0, 79, 80
2, 89879, Note_off_c, 0, 79, 0
2, 89880, Note_on_c, 0, 77, 80
2, 89999, Note_off_c, 0, 77, 0
2, 90000, Note_on_c, 0, 75, 80
2, 90119, Note_off_c, 0, 75, 0
2, 90120, Note_on_c, 0, 74, 80
2, 90239, Note_off_c, 0, 74, 0
2, 90240, Note_on_c, 0, 72, 105
2, 90359, Note_off_c, 0, 72, 0
2, 90360, Note_on_c, 0, 71, 80
2, 90479, Note_off_c, 0, 71, 0
2, 90480, Note_on_c, 0, 72, 80
2, 90599, Note_off_c, 0, 72, 0
2, 90600, Note_on_c, 0, 74, 80
2, 90719, Note_off_c, 0, 74, 0
2, 90720, Note_on_c, 0, 72, 80
2, 90839, Note_off_c, 0, 72, 0
2, 90840, Note_on_c, 0, 74, 80
2, 90959, Note_off_c, 0, 74, 0
2, 90960, Note_on_c, 0, 75, 80
2, 91079, Note_off_c, 0, 75, 0
2, 91080, Note_on_c, 0, 72, 80
2, 91199, Note_off_c, 0, 72, 0
2, 91200, Note_on_c, 0, 77, 95
2, 91799, Note_off_c, 0, 77, 0
2, 91800, Note_on_c, 0, 80, 80
2, 91919, Note_off_c, 0, 80, 0
2, 91920, Note_on_c, 0, 79, 80
2, 92039, Note_off_c, 0, 79, 0
2, 92040, Note_on_c, 0, 77, 80
2, 92159, Note_off_c, 0, 77, 0
2, 92160, Note_on_c, 0, 75, 105
2, 93239, Note_off_c, 0, 75, 0
2, 93240, Note_on_c, 0, 72, 80
2, 93359, Note_off_c, 0, 72, 0
2, 93360, Note_on_c, 0, 74, 80
2, 93479, Note_off_c, 0, 74, 0
2, 93480, Note_on_c, 0, 75, 80
2, 93599, Note_off_c, 0, 75, 0
2, 93600, Note_on_c, 0, 77, 80
2, 93719, Note_off_c, 0, 77, 0
2, 93720, Note_on_c, 0, 79, 80
2, 93839, Note_off_c, 0, 79, 0
2, 93840, Note_on_c, 0, 80, 80
2, 93959, Note_off_c, 0, 80, 0
2, 93960, Note_on_c, 0, 77, 80
2, 94079, Note_off_c, 0, 77, 0
2, 94080, Note_on_c, 0, 71, 105
2, 94199, Note_off_c, 0, 71, 0
2, 94200, Note_on_c, 0, 72, 80
2, 94319, Note_off_c, 0, 72, 0
2, 94320, Note_on_c, 0, 74, 80
2, 94439, Note_off_c, 0, 74, 0
2, 94440, Note_on_c, 0, 71, 80
2, 94559, Note_off_c, 0, 71, 0
2, 94560, Note_on_c, 0, 67, 80
2, 94799, Note_off_c, 0, 67, 0
2, 95040, Note_on_c, 0, 72, 95
2, 95519, Note_off_c, 0, 72, 0
2, 95520, Note_on_c, 0, 79, 80
2, 95999, Note_off_c, 0, 79, 0
2, 96000, Note_on_c, 0, 75, 105
2, 96719, Note_off_c, 0, 75, 0
2, 96720, Note_on_c, 0, 74, 80
2, 96959, Note_off_c, 0, 74, 0
2, 96960, Note_on_c, 0, 72, 95
2, 97199, Note_off_c, 0, 72, 0
2, 97200, Note_on_c, 0, 75, 80
2, 97439, Note_off_c, 0, 75, 0
2, 97440, Note_on_c, 0, 74, 80
2, 97679, Note_off_c, 0, 74, 0
2, 97680, Note_on_c, 0, 72, 80
2, 97919, Note_off_c, 0, 72, 0
2, 97920, Note_on_c, 0, 71, 105
2, 98159, Note_off_c, 0, 71, 0
2, 98160, Note_on_c, 0, 74, 80
2, 98399, Note_off_c, 0, 74, 0
2, 98400, Note_on_c, 0, 67, 80
2, 98879, Note_off_c, 0, 67, 0
2, 98880, Note_on_c, 0, 72, 95
2, 99119, Note_off_c, 0, 72, 0
2, 99120, Note_on_c, 0, 67, 80
2, 99359, Note_off_c, 0, 67, 0
2, 99360, Note_on_c, 0, 74, 80
2, 99599, Note_off_c, 0, 74, 0
2, 99600, Note_on_c, 0, 67, 80
2, 99839, Note_off_c, 0, 67, 0
2, 99840, Note_on_c, 0, 75, 105
2, 100079, Note_off_c, 0, 75, 0
2, 100080, Note_on_c, 0, 74, 80
2, 100199, Note_off_c, 0, 74, 0
2, 100200, Note_on_c, 0, 72, 80
2, 100319, Note_off_c, 0, 72, 0
2, 100320, Note_on_c, 0, 74, 80
2, 100559, Note_off_c, 0, 74, 0
2, 100560, Note_on_c, 0, 67, 80
2, 100799, Note_off_c, 0, 67, 0
2, 100800, Note_on_c, 0, 72, 95
2, 101039, Note_off_c, 0, 72, 0
2, 101040, Note_on_c, 0, 67, 80
2, 101159, Note_off_c, 0, 67, 0
2, 101160, Note_on_c, 0, 72, 80
2, 101279, Note_off_c, 0, 72, 0
2, 101280, Note_on_c, 0, 74, 80
2, 101519, Note_off_c, 0, 74, 0
2, 101520, Note_on_c, 0, 67, 80
2, 101639, Note_off_c, 0, 67, 0
2, 101640, Note_on_c, 0, 74, 80
2, 101759, Note_off_c, 0, 74, 0
2, 101760, Note_on_c, 0, 75, 105
2, 101999, Note_off_c, 0, 75, 0
2, 102000, Note_on_c, 0, 74, 80
2, 102119, Note_off_c, 0, 74, 0
2, 102120, Note_on_c, 0, 72, 80
2, 102239, Note_off_c, 0, 72, 0
2, 102240, Note_on_c, 0, 74, 80
2, 102359, Note_off_c, 0, 74, 0
2, 102360, Note_on_c, 0, 67, 80
2, 102479, Note_off_c, 0, 67, 0
2, 102480, Note_on_c, 0, 79, 80
2, 102599, Note_off_c, 0, 79, 0
2, 102600, Note_on_c, 0, 77, 80
2, 102719, Note_off_c, 0, 77, 0
2, 102720, Note_on_c, 0, 75, 95
2, 102839, Note_off_c, 0, 75, 0
2, 102840, Note_on_c, 0, 74, 80
2, 102959, Note_off_c, 0, 74, 0
2, 102960, Note_on_c, 0, 72, 80
2, 103079, Note_off_c, 0, 72, 0
2, 103080, Note_on_c, 0, 75, 80
2, 103199, Note_off_c, 0, 75, 0
2, 103200, Note_on_c, 0, 74, 80
2, 103319, Note_off_c, 0, 74, 0
2, 103320, Note_on_c, 0, 72, 80
2, 103439, Note_off_c, 0, 72, 0
2, 103440, Note_on_c, 0, 71, 80
2, 103559, Note_off_c, 0, 71, 0
2, 103560, Note_on_c, 0, 74, 80
2, 103679, Note_off_c, 0, 74, 0
2, 103680, Note_on_c, 0, 72, 105
2, 103799, Note_off_c, 0, 72, 0
2, 103800, Note_on_c, 0, 79, 80
2, 103919, Note_off_c, 0, 79, 0
2, 103920, Note_on_c, 0, 75, 80
2, 104039, Note_off_c, 0, 75, 0
2, 104040, Note_on_c, 0, 79, 80
2, 104159, Note_off_c, 0, 79, 0
2, 104160, Note_on_c, 0, 72, 80
2, 104279, Note_off_c, 0, 72, 0
2, 104280, Note_on_c, 0, 75, 80
2, 104399, Note_off_c, 0, 75, 0
2, 104400, Note_on_c, 0, 67, 80
2, 104519, Note_off_c, 0, 67, 0
2, 104520, Note_on_c, 0, 70, 80
2, 104639, Note_off_c, 0, 70, 0
2, 104640, Note_on_c, 0, 69, 95
2, 104759, Note_off_c, 0, 69, 0
2, 104760, Note_on_c, 0, 72, 80
2, 104879, Note_off_c, 0, 72, 0
2, 104880, Note_on_c, 0, 69, 80
2, 104999, Note_off_c, 0, 69, 0
2, 105000, Note_on_c, 0, 72, 80
2, 105119, Note_off_c, 0, 72, 0
2, 105120, Note_on_c, 0, 65, 80
2, 105239, Note_off_c, 0, 65, 0
2, 105240, Note_on_c, 0, 69, 80
2, 105359, Note_off_c, 0, 69, 0
2, 105360, Note_on_c, 0, 60, 80
2, 105479, Note_off_c, 0, 60, 0
2, 105480, Note_on_c, 0, 63, 80
2, 105599, Note_off_c, 0, 63, 0
2, 105600, Note_on_c, 0, 62, 105
2, 105719, Note_off_c, 0, 62, 0
2, 105720, Note_on_c, 0, 77, 80
2, 105839, Note_off_c, 0, 77, 0
2, 105840, Note_on_c, 0, 74, 80
2, 105959, Note_off_c, 0, 74, 0
2, 105960, Note_on_c, 0, 77, 80
2, 106079, Note_off_c, 0, 77, 0
2, 106080, Note_on_c, 0, 70, 80
2, 106199, Note_off_c, 0, 70, 0
2, 106200, Note_on_c, 0, 74, 80
2, 106319, Note_off_c, 0, 74, 0
2, 106320, Note_on_c, 0, 65, 80
2, 106439, Note_off_c, 0, 65, 0
2, 106440, Note_on_c, 0, 69, 80
2, 106559, Note_off_c, 0, 69, 0
2, 106560, Note_on_c, 0, 67, 95
2, 106679, Note_off_c, 0, 67, 0
2, 106680, Note_on_c, 0, 70, 80
2, 106799, Note_off_c, 0, 70, 0
2, 106800, Note_on_c, 0, 67, 80
2, 106919, Note_off_c, 0, 67, 0
2, 106920, Note_on_c, 0, 70, 80
2, 107039, Note_off_c, 0, 70, 0
2, 107040, Note_on_c, 0, 63, 80
2, 107159, Note_off_c, 0, 63, 0
2, 107160, Note_on_c, 0, 67, 80
2, 107279, Note_off_c, 0, 67, 0
2, 107280, Note_on_c, 0, 58, 80
2, 107399, Note_off_c, 0, 58, 0
2, 107400, Note_on_c, 0, 62, 80
2, 107519, Note_off_c, 0, 62, 0
2, 107520, Note_on_c, 0, 60, 105
2, 107639, Note_off_c, 0, 60, 0
2, 107640, Note_on_c, 0, 75, 80
2, 107759, Note_off_c, 0, 75, 0
2, 107760, Note_on_c, 0, 72, 80
2, 107879, Note_off_c, 0, 72, 0
2, 107880, Note_on_c, 0, 75, 80
2, 107999, Note_off_c, 0, 75, 0
2, 108000, Note_on_c, 0, 69, 80
2, 108119, Note_off_c, 0, 69, 0
2, 108120, Note_on_c, 0, 72, 80
2, 108239, Note_off_c, 0, 72, 0
2, 108240, Note_on_c, 0, 64, 80
2, 108359, Note_off_c, 0, 64, 0
2, 108360, Note_on_c, 0, 67, 80
2, 108479, Note_off_c, 0, 67, 0
2, 108480, Note_on_c, 0, 66, 95
2, 108599, Note_off_c, 0, 66, 0
2, 108600, Note_on_c, 0, 69, 80
2, 108719, Note_off_c, 0, 69, 0
2, 108720, Note_on_c, 0, 66, 80
2, 108839, Note_off_c, 0, 66, 0
2, 108840, Note_on_c, 0, 69, 80
2, 108959, Note_off_c, 0, 69, 0
2, 108960, Note_on_c, 0, 62, 80
2, 109079, Note_off_c, 0, 62, 0
2, 109080, Note_on_c, 0, 66, 80
2, 109199, Note_off_c, 0, 66, 0
2, 109200, Note_on_c, 0, 57, 80
2, 109319, Note_off_c, 0, 57, 0
2, 109320, Note_on_c, 0, 60, 80
2, 109439, Note_off_c, 0, 60, 0
2, 109440, Note_on_c, 0, 58, 105
2, 109679, Note_off_c, 0, 58, 0
2, 109680, Note_on_c, 0, 67, 80
2, 109919, Note_off_c, 0, 67, 0
2, 109920, Note_on_c, 0, 57, 80
2, 110159, Note_off_c, 0, 57, 0
2, 110160, Note_on_c, 0, 66, 80
2, 110399, Note_off_c, 0, 66, 0
2, 110400, Note_on_c, 0, 67, 95
2, 110879, Note_off_c, 0, 67, 0
2, 111360, Note_on_c, 0, 67, 105
2, 111479, Note_off_c, 0, 67, 0
2, 111480, Note_on_c, 0, 70, 80
2, 111599, Note_off_c, 0, 70, 0
2, 111600, Note_on_c, 0, 69, 80
2, 111719, Note_off_c, 0, 69, 0
2, 111720, Note_on_c, 0, 67, 80
2, 111839, Note_off_c, 0, 67, 0
2, 111840, Note_on_c, 0, 74, 80
2, 111959, Note_off_c, 0, 74, 0
2, 111960, Note_on_c, 0, 69, 80
2, 112079, Note_off_c, 0, 69, 0
2, 112080, Note_on_c, 0, 62, 80
2, 112199, Note_off_c, 0, 62, 0
2, 112200, Note_on_c, 0, 72, 80
2, 112319, Note_off_c, 0, 72, 0
2, 112320, Note_on_c, 0, 70, 95
2, 112439, Note_off_c, 0, 70, 0
2, 112440, Note_on_c, 0, 74, 80
2, 112559, Note_off_c, 0, 74, 0
2, 112560, Note_on_c, 0, 72, 80
2, 112679, Note_off_c, 0, 72, 0
2, 112680, Note_on_c, 0, 70, 80
2, 112799, Note_off_c, 0, 70, 0
2, 112800, Note_on_c, 0, 77, 80
2, 112919, Note_off_c, 0, 77, 0
2, 112920, Note_on_c, 0, 72, 80
2, 113039, Note_off_c, 0, 72, 0
2, 113040, Note_on_c, 0, 65, 80
2, 113159, Note_off_c, 0, 65, 0
2, 113160, Note_on_c, 0, 75, 80
2, 113279, Note_off_c, 0, 75, 0
2, 113280, Note_on_c, 0, 74, 105
2, 113399, Note_off_c, 0, 74, 0
2, 113400, Note_on_c, 0, 77, 80
2, 113519, Note_off_c, 0, 77, 0
2, 113520, Note_on_c, 0, 75, 80
2, 113639, Note_off_c, 0, 75, 0
2, 113640, Note_on_c, 0, 74, 80
2, 113759, Note_off_c, 0, 74, 0
2, 113760, Note_on_c, 0, 79, 80
2, 113879, Note_off_c, 0, 79, 0
2, 113880, Note_on_c, 0, 74, 80
2, 113999, Note_off_c, 0, 74, 0
2, 114000, Note_on_c, 0, 67, 80
2, 114119, Note_off_c, 0, 67, 0
2, 114120, Note_on_c, 0, 77, 80
2, 114239, Note_off_c, 0, 77, 0
2, 114240, Note_on_c, 0, 76, 95
2, 114359, Note_off_c, 0, 76, 0
2, 114360, Note_on_c, 0, 79, 80
2, 114479, Note_off_c, 0, 79, 0
2, 114480, Note_on_c, 0, 77, 80
2, 114599, Note_off_c, 0, 77, 0
2, 114600, Note_on_c, 0, 76, 80
2, 114719, Note_off_c, 0, 76, 0
2, 114720, Note_on_c, 0, 81, 80
2, 114839, Note_off_c, 0, 81, 0
2, 114840, Note_on_c, 0, 76, 80
2, 114959, Note_off_c, 0, 76, 0
2, 114960, Note_on_c, 0, 69, 80
2, 115079, Note_off_c, 0, 69, 0
2, 115080, Note_on_c, 0, 79, 80
2, 115199, Note_off_c, 0, 79, 0
2, 115200, Note_on_c, 0, 78, 105
2, 115679, Note_off_c, 0, 78, 0
2, 115680, Note_on_c, 0, 79, 80
2, 115919, Note_off_c, 0, 79, 0
2, 115920, Note_on_c, 0, 81, 80
2, 116159, Note_off_c, 0, 81, 0
2, 116160, Note_on_c, 0, 82, 95
2, 117599, Note_off_c, 0, 82, 0
2, 117600, Note_on_c, 0, 81, 80
2, 118559, Note_off_c, 0, 81, 0
2, 118560, Note_on_c, 0, 79, 80
2, 119519, Note_off_c, 0, 79, 0
2, 119520, Note_on_c, 0, 78, 80
2, 119999, Note_off_c, 0, 78, 0
2, 120000, Note_on_c, 0, 79, 95
2, 120479, Note_off_c, 0, 79, 0
2, 121200, Note_on_c, 0, 74, 80
2, 121439, Note_off_c, 0, 74, 0
2, 121440, Note_on_c, 0, 79, 80
2, 121679, Note_off_c, 0, 79, 0
2, 121680, Note_on_c, 0, 81, 80
2, 121919, Note_off_c, 0, 81, 0
2, 121920, Note_on_c, 0, 82, 95
2, 122039, Note_off_c, 0, 82, 0
2, 122040, Note_on_c, 0, 81, 80
2, 122159, Note_off_c, 0, 81, 0
2, 122160, Note_on_c, 0, 79, 80
2, 122279, Note_off_c, 0, 79, 0
2, 122280, Note_on_c, 0, 81, 80
2, 122399, Note_off_c, 0, 81, 0
2, 122400, Note_on_c, 0, 78, 80
2, 122519, Note_off_c, 0, 78, 0
2, 122520, Note_on_c, 0, 79, 80
2, 122639, Note_off_c, 0, 79, 0
2, 122640, Note_on_c, 0, 78, 80
2, 122759, Note_off_c, 0, 78, 0
2, 122760, Note_on_c, 0, 79, 80
2, 122879, Note_off_c, 0, 79, 0
2, 122880, Note_on_c, 0, 81, 105
2, 122999, Note_off_c, 0, 81, 0
2, 123000, Note_on_c, 0, 79, 80
2, 123119, Note_off_c, 0, 79, 0
2, 123120, Note_on_c, 0, 78, 80
2, 123239, Note_off_c, 0, 78, 0
2, 123240, Note_on_c, 0, 76, 80
2, 123359, Note_off_c, 0, 76, 0
2, 123360, Note_on_c, 0, 74, 80
2, 123479, Note_off_c, 0, 74, 0
2, 123480, Note_on_c, 0, 72, 80
2, 123599, Note_off_c, 0, 72, 0
2, 123600, Note_on_c, 0, 70, 80
2, 123719, Note_off_c, 0, 70, 0
2, 123720, Note_on_c, 0, 69, 80
2, 123839, Note_off_c, 0, 69, 0
2, 123840, Note_on_c, 0, 70, 95
2, 123959, Note_off_c, 0, 70, 0
2, 123960, Note_on_c, 0, 74, 80
2, 124079, Note_off_c, 0, 74, 0
2, 124080, Note_on_c, 0, 72, 80
2, 124199, Note_off_c, 0, 72, 0
2, 124200, Note_on_c, 0, 74, 80
2, 124319, Note_off_c, 0, 74, 0
2, 124320, Note_on_c, 0, 66, 80
2, 124439, Note_off_c, 0, 66, 0
2, 124440, Note_on_c, 0, 74, 80
2, 124559, Note_off_c, 0, 74, 0
2, 124560, Note_on_c, 0, 72, 80
2, 124679, Note_off_c, 0, 72, 0
2, 124680, Note_on_c, 0, 74, 80
2, 124799, Note_off_c, 0, 74, 0
2, 124800, Note_on_c, 0, 67, 105
2, 124919, Note_off_c, 0, 67, 0
2, 124920, Note_on_c, 0, 74, 80
2, 125039, Note_off_c, 0, 74, 0
2, 125040, Note_on_c, 0, 72, 80
2, 125159, Note_off_c, 0, 72, 0
2, 125160, Note_on_c, 0, 74, 80
2, 125279, Note_off_c, 0, 74, 0
2, 125280, Note_on_c, 0, 66, 80
2, 125399, Note_off_c, 0, 66, 0
2, 125400, Note_on_c, 0, 74, 80
2, 125519, Note_off_c, 0, 74, 0
2, 125520, Note_on_c, 0, 72, 80
2, 125639, Note_off_c, 0, 72, 0
2, 125640, Note_on_c, 0, 74, 80
2, 125759, Note_off_c, 0, 74, 0
2, 125760, Note_on_c, 0, 70, 95
2, 125879, Note_off_c, 0, 70, 0
2, 125880, Note_on_c, 0, 67, 80
2, 125999, Note_off_c, 0, 67, 0
2, 126000, Note_on_c, 0, 66, 80
2, 126119, Note_off_c, 0, 66, 0
2, 126120, Note_on_c, 0, 67, 80
2, 126239, Note_off_c, 0, 67, 0
2, 126240, Note_on_c, 0, 72, 80
2, 126359, Note_off_c, 0, 72, 0
2, 126360, Note_on_c, 0, 67, 80
2, 126479, Note_off_c, 0, 67, 0
2, 126480, Note_on_c, 0, 66, 80
2, 126599, Note_off_c, 0, 66, 0
2, 126600, Note_on_c, 0, 67, 80
2, 126719, Note_off_c, 0, 67, 0
2, 126720, Note_on_c, 0, 74, 105
2, 126839, Note_off_c, 0, 74, 0
2, 126840, Note_on_c, 0, 67, 80
2, 126959, Note_off_c, 0, 67, 0
2, 126960, Note_on_c, 0, 66, 80
2, 127079, Note_off_c, 0, 66, 0
2, 127080, Note_on_c, 0, 67, 80
2, 127199, Note_off_c, 0, 67, 0
2, 127200, Note_on_c, 0, 72, 80
2, 127319, Note_off_c, 0, 72, 0
2, 127320, Note_on_c, 0, 67, 80
2, 127439, Note_off_c, 0, 67, 0
2, 127440, Note_on_c, 0, 66, 80
2, 127559, Note_off_c, 0, 66, 0
2, 127560, Note_on_c, 0, 67, 80
2, 127679, Note_off_c, 0, 67, 0
2, 127680, Note_on_c, 0, 70, 95
2, 127919, Note_off_c, 0, 70, 0
2, 127920, Note_on_c, 0, 79, 80
2, 128159, Note_off_c, 0, 79, 0
2, 128160, Note_on_c, 0, 69, 80
2, 128399, Note_off_c, 0, 69, 0
2, 128400, Note_on_c, 0, 78, 80
2, 128639, Note_off_c, 0, 78, 0
2, 128640, Note_on_c, 0, 79, 105
2, 132479, Note_off_c, 0, 79, 0
2, 132480, End_track
3, 0, Start_track
3, 0, Program_c, 1, 58
3, 9600, Note_on_c, 1, 62, 105
3, 10079, Note_off_c, 1, 62, 0
3, 10080, Note_on_c, 1, 69, 80
3, 10559, Note_off_c, 1, 69, 0
3, 10560, Note_on_c, 1, 65, 95
3, 11279, Note_off_c, 1, 65, 0
3, 11280, Note_on_c, 1, 64, 80
3, 11519, Note_off_c, 1, 64, 0
3, 11520, Note_on_c, 1, 62, 105
3, 11759, Note_off_c, 1, 62, 0
3, 11760, Note_on_c, 1, 65, 80
3, 11999, Note_off_c, 1, 65, 0
3, 12000, Note_on_c, 1, 64, 80
3, 12239, Note_off_c, 1, 64, 0
3, 12240, Note_on_c, 1, 62, 80
3, 12479, Note_off_c, 1, 62, 0
3, 12480, Note_on_c, 1, 61, 95
3, 12719, Note_off_c, 1, 61, 0
3, 12720, Note_on_c, 1, 64, 80
3, 12959, Note_off_c, 1, 64, 0
3, 12960, Note_on_c, 1, 57, 80
3, 13439, Note_off_c, 1, 57, 0
3, 13440, Note_on_c, 1, 62, 105
3, 13679, Note_off_c, 1, 62, 0
3, 13680, Note_on_c, 1, 57, 80
3, 13919, Note_off_c, 1, 57, 0
3, 13920, Note_on_c, 1, 64, 80
3, 14159, Note_off_c, 1, 64, 0
3, 14160, Note_on_c, 1, 57, 80
3, 14399, Note_off_c, 1, 57, 0
3, 14400, Note_on_c, 1, 65, 95
3, 14639, Note_off_c, 1, 65, 0
3, 14640, Note_on_c, 1, 64, 80
3, 14759, Note_off_c, 1, 64, 0
3, 14760, Note_on_c, 1, 62, 80
3, 14879, Note_off_c, 1, 62, 0
3, 14880, Note_on_c, 1, 64, 80
3, 15119, Note_off_c, 1, 64, 0
3, 15120, Note_on_c, 1, 57, 80
3, 15359, Note_off_c, 1, 57, 0
3, 15360, Note_on_c, 1, 62, 105
3, 15599, Note_off_c, 1, 62, 0
3, 15600, Note_on_c, 1, 57, 80
3, 15719, Note_off_c, 1, 57, 0
3, 15720, Note_on_c, 1, 62, 80
3, 15839, Note_off_c, 1, 62, 0
3, 15840, Note_on_c, 1, 64, 80
3, 16079, Note_off_c, 1, 64, 0
3, 16080, Note_on_c, 1, 57, 80
3, 16199, Note_off_c, 1, 57, 0
3, 16200, Note_on_c, 1, 64, 80
3, 16319, Note_off_c, 1, 64, 0
3, 16320, Note_on_c, 1, 65, 95
3, 16559, Note_off_c, 1, 65, 0
3, 16560, Note_on_c, 1, 64, 80
3, 16679, Note_off_c, 1, 64, 0
3, 16680, Note_on_c, 1, 62, 80
3, 16799, Note_off_c, 1, 62, 0
3, 16800, Note_on_c, 1, 64, 80
3, 16919, Note_off_c, 1, 64, 0
3, 16920, Note_on_c, 1, 57, 80
3, 17039, Note_off_c, 1, 57, 0
3, 17040, Note_on_c, 1, 69, 80
3, 17159, Note_off_c, 1, 69, 0
3, 17160, Note_on_c, 1, 67, 80
3, 17279, Note_off_c, 1, 67, 0
3, 17280, Note_on_c, 1, 65, 105
3, 17399, Note_off_c, 1, 65, 0
3, 17400, Note_on_c, 1, 64, 80
3, 17519, Note_off_c, 1, 64, 0
3, 17520, Note_on_c, 1, 62, 80
3, 17639, Note_off_c, 1, 62, 0
3, 17640, Note_on_c, 1, 65, 80
3, 17759, Note_off_c, 1, 65, 0
3, 17760, Note_on_c, 1, 64, 80
3, 17879, Note_off_c, 1, 64, 0
3, 17880, Note_on_c, 1, 62, 80
3, 17999, Note_off_c, 1, 62, 0
3, 18000, Note_on_c, 1, 61, 80
3, 18119, Note_off_c, 1, 61, 0
3, 18120, Note_on_c, 1, 64, 80
3, 18239, Note_off_c, 1, 64, 0
3, 18240, Note_on_c, 1, 62, 95
3, 18359, Note_off_c, 1, 62, 0
3, 18360, Note_on_c, 1, 57, 80
3, 18479, Note_off_c, 1, 57, 0
3, 18480, Note_on_c, 1, 62, 80
3, 18599, Note_off_c, 1, 62, 0
3, 18600, Note_on_c, 1, 64, 80
3, 18719, Note_off_c, 1, 64, 0
3, 18720, Note_on_c, 1, 65, 80
3, 18839, Note_off_c, 1, 65, 0
3, 18840, Note_on_c, 1, 67, 80
3, 18959, Note_off_c, 1, 67, 0
3, 18960, Note_on_c, 1, 69, 80
3, 19079, Note_off_c, 1, 69, 0
3, 19080, Note_on_c, 1, 71, 80
3, 19199, Note_off_c, 1, 71, 0
3, 19200, Note_on_c, 1, 72, 105
3, 19319, Note_off_c, 1, 72, 0
3, 19320, Note_on_c, 1, 70, 80
3, 19439, Note_off_c, 1, 70, 0
3, 19440, Note_on_c, 1, 72, 80
3, 19559, Note_off_c, 1, 72, 0
3, 19560, Note_on_c, 1, 74, 80
3, 19679, Note_off_c, 1, 74, 0
3, 19680, Note_on_c, 1, 72, 80
3, 19799, Note_off_c, 1, 72, 0
3, 19800, Note_on_c, 1, 70, 80
3, 19919, Note_off_c, 1, 70, 0
3, 19920, Note_on_c, 1, 69, 80
3, 20039, Note_off_c, 1, 69, 0
3, 20040, Note_on_c, 1, 72, 80
3, 20159, Note_off_c, 1, 72, 0
3, 20160, Note_on_c, 1, 70, 95
3, 20279, Note_off_c, 1, 70, 0
3, 20280, Note_on_c, 1, 69, 80
3, 20399, Note_off_c, 1, 69, 0
3, 20400, Note_on_c, 1, 70, 80
3, 20519, Note_off_c, 1, 70, 0
3, 20520, Note_on_c, 1, 72, 80
3, 20639, Note_off_c, 1, 72, 0
3, 20640, Note_on_c, 1, 70, 80
3, 20759, Note_off_c, 1, 70, 0
3, 20760, Note_on_c, 1, 69, 80
3, 20879, Note_off_c, 1, 69, 0
3, 20880, Note_on_c, 1, 67, 80
3, 20999, Note_off_c, 1, 67, 0
3, 21000, Note_on_c, 1, 70, 80
3, 21119, Note_off_c, 1, 70, 0
3, 21120, Note_on_c, 1, 69, 105
3, 21359, Note_off_c, 1, 69, 0
3, 21360, Note_on_c, 1, 67, 80
3, 21599, Note_off_c, 1, 67, 0
3, 21600, Note_on_c, 1, 66, 80
3, 21839, Note_off_c, 1, 66, 0
3, 21840, Note_on_c, 1, 62, 80
3, 22079, Note_off_c, 1, 62, 0
3, 22080, Note_on_c, 1, 67, 95
3, 22559, Note_off_c, 1, 67, 0
3, 23280, Note_on_c, 1, 62, 80
3, 23519, Note_off_c, 1, 62, 0
3, 23520, Note_on_c, 1, 67, 80
3, 23759, Note_off_c, 1, 67, 0
3, 23760, Note_on_c, 1, 69, 80
3, 23999, Note_off_c, 1, 69, 0
3, 24000, Note_on_c, 1, 70, 95
3, 24119, Note_off_c, 1, 70, 0
3, 24120, Note_on_c, 1, 72, 80
3, 24239, Note_off_c, 1, 72, 0
3, 24240, Note_on_c, 1, 70, 80
3, 24359, Note_off_c, 1, 70, 0
3, 24360, Note_on_c, 1, 72, 80
3, 24479, Note_off_c, 1, 72, 0
3, 24480, Note_on_c, 1, 72, 80
3, 24839, Note_off_c, 1, 72, 0
3, 24840, Note_on_c, 1, 70, 80
3, 24899, Note_off_c, 1, 70, 0
3, 24900, Note_on_c, 1, 72, 80
3, 24959, Note_off_c, 1, 72, 0
3, 24960, Note_on_c, 1, 74, 105
3, 25079, Note_off_c, 1, 74, 0
3, 25080, Note_on_c, 1, 72, 80
3, 25199, Note_off_c, 1, 72, 0
3, 25200, Note_on_c, 1, 74, 80
3, 25319, Note_off_c, 1, 74, 0
3, 25320, Note_on_c, 1, 75, 80
3, 25439, Note_off_c, 1, 75, 0
3, 25440, Note_on_c, 1, 74, 80
3, 25559, Note_off_c, 1, 74, 0
3, 25560, Note_on_c, 1, 72, 80
3, 25679, Note_off_c, 1, 72, 0
3, 25680, Note_on_c, 1, 70, 80
3, 25799, Note_off_c, 1, 70, 0
3, 25800, Note_on_c, 1, 69, 80
3, 25919, Note_off_c, 1, 69, 0
3, 25920, Note_on_c, 1, 62, 95
3, 26159, Note_off_c, 1, 62, 0
3, 26400, Note_on_c, 1, 60, 80
3, 26639, Note_off_c, 1, 60, 0
3, 26880, Note_on_c, 1, 62, 105
3, 27119, Note_off_c, 1, 62, 0
3, 27360, Note_on_c, 1, 60, 80
3, 27599, Note_off_c, 1, 60, 0
3, 27960, Note_on_c, 1, 67, 80
3, 28079, Note_off_c, 1, 67, 0
3, 28080, Note_on_c, 1, 66, 80
3, 28199, Note_off_c, 1, 66, 0
3, 28200, Note_on_c, 1, 67, 80
3, 28319, Note_off_c, 1, 67, 0
3, 28440, Note_on_c, 1, 67, 80
3, 28559, Note_off_c, 1, 67, 0
3, 28560, Note_on_c, 1, 66, 80
3, 28679, Note_off_c, 1, 66, 0
3, 28680, Note_on_c, 1, 67, 80
3, 28799, Note_off_c, 1, 67, 0
3, 28920, Note_on_c, 1, 67, 80
3, 29039, Note_off_c, 1, 67, 0
3, 29040, Note_on_c, 1, 66, 80
3, 29159, Note_off_c, 1, 66, 0
3, 29160, Note_on_c, 1, 67, 80
3, 29279, Note_off_c, 1, 67, 0
3, 29400, Note_on_c, 1, 67, 80
3, 29519, Note_off_c, 1, 67, 0
3, 29520, Note_on_c, 1, 66, 80
3, 29639, Note_off_c, 1, 66, 0
3, 29640, Note_on_c, 1, 67, 80
3, 29759, Note_off_c, 1, 67, 0
3, 29760, Note_on_c, 1, 62, 95
3, 30239, Note_off_c, 1, 62, 0
3, 30240, Note_on_c, 1, 60, 80
3, 30719, Note_off_c, 1, 60, 0
3, 30720, Note_on_c, 1, 58, 105
3, 31199, Note_off_c, 1, 58, 0
3, 40560, Note_on_c, 1, 69, 80
3, 40799, Note_off_c, 1, 69, 0
3, 40800, Note_on_c, 1, 74, 80
3, 41039, Note_off_c, 1, 74, 0
3, 41040, Note_on_c, 1, 72, 80
3, 41279, Note_off_c, 1, 72, 0
3, 41280, Note_on_c, 1, 70, 95
3, 42479, Note_off_c, 1, 70, 0
3, 42480, Note_on_c, 1, 67, 80
3, 42719, Note_off_c, 1, 67, 0
3, 42720, Note_on_c, 1, 72, 80
3, 42959, Note_off_c, 1, 72, 0
3, 42960, Note_on_c, 1, 70, 80
3, 43199, Note_off_c, 1, 70, 0
3, 43200, Note_on_c, 1, 69, 95
3, 44639, Note_off_c, 1, 69, 0
3, 44640, Note_on_c, 1, 67, 80
3, 45599, Note_off_c, 1, 67, 0
3, 45600, Note_on_c, 1, 66, 80
3, 46079, Note_off_c, 1, 66, 0
3, 46080, Note_on_c, 1, 67, 105
3, 46319, Note_off_c, 1, 67, 0
3, 61440, Note_on_c, 1, 58, 105
3, 61919, Note_off_c, 1, 58, 0
3, 61920, Note_on_c, 1, 65, 80
3, 62399, Note_off_c, 1, 65, 0
3, 62400, Note_on_c, 1, 62, 95
3, 63119, Note_off_c, 1, 62, 0
3, 63120, Note_on_c, 1, 60, 80
3, 63359, Note_off_c, 1, 60, 0
3, 63360, Note_on_c, 1, 58, 105
3, 63599, Note_off_c, 1, 58, 0
3, 63600, Note_on_c, 1, 62, 80
3, 63839, Note_off_c, 1, 62, 0
3, 63840, Note_on_c, 1, 60, 80
3, 64079, Note_off_c, 1, 60, 0
3, 64080, Note_on_c, 1, 58, 80
3, 64319, Note_off_c, 1, 58, 0
3, 64320, Note_on_c, 1, 57, 95
3, 64559, Note_off_c, 1, 57, 0
3, 64560, Note_on_c, 1, 60, 80
3, 64799, Note_off_c, 1, 60, 0
3, 65040, Note_on_c, 1, 65, 80
3, 65279, Note_off_c, 1, 65, 0
3, 65280, Note_on_c, 1, 65, 105
3, 70079, Note_off_c, 1, 65, 0
3, 85680, Note_on_c, 1, 65, 80
3, 85919, Note_off_c, 1, 65, 0
3, 85920, Note_on_c, 1, 70, 80
3, 86159, Note_off_c, 1, 70, 0
3, 86160, Note_on_c, 1, 69, 80
3, 86399, Note_off_c, 1, 69, 0
3, 86400, Note_on_c, 1, 67, 105
3, 87599, Note_off_c, 1, 67, 0
3, 87600, Note_on_c, 1, 60, 80
3, 87839, Note_off_c, 1, 60, 0
3, 87840, Note_on_c, 1, 69, 80
3, 88079, Note_off_c, 1, 69, 0
3, 88080, Note_on_c, 1, 67, 80
3, 88319, Note_off_c, 1, 67, 0
3, 88320, Note_on_c, 1, 65, 105
3, 89519, Note_off_c, 1, 65, 0
3, 89520, Note_on_c, 1, 58, 80
3, 89759, Note_off_c, 1, 58, 0
3, 89760, Note_on_c, 1, 67, 80
3, 89999, Note_off_c, 1, 67, 0
3, 90000, Note_on_c, 1, 65, 80
3, 90239, Note_off_c, 1, 65, 0
3, 90240, Note_on_c, 1, 63, 105
3, 91319, Note_off_c, 1, 63, 0
3, 91320, Note_on_c, 1, 63, 80
3, 91439, Note_off_c, 1, 63, 0
3, 91440, Note_on_c, 1, 62, 80
3, 91559, Note_off_c, 1, 62, 0
3, 91560, Note_on_c, 1, 60, 80
3, 91679, Note_off_c, 1, 60, 0
3, 91680, Note_on_c, 1, 59, 80
3, 92159, Note_off_c, 1, 59, 0
3, 92160, Note_on_c, 1, 60, 105
3, 92639, Note_off_c, 1, 60, 0
3, 93360, Note_on_c, 1, 60, 80
3, 93599, Note_off_c, 1, 60, 0
3, 93600, Note_on_c, 1, 68, 80
3, 93839, Note_off_c, 1, 68, 0
3, 93840, Note_on_c, 1, 65, 80
3, 94679, Note_off_c, 1, 65, 0
3, 94680, Note_on_c, 1, 65, 80
3, 94799, Note_off_c, 1, 65, 0
3, 94800, Note_on_c, 1, 63, 80
3, 94919, Note_off_c, 1, 63, 0
3, 94920, Note_on_c, 1, 62, 80
3, 95039, Note_off_c, 1, 62, 0
3, 95040, Note_on_c, 1, 63, 95
3, 95159, Note_off_c, 1, 63, 0
3, 95160, Note_on_c, 1, 62, 80
3, 95279, Note_off_c, 1, 62, 0
3, 95280, Note_on_c, 1, 60, 80
3, 95399, Note_off_c, 1, 60, 0
3, 95400, Note_on_c, 1, 63, 80
3, 95519, Note_off_c, 1, 63, 0
3, 95520, Note_on_c, 1, 62, 80
3, 95639, Note_off_c, 1, 62, 0
3, 95640, Note_on_c, 1, 60, 80
3, 95759, Note_off_c, 1, 60, 0
3, 95760, Note_on_c, 1, 59, 80
3, 95879, Note_off_c, 1, 59, 0
3, 95880, Note_on_c, 1, 62, 80
3, 95999, Note_off_c, 1, 62, 0
3, 96000, Note_on_c, 1, 60, 105
3, 96119, Note_off_c, 1, 60, 0
3, 96120, Note_on_c, 1, 55, 80
3, 96239, Note_off_c, 1, 55, 0
3, 96240, Note_on_c, 1, 60, 80
3, 96359, Note_off_c, 1, 60, 0
3, 96360, Note_on_c, 1, 62, 80
3, 96479, Note_off_c, 1, 62, 0
3, 96480, Note_on_c, 1, 63, 80
3, 96599, Note_off_c, 1, 63, 0
3, 96600, Note_on_c, 1, 65, 80
3, 96719, Note_off_c, 1, 65, 0
3, 96720, Note_on_c, 1, 63, 80
3, 96839, Note_off_c, 1, 63, 0
3, 96840, Note_on_c, 1, 65, 80
3, 96959, Note_off_c, 1, 65, 0
3, 96960, Note_on_c, 1, 67, 95
3, 97079, Note_off_c, 1, 67, 0
3, 97080, Note_on_c, 1, 63, 80
3, 97199, Note_off_c, 1, 63, 0
3, 97200, Note_on_c, 1, 60, 80
3, 97319, Note_off_c, 1, 60, 0
3, 97320, Note_on_c, 1, 63, 80
3, 97439, Note_off_c, 1, 63, 0
3, 97440, Note_on_c, 1, 68, 80
3, 97559, Note_off_c, 1, 68, 0
3, 97560, Note_on_c, 1, 65, 80
3, 97679, Note_off_c, 1, 65, 0
3, 97680, Note_on_c, 1, 67, 80
3, 97799, Note_off_c, 1, 67, 0
3, 97800, Note_on_c, 1, 68, 80
3, 97919, Note_off_c, 1, 68, 0
3, 97920, Note_on_c, 1, 62, 105
3, 98039, Note_off_c, 1, 62, 0
3, 98040, Note_on_c, 1, 63, 80
3, 98159, Note_off_c, 1, 63, 0
3, 98160, Note_on_c, 1, 62, 80
3, 98279, Note_off_c, 1, 62, 0
3, 98280, Note_on_c, 1, 60, 80
3, 98399, Note_off_c, 1, 60, 0
3, 98400, Note_on_c, 1, 59, 80
3, 98639, Note_off_c, 1, 59, 0
3, 98640, Note_on_c, 1, 62, 80
3, 98879, Note_off_c, 1, 62, 0
3, 98880, Note_on_c, 1, 55, 95
3, 102959, Note_off_c, 1, 55, 0
3, 102960, Note_on_c, 1, 67, 80
3, 103199, Note_off_c, 1, 67, 0
3, 103200, Note_on_c, 1, 65, 80
3, 103319, Note_off_c, 1, 65, 0
3, 103320, Note_on_c, 1, 63, 80
3, 103439, Note_off_c, 1, 63, 0
3, 103440, Note_on_c, 1, 62, 80
3, 103559, Note_off_c, 1, 62, 0
3, 103560, Note_on_c, 1, 65, 80
3, 103679, Note_off_c, 1, 65, 0
3, 103680, Note_on_c, 1, 63, 105
3, 104159, Note_off_c, 1, 63, 0
3, 104880, Note_on_c, 1, 60, 80
3, 105119, Note_off_c, 1, 60, 0
3, 105120, Note_on_c, 1, 57, 80
3, 105359, Note_off_c, 1, 57, 0
3, 105360, Note_on_c, 1, 53, 80
3, 105599, Note_off_c, 1, 53, 0
3, 105600, Note_on_c, 1, 58, 105
3, 106799, Note_off_c, 1, 58, 0
3, 106800, Note_on_c, 1, 58, 80
3, 107039, Note_off_c, 1, 58, 0
3, 107040, Note_on_c, 1, 55, 80
3, 107279, Note_off_c, 1, 55, 0
3, 107280, Note_on_c, 1, 51, 80
3, 107519, Note_off_c, 1, 51, 0
3, 107520, Note_on_c, 1, 57, 105
3, 108719, Note_off_c, 1, 57, 0
3, 108720, Note_on_c, 1, 57, 80
3, 108959, Note_off_c, 1, 57, 0
3, 108960, Note_on_c, 1, 54, 80
3, 109199, Note_off_c, 1, 54, 0
3, 109200, Note_on_c, 1, 50, 80
3, 109439, Note_off_c, 1, 50, 0
3, 109440, Note_on_c, 1, 55, 105
3, 109919, Note_off_c, 1, 55, 0
3, 110400, Note_on_c, 1, 55, 95
3, 110519, Note_off_c, 1, 55, 0
3, 110520, Note_on_c, 1, 58, 80
3, 110639, Note_off_c, 1, 58, 0
3, 110640, Note_on_c, 1, 57, 80
3, 110759, Note_off_c, 1, 57, 0
3, 110760, Note_on_c, 1, 55, 80
3, 110879, Note_off_c, 1, 55, 0
3, 110880, Note_on_c, 1, 62, 80
3, 110999, Note_off_c, 1, 62, 0
3, 111000, Note_on_c, 1, 57, 80
3, 111119, Note_off_c, 1, 57, 0
3, 111120, Note_on_c, 1, 50, 80
3, 111239, Note_off_c, 1, 50, 0
3, 111240, Note_on_c, 1, 60, 80
3, 111359, Note_off_c, 1, 60, 0
3, 111360, Note_on_c, 1, 58, 105
3, 111599, Note_off_c, 1, 58, 0
3, 111600, Note_on_c, 1, 62, 80
3, 111839, Note_off_c, 1, 62, 0
3, 111840, Note_on_c, 1, 57, 80
3, 112079, Note_off_c, 1, 57, 0
3, 112080, Note_on_c, 1, 62, 80
3, 112559, Note_off_c, 1, 62, 0
3, 112560, Note_on_c, 1, 67, 80
3, 112799, Note_off_c, 1, 67, 0
3, 112800, Note_on_c, 1, 60, 80
3, 113039, Note_off_c, 1, 60, 0
3, 113040, Note_on_c, 1, 65, 80
3, 113519, Note_off_c, 1, 65, 0
3, 113520, Note_on_c, 1, 65, 80
3, 113759, Note_off_c, 1, 65, 0
3, 113760, Note_on_c, 1, 62, 80
3, 113999, Note_off_c, 1, 62, 0
3, 114000, Note_on_c, 1, 67, 80
3, 114479, Note_off_c, 1, 67, 0
3, 114480, Note_on_c, 1, 67, 80
3, 114719, Note_off_c, 1, 67, 0
3, 114720, Note_on_c, 1, 64, 80
3, 114959, Note_off_c, 1, 64, 0
3, 114960, Note_on_c, 1, 69, 80
3, 115319, Note_off_c, 1, 69, 0
3, 115320, Note_on_c, 1, 75, 80
3, 115439, Note_off_c, 1, 75, 0
3, 115440, Note_on_c, 1, 74, 80
3, 115559, Note_off_c, 1, 74, 0
3, 115560, Note_on_c, 1, 72, 80
3, 115679, Note_off_c, 1, 72, 0
3, 115680, Note_on_c, 1, 70, 80
3, 115799, Note_off_c, 1, 70, 0
3, 115800, Note_on_c, 1, 74, 80
3, 115919, Note_off_c, 1, 74, 0
3, 115920, Note_on_c, 1, 69, 80
3, 116039, Note_off_c, 1, 69, 0
3, 116040, Note_on_c, 1, 74, 80
3, 116159, Note_off_c, 1, 74, 0
3, 116160, Note_on_c, 1, 67, 95
3, 116279, Note_off_c, 1, 67, 0
3, 116280, Note_on_c, 1, 80, 80
3, 116399, Note_off_c, 1, 80, 0
3, 116400, Note_on_c, 1, 79, 80
3, 116519, Note_off_c, 1, 79, 0
3, 116520, Note_on_c, 1, 77, 80
3, 116639, Note_off_c, 1, 77, 0
3, 116640, Note_on_c, 1, 79, 80
3, 116759, Note_off_c, 1, 79, 0
3, 116760, Note_on_c, 1, 77, 80
3, 116879, Note_off_c, 1, 77, 0
3, 116880, Note_on_c, 1, 75, 80
3, 116999, Note_off_c, 1, 75, 0
3, 117000, Note_on_c, 1, 74, 80
3, 117119, Note_off_c, 1, 74, 0
3, 117120, Note_on_c, 1, 75, 105
3, 118079, Note_off_c, 1, 75, 0
3, 118080, Note_on_c, 1, 74, 95
3, 119039, Note_off_c, 1, 74, 0
3, 119040, Note_on_c, 1, 72, 105
3, 119999, Note_off_c, 1, 72, 0
3, 120000, Note_on_c, 1, 70, 95
3, 120119, Note_off_c, 1, 70, 0
3, 120120, Note_on_c, 1, 74, 80
3, 120239, Note_off_c, 1, 74, 0
3, 120240, Note_on_c, 1, 72, 80
3, 120359, Note_off_c, 1, 72, 0
3, 120360, Note_on_c, 1, 70, 80
3, 120479, Note_off_c, 1, 70, 0
3, 120480, Note_on_c, 1, 69, 80
3, 120599, Note_off_c, 1, 69, 0
3, 120600, Note_on_c, 1, 70, 80
3, 120719, Note_off_c, 1, 70, 0
3, 120720, Note_on_c, 1, 67, 80
3, 120839, Note_off_c, 1, 67, 0
3, 120840, Note_on_c, 1, 69, 80
3, 120959, Note_off_c, 1, 69, 0
3, 120960, Note_on_c, 1, 70, 105
3, 121079, Note_off_c, 1, 70, 0
3, 121080, Note_on_c, 1, 72, 80
3, 121199, Note_off_c, 1, 72, 0
3, 121200, Note_on_c, 1, 70, 80
3, 121319, Note_off_c, 1, 70, 0
3, 121320, Note_on_c, 1, 72, 80
3, 121439, Note_off_c, 1, 72, 0
3, 121440, Note_on_c, 1, 74, 80
3, 121559, Note_off_c, 1, 74, 0
3, 121560, Note_on_c, 1, 75, 80
3, 121679, Note_off_c, 1, 75, 0
3, 121680, Note_on_c, 1, 74, 80
3, 121799, Note_off_c, 1, 74, 0
3, 121800, Note_on_c, 1, 72, 80
3, 121919, Note_off_c, 1, 72, 0
3, 121920, Note_on_c, 1, 70, 95
3, 122159, Note_off_c, 1, 70, 0
3, 122160, Note_on_c, 1, 74, 80
3, 122399, Note_off_c, 1, 74, 0
3, 122400, Note_on_c, 1, 72, 80
3, 122639, Note_off_c, 1, 72, 0
3, 122640, Note_on_c, 1, 70, 80
3, 122879, Note_off_c, 1, 70, 0
3, 122880, Note_on_c, 1, 69, 105
3, 123359, Note_off_c, 1, 69, 0
3, 123600, Note_on_c, 1, 62, 80
3, 123839, Note_off_c, 1, 62, 0
3, 123840, Note_on_c, 1, 62, 95
3, 127919, Note_off_c, 1, 62, 0
3, 127920, Note_on_c, 1, 63, 80
3, 128159, Note_off_c, 1, 63, 0
3, 128160, Note_on_c, 1, 63, 80
3, 128399, Note_off_c, 1, 63, 0
3, 128400, Note_on_c, 1, 62, 80
3, 128639, Note_off_c, 1, 62, 0
3, 128640, Note_on_c, 1, 62, 105
3, 132479, Note_off_c, 1, 62, 0
3, 132480, End_track
4, 0, Start_track
4, 0, Program_c, 2, 58
4, 22080, Note_on_c, 2, 55, 95
4, 22559, Note_off_c, 2, 55, 0
4, 22560, Note_on_c, 2, 62, 80
4, 23039, Note_off_c, 2, 62, 0
4, 23040, Note_on_c, 2, 58, 105
4, 23759, Note_off_c, 2, 58, 0
4, 23760, Note_on_c, 2, 57, 80
4, 23999, Note_off_c, 2, 57, 0
4, 24000, Note_on_c, 2, 55, 95
4, 24239, Note_off_c, 2, 55, 0
4, 24240, Note_on_c, 2, 58, 80
4, 24479, Note_off_c, 2, 58, 0
4, 24480, Note_on_c, 2, 57, 80
4, 24719, Note_off_c, 2, 57, 0
4, 24720, Note_on_c, 2, 55, 80
4, 24959, Note_off_c, 2, 55, 0
4, 24960, Note_on_c, 2, 54, 105
4, 25199, Note_off_c, 2, 54, 0
4, 25200, Note_on_c, 2, 57, 80
4, 25439, Note_off_c, 2, 57, 0
4, 25440, Note_on_c, 2, 50, 80
4, 25919, Note_off_c, 2, 50, 0
4, 25920, Note_on_c, 2, 55, 95
4, 26159, Note_off_c, 2, 55, 0
4, 26160, Note_on_c, 2, 50, 80
4, 26399, Note_off_c, 2, 50, 0
4, 26400, Note_on_c, 2, 57, 80
4, 26639, Note_off_c, 2, 57, 0
4, 26640, Note_on_c, 2, 50, 80
4, 26879, Note_off_c, 2, 50, 0
4, 26880, Note_on_c, 2, 58, 105
4, 27119, Note_off_c, 2, 58, 0
4, 27120, Note_on_c, 2, 57, 80
4, 27239, Note_off_c, 2, 57, 0
4, 27240, Note_on_c, 2, 55, 80
4, 27359, Note_off_c, 2, 55, 0
4, 27360, Note_on_c, 2, 57, 80
4, 27599, Note_off_c, 2, 57, 0
4, 27600, Note_on_c, 2, 50, 80
4, 27839, Note_off_c, 2, 50, 0
4, 27840, Note_on_c, 2, 55, 95
4, 28079, Note_off_c, 2, 55, 0
4, 28080, Note_on_c, 2, 50, 80
4, 28199, Note_off_c, 2, 50, 0
4, 28200, Note_on_c, 2, 55, 80
4, 28319, Note_off_c, 2, 55, 0
4, 28320, Note_on_c, 2, 57, 80
4, 28559, Note_off_c, 2, 57, 0
4, 28560, Note_on_c, 2, 50, 80
4, 28679, Note_off_c, 2, 50, 0
4, 28680, Note_on_c, 2, 57, 80
4, 28799, Note_off_c, 2, 57, 0
4, 28800, Note_on_c, 2, 58, 105
4, 29039, Note_off_c, 2, 58, 0
4, 29040, Note_on_c, 2, 57, 80
4, 29159, Note_off_c, 2, 57, 0
4, 29160, Note_on_c, 2, 55, 80
4, 29279, Note_off_c, 2, 55, 0
4, 29280, Note_on_c, 2, 57, 80
4, 29399, Note_off_c, 2, 57, 0
4, 29400, Note_on_c, 2, 50, 80
4, 29519, Note_off_c, 2, 50, 0
4, 29520, Note_on_c, 2, 62, 80
4, 29639, Note_off_c, 2, 62, 0
4, 29640, Note_on_c, 2, 60, 80
4, 29759, Note_off_c, 2, 60, 0
4, 29760, Note_on_c, 2, 58, 95
4, 29879, Note_off_c, 2, 58, 0
4, 29880, Note_on_c, 2, 57, 80
4, 29999, Note_off_c, 2, 57, 0
4, 30000, Note_on_c, 2, 55, 80
4, 30119, Note_off_c, 2, 55, 0
4, 30120, Note_on_c, 2, 58, 80
4, 30239, Note_off_c, 2, 58, 0
4, 30240, Note_on_c, 2, 57, 80
4, 30359, Note_off_c, 2, 57, 0
4, 30360, Note_on_c, 2, 55, 80
4, 30479, Note_off_c, 2, 55, 0
4, 30480, Note_on_c, 2, 54, 80
4, 30599, Note_off_c, 2, 54, 0
4, 30600, Note_on_c, 2, 57, 80
4, 30719, Note_off_c, 2, 57, 0
4, 30720, Note_on_c, 2, 55, 105
4, 30839, Note_off_c, 2, 55, 0
4, 30840, Note_on_c, 2, 50, 80
4, 30959, Note_off_c, 2, 50, 0
4, 30960, Note_on_c, 2, 55, 80
4, 31079, Note_off_c, 2, 55, 0
4, 31080, Note_on_c, 2, 57, 80
4, 31199, Note_off_c, 2, 57, 0
4, 31200, Note_on_c, 2, 58, 80
4, 31319, Note_off_c, 2, 58, 0
4, 31320, Note_on_c, 2, 60, 80
4, 31439, Note_off_c, 2, 60, 0
4, 31440, Note_on_c, 2, 62, 80
4, 31559, Note_off_c, 2, 62, 0
4, 31560, Note_on_c, 2, 64, 80
4, 31679, Note_off_c, 2, 64, 0
4, 31680, Note_on_c, 2, 65, 95
4, 31799, Note_off_c, 2, 65, 0
4, 31800, Note_on_c, 2, 64, 80
4, 31919, Note_off_c, 2, 64, 0
4, 31920, Note_on_c, 2, 62, 80
4, 32039, Note_off_c, 2, 62, 0
4, 32040, Note_on_c, 2, 65, 80
4, 32159, Note_off_c, 2, 65, 0
4, 32160, Note_on_c, 2, 64, 80
4, 32279, Note_off_c, 2, 64, 0
4, 32280, Note_on_c, 2, 62, 80
4, 32399, Note_off_c, 2, 62, 0
4, 32400, Note_on_c, 2, 61, 80
4, 32519, Note_off_c, 2, 61, 0
4, 32520, Note_on_c, 2, 64, 80
4, 32639, Note_off_c, 2, 64, 0
4, 32640, Note_on_c, 2, 62, 105
4, 32879, Note_off_c, 2, 62, 0
4, 32880, Note_on_c, 2, 57, 80
4, 33119, Note_off_c, 2, 57, 0
4, 33120, Note_on_c, 2, 62, 80
4, 33359, Note_off_c, 2, 62, 0
4, 33360, Note_on_c, 2, 64, 80
4, 33599, Note_off_c, 2, 64, 0
4, 33600, Note_on_c, 2, 65, 95
4, 33719, Note_off_c, 2, 65, 0
4, 33720, Note_on_c, 2, 67, 80
4, 33839, Note_off_c, 2, 67, 0
4, 33840, Note_on_c, 2, 65, 80
4, 33959, Note_off_c, 2, 65, 0
4, 33960, Note_on_c, 2, 67, 80
4, 34079, Note_off_c, 2, 67, 0
4, 34080, Note_on_c, 2, 67, 80
4, 34439, Note_off_c, 2, 67, 0
4, 34440, Note_on_c, 2, 65, 80
4, 34499, Note_off_c, 2, 65, 0
4, 34500, Note_on_c, 2, 67, 80
4, 34559, Note_off_c, 2, 67, 0
4, 34560, Note_on_c, 2, 69, 105
4, 34679, Note_off_c, 2, 69, 0
4, 34680, Note_on_c, 2, 67, 80
4, 34799, Note_off_c, 2, 67, 0
4, 34800, Note_on_c, 2, 69, 80
4, 34919, Note_off_c, 2, 69, 0
4, 34920, Note_on_c, 2, 70, 80
4, 35039, Note_off_c, 2, 70, 0
4, 35040, Note_on_c, 2, 69, 80
4, 35159, Note_off_c, 2, 69, 0
4, 35160, Note_on_c, 2, 67, 80
4, 35279, Note_off_c, 2, 67, 0
4, 35280, Note_on_c, 2, 65, 80
4, 35399, Note_off_c, 2, 65, 0
4, 35400, Note_on_c, 2, 64, 80
4, 35519, Note_off_c, 2, 64, 0
4, 35520, Note_on_c, 2, 65, 95
4, 35639, Note_off_c, 2, 65, 0
4, 35640, Note_on_c, 2, 69, 80
4, 35759, Note_off_c, 2, 69, 0
4, 35760, Note_on_c, 2, 67, 80
4, 35879, Note_off_c, 2, 67, 0
4, 35880, Note_on_c, 2, 69, 80
4, 35999, Note_off_c, 2, 69, 0
4, 36000, Note_on_c, 2, 61, 80
4, 36119, Note_off_c, 2, 61, 0
4, 36120, Note_on_c, 2, 69, 80
4, 36239, Note_off_c, 2, 69, 0
4, 36240, Note_on_c, 2, 67, 80
4, 36359, Note_off_c, 2, 67, 0
4, 36360, Note_on_c, 2, 69, 80
4, 36479, Note_off_c, 2, 69, 0
4, 36480, Note_on_c, 2, 62, 105
4, 36599, Note_off_c, 2, 62, 0
4, 36600, Note_on_c, 2, 69, 80
4, 36719, Note_off_c, 2, 69, 0
4, 36720, Note_on_c, 2, 67, 80
4, 36839, Note_off_c, 2, 67, 0
4, 36840, Note_on_c, 2, 69, 80
4, 36959, Note_off_c, 2, 69, 0
4, 36960, Note_on_c, 2, 61, 80
4, 37079, Note_off_c, 2, 61, 0
4, 37080, Note_on_c, 2, 69, 80
4, 37199, Note_off_c, 2, 69, 0
4, 37200, Note_on_c, 2, 67, 80
4, 37319, Note_off_c, 2, 67, 0
4, 37320, Note_on_c, 2, 69, 80
4, 37439, Note_off_c, 2, 69, 0
4, 37440, Note_on_c, 2, 65, 95
4, 37559, Note_off_c, 2, 65, 0
4, 37560, Note_on_c, 2, 62, 80
4, 37679, Note_off_c, 2, 62, 0
4, 37680, Note_on_c, 2, 61, 80
4, 37799, Note_off_c, 2, 61, 0
4, 37800, Note_on_c, 2, 62, 80
4, 37919, Note_off_c, 2, 62, 0
4, 37920, Note_on_c, 2, 67, 80
4, 38039, Note_off_c, 2, 67, 0
4, 38040, Note_on_c, 2, 62, 80
4, 38159, Note_off_c, 2, 62, 0
4, 38160, Note_on_c, 2, 61, 80
4, 38279, Note_off_c, 2, 61, 0
4, 38280, Note_on_c, 2, 62, 80
4, 38399, Note_off_c, 2, 62, 0
4, 38400, Note_on_c, 2, 69, 105
4, 38519, Note_off_c, 2, 69, 0
4, 38520, Note_on_c, 2, 62, 80
4, 38639, Note_off_c, 2, 62, 0
4, 38640, Note_on_c, 2, 61, 80
4, 38759, Note_off_c, 2, 61, 0
4, 38760, Note_on_c, 2, 62, 80
4, 38879, Note_off_c, 2, 62, 0
4, 38880, Note_on_c, 2, 67, 80
4, 38999, Note_off_c, 2, 67, 0
4, 39000, Note_on_c, 2, 62, 80
4, 39119, Note_off_c, 2, 62, 0
4, 39120, Note_on_c, 2, 61, 80
4, 39239, Note_off_c, 2, 61, 0
4, 39240, Note_on_c, 2, 62, 80
4, 39359, Note_off_c, 2, 62, 0
4, 39360, Note_on_c, 2, 65, 95
4, 39599, Note_off_c, 2, 65, 0
4, 39600, Note_on_c, 2, 64, 80
4, 39719, Note_off_c, 2, 64, 0
4, 39720, Note_on_c, 2, 62, 80
4, 39839, Note_off_c, 2, 62, 0
4, 39840, Note_on_c, 2, 61, 80
4, 40199, Note_off_c, 2, 61, 0
4, 40200, Note_on_c, 2, 62, 80
4, 40319, Note_off_c, 2, 62, 0
4, 40320, Note_on_c, 2, 62, 105
4, 40439, Note_off_c, 2, 62, 0
4, 40440, Note_on_c, 2, 60, 80
4, 40559, Note_off_c, 2, 60, 0
4, 40560, Note_on_c, 2, 62, 80
4, 40679, Note_off_c, 2, 62, 0
4, 40680, Note_on_c, 2, 64, 80
4, 40799, Note_off_c, 2, 64, 0
4, 40800, Note_on_c, 2, 62, 80
4, 40919, Note_off_c, 2, 62, 0
4, 40920, Note_on_c, 2, 60, 80
4, 41039, Note_off_c, 2, 60, 0
4, 41040, Note_on_c, 2, 58, 80
4, 41159, Note_off_c, 2, 58, 0
4, 41160, Note_on_c, 2, 57, 80
4, 41279, Note_off_c, 2, 57, 0
4, 41280, Note_on_c, 2, 55, 95
4, 41399, Note_off_c, 2, 55, 0
4, 41400, Note_on_c, 2, 53, 80
4, 41519, Note_off_c, 2, 53, 0
4, 41520, Note_on_c, 2, 55, 80
4, 41639, Note_off_c, 2, 55, 0
4, 41640, Note_on_c, 2, 57, 80
4, 41759, Note_off_c, 2, 57, 0
4, 41760, Note_on_c, 2, 55, 80
4, 41879, Note_off_c, 2, 55, 0
4, 41880, Note_on_c, 2, 53, 80
4, 41999, Note_off_c, 2, 53, 0
4, 42000, Note_on_c, 2, 51, 80
4, 42119, Note_off_c, 2, 51, 0
4, 42120, Note_on_c, 2, 50, 80
4, 42239, Note_off_c, 2, 50, 0
4, 42240, Note_on_c, 2, 60, 105
4, 42359, Note_off_c, 2, 60, 0
4, 42360, Note_on_c, 2, 58, 80
4, 42479, Note_off_c, 2, 58, 0
4, 42480, Note_on_c, 2, 60, 80
4, 42599, Note_off_c, 2, 60, 0
4, 42600, Note_on_c, 2, 62, 80
4, 42719, Note_off_c, 2, 62, 0
4, 42720, Note_on_c, 2, 60, 80
4, 42839, Note_off_c, 2, 60, 0
4, 42840, Note_on_c, 2, 58, 80
4, 42959, Note_off_c, 2, 58, 0
4, 42960, Note_on_c, 2, 57, 80
4, 43079, Note_off_c, 2, 57, 0
4, 43080, Note_on_c, 2, 55, 80
4, 43199, Note_off_c, 2, 55, 0
4, 43200, Note_on_c, 2, 53, 95
4, 43319, Note_off_c, 2, 53, 0
4, 43320, Note_on_c, 2, 51, 80
4, 43439, Note_off_c, 2, 51, 0
4, 43440, Note_on_c, 2, 53, 80
4, 43559, Note_off_c, 2, 53, 0
4, 43560, Note_on_c, 2, 55, 80
4, 43679, Note_off_c, 2, 55, 0
4, 43680, Note_on_c, 2, 53, 80
4, 43799, Note_off_c, 2, 53, 0
4, 43800, Note_on_c, 2, 51, 80
4, 43919, Note_off_c, 2, 51, 0
4, 43920, Note_on_c, 2, 50, 80
4, 44039, Note_off_c, 2, 50, 0
4, 44040, Note_on_c, 2, 48, 80
4, 44159, Note_off_c, 2, 48, 0
4, 44160, Note_on_c, 2, 46, 105
4, 44279, Note_off_c, 2, 46, 0
4, 44280, Note_on_c, 2, 58, 80
4, 44399, Note_off_c, 2, 58, 0
4, 44400, Note_on_c, 2, 60, 80
4, 44519, Note_off_c, 2, 60, 0
4, 44520, Note_on_c, 2, 62, 80
4, 44639, Note_off_c, 2, 62, 0
4, 44640, Note_on_c, 2, 63, 80
4, 45119, Note_off_c, 2, 63, 0
4, 45240, Note_on_c, 2, 57, 80
4, 45359, Note_off_c, 2, 57, 0
4, 45360, Note_on_c, 2, 58, 80
4, 45479, Note_off_c, 2, 58, 0
4, 45480, Note_on_c, 2, 60, 80
4, 45599, Note_off_c, 2, 60, 0
4, 45600, Note_on_c, 2, 62, 80
4, 46079, Note_off_c, 2, 62, 0
4, 46080, Note_on_c, 2, 55, 105
4, 46559, Note_off_c, 2, 55, 0
4, 46560, Note_on_c, 2, 62, 80
4, 47039, Note_off_c, 2, 62, 0
4, 47040, Note_on_c, 2, 58, 95
4, 47759, Note_off_c, 2, 58, 0
4, 47760, Note_on_c, 2, 57, 80
4, 47999, Note_off_c, 2, 57, 0
4, 48000, Note_on_c, 2, 55, 105
4, 48119, Note_off_c, 2, 55, 0
4, 48120, Note_on_c, 2, 58, 80
4, 48239, Note_off_c, 2, 58, 0
4, 48240, Note_on_c, 2, 57, 80
4, 48359, Note_off_c, 2, 57, 0
4, 48360, Note_on_c, 2, 55, 80
4, 48479, Note_off_c, 2, 55, 0
4, 48480, Note_on_c, 2, 54, 80
4, 48599, Note_off_c, 2, 54, 0
4, 48600, Note_on_c, 2, 55, 80
4, 48719, Note_off_c, 2, 55, 0
4, 48720, Note_on_c, 2, 52, 80
4, 48839, Note_off_c, 2, 52, 0
4, 48840, Note_on_c, 2, 54, 80
4, 48959, Note_off_c, 2, 54, 0
4, 48960, Note_on_c, 2, 55, 95
4, 49079, Note_off_c, 2, 55, 0
4, 49080, Note_on_c, 2, 50, 80
4, 49199, Note_off_c, 2, 50, 0
4, 49200, Note_on_c, 2, 52, 80
4, 49319, Note_off_c, 2, 52, 0
4, 49320, Note_on_c, 2, 54, 80
4, 49439, Note_off_c, 2, 54, 0
4, 49440, Note_on_c, 2, 55, 80
4, 49559, Note_off_c, 2, 55, 0
4, 49560, Note_on_c, 2, 50, 80
4, 49679, Note_off_c, 2, 50, 0
4, 49680, Note_on_c, 2, 55, 80
4, 49799, Note_off_c, 2, 55, 0
4, 49800, Note_on_c, 2, 57, 80
4, 49919, Note_off_c, 2, 57, 0
4, 49920, Note_on_c, 2, 58, 105
4, 50039, Note_off_c, 2, 58, 0
4, 50040, Note_on_c, 2, 60, 80
4, 50159, Note_off_c, 2, 60, 0
4, 50160, Note_on_c, 2, 58, 80
4, 50279, Note_off_c, 2, 58, 0
4, 50280, Note_on_c, 2, 60, 80
4, 50399, Note_off_c, 2, 60, 0
4, 50400, Note_on_c, 2, 60, 80
4, 50759, Note_off_c, 2, 60, 0
4, 50760, Note_on_c, 2, 58, 80
4, 50819, Note_off_c, 2, 58, 0
4, 50820, Note_on_c, 2, 60, 80
4, 50879, Note_off_c, 2, 60, 0
4, 50880, Note_on_c, 2, 62, 95
4, 50999, Note_off_c, 2, 62, 0
4, 51000, Note_on_c, 2, 60, 80
4, 51119, Note_off_c, 2, 60, 0
4, 51120, Note_on_c, 2, 62, 80
4, 51239, Note_off_c, 2, 62, 0
4, 51240, Note_on_c, 2, 63, 80
4, 51359, Note_off_c, 2, 63, 0
4, 51360, Note_on_c, 2, 62, 80
4, 51479, Note_off_c, 2, 62, 0
4, 51480, Note_on_c, 2, 60, 80
4, 51599, Note_off_c, 2, 60, 0
4, 51600, Note_on_c, 2, 58, 80
4, 51719, Note_off_c, 2, 58, 0
4, 51720, Note_on_c, 2, 57, 80
4, 51839, Note_off_c, 2, 57, 0
4, 51840, Note_on_c, 2, 58, 105
4, 51959, Note_off_c, 2, 58, 0
4, 51960, Note_on_c, 2, 62, 80
4, 52079, Note_off_c, 2, 62, 0
4, 52080, Note_on_c, 2, 60, 80
4, 52199, Note_off_c, 2, 60, 0
4, 52200, Note_on_c, 2, 62, 80
4, 52319, Note_off_c, 2, 62, 0
4, 52320, Note_on_c, 2, 54, 80
4, 52439, Note_off_c, 2, 54, 0
4, 52440, Note_on_c, 2, 62, 80
4, 52559, Note_off_c, 2, 62, 0
4, 52560, Note_on_c, 2, 60, 80
4, 52679, Note_off_c, 2, 60, 0
4, 52680, Note_on_c, 2, 62, 80
4, 52799, Note_off_c, 2, 62, 0
4, 52800, Note_on_c, 2, 55, 95
4, 52919, Note_off_c, 2, 55, 0
4, 52920, Note_on_c, 2, 62, 80
4, 53039, Note_off_c, 2, 62, 0
4, 53040, Note_on_c, 2, 60, 80
4, 53159, Note_off_c, 2, 60, 0
4, 53160, Note_on_c, 2, 62, 80
4, 53279, Note_off_c, 2, 62, 0
4, 53280, Note_on_c, 2, 54, 80
4, 53399, Note_off_c, 2, 54, 0
4, 53400, Note_on_c, 2, 62, 80
4, 53519, Note_off_c, 2, 62, 0
4, 53520, Note_on_c, 2, 60, 80
4, 53639, Note_off_c, 2, 60, 0
4, 53640, Note_on_c, 2, 62, 80
4, 53759, Note_off_c, 2, 62, 0
4, 53760, Note_on_c, 2, 58, 105
4, 53879, Note_off_c, 2, 58, 0
4, 53880, Note_on_c, 2, 55, 80
4, 53999, Note_off_c, 2, 55, 0
4, 54000, Note_on_c, 2, 54, 80
4, 54119, Note_off_c, 2, 54, 0
4, 54120, Note_on_c, 2, 55, 80
4, 54239, Note_off_c, 2, 55, 0
4, 54240, Note_on_c, 2, 60, 80
4, 54359, Note_off_c, 2, 60, 0
4, 54360, Note_on_c, 2, 55, 80
4, 54479, Note_off_c, 2, 55, 0
4, 54480, Note_on_c, 2, 54, 80
4, 54599, Note_off_c, 2, 54, 0
4, 54600, Note_on_c, 2, 55, 80
4, 54719, Note_off_c, 2, 55, 0
4, 54720, Note_on_c, 2, 62, 95
4, 54839, Note_off_c, 2, 62, 0
4, 54840, Note_on_c, 2, 55, 80
4, 54959, Note_off_c, 2, 55, 0
4, 54960, Note_on_c, 2, 54, 80
4, 55079, Note_off_c, 2, 54, 0
4, 55080, Note_on_c, 2, 55, 80
4, 55199, Note_off_c, 2, 55, 0
4, 55200, Note_on_c, 2, 60, 80
4, 55319, Note_off_c, 2, 60, 0
4, 55320, Note_on_c, 2, 55, 80
4, 55439, Note_off_c, 2, 55, 0
4, 55440, Note_on_c, 2, 54, 80
4, 55559, Note_off_c, 2, 54, 0
4, 55560, Note_on_c, 2, 55, 80
4, 55679, Note_off_c, 2, 55, 0
4, 55680, Note_on_c, 2, 55, 105
4, 55919, Note_off_c, 2, 55, 0
4, 55920, Note_on_c, 2, 58, 80
4, 56159, Note_off_c, 2, 58, 0
4, 56160, Note_on_c, 2, 60, 80
4, 56279, Note_off_c, 2, 60, 0
4, 56280, Note_on_c, 2, 58, 80
4, 56399, Note_off_c, 2, 58, 0
4, 56400, Note_on_c, 2, 55, 80
4, 56519, Note_off_c, 2, 55, 0
4, 56520, Note_on_c, 2, 60, 80
4, 56639, Note_off_c, 2, 60, 0
4, 56640, Note_on_c, 2, 58, 95
4, 57239, Note_off_c, 2, 58, 0
4, 57240, Note_on_c, 2, 62, 80
4, 57359, Note_off_c, 2, 62, 0
4, 57360, Note_on_c, 2, 60, 80
4, 57479, Note_off_c, 2, 60, 0
4, 57480, Note_on_c, 2, 58, 80
4, 57599, Note_off_c, 2, 58, 0
4, 57600, Note_on_c, 2, 57, 105
4, 58199, Note_off_c, 2, 57, 0
4, 58200, Note_on_c, 2, 60, 80
4, 58319, Note_off_c, 2, 60, 0
4, 58320, Note_on_c, 2, 58, 80
4, 58439, Note_off_c, 2, 58, 0
4, 58440, Note_on_c, 2, 57, 80
4, 58559, Note_off_c, 2, 57, 0
4, 58560, Note_on_c, 2, 55, 95
4, 59159, Note_off_c, 2, 55, 0
4, 59160, Note_on_c, 2, 58, 80
4, 59279, Note_off_c, 2, 58, 0
4, 59280, Note_on_c, 2, 57, 80
4, 59399, Note_off_c, 2, 57, 0
4, 59400, Note_on_c, 2, 55, 80
4, 59519, Note_off_c, 2, 55, 0
4, 59520, Note_on_c, 2, 53, 105
4, 60239, Note_off_c, 2, 53, 0
4, 60240, Note_on_c, 2, 52, 80
4, 60479, Note_off_c, 2, 52, 0
4, 60480, Note_on_c, 2, 53, 95
4, 60719, Note_off_c, 2, 53, 0
4, 60720, Note_on_c, 2, 51, 80
4, 60959, Note_off_c, 2, 51, 0
4, 60960, Note_on_c, 2, 50, 80
4, 61199, Note_off_c, 2, 50, 0
4, 61200, Note_on_c, 2, 48, 80
4, 61439, Note_off_c, 2, 48, 0
4, 61440, Note_on_c, 2, 46, 105
4, 61919, Note_off_c, 2, 46, 0
4, 62640, Note_on_c, 2, 60, 80
4, 62879, Note_off_c, 2, 60, 0
4, 62880, Note_on_c, 2, 58, 80
4, 63119, Note_off_c, 2, 58, 0
4, 63120, Note_on_c, 2, 57, 80
4, 63359, Note_off_c, 2, 57, 0
4, 63360, Note_on_c, 2, 55, 105
4, 64319, Note_off_c, 2, 55, 0
4, 64320, Note_on_c, 2, 53, 95
4, 64799, Note_off_c, 2, 53, 0
4, 64800, Note_on_c, 2, 53, 80
4, 65279, Note_off_c, 2, 53, 0
4, 65280, Note_on_c, 2, 58, 105
4, 65519, Note_off_c, 2, 58, 0
4, 65520, Note_on_c, 2, 53, 80
4, 65759, Note_off_c, 2, 53, 0
4, 65760, Note_on_c, 2, 60, 80
4, 65999, Note_off_c, 2, 60, 0
4, 66000, Note_on_c, 2, 53, 80
4, 66239, Note_off_c, 2, 53, 0
4, 66240, Note_on_c, 2, 62, 95
4, 66479, Note_off_c, 2, 62, 0
4, 66480, Note_on_c, 2, 60, 80
4, 66599, Note_off_c, 2, 60, 0
4, 66600, Note_on_c, 2, 58, 80
4, 66719, Note_off_c, 2, 58, 0
4, 66720, Note_on_c, 2, 60, 80
4, 66959, Note_off_c, 2, 60, 0
4, 66960, Note_on_c, 2, 53, 80
4, 67199, Note_off_c, 2, 53, 0
4, 67200, Note_on_c, 2, 58, 105
4, 67439, Note_off_c, 2, 58, 0
4, 67440, Note_on_c, 2, 53, 80
4, 67559, Note_off_c, 2, 53, 0
4, 67560, Note_on_c, 2, 58, 80
4, 67679, Note_off_c, 2, 58, 0
4, 67680, Note_on_c, 2, 60, 80
4, 67919, Note_off_c, 2, 60, 0
4, 67920, Note_on_c, 2, 53, 80
4, 68039, Note_off_c, 2, 53, 0
4, 68040, Note_on_c, 2, 60, 80
4, 68159, Note_off_c, 2, 60, 0
4, 68160, Note_on_c, 2, 62, 95
4, 68399, Note_off_c, 2, 62, 0
4, 68400, Note_on_c, 2, 60, 80
4, 68519, Note_off_c, 2, 60, 0
4, 68520, Note_on_c, 2, 58, 80
4, 68639, Note_off_c, 2, 58, 0
4, 68640, Note_on_c, 2, 60, 80
4, 68759, Note_off_c, 2, 60, 0
4, 68760, Note_on_c, 2, 53, 80
4, 68879, Note_off_c, 2, 53, 0
4, 68880, Note_on_c, 2, 65, 80
4, 68999, Note_off_c, 2, 65, 0
4, 69000, Note_on_c, 2, 63, 80
4, 69119, Note_off_c, 2, 63, 0
4, 69120, Note_on_c, 2, 62, 105
4, 69239, Note_off_c, 2, 62, 0
4, 69240, Note_on_c, 2, 60, 80
4, 69359, Note_off_c, 2, 60, 0
4, 69360, Note_on_c, 2, 58, 80
4, 69479, Note_off_c, 2, 58, 0
4, 69480, Note_on_c, 2, 62, 80
4, 69599, Note_off_c, 2, 62, 0
4, 69600, Note_on_c, 2, 60, 80
4, 69719, Note_off_c, 2, 60, 0
4, 69720, Note_on_c, 2, 58, 80
4, 69839, Note_off_c, 2, 58, 0
4, 69840, Note_on_c, 2, 57, 80
4, 69959, Note_off_c, 2, 57, 0
4, 69960, Note_on_c, 2, 60, 80
4, 70079, Note_off_c, 2, 60, 0
4, 70080, Note_on_c, 2, 58, 95
4, 70319, Note_off_c, 2, 58, 0
4, 70320, Note_on_c, 2, 67, 80
4, 70559, Note_off_c, 2, 67, 0
4, 70800, Note_on_c, 2, 55, 80
4, 71039, Note_off_c, 2, 55, 0
4, 71040, Note_on_c, 2, 57, 105
4, 71279, Note_off_c, 2, 57, 0
4, 71280, Note_on_c, 2, 65, 80
4, 71519, Note_off_c, 2, 65, 0
4, 71760, Note_on_c, 2, 53, 80
4, 71999, Note_off_c, 2, 53, 0
4, 72000, Note_on_c, 2, 55, 95
4, 72239, Note_off_c, 2, 55, 0
4, 72240, Note_on_c, 2, 65, 80
4, 72479, Note_off_c, 2, 65, 0
4, 72480, Note_on_c, 2, 60, 80
4, 72719, Note_off_c, 2, 60, 0
4, 72720, Note_on_c, 2, 64, 80
4, 72959, Note_off_c, 2, 64, 0
4, 72960, Note_on_c, 2, 65, 105
4, 73079, Note_off_c, 2, 65, 0
4, 73080, Note_on_c, 2, 63, 80
4, 73199, Note_off_c, 2, 63, 0
4, 73200, Note_on_c, 2, 65, 80
4, 73319, Note_off_c, 2, 65, 0
4, 73320, Note_on_c, 2, 67, 80
4, 73439, Note_off_c, 2, 67, 0
4, 73440, Note_on_c, 2, 65, 80
4, 73559, Note_off_c, 2, 65, 0
4, 73560, Note_on_c, 2, 63, 80
4, 73679, Note_off_c, 2, 63, 0
4, 73680, Note_on_c, 2, 62, 80
4, 73799, Note_off_c, 2, 62, 0
4, 73800, Note_on_c, 2, 65, 80
4, 73919, Note_off_c, 2, 65, 0
4, 73920, Note_on_c, 2, 63, 95
4, 74039, Note_off_c, 2, 63, 0
4, 74040, Note_on_c, 2, 62, 80
4, 74159, Note_off_c, 2, 62, 0
4, 74160, Note_on_c, 2, 63, 80
4, 74279, Note_off_c, 2, 63, 0
4, 74280, Note_on_c, 2, 65, 80
4, 74399, Note_off_c, 2, 65, 0
4, 74400, Note_on_c, 2, 63, 80
4, 74519, Note_off_c, 2, 63, 0
4, 74520, Note_on_c, 2, 62, 80
4, 74639, Note_off_c, 2, 62, 0
4, 74640, Note_on_c, 2, 60, 80
4, 74759, Note_off_c, 2, 60, 0
4, 74760, Note_on_c, 2, 63, 80
4, 74879, Note_off_c, 2, 63, 0
4, 74880, Note_on_c, 2, 62, 105
4, 74999, Note_off_c, 2, 62, 0
4, 75000, Note_on_c, 2, 60, 80
4, 75119, Note_off_c, 2, 60, 0
4, 75120, Note_on_c, 2, 62, 80
4, 75239, Note_off_c, 2, 62, 0
4, 75240, Note_on_c, 2, 63, 80
4, 75359, Note_off_c, 2, 63, 0
4, 75360, Note_on_c, 2, 62, 80
4, 75479, Note_off_c, 2, 62, 0
4, 75480, Note_on_c, 2, 60, 80
4, 75599, Note_off_c, 2, 60, 0
4, 75600, Note_on_c, 2, 58, 80
4, 75719, Note_off_c, 2, 58, 0
4, 75720, Note_on_c, 2, 62, 80
4, 75839, Note_off_c, 2, 62, 0
4, 75840, Note_on_c, 2, 60, 95
4, 75959, Note_off_c, 2, 60, 0
4, 75960, Note_on_c, 2, 58, 80
4, 76079, Note_off_c, 2, 58, 0
4, 76080, Note_on_c, 2, 60, 80
4, 76199, Note_off_c, 2, 60, 0
4, 76200, Note_on_c, 2, 62, 80
4, 76319, Note_off_c, 2, 62, 0
4, 76320, Note_on_c, 2, 60, 80
4, 76439, Note_off_c, 2, 60, 0
4, 76440, Note_on_c, 2, 58, 80
4, 76559, Note_off_c, 2, 58, 0
4, 76560, Note_on_c, 2, 57, 80
4, 76679, Note_off_c, 2, 57, 0
4, 76680, Note_on_c, 2, 60, 80
4, 76799, Note_off_c, 2, 60, 0
4, 76800, Note_on_c, 2, 58, 105
4, 76919, Note_off_c, 2, 58, 0
4, 76920, Note_on_c, 2, 60, 80
4, 77039, Note_off_c, 2, 60, 0
4, 77040, Note_on_c, 2, 62, 80
4, 77159, Note_off_c, 2, 62, 0
4, 77160, Note_on_c, 2, 58, 80
4, 77279, Note_off_c, 2, 58, 0
4, 77280, Note_on_c, 2, 60, 80
4, 77399, Note_off_c, 2, 60, 0
4, 77400, Note_on_c, 2, 62, 80
4, 77519, Note_off_c, 2, 62, 0
4, 77520, Note_on_c, 2, 63, 80
4, 77639, Note_off_c, 2, 63, 0
4, 77640, Note_on_c, 2, 60, 80
4, 77759, Note_off_c, 2, 60, 0
4, 77760, Note_on_c, 2, 62, 95
4, 77879, Note_off_c, 2, 62, 0
4, 77880, Note_on_c, 2, 60, 80
4, 77999, Note_off_c, 2, 60, 0
4, 78000, Note_on_c, 2, 58, 80
4, 78119, Note_off_c, 2, 58, 0
4, 78120, Note_on_c, 2, 60, 80
4, 78239, Note_off_c, 2, 60, 0
4, 78240, Note_on_c, 2, 62, 80
4, 78359, Note_off_c, 2, 62, 0
4, 78360, Note_on_c, 2, 63, 80
4, 78479, Note_off_c, 2, 63, 0
4, 78480, Note_on_c, 2, 62, 80
4, 78599, Note_off_c, 2, 62, 0
4, 78600, Note_on_c, 2, 63, 80
4, 78719, Note_off_c, 2, 63, 0
4, 78720, Note_on_c, 2, 65, 105
4, 78839, Note_off_c, 2, 65, 0
4, 78840, Note_on_c, 2, 67, 80
4, 78959, Note_off_c, 2, 67, 0
4, 78960, Note_on_c, 2, 65, 80
4, 79079, Note_off_c, 2, 65, 0
4, 79080, Note_on_c, 2, 67, 80
4, 79199, Note_off_c, 2, 67, 0
4, 79200, Note_on_c, 2, 67, 80
4, 79559, Note_off_c, 2, 67, 0
4, 79560, Note_on_c, 2, 65, 80
4, 79619, Note_off_c, 2, 65, 0
4, 79620, Note_on_c, 2, 67, 80
4, 79679, Note_off_c, 2, 67, 0
4, 79680, Note_on_c, 2, 69, 95
4, 79799, Note_off_c, 2, 69, 0
4, 79800, Note_on_c, 2, 67, 80
4, 79919, Note_off_c, 2, 67, 0
4, 79920, Note_on_c, 2, 69, 80
4, 80039, Note_off_c, 2, 69, 0
4, 80040, Note_on_c, 2, 70, 80
4, 80159, Note_off_c, 2, 70, 0
4, 80160, Note_on_c, 2, 69, 80
4, 80279, Note_off_c, 2, 69, 0
4, 80280, Note_on_c, 2, 67, 80
4, 80399, Note_off_c, 2, 67, 0
4, 80400, Note_on_c, 2, 65, 80
4, 80519, Note_off_c, 2, 65, 0
4, 80520, Note_on_c, 2, 63, 80
4, 80639, Note_off_c, 2, 63, 0
4, 80640, Note_on_c, 2, 62, 105
4, 80759, Note_off_c, 2, 62, 0
4, 80760, Note_on_c, 2, 65, 80
4, 80879, Note_off_c, 2, 65, 0
4, 80880, Note_on_c, 2, 63, 80
4, 80999, Note_off_c, 2, 63, 0
4, 81000, Note_on_c, 2, 65, 80
4, 81119, Note_off_c, 2, 65, 0
4, 81120, Note_on_c, 2, 57, 80
4, 81239, Note_off_c, 2, 57, 0
4, 81240, Note_on_c, 2, 65, 80
4, 81359, Note_off_c, 2, 65, 0
4, 81360, Note_on_c, 2, 63, 80
4, 81479, Note_off_c, 2, 63, 0
4, 81480, Note_on_c, 2, 65, 80
4, 81599, Note_off_c, 2, 65, 0
4, 81600, Note_on_c, 2, 58, 95
4, 81719, Note_off_c, 2, 58, 0
4, 81720, Note_on_c, 2, 65, 80
4, 81839, Note_off_c, 2, 65, 0
4, 81840, Note_on_c, 2, 63, 80
4, 81959, Note_off_c, 2, 63, 0
4, 81960, Note_on_c, 2, 65, 80
4, 82079, Note_off_c, 2, 65, 0
4, 82080, Note_on_c, 2, 57, 80
4, 82199, Note_off_c, 2, 57, 0
4, 82200, Note_on_c, 2, 65, 80
4, 82319, Note_off_c, 2, 65, 0
4, 82320, Note_on_c, 2, 63, 80
4, 82439, Note_off_c, 2, 63, 0
4, 82440, Note_on_c, 2, 65, 80
4, 82559, Note_off_c, 2, 65, 0
4, 82560, Note_on_c, 2, 62, 105
4, 82679, Note_off_c, 2, 62, 0
4, 82680, Note_on_c, 2, 70, 80
4, 82799, Note_off_c, 2, 70, 0
4, 82800, Note_on_c, 2, 69, 80
4, 82919, Note_off_c, 2, 69, 0
4, 82920, Note_on_c, 2, 70, 80
4, 83039, Note_off_c, 2, 70, 0
4, 83040, Note_on_c, 2, 63, 80
4, 83159, Note_off_c, 2, 63, 0
4, 83160, Note_on_c, 2, 70, 80
4, 83279, Note_off_c, 2, 70, 0
4, 83280, Note_on_c, 2, 69, 80
4, 83399, Note_off_c, 2, 69, 0
4, 83400, Note_on_c, 2, 70, 80
4, 83519, Note_off_c, 2, 70, 0
4, 83520, Note_on_c, 2, 65, 95
4, 83639, Note_off_c, 2, 65, 0
4, 83640, Note_on_c, 2, 70, 80
4, 83759, Note_off_c, 2, 70, 0
4, 83760, Note_on_c, 2, 69, 80
4, 83879, Note_off_c, 2, 69, 0
4, 83880, Note_on_c, 2, 70, 80
4, 83999, Note_off_c, 2, 70, 0
4, 84000, Note_on_c, 2, 63, 80
4, 84119, Note_off_c, 2, 63, 0
4, 84120, Note_on_c, 2, 70, 80
4, 84239, Note_off_c, 2, 70, 0
4, 84240, Note_on_c, 2, 69, 80
4, 84359, Note_off_c, 2, 69, 0
4, 84360, Note_on_c, 2, 70, 80
4, 84479, Note_off_c, 2, 70, 0
4, 84480, Note_on_c, 2, 70, 105
4, 84599, Note_off_c, 2, 70, 0
4, 84600, Note_on_c, 2, 74, 80
4, 84719, Note_off_c, 2, 74, 0
4, 84720, Note_on_c, 2, 72, 80
4, 84839, Note_off_c, 2, 72, 0
4, 84840, Note_on_c, 2, 70, 80
4, 84959, Note_off_c, 2, 70, 0
4, 84960, Note_on_c, 2, 69, 80
4, 85079, Note_off_c, 2, 69, 0
4, 85080, Note_on_c, 2, 67, 80
4, 85199, Note_off_c, 2, 67, 0
4, 85200, Note_on_c, 2, 65, 80
4, 85319, Note_off_c, 2, 65, 0
4, 85320, Note_on_c, 2, 63, 80
4, 85439, Note_off_c, 2, 63, 0
4, 85440, Note_on_c, 2, 62, 95
4, 86639, Note_off_c, 2, 62, 0
4, 86640, Note_on_c, 2, 55, 80
4, 86879, Note_off_c, 2, 55, 0
4, 86880, Note_on_c, 2, 60, 80
4, 87119, Note_off_c, 2, 60, 0
4, 87120, Note_on_c, 2, 58, 80
4, 87359, Note_off_c, 2, 58, 0
4, 87360, Note_on_c, 2, 57, 95
4, 88559, Note_off_c, 2, 57, 0
4, 88560, Note_on_c, 2, 53, 80
4, 88799, Note_off_c, 2, 53, 0
4, 88800, Note_on_c, 2, 58, 80
4, 89039, Note_off_c, 2, 58, 0
4, 89040, Note_on_c, 2, 57, 80
4, 89279, Note_off_c, 2, 57, 0
4, 89280, Note_on_c, 2, 55, 95
4, 90479, Note_off_c, 2, 55, 0
4, 90480, Note_on_c, 2, 51, 80
4, 90719, Note_off_c, 2, 51, 0
4, 90720, Note_on_c, 2, 56, 80
4, 90959, Note_off_c, 2, 56, 0
4, 90960, Note_on_c, 2, 55, 80
4, 91199, Note_off_c, 2, 55, 0
4, 91200, Note_on_c, 2, 53, 95
4, 91679, Note_off_c, 2, 53, 0
4, 91680, Note_on_c, 2, 55, 80
4, 92279, Note_off_c, 2, 55, 0
4, 92280, Note_on_c, 2, 55, 80
4, 92399, Note_off_c, 2, 55, 0
4, 92400, Note_on_c, 2, 57, 80
4, 92519, Note_off_c, 2, 57, 0
4, 92520, Note_on_c, 2, 59, 80
4, 92639, Note_off_c, 2, 59, 0
4, 92640, Note_on_c, 2, 60, 80
4, 92759, Note_off_c, 2, 60, 0
4, 92760, Note_on_c, 2, 62, 80
4, 92879, Note_off_c, 2, 62, 0
4, 92880, Note_on_c, 2, 63, 80
4, 92999, Note_off_c, 2, 63, 0
4, 93000, Note_on_c, 2, 60, 80
4, 93119, Note_off_c, 2, 60, 0
4, 93120, Note_on_c, 2, 56, 95
4, 94079, Note_off_c, 2, 56, 0
4, 94080, Note_on_c, 2, 55, 105
4, 94319, Note_off_c, 2, 55, 0
4, 94320, Note_on_c, 2, 57, 80
4, 94559, Note_off_c, 2, 57, 0
4, 94560, Note_on_c, 2, 59, 80
4, 95039, Note_off_c, 2, 59, 0
4, 95040, Note_on_c, 2, 60, 95
4, 95279, Note_off_c, 2, 60, 0
4, 103920, Note_on_c, 2, 55, 80
4, 104159, Note_off_c, 2, 55, 0
4, 104160, Note_on_c, 2, 51, 80
4, 104399, Note_off_c, 2, 51, 0
4, 104400, Note_on_c, 2, 48, 80
4, 104639, Note_off_c, 2, 48, 0
4, 104640, Note_on_c, 2, 53, 95
4, 105119, Note_off_c, 2, 53, 0
4, 105840, Note_on_c, 2, 53, 80
4, 106079, Note_off_c, 2, 53, 0
4, 106080, Note_on_c, 2, 50, 80
4, 106319, Note_off_c, 2, 50, 0
4, 106320, Note_on_c, 2, 46, 80
4, 106559, Note_off_c, 2, 46, 0
4, 106560, Note_on_c, 2, 51, 95
4, 107039, Note_off_c, 2, 51, 0
4, 107760, Note_on_c, 2, 51, 80
4, 107999, Note_off_c, 2, 51, 0
4, 108000, Note_on_c, 2, 48, 80
4, 108239, Note_off_c, 2, 48, 0
4, 108240, Note_on_c, 2, 45, 80
4, 108479, Note_off_c, 2, 45, 0
4, 108480, Note_on_c, 2, 50, 95
4, 108959, Note_off_c, 2, 50, 0
4, 109440, Note_on_c, 2, 43, 105
4, 109559, Note_off_c, 2, 43, 0
4, 109560, Note_on_c, 2, 46, 80
4, 109679, Note_off_c, 2, 46, 0
4, 109680, Note_on_c, 2, 45, 80
4, 109799, Note_off_c, 2, 45, 0
4, 109800, Note_on_c, 2, 43, 80
4, 109919, Note_off_c, 2, 43, 0
4, 109920, Note_on_c, 2, 50, 80
4, 110039, Note_off_c, 2, 50, 0
4, 110040, Note_on_c, 2, 45, 80
4, 110159, Note_off_c, 2, 45, 0
4, 110160, Note_on_c, 2, 38, 80
4, 110279, Note_off_c, 2, 38, 0
4, 110280, Note_on_c, 2, 48, 80
4, 110399, Note_off_c, 2, 48, 0
4, 110400, Note_on_c, 2, 46, 95
4, 110639, Note_off_c, 2, 46, 0
4, 110640, Note_on_c, 2, 50, 80
4, 110879, Note_off_c, 2, 50, 0
4, 110880, Note_on_c, 2, 42, 80
4, 111119, Note_off_c, 2, 42, 0
4, 111120, Note_on_c, 2, 50, 80
4, 111359, Note_off_c, 2, 50, 0
4, 111360, Note_on_c, 2, 55, 105
4, 111839, Note_off_c, 2, 55, 0
4, 111840, Note_on_c, 2, 54, 80
4, 112319, Note_off_c, 2, 54, 0
4, 112320, Note_on_c, 2, 55, 95
4, 112799, Note_off_c, 2, 55, 0
4, 112800, Note_on_c, 2, 57, 80
4, 113279, Note_off_c, 2, 57, 0
4, 113280, Note_on_c, 2, 58, 105
4, 113759, Note_off_c, 2, 58, 0
4, 113760, Note_on_c, 2, 59, 80
4, 114239, Note_off_c, 2, 59, 0
4, 114240, Note_on_c, 2, 60, 95
4, 114719, Note_off_c, 2, 60, 0
4, 114720, Note_on_c, 2, 61, 80
4, 115199, Note_off_c, 2, 61, 0
4, 115200, Note_on_c, 2, 62, 105
4, 115679, Note_off_c, 2, 62, 0
4, 115680, Note_on_c, 2, 64, 80
4, 115919, Note_off_c, 2, 64, 0
4, 115920, Note_on_c, 2, 66, 80
4, 116159, Note_off_c, 2, 66, 0
4, 116160, Note_on_c, 2, 67, 95
4, 116639, Note_off_c, 2, 67, 0
4, 116640, Note_on_c, 2, 69, 80
4, 116879, Note_off_c, 2, 69, 0
4, 116880, Note_on_c, 2, 70, 80
4, 117119, Note_off_c, 2, 70, 0
4, 117120, Note_on_c, 2, 72, 105
4, 117239, Note_off_c, 2, 72, 0
4, 117240, Note_on_c, 2, 67, 80
4, 117359, Note_off_c, 2, 67, 0
4, 117360, Note_on_c, 2, 65, 80
4, 117479, Note_off_c, 2, 65, 0
4, 117480, Note_on_c, 2, 63, 80
4, 117599, Note_off_c, 2, 63, 0
4, 117600, Note_on_c, 2, 72, 80
4, 117719, Note_off_c, 2, 72, 0
4, 117720, Note_on_c, 2, 69, 80
4, 117839, Note_off_c, 2, 69, 0
4, 117840, Note_on_c, 2, 65, 80
4, 117959, Note_off_c, 2, 65, 0
4, 117960, Note_on_c, 2, 69, 80
4, 118079, Note_off_c, 2, 69, 0
4, 118080, Note_on_c, 2, 70, 95
4, 118199, Note_off_c, 2, 70, 0
4, 118200, Note_on_c, 2, 65, 80
4, 118319, Note_off_c, 2, 65, 0
4, 118320, Note_on_c, 2, 63, 80
4, 118439, Note_off_c, 2, 63, 0
4, 118440, Note_on_c, 2, 62, 80
4, 118559, Note_off_c, 2, 62, 0
4, 118560, Note_on_c, 2, 70, 80
4, 118679, Note_off_c, 2, 70, 0
4, 118680, Note_on_c, 2, 67, 80
4, 118799, Note_off_c, 2, 67, 0
4, 118800, Note_on_c, 2, 63, 80
4, 118919, Note_off_c, 2, 63, 0
4, 118920, Note_on_c, 2, 67, 80
4, 119039, Note_off_c, 2, 67, 0
4, 119040, Note_on_c, 2, 69, 105
4, 119159, Note_off_c, 2, 69, 0
4, 119160, Note_on_c, 2, 63, 80
4, 119279, Note_off_c, 2, 63, 0
4, 119280, Note_on_c, 2, 62, 80
4, 119399, Note_off_c, 2, 62, 0
4, 119400, Note_on_c, 2, 60, 80
4, 119519, Note_off_c, 2, 60, 0
4, 119520, Note_on_c, 2, 69, 80
4, 119639, Note_off_c, 2, 69, 0
4, 119640, Note_on_c, 2, 66, 80
4, 119759, Note_off_c, 2, 66, 0
4, 119760, Note_on_c, 2, 62, 80
4, 119879, Note_off_c, 2, 62, 0
4, 119880, Note_on_c, 2, 66, 80
4, 119999, Note_off_c, 2, 66, 0
4, 120000, Note_on_c, 2, 55, 95
4, 120119, Note_off_c, 2, 55, 0
4, 120120, Note_on_c, 2, 58, 80
4, 120239, Note_off_c, 2, 58, 0
4, 120240, Note_on_c, 2, 62, 80
4, 120359, Note_off_c, 2, 62, 0
4, 120360, Note_on_c, 2, 67, 80
4, 120479, Note_off_c, 2, 67, 0
4, 120480, Note_on_c, 2, 66, 80
4, 120599, Note_off_c, 2, 66, 0
4, 120600, Note_on_c, 2, 67, 80
4, 120719, Note_off_c, 2, 67, 0
4, 120720, Note_on_c, 2, 64, 80
4, 120839, Note_off_c, 2, 64, 0
4, 120840, Note_on_c, 2, 66, 80
4, 120959, Note_off_c, 2, 66, 0
4, 120960, Note_on_c, 2, 67, 105
4, 121679, Note_off_c, 2, 67, 0
4, 121680, Note_on_c, 2, 66, 80
4, 121919, Note_off_c, 2, 66, 0
4, 121920, Note_on_c, 2, 67, 95
4, 122399, Note_off_c, 2, 67, 0
4, 122400, Note_on_c, 2, 69, 80
4, 122639, Note_off_c, 2, 69, 0
4, 122640, Note_on_c, 2, 62, 80
4, 122879, Note_off_c, 2, 62, 0
4, 122880, Note_on_c, 2, 62, 105
4, 123359, Note_off_c, 2, 62, 0
4, 123600, Note_on_c, 2, 54, 80
4, 123839, Note_off_c, 2, 54, 0
4, 123840, Note_on_c, 2, 55, 95
4, 124079, Note_off_c, 2, 55, 0
4, 124320, Note_on_c, 2, 60, 80
4, 124559, Note_off_c, 2, 60, 0
4, 124800, Note_on_c, 2, 58, 105
4, 125039, Note_off_c, 2, 58, 0
4, 125280, Note_on_c, 2, 60, 80
4, 125519, Note_off_c, 2, 60, 0
4, 125760, Note_on_c, 2, 58, 95
4, 125999, Note_off_c, 2, 58, 0
4, 126240, Note_on_c, 2, 57, 80
4, 126479, Note_off_c, 2, 57, 0
4, 126720, Note_on_c, 2, 55, 105
4, 126959, Note_off_c, 2, 55, 0
4, 127200, Note_on_c, 2, 57, 80
4, 127439, Note_off_c, 2, 57, 0
4, 127680, Note_on_c, 2, 55, 95
4, 127919, Note_off_c, 2, 55, 0
4, 127920, Note_on_c, 2, 58, 80
4, 128159, Note_off_c, 2, 58, 0
4, 128160, Note_on_c, 2, 60, 80
4, 128399, Note_off_c, 2, 60, 0
4, 128400, Note_on_c, 2, 57, 80
4, 128639, Note_off_c, 2, 57, 0
4, 128640, Note_on_c, 2, 59, 105
4, 132479, Note_off_c, 2, 59, 0
4, 132480, End_track
5, 0, Start_track
5, 0, Program_c, 3, 58
5, 31680, Note_on_c, 3, 50, 95
5, 32159, Note_off_c, 3, 50, 0
5, 32160, Note_on_c, 3, 57, 80
5, 32639, Note_off_c, 3, 57, 0
5, 32640, Note_on_c, 3, 53, 105
5, 33359, Note_off_c, 3, 53, 0
5, 33360, Note_on_c, 3, 52, 80
5, 33599, Note_off_c, 3, 52, 0
5, 33600, Note_on_c, 3, 50, 95
5, 33839, Note_off_c, 3, 50, 0
5, 33840, Note_on_c, 3, 53, 80
5, 34079, Note_off_c, 3, 53, 0
5, 34080, Note_on_c, 3, 52, 80
5, 34319, Note_off_c, 3, 52, 0
5, 34320, Note_on_c, 3, 50, 80
5, 34559, Note_off_c, 3, 50, 0
5, 34560, Note_on_c, 3, 49, 105
5, 34799, Note_off_c, 3, 49, 0
5, 34800, Note_on_c, 3, 52, 80
5, 35039, Note_off_c, 3, 52, 0
5, 35040, Note_on_c, 3, 45, 80
5, 35519, Note_off_c, 3, 45, 0
5, 35520, Note_on_c, 3, 50, 95
5, 35759, Note_off_c, 3, 50, 0
5, 35760, Note_on_c, 3, 45, 80
5, 35999, Note_off_c, 3, 45, 0
5, 36000, Note_on_c, 3, 52, 80
5, 36239, Note_off_c, 3, 52, 0
5, 36240, Note_on_c, 3, 45, 80
5, 36479, Note_off_c, 3, 45, 0
5, 36480, Note_on_c, 3, 53, 105
5, 36719, Note_off_c, 3, 53, 0
5, 36720, Note_on_c, 3, 52, 80
5, 36839, Note_off_c, 3, 52, 0
5, 36840, Note_on_c, 3, 50, 80
5, 36959, Note_off_c, 3, 50, 0
5, 36960, Note_on_c, 3, 52, 80
5, 37199, Note_off_c, 3, 52, 0
5, 37200, Note_on_c, 3, 45, 80
5, 37439, Note_off_c, 3, 45, 0
5, 37440, Note_on_c, 3, 50, 95
5, 37679, Note_off_c, 3, 50, 0
5, 37680, Note_on_c, 3, 45, 80
5, 37799, Note_off_c, 3, 45, 0
5, 37800, Note_on_c, 3, 50, 80
5, 37919, Note_off_c, 3, 50, 0
5, 37920, Note_on_c, 3, 52, 80
5, 38159, Note_off_c, 3, 52, 0
5, 38160, Note_on_c, 3, 45, 80
5, 38279, Note_off_c, 3, 45, 0
5, 38280, Note_on_c, 3, 52, 80
5, 38399, Note_off_c, 3, 52, 0
5, 38400, Note_on_c, 3, 53, 105
5, 38639, Note_off_c, 3, 53, 0
5, 38640, Note_on_c, 3, 52, 80
5, 38759, Note_off_c, 3, 52, 0
5, 38760, Note_on_c, 3, 50, 80
5, 38879, Note_off_c, 3, 50, 0
5, 38880, Note_on_c, 3, 52, 80
5, 39119, Note_off_c, 3, 52, 0
5, 39120, Note_on_c, 3, 45, 80
5, 39359, Note_off_c, 3, 45, 0
5, 39360, Note_on_c, 3, 50, 95
5, 39599, Note_off_c, 3, 50, 0
5, 39600, Note_on_c, 3, 43, 80
5, 39839, Note_off_c, 3, 43, 0
5, 39840, Note_on_c, 3, 45, 80
5, 40319, Note_off_c, 3, 45, 0
5, 40320, Note_on_c, 3, 38, 105
5, 40799, Note_off_c, 3, 38, 0
5, 49200, Note_on_c, 3, 43, 80
5, 49439, Note_off_c, 3, 43, 0
5, 49440, Note_on_c, 3, 55, 80
5, 49679, Note_off_c, 3, 55, 0
5, 49680, Note_on_c, 3, 53, 80
5, 49919, Note_off_c, 3, 53, 0
5, 49920, Note_on_c, 3, 51, 105
5, 50159, Note_off_c, 3, 51, 0
5, 50400, Note_on_c, 3, 39, 80
5, 50639, Note_off_c, 3, 39, 0
5, 50880, Note_on_c, 3, 38, 95
5, 51119, Note_off_c, 3, 38, 0
5, 51120, Note_on_c, 3, 50, 80
5, 51359, Note_off_c, 3, 50, 0
5, 51360, Note_on_c, 3, 50, 80
5, 57119, Note_off_c, 3, 50, 0
5, 57120, Note_on_c, 3, 48, 80
5, 58079, Note_off_c, 3, 48, 0
5, 58080, Note_on_c, 3, 46, 80
5, 59039, Note_off_c, 3, 46, 0
5, 59040, Note_on_c, 3, 45, 80
5, 59519, Note_off_c, 3, 45, 0
5, 59520, Note_on_c, 3, 46, 105
5, 59759, Note_off_c, 3, 46, 0
5, 59760, Note_on_c, 3, 45, 80
5, 59999, Note_off_c, 3, 45, 0
5, 60000, Note_on_c, 3, 43, 80
5, 60479, Note_off_c, 3, 43, 0
5, 60480, Note_on_c, 3, 41, 95
5, 60959, Note_off_c, 3, 41, 0
5, 76800, Note_on_c, 3, 46, 105
5, 77279, Note_off_c, 3, 46, 0
5, 77280, Note_on_c, 3, 53, 80
5, 77759, Note_off_c, 3, 53, 0
5, 77760, Note_on_c, 3, 50, 95
5, 78479, Note_off_c, 3, 50, 0
5, 78480, Note_on_c, 3, 48, 80
5, 78719, Note_off_c, 3, 48, 0
5, 78720, Note_on_c, 3, 46, 105
5, 78959, Note_off_c, 3, 46, 0
5, 78960, Note_on_c, 3, 50, 80
5, 79199, Note_off_c, 3, 50, 0
5, 79200, Note_on_c, 3, 48, 80
5, 79439, Note_off_c, 3, 48, 0
5, 79440, Note_on_c, 3, 46, 80
5, 79679, Note_off_c, 3, 46, 0
5, 79680, Note_on_c, 3, 45, 95
5, 79919, Note_off_c, 3, 45, 0
5, 79920, Note_on_c, 3, 48, 80
5, 80159, Note_off_c, 3, 48, 0
5, 80160, Note_on_c, 3, 41, 80
5, 80639, Note_off_c, 3, 41, 0
5, 80640, Note_on_c, 3, 46, 105
5, 80879, Note_off_c, 3, 46, 0
5, 80880, Note_on_c, 3, 41, 80
5, 81119, Note_off_c, 3, 41, 0
5, 81120, Note_on_c, 3, 48, 80
5, 81359, Note_off_c, 3, 48, 0
5, 81360, Note_on_c, 3, 41, 80
5, 81599, Note_off_c, 3, 41, 0
5, 81600, Note_on_c, 3, 50, 95
5, 81839, Note_off_c, 3, 50, 0
5, 81840, Note_on_c, 3, 48, 80
5, 81959, Note_off_c, 3, 48, 0
5, 81960, Note_on_c, 3, 46, 80
5, 82079, Note_off_c, 3, 46, 0
5, 82080, Note_on_c, 3, 48, 80
5, 82319, Note_off_c, 3, 48, 0
5, 82320, Note_on_c, 3, 41, 80
5, 82559, Note_off_c, 3, 41, 0
5, 82560, Note_on_c, 3, 46, 105
5, 82799, Note_off_c, 3, 46, 0
5, 82800, Note_on_c, 3, 41, 80
5, 82919, Note_off_c, 3, 41, 0
5, 82920, Note_on_c, 3, 46, 80
5, 83039, Note_off_c, 3, 46, 0
5, 83040, Note_on_c, 3, 48, 80
5, 83279, Note_off_c, 3, 48, 0
5, 83280, Note_on_c, 3, 41, 80
5, 83399, Note_off_c, 3, 41, 0
5, 83400, Note_on_c, 3, 48, 80
5, 83519, Note_off_c, 3, 48, 0
5, 83520, Note_on_c, 3, 50, 95
5, 83759, Note_off_c, 3, 50, 0
5, 83760, Note_on_c, 3, 48, 80
5, 83879, Note_off_c, 3, 48, 0
5, 83880, Note_on_c, 3, 46, 80
5, 83999, Note_off_c, 3, 46, 0
5, 84000, Note_on_c, 3, 48, 80
5, 84239, Note_off_c, 3, 48, 0
5, 84240, Note_on_c, 3, 41, 80
5, 84479, Note_off_c, 3, 41, 0
5, 84480, Note_on_c, 3, 50, 105
5, 84719, Note_off_c, 3, 50, 0
5, 84720, Note_on_c, 3, 51, 80
5, 84959, Note_off_c, 3, 51, 0
5, 84960, Note_on_c, 3, 53, 80
5, 85199, Note_off_c, 3, 53, 0
5, 85200, Note_on_c, 3, 41, 80
5, 85439, Note_off_c, 3, 41, 0
5, 85440, Note_on_c, 3, 46, 95
5, 85919, Note_off_c, 3, 46, 0
5, 86400, Note_on_c, 3, 48, 105
5, 86879, Note_off_c, 3, 48, 0
5, 87360, Note_on_c, 3, 41, 95
5, 87839, Note_off_c, 3, 41, 0
5, 88320, Note_on_c, 3, 46, 105
5, 88799, Note_off_c, 3, 46, 0
5, 89280, Note_on_c, 3, 39, 95
5, 89759, Note_off_c, 3, 39, 0
5, 90240, Note_on_c, 3, 44, 105
5, 90719, Note_off_c, 3, 44, 0
5, 91200, Note_on_c, 3, 38, 95
5, 91679, Note_off_c, 3, 38, 0
5, 91680, Note_on_c, 3, 43, 80
5, 92159, Note_off_c, 3, 43, 0
5, 92160, Note_on_c, 3, 36, 105
5, 92639, Note_off_c, 3, 36, 0
5, 93120, Note_on_c, 3, 41, 95
5, 93599, Note_off_c, 3, 41, 0
5, 94080, Note_on_c, 3, 43, 105
5, 95999, Note_off_c, 3, 43, 0
5, 96000, Note_on_c, 3, 36, 105
5, 96239, Note_off_c, 3, 36, 0
5, 96240, Note_on_c, 3, 43, 80
5, 96479, Note_off_c, 3, 43, 0
5, 96480, Note_on_c, 3, 48, 80
5, 96719, Note_off_c, 3, 48, 0
5, 96720, Note_on_c, 3, 50, 80
5, 96959, Note_off_c, 3, 50, 0
5, 96960, Note_on_c, 3, 51, 95
5, 97439, Note_off_c, 3, 51, 0
5, 97440, Note_on_c, 3, 53, 80
5, 97919, Note_off_c, 3, 53, 0
5, 97920, Note_on_c, 3, 55, 105
5, 98519, Note_off_c, 3, 55, 0
5, 98520, Note_on_c, 3, 55, 80
5, 98639, Note_off_c, 3, 55, 0
5, 98640, Note_on_c, 3, 53, 80
5, 98759, Note_off_c, 3, 53, 0
5, 98760, Note_on_c, 3, 55, 80
5, 98879, Note_off_c, 3, 55, 0
5, 98880, Note_on_c, 3, 51, 95
5, 98999, Note_off_c, 3, 51, 0
5, 99000, Note_on_c, 3, 55, 80
5, 99119, Note_off_c, 3, 55, 0
5, 99120, Note_on_c, 3, 53, 80
5, 99239, Note_off_c, 3, 53, 0
5, 99240, Note_on_c, 3, 55, 80
5, 99359, Note_off_c, 3, 55, 0
5, 99360, Note_on_c, 3, 47, 80
5, 99479, Note_off_c, 3, 47, 0
5, 99480, Note_on_c, 3, 55, 80
5, 99599, Note_off_c, 3, 55, 0
5, 99600, Note_on_c, 3, 53, 80
5, 99719, Note_off_c, 3, 53, 0
5, 99720, Note_on_c, 3, 55, 80
5, 99839, Note_off_c, 3, 55, 0
5, 99840, Note_on_c, 3, 48, 105
5, 99959, Note_off_c, 3, 48, 0
5, 99960, Note_on_c, 3, 55, 80
5, 100079, Note_off_c, 3, 55, 0
5, 100080, Note_on_c, 3, 53, 80
5, 100199, Note_off_c, 3, 53, 0
5, 100200, Note_on_c, 3, 55, 80
5, 100319, Note_off_c, 3, 55, 0
5, 100320, Note_on_c, 3, 47, 80
5, 100439, Note_off_c, 3, 47, 0
5, 100440, Note_on_c, 3, 55, 80
5, 100559, Note_off_c, 3, 55, 0
5, 100560, Note_on_c, 3, 53, 80
5, 100679, Note_off_c, 3, 53, 0
5, 100680, Note_on_c, 3, 55, 80
5, 100799, Note_off_c, 3, 55, 0
5, 100800, Note_on_c, 3, 51, 95
5, 100919, Note_off_c, 3, 51, 0
5, 100920, Note_on_c, 3, 60, 80
5, 101039, Note_off_c, 3, 60, 0
5, 101040, Note_on_c, 3, 59, 80
5, 101159, Note_off_c, 3, 59, 0
5, 101160, Note_on_c, 3, 60, 80
5, 101279, Note_off_c, 3, 60, 0
5, 101280, Note_on_c, 3, 53, 80
5, 101399, Note_off_c, 3, 53, 0
5, 101400, Note_on_c, 3, 60, 80
5, 101519, Note_off_c, 3, 60, 0
5, 101520, Note_on_c, 3, 59, 80
5, 101639, Note_off_c, 3, 59, 0
5, 101640, Note_on_c, 3, 60, 80
5, 101759, Note_off_c, 3, 60, 0
5, 101760, Note_on_c, 3, 55, 105
5, 101879, Note_off_c, 3, 55, 0
5, 101880, Note_on_c, 3, 60, 80
5, 101999, Note_off_c, 3, 60, 0
5, 102000, Note_on_c, 3, 59, 80
5, 102119, Note_off_c, 3, 59, 0
5, 102120, Note_on_c, 3, 60, 80
5, 102239, Note_off_c, 3, 60, 0
5, 102240, Note_on_c, 3, 55, 80
5, 102359, Note_off_c, 3, 55, 0
5, 102360, Note_on_c, 3, 59, 80
5, 102479, Note_off_c, 3, 59, 0
5, 102480, Note_on_c, 3, 57, 80
5, 102599, Note_off_c, 3, 57, 0
5, 102600, Note_on_c, 3, 59, 80
5, 102719, Note_off_c, 3, 59, 0
5, 102720, Note_on_c, 3, 48, 95
5, 102959, Note_off_c, 3, 48, 0
5, 102960, Note_on_c, 3, 51, 80
5, 103199, Note_off_c, 3, 51, 0
5, 103200, Note_on_c, 3, 53, 80
5, 103439, Note_off_c, 3, 53, 0
5, 103440, Note_on_c, 3, 55, 80
5, 103679, Note_off_c, 3, 55, 0
5, 103680, Note_on_c, 3, 48, 105
5, 104159, Note_off_c, 3, 48, 0
5, 120000, Note_on_c, 3, 55, 95
5, 120479, Note_off_c, 3, 55, 0
5, 120480, Note_on_c, 3, 62, 80
5, 120959, Note_off_c, 3, 62, 0
5, 120960, Note_on_c, 3, 58, 105
5, 121679, Note_off_c, 3, 58, 0
5, 121680, Note_on_c, 3, 57, 80
5, 121919, Note_off_c, 3, 57, 0
5, 121920, Note_on_c, 3, 55, 95
5, 122159, Note_off_c, 3, 55, 0
5, 122160, Note_on_c, 3, 58, 80
5, 122399, Note_off_c, 3, 58, 0
5, 122400, Note_on_c, 3, 57, 80
5, 122639, Note_off_c, 3, 57, 0
5, 122640, Note_on_c, 3, 55, 80
5, 122879, Note_off_c, 3, 55, 0
5, 122880, Note_on_c, 3, 54, 105
5, 123119, Note_off_c, 3, 54, 0
5, 123120, Note_on_c, 3, 57, 80
5, 123359, Note_off_c, 3, 57, 0
5, 123360, Note_on_c, 3, 50, 80
5, 123839, Note_off_c, 3, 50, 0
5, 123840, Note_on_c, 3, 55, 95
5, 124079, Note_off_c, 3, 55, 0
5, 124080, Note_on_c, 3, 50, 80
5, 124319, Note_off_c, 3, 50, 0
5, 124320, Note_on_c, 3, 57, 80
5, 124559, Note_off_c, 3, 57, 0
5, 124560, Note_on_c, 3, 50, 80
5, 124799, Note_off_c, 3, 50, 0
5, 124800, Note_on_c, 3, 58, 105
5, 125039, Note_off_c, 3, 58, 0
5, 125040, Note_on_c, 3, 57, 80
5, 125159, Note_off_c, 3, 57, 0
5, 125160, Note_on_c, 3, 55, 80
5, 125279, Note_off_c, 3, 55, 0
5, 125280, Note_on_c, 3, 57, 80
5, 125519, Note_off_c, 3, 57, 0
5, 125520, Note_on_c, 3, 50, 80
5, 125759, Note_off_c, 3, 50, 0
5, 125760, Note_on_c, 3, 55, 95
5, 125999, Note_off_c, 3, 55, 0
5, 126000, Note_on_c, 3, 50, 80
5, 126119, Note_off_c, 3, 50, 0
5, 126120, Note_on_c, 3, 55, 80
5, 126239, Note_off_c, 3, 55, 0
5, 126240, Note_on_c, 3, 57, 80
5, 126479, Note_off_c, 3, 57, 0
5, 126480, Note_on_c, 3, 50, 80
5, 126599, Note_off_c, 3, 50, 0
5, 126600, Note_on_c, 3, 57, 80
5, 126719, Note_off_c, 3, 57, 0
5, 126720, Note_on_c, 3, 58, 105
5, 126959, Note_off_c, 3, 58, 0
5, 126960, Note_on_c, 3, 57, 80
5, 127079, Note_off_c, 3, 57, 0
5, 127080, Note_on_c, 3, 55, 80
5, 127199, Note_off_c, 3, 55, 0
5, 127200, Note_on_c, 3, 57, 80
5, 127439, Note_off_c, 3, 57, 0
5, 127440, Note_on_c, 3, 50, 80
5, 127679, Note_off_c, 3, 50, 0
5, 127680, Note_on_c, 3, 55, 95
5, 127919, Note_off_c, 3, 55, 0
5, 127920, Note_on_c, 3, 51, 80
5, 128159, Note_off_c, 3, 51, 0
5, 128160, Note_on_c, 3, 48, 80
5, 128399, Note_off_c, 3, 48, 0
5, 128400, Note_on_c, 3, 50, 80
5, 128639, Note_off_c, 3, 50, 0
5, 128640, Note_on_c, 3, 43, 105
5, 132479, Note_off_c, 3, 43, 0
5, 132480, End_track
0, 0, End_of_file
