0, 0, Header, 1, 5, 96
1, 0, Start_track
1, 0, Time_signature, 4, 2, 96, 8
1, 0, Tempo, 571428
1, 0, End_track
2, 0, Start_track
2, 0, Title_t, "Sequenced by P.J. Barnes"
2, 0, Control_c, 0, 0, 0
2, 0, Program_c, 0, 26
2, 0, Time_signature, 4, 2, 96, 8
2, 0, Tempo, 571428
2, 0, Note_on_c, 0, 76, 64
2, 16, Note_off_c, 0, 76, 64
2, 24, Note_on_c, 0, 76, 64
2, 40, Note_off_c, 0, 76, 64
2, 72, Note_on_c, 0, 76, 64
2, 88, Note_off_c, 0, 76, 64
2, 120, Note_on_c, 0, 72, 64
2, 136, Note_off_c, 0, 72, 64
2, 144, Note_on_c, 0, 76, 64
2, 160, Note_off_c, 0, 76, 64
2, 192, Note_on_c, 0, 79, 64
2, 208, Note_off_c, 0, 79, 64
2, 384, Note_on_c, 0, 72, 64
2, 400, Note_off_c, 0, 72, 64
2, 456, Note_on_c, 0, 67, 64
2, 472, Note_off_c, 0, 67, 64
2, 528, Note_on_c, 0, 64, 64
2, 544, Note_off_c, 0, 64, 64
2, 600, Note_on_c, 0, 69, 64
2, 616, Note_off_c, 0, 69, 64
2, 648, Note_on_c, 0, 71, 64
2, 664, Note_off_c, 0, 71, 64
2, 696, Note_on_c, 0, 70, 64
2, 712, Note_off_c, 0, 70, 64
2, 720, Note_on_c, 0, 69, 64
2, 736, Note_off_c, 0, 69, 64
2, 768, Note_on_c, 0, 67, 64
2, 784, Note_off_c, 0, 67, 64
2, 800, Note_on_c, 0, 76, 64
2, 816, Note_off_c, 0, 76, 64
2, 832, Note_on_c, 0, 79, 64
2, 848, Note_off_c, 0, 79, 64
2, 864, Note_on_c, 0, 81, 64
2, 880, Note_off_c, 0, 81, 64
2, 912, Note_on_c, 0, 77, 64
2, 928, Note_off_c, 0, 77, 64
2, 936, Note_on_c, 0, 79, 64
2, 952, Note_off_c, 0, 79, 64
2, 984, Note_on_c, 0, 76, 64
2, 1000, Note_off_c, 0, 76, 64
2, 1032, Note_on_c, 0, 72, 64
2, 1048, Note_off_c, 0, 72, 64
2, 1056, Note_on_c, 0, 74, 64
2, 1072, Note_off_c, 0, 74, 64
2, 1080, Note_on_c, 0, 71, 64
2, 1096, Note_off_c, 0, 71, 64
2, 1152, Note_on_c, 0, 72, 64
2, 1168, Note_off_c, 0, 72, 64
2, 1224, Note_on_c, 0, 67, 64
2, 1240, Note_off_c, 0, 67, 64
2, 1296, Note_on_c, 0, 64, 64
2, 1312, Note_off_c, 0, 64, 64
2, 1368, Note_on_c, 0, 69, 64
2, 1384, Note_off_c, 0, 69, 64
2, 1416, Note_on_c, 0, 71, 64
2, 1432, Note_off_c, 0, 71, 64
2, 1464, Note_on_c, 0, 70, 64
2, 1480, Note_off_c, 0, 70, 64
2, 1488, Note_on_c, 0, 69, 64
2, 1504, Note_off_c, 0, 69, 64
2, 1536, Note_on_c, 0, 67, 64
2, 1552, Note_off_c, 0, 67, 64
2, 1568, Note_on_c, 0, 76, 64
2, 1584, Note_off_c, 0, 76, 64
2, 1600, Note_on_c, 0, 79, 64
2, 1616, Note_off_c, 0, 79, 64
2, 1632, Note_on_c, 0, 81, 64
2, 1648, Note_off_c, 0, 81, 64
2, 1680, Note_on_c, 0, 77, 64
2, 1696, Note_off_c, 0, 77, 64
2, 1704, Note_on_c, 0, 79, 64
2, 1720, Note_off_c, 0, 79, 64
2, 1752, Note_on_c, 0, 76, 64
2, 1768, Note_off_c, 0, 76, 64
2, 1800, Note_on_c, 0, 72, 64
2, 1816, Note_off_c, 0, 72, 64
2, 1824, Note_on_c, 0, 74, 64
2, 1840, Note_off_c, 0, 74, 64
2, 1848, Note_on_c, 0, 71, 64
2, 1864, Note_off_c, 0, 71, 64
2, 1968, Note_on_c, 0, 79, 64
2, 1984, Note_off_c, 0, 79, 64
2, 1992, Note_on_c, 0, 78, 64
2, 2008, Note_off_c, 0, 78, 64
2, 2016, Note_on_c, 0, 77, 64
2, 2032, Note_off_c, 0, 77, 64
2, 2040, Note_on_c, 0, 75, 64
2, 2056, Note_off_c, 0, 75, 64
2, 2088, Note_on_c, 0, 76, 64
2, 2104, Note_off_c, 0, 76, 64
2, 2136, Note_on_c, 0, 68, 64
2, 2152, Note_off_c, 0, 68, 64
2, 2160, Note_on_c, 0, 69, 64
2, 2176, Note_off_c, 0, 69, 64
2, 2184, Note_on_c, 0, 72, 64
2, 2200, Note_off_c, 0, 72, 64
2, 2232, Note_on_c, 0, 69, 64
2, 2248, Note_off_c, 0, 69, 64
2, 2256, Note_on_c, 0, 72, 64
2, 2272, Note_off_c, 0, 72, 64
2, 2280, Note_on_c, 0, 74, 64
2, 2296, Note_off_c, 0, 74, 64
2, 2352, Note_on_c, 0, 79, 64
2, 2368, Note_off_c, 0, 79, 64
2, 2376, Note_on_c, 0, 78, 64
2, 2392, Note_off_c, 0, 78, 64
2, 2400, Note_on_c, 0, 77, 64
2, 2416, Note_off_c, 0, 77, 64
2, 2424, Note_on_c, 0, 75, 64
2, 2440, Note_off_c, 0, 75, 64
2, 2472, Note_on_c, 0, 76, 64
2, 2488, Note_off_c, 0, 76, 64
2, 2520, Note_on_c, 0, 84, 64
2, 2536, Note_off_c, 0, 84, 64
2, 2568, Note_on_c, 0, 84, 64
2, 2584, Note_off_c, 0, 84, 64
2, 2592, Note_on_c, 0, 84, 64
2, 2608, Note_off_c, 0, 84, 64
2, 2736, Note_on_c, 0, 79, 64
2, 2752, Note_off_c, 0, 79, 64
2, 2760, Note_on_c, 0, 78, 64
2, 2776, Note_off_c, 0, 78, 64
2, 2784, Note_on_c, 0, 77, 64
2, 2800, Note_off_c, 0, 77, 64
2, 2808, Note_on_c, 0, 75, 64
2, 2824, Note_off_c, 0, 75, 64
2, 2856, Note_on_c, 0, 76, 64
2, 2872, Note_off_c, 0, 76, 64
2, 2904, Note_on_c, 0, 68, 64
2, 2920, Note_off_c, 0, 68, 64
2, 2928, Note_on_c, 0, 69, 64
2, 2944, Note_off_c, 0, 69, 64
2, 2952, Note_on_c, 0, 72, 64
2, 2968, Note_off_c, 0, 72, 64
2, 3000, Note_on_c, 0, 69, 64
2, 3016, Note_off_c, 0, 69, 64
2, 3024, Note_on_c, 0, 72, 64
2, 3040, Note_off_c, 0, 72, 64
2, 3048, Note_on_c, 0, 74, 64
2, 3064, Note_off_c, 0, 74, 64
2, 3120, Note_on_c, 0, 75, 64
2, 3136, Note_off_c, 0, 75, 64
2, 3192, Note_on_c, 0, 74, 64
2, 3208, Note_off_c, 0, 74, 64
2, 3264, Note_on_c, 0, 72, 64
2, 3280, Note_off_c, 0, 72, 64
2, 3504, Note_on_c, 0, 79, 64
2, 3520, Note_off_c, 0, 79, 64
2, 3528, Note_on_c, 0, 78, 64
2, 3544, Note_off_c, 0, 78, 64
2, 3552, Note_on_c, 0, 77, 64
2, 3568, Note_off_c, 0, 77, 64
2, 3576, Note_on_c, 0, 75, 64
2, 3592, Note_off_c, 0, 75, 64
2, 3624, Note_on_c, 0, 76, 64
2, 3640, Note_off_c, 0, 76, 64
2, 3672, Note_on_c, 0, 68, 64
2, 3688, Note_off_c, 0, 68, 64
2, 3696, Note_on_c, 0, 69, 64
2, 3712, Note_off_c, 0, 69, 64
2, 3720, Note_on_c, 0, 72, 64
2, 3736, Note_off_c, 0, 72, 64
2, 3768, Note_on_c, 0, 69, 64
2, 3784, Note_off_c, 0, 69, 64
2, 3792, Note_on_c, 0, 72, 64
2, 3808, Note_off_c, 0, 72, 64
2, 3816, Note_on_c, 0, 74, 64
2, 3832, Note_off_c, 0, 74, 64
2, 3888, Note_on_c, 0, 79, 64
2, 3904, Note_off_c, 0, 79, 64
2, 3912, Note_on_c, 0, 78, 64
2, 3928, Note_off_c, 0, 78, 64
2, 3936, Note_on_c, 0, 77, 64
2, 3952, Note_off_c, 0, 77, 64
2, 3960, Note_on_c, 0, 75, 64
2, 3976, Note_off_c, 0, 75, 64
2, 4008, Note_on_c, 0, 76, 64
2, 4024, Note_off_c, 0, 76, 64
2, 4056, Note_on_c, 0, 84, 64
2, 4072, Note_off_c, 0, 84, 64
2, 4104, Note_on_c, 0, 84, 64
2, 4120, Note_off_c, 0, 84, 64
2, 4128, Note_on_c, 0, 84, 64
2, 4144, Note_off_c, 0, 84, 64
2, 4272, Note_on_c, 0, 79, 64
2, 4288, Note_off_c, 0, 79, 64
2, 4296, Note_on_c, 0, 78, 64
2, 4312, Note_off_c, 0, 78, 64
2, 4320, Note_on_c, 0, 77, 64
2, 4336, Note_off_c, 0, 77, 64
2, 4344, Note_on_c, 0, 75, 64
2, 4360, Note_off_c, 0, 75, 64
2, 4392, Note_on_c, 0, 76, 64
2, 4408, Note_off_c, 0, 76, 64
2, 4440, Note_on_c, 0, 68, 64
2, 4456, Note_off_c, 0, 68, 64
2, 4464, Note_on_c, 0, 69, 64
2, 4480, Note_off_c, 0, 69, 64
2, 4488, Note_on_c, 0, 72, 64
2, 4504, Note_off_c, 0, 72, 64
2, 4536, Note_on_c, 0, 69, 64
2, 4552, Note_off_c, 0, 69, 64
2, 4560, Note_on_c, 0, 72, 64
2, 4576, Note_off_c, 0, 72, 64
2, 4584, Note_on_c, 0, 74, 64
2, 4600, Note_off_c, 0, 74, 64
2, 4656, Note_on_c, 0, 75, 64
2, 4672, Note_off_c, 0, 75, 64
2, 4728, Note_on_c, 0, 74, 64
2, 4744, Note_off_c, 0, 74, 64
2, 4800, Note_on_c, 0, 72, 64
2, 4816, Note_off_c, 0, 72, 64
2, 4992, Note_on_c, 0, 72, 64
2, 5008, Note_off_c, 0, 72, 64
2, 5016, Note_on_c, 0, 72, 64
2, 5032, Note_off_c, 0, 72, 64
2, 5064, Note_on_c, 0, 72, 64
2, 5080, Note_off_c, 0, 72, 64
2, 5112, Note_on_c, 0, 72, 64
2, 5128, Note_off_c, 0, 72, 64
2, 5136, Note_on_c, 0, 74, 64
2, 5152, Note_off_c, 0, 74, 64
2, 5184, Note_on_c, 0, 76, 64
2, 5200, Note_off_c, 0, 76, 64
2, 5208, Note_on_c, 0, 72, 64
2, 5224, Note_off_c, 0, 72, 64
2, 5256, Note_on_c, 0, 69, 64
2, 5272, Note_off_c, 0, 69, 64
2, 5280, Note_on_c, 0, 67, 64
2, 5296, Note_off_c, 0, 67, 64
2, 5376, Note_on_c, 0, 72, 64
2, 5392, Note_off_c, 0, 72, 64
2, 5400, Note_on_c, 0, 72, 64
2, 5416, Note_off_c, 0, 72, 64
2, 5448, Note_on_c, 0, 72, 64
2, 5464, Note_off_c, 0, 72, 64
2, 5496, Note_on_c, 0, 72, 64
2, 5512, Note_off_c, 0, 72, 64
2, 5520, Note_on_c, 0, 74, 64
2, 5536, Note_off_c, 0, 74, 64
2, 5544, Note_on_c, 0, 76, 64
2, 5560, Note_off_c, 0, 76, 64
2, 5760, Note_on_c, 0, 72, 64
2, 5776, Note_off_c, 0, 72, 64
2, 5784, Note_on_c, 0, 72, 64
2, 5800, Note_off_c, 0, 72, 64
2, 5832, Note_on_c, 0, 72, 64
2, 5848, Note_off_c, 0, 72, 64
2, 5880, Note_on_c, 0, 72, 64
2, 5896, Note_off_c, 0, 72, 64
2, 5904, Note_on_c, 0, 74, 64
2, 5920, Note_off_c, 0, 74, 64
2, 5952, Note_on_c, 0, 76, 64
2, 5968, Note_off_c, 0, 76, 64
2, 5976, Note_on_c, 0, 72, 64
2, 5992, Note_off_c, 0, 72, 64
2, 6024, Note_on_c, 0, 69, 64
2, 6040, Note_off_c, 0, 69, 64
2, 6048, Note_on_c, 0, 67, 64
2, 6064, Note_off_c, 0, 67, 64
2, 6144, Note_on_c, 0, 76, 64
2, 6160, Note_off_c, 0, 76, 64
2, 6168, Note_on_c, 0, 76, 64
2, 6184, Note_off_c, 0, 76, 64
2, 6216, Note_on_c, 0, 76, 64
2, 6232, Note_off_c, 0, 76, 64
2, 6264, Note_on_c, 0, 72, 64
2, 6280, Note_off_c, 0, 72, 64
2, 6288, Note_on_c, 0, 76, 64
2, 6304, Note_off_c, 0, 76, 64
2, 6336, Note_on_c, 0, 79, 64
2, 6352, Note_off_c, 0, 79, 64
2, 6528, Note_on_c, 0, 72, 64
2, 6544, Note_off_c, 0, 72, 64
2, 6600, Note_on_c, 0, 67, 64
2, 6616, Note_off_c, 0, 67, 64
2, 6672, Note_on_c, 0, 64, 64
2, 6688, Note_off_c, 0, 64, 64
2, 6744, Note_on_c, 0, 69, 64
2, 6760, Note_off_c, 0, 69, 64
2, 6792, Note_on_c, 0, 71, 64
2, 6808, Note_off_c, 0, 71, 64
2, 6840, Note_on_c, 0, 70, 64
2, 6856, Note_off_c, 0, 70, 64
2, 6864, Note_on_c, 0, 69, 64
2, 6880, Note_off_c, 0, 69, 64
2, 6912, Note_on_c, 0, 67, 64
2, 6928, Note_off_c, 0, 67, 64
2, 6944, Note_on_c, 0, 76, 64
2, 6960, Note_off_c, 0, 76, 64
2, 6976, Note_on_c, 0, 79, 64
2, 6992, Note_off_c, 0, 79, 64
2, 7008, Note_on_c, 0, 81, 64
2, 7024, Note_off_c, 0, 81, 64
2, 7056, Note_on_c, 0, 77, 64
2, 7072, Note_off_c, 0, 77, 64
2, 7080, Note_on_c, 0, 79, 64
2, 7096, Note_off_c, 0, 79, 64
2, 7128, Note_on_c, 0, 76, 64
2, 7144, Note_off_c, 0, 76, 64
2, 7176, Note_on_c, 0, 72, 64
2, 7192, Note_off_c, 0, 72, 64
2, 7200, Note_on_c, 0, 74, 64
2, 7216, Note_off_c, 0, 74, 64
2, 7224, Note_on_c, 0, 71, 64
2, 7240, Note_off_c, 0, 71, 64
2, 7296, Note_on_c, 0, 72, 64
2, 7312, Note_off_c, 0, 72, 64
2, 7368, Note_on_c, 0, 67, 64
2, 7384, Note_off_c, 0, 67, 64
2, 7440, Note_on_c, 0, 64, 64
2, 7456, Note_off_c, 0, 64, 64
2, 7512, Note_on_c, 0, 69, 64
2, 7528, Note_off_c, 0, 69, 64
2, 7560, Note_on_c, 0, 71, 64
2, 7576, Note_off_c, 0, 71, 64
2, 7608, Note_on_c, 0, 70, 64
2, 7624, Note_off_c, 0, 70, 64
2, 7632, Note_on_c, 0, 69, 64
2, 7648, Note_off_c, 0, 69, 64
2, 7680, Note_on_c, 0, 67, 64
2, 7696, Note_off_c, 0, 67, 64
2, 7712, Note_on_c, 0, 76, 64
2, 7728, Note_off_c, 0, 76, 64
2, 7744, Note_on_c, 0, 79, 64
2, 7760, Note_off_c, 0, 79, 64
2, 7776, Note_on_c, 0, 81, 64
2, 7792, Note_off_c, 0, 81, 64
2, 7824, Note_on_c, 0, 77, 64
2, 7840, Note_off_c, 0, 77, 64
2, 7848, Note_on_c, 0, 79, 64
2, 7864, Note_off_c, 0, 79, 64
2, 7896, Note_on_c, 0, 76, 64
2, 7912, Note_off_c, 0, 76, 64
2, 7944, Note_on_c, 0, 72, 64
2, 7960, Note_off_c, 0, 72, 64
2, 7968, Note_on_c, 0, 74, 64
2, 7984, Note_off_c, 0, 74, 64
2, 7992, Note_on_c, 0, 71, 64
2, 8008, Note_off_c, 0, 71, 64
2, 8064, Note_on_c, 0, 76, 64
2, 8080, Note_off_c, 0, 76, 64
2, 8088, Note_on_c, 0, 72, 64
2, 8104, Note_off_c, 0, 72, 64
2, 8136, Note_on_c, 0, 67, 64
2, 8152, Note_off_c, 0, 67, 64
2, 8208, Note_on_c, 0, 68, 64
2, 8224, Note_off_c, 0, 68, 64
2, 8256, Note_on_c, 0, 69, 64
2, 8272, Note_off_c, 0, 69, 64
2, 8280, Note_on_c, 0, 77, 64
2, 8296, Note_off_c, 0, 77, 64
2, 8328, Note_on_c, 0, 77, 64
2, 8344, Note_off_c, 0, 77, 64
2, 8352, Note_on_c, 0, 69, 64
2, 8368, Note_off_c, 0, 69, 64
2, 8448, Note_on_c, 0, 71, 64
2, 8464, Note_off_c, 0, 71, 64
2, 8480, Note_on_c, 0, 81, 64
2, 8496, Note_off_c, 0, 81, 64
2, 8512, Note_on_c, 0, 81, 64
2, 8528, Note_off_c, 0, 81, 64
2, 8544, Note_on_c, 0, 81, 64
2, 8560, Note_off_c, 0, 81, 64
2, 8576, Note_on_c, 0, 79, 64
2, 8592, Note_off_c, 0, 79, 64
2, 8608, Note_on_c, 0, 77, 64
2, 8624, Note_off_c, 0, 77, 64
2, 8640, Note_on_c, 0, 76, 64
2, 8656, Note_off_c, 0, 76, 64
2, 8664, Note_on_c, 0, 72, 64
2, 8680, Note_off_c, 0, 72, 64
2, 8712, Note_on_c, 0, 69, 64
2, 8728, Note_off_c, 0, 69, 64
2, 8736, Note_on_c, 0, 67, 64
2, 8752, Note_off_c, 0, 67, 64
2, 8832, Note_on_c, 0, 76, 64
2, 8848, Note_off_c, 0, 76, 64
2, 8856, Note_on_c, 0, 72, 64
2, 8872, Note_off_c, 0, 72, 64
2, 8904, Note_on_c, 0, 67, 64
2, 8920, Note_off_c, 0, 67, 64
2, 8976, Note_on_c, 0, 68, 64
2, 8992, Note_off_c, 0, 68, 64
2, 9024, Note_on_c, 0, 69, 64
2, 9040, Note_off_c, 0, 69, 64
2, 9048, Note_on_c, 0, 77, 64
2, 9064, Note_off_c, 0, 77, 64
2, 9096, Note_on_c, 0, 77, 64
2, 9112, Note_off_c, 0, 77, 64
2, 9120, Note_on_c, 0, 69, 64
2, 9136, Note_off_c, 0, 69, 64
2, 9216, Note_on_c, 0, 71, 64
2, 9232, Note_off_c, 0, 71, 64
2, 9240, Note_on_c, 0, 77, 64
2, 9256, Note_off_c, 0, 77, 64
2, 9288, Note_on_c, 0, 77, 64
2, 9304, Note_off_c, 0, 77, 64
2, 9312, Note_on_c, 0, 77, 64
2, 9328, Note_off_c, 0, 77, 64
2, 9344, Note_on_c, 0, 76, 64
2, 9360, Note_off_c, 0, 76, 64
2, 9376, Note_on_c, 0, 74, 64
2, 9392, Note_off_c, 0, 74, 64
2, 9408, Note_on_c, 0, 72, 64
2, 9424, Note_off_c, 0, 72, 64
2, 9600, Note_on_c, 0, 76, 64
2, 9616, Note_off_c, 0, 76, 64
2, 9624, Note_on_c, 0, 72, 64
2, 9640, Note_off_c, 0, 72, 64
2, 9672, Note_on_c, 0, 67, 64
2, 9688, Note_off_c, 0, 67, 64
2, 9744, Note_on_c, 0, 68, 64
2, 9760, Note_off_c, 0, 68, 64
2, 9792, Note_on_c, 0, 69, 64
2, 9808, Note_off_c, 0, 69, 64
2, 9816, Note_on_c, 0, 77, 64
2, 9832, Note_off_c, 0, 77, 64
2, 9864, Note_on_c, 0, 77, 64
2, 9880, Note_off_c, 0, 77, 64
2, 9888, Note_on_c, 0, 69, 64
2, 9904, Note_off_c, 0, 69, 64
2, 9984, Note_on_c, 0, 71, 64
2, 10000, Note_off_c, 0, 71, 64
2, 10016, Note_on_c, 0, 81, 64
2, 10032, Note_off_c, 0, 81, 64
2, 10048, Note_on_c, 0, 81, 64
2, 10064, Note_off_c, 0, 81, 64
2, 10080, Note_on_c, 0, 81, 64
2, 10096, Note_off_c, 0, 81, 64
2, 10112, Note_on_c, 0, 79, 64
2, 10128, Note_off_c, 0, 79, 64
2, 10144, Note_on_c, 0, 77, 64
2, 10160, Note_off_c, 0, 77, 64
2, 10176, Note_on_c, 0, 76, 64
2, 10192, Note_off_c, 0, 76, 64
2, 10200, Note_on_c, 0, 72, 64
2, 10216, Note_off_c, 0, 72, 64
2, 10248, Note_on_c, 0, 69, 64
2, 10264, Note_off_c, 0, 69, 64
2, 10272, Note_on_c, 0, 67, 64
2, 10288, Note_off_c, 0, 67, 64
2, 10368, Note_on_c, 0, 76, 64
2, 10384, Note_off_c, 0, 76, 64
2, 10392, Note_on_c, 0, 72, 64
2, 10408, Note_off_c, 0, 72, 64
2, 10440, Note_on_c, 0, 67, 64
2, 10456, Note_off_c, 0, 67, 64
2, 10512, Note_on_c, 0, 68, 64
2, 10528, Note_off_c, 0, 68, 64
2, 10560, Note_on_c, 0, 69, 64
2, 10576, Note_off_c, 0, 69, 64
2, 10584, Note_on_c, 0, 77, 64
2, 10600, Note_off_c, 0, 77, 64
2, 10632, Note_on_c, 0, 77, 64
2, 10648, Note_off_c, 0, 77, 64
2, 10656, Note_on_c, 0, 69, 64
2, 10672, Note_off_c, 0, 69, 64
2, 10752, Note_on_c, 0, 71, 64
2, 10768, Note_off_c, 0, 71, 64
2, 10776, Note_on_c, 0, 77, 64
2, 10792, Note_off_c, 0, 77, 64
2, 10824, Note_on_c, 0, 77, 64
2, 10840, Note_off_c, 0, 77, 64
2, 10848, Note_on_c, 0, 77, 64
2, 10864, Note_off_c, 0, 77, 64
2, 10880, Note_on_c, 0, 76, 64
2, 10896, Note_off_c, 0, 76, 64
2, 10912, Note_on_c, 0, 74, 64
2, 10928, Note_off_c, 0, 74, 64
2, 10944, Note_on_c, 0, 72, 64
2, 10960, Note_off_c, 0, 72, 64
2, 11136, Note_on_c, 0, 72, 64
2, 11152, Note_off_c, 0, 72, 64
2, 11160, Note_on_c, 0, 72, 64
2, 11176, Note_off_c, 0, 72, 64
2, 11208, Note_on_c, 0, 72, 64
2, 11224, Note_off_c, 0, 72, 64
2, 11256, Note_on_c, 0, 72, 64
2, 11272, Note_off_c, 0, 72, 64
2, 11280, Note_on_c, 0, 74, 64
2, 11296, Note_off_c, 0, 74, 64
2, 11328, Note_on_c, 0, 76, 64
2, 11344, Note_off_c, 0, 76, 64
2, 11352, Note_on_c, 0, 72, 64
2, 11368, Note_off_c, 0, 72, 64
2, 11400, Note_on_c, 0, 69, 64
2, 11416, Note_off_c, 0, 69, 64
2, 11424, Note_on_c, 0, 67, 64
2, 11440, Note_off_c, 0, 67, 64
2, 11520, Note_on_c, 0, 72, 64
2, 11536, Note_off_c, 0, 72, 64
2, 11544, Note_on_c, 0, 72, 64
2, 11560, Note_off_c, 0, 72, 64
2, 11592, Note_on_c, 0, 72, 64
2, 11608, Note_off_c, 0, 72, 64
2, 11640, Note_on_c, 0, 72, 64
2, 11656, Note_off_c, 0, 72, 64
2, 11664, Note_on_c, 0, 74, 64
2, 11680, Note_off_c, 0, 74, 64
2, 11688, Note_on_c, 0, 76, 64
2, 11704, Note_off_c, 0, 76, 64
2, 11904, Note_on_c, 0, 72, 64
2, 11920, Note_off_c, 0, 72, 64
2, 11928, Note_on_c, 0, 72, 64
2, 11944, Note_off_c, 0, 72, 64
2, 11976, Note_on_c, 0, 72, 64
2, 11992, Note_off_c, 0, 72, 64
2, 12024, Note_on_c, 0, 72, 64
2, 12040, Note_off_c, 0, 72, 64
2, 12048, Note_on_c, 0, 74, 64
2, 12064, Note_off_c, 0, 74, 64
2, 12096, Note_on_c, 0, 76, 64
2, 12112, Note_off_c, 0, 76, 64
2, 12120, Note_on_c, 0, 72, 64
2, 12136, Note_off_c, 0, 72, 64
2, 12168, Note_on_c, 0, 69, 64
2, 12184, Note_off_c, 0, 69, 64
2, 12192, Note_on_c, 0, 67, 64
2, 12208, Note_off_c, 0, 67, 64
2, 12288, Note_on_c, 0, 76, 64
2, 12304, Note_off_c, 0, 76, 64
2, 12312, Note_on_c, 0, 76, 64
2, 12328, Note_off_c, 0, 76, 64
2, 12360, Note_on_c, 0, 76, 64
2, 12376, Note_off_c, 0, 76, 64
2, 12408, Note_on_c, 0, 72, 64
2, 12424, Note_off_c, 0, 72, 64
2, 12432, Note_on_c, 0, 76, 64
2, 12448, Note_off_c, 0, 76, 64
2, 12480, Note_on_c, 0, 79, 64
2, 12496, Note_off_c, 0, 79, 64
2, 12672, Note_on_c, 0, 76, 64
2, 12688, Note_off_c, 0, 76, 64
2, 12696, Note_on_c, 0, 72, 64
2, 12712, Note_off_c, 0, 72, 64
2, 12744, Note_on_c, 0, 67, 64
2, 12760, Note_off_c, 0, 67, 64
2, 12816, Note_on_c, 0, 68, 64
2, 12832, Note_off_c, 0, 68, 64
2, 12864, Note_on_c, 0, 69, 64
2, 12880, Note_off_c, 0, 69, 64
2, 12888, Note_on_c, 0, 77, 64
2, 12904, Note_off_c, 0, 77, 64
2, 12936, Note_on_c, 0, 77, 64
2, 12952, Note_off_c, 0, 77, 64
2, 12960, Note_on_c, 0, 69, 64
2, 12976, Note_off_c, 0, 69, 64
2, 13056, Note_on_c, 0, 71, 64
2, 13072, Note_off_c, 0, 71, 64
2, 13088, Note_on_c, 0, 81, 64
2, 13104, Note_off_c, 0, 81, 64
2, 13120, Note_on_c, 0, 81, 64
2, 13136, Note_off_c, 0, 81, 64
2, 13152, Note_on_c, 0, 81, 64
2, 13168, Note_off_c, 0, 81, 64
2, 13184, Note_on_c, 0, 79, 64
2, 13200, Note_off_c, 0, 79, 64
2, 13216, Note_on_c, 0, 77, 64
2, 13232, Note_off_c, 0, 77, 64
2, 13248, Note_on_c, 0, 76, 64
2, 13264, Note_off_c, 0, 76, 64
2, 13272, Note_on_c, 0, 72, 64
2, 13288, Note_off_c, 0, 72, 64
2, 13320, Note_on_c, 0, 69, 64
2, 13336, Note_off_c, 0, 69, 64
2, 13344, Note_on_c, 0, 67, 64
2, 13360, Note_off_c, 0, 67, 64
2, 13440, Note_on_c, 0, 76, 64
2, 13456, Note_off_c, 0, 76, 64
2, 13464, Note_on_c, 0, 72, 64
2, 13480, Note_off_c, 0, 72, 64
2, 13512, Note_on_c, 0, 67, 64
2, 13528, Note_off_c, 0, 67, 64
2, 13584, Note_on_c, 0, 68, 64
2, 13600, Note_off_c, 0, 68, 64
2, 13632, Note_on_c, 0, 69, 64
2, 13648, Note_off_c, 0, 69, 64
2, 13656, Note_on_c, 0, 77, 64
2, 13672, Note_off_c, 0, 77, 64
2, 13704, Note_on_c, 0, 77, 64
2, 13720, Note_off_c, 0, 77, 64
2, 13728, Note_on_c, 0, 69, 64
2, 13744, Note_off_c, 0, 69, 64
2, 13824, Note_on_c, 0, 71, 64
2, 13840, Note_off_c, 0, 71, 64
2, 13848, Note_on_c, 0, 77, 64
2, 13864, Note_off_c, 0, 77, 64
2, 13896, Note_on_c, 0, 77, 64
2, 13912, Note_off_c, 0, 77, 64
2, 13920, Note_on_c, 0, 77, 64
2, 13936, Note_off_c, 0, 77, 64
2, 13952, Note_on_c, 0, 76, 64
2, 13968, Note_off_c, 0, 76, 64
2, 13984, Note_on_c, 0, 74, 64
2, 14000, Note_off_c, 0, 74, 64
2, 14016, Note_on_c, 0, 72, 64
2, 14032, Note_off_c, 0, 72, 64
2, 14032, End_track
3, 0, Start_track
3, 0, Title_t, "Countermelody"
3, 0, Control_c, 1, 0, 0
3, 0, Program_c, 1, 26
3, 0, Time_signature, 4, 2, 96, 8
3, 0, Tempo, 571428
3, 0, Note_on_c, 1, 66, 64
3, 16, Note_off_c, 1, 66, 64
3, 24, Note_on_c, 1, 66, 64
3, 40, Note_off_c, 1, 66, 64
3, 72, Note_on_c, 1, 66, 64
3, 88, Note_off_c, 1, 66, 64
3, 120, Note_on_c, 1, 66, 64
3, 136, Note_off_c, 1, 66, 64
3, 144, Note_on_c, 1, 66, 64
3, 160, Note_off_c, 1, 66, 64
3, 192, Note_on_c, 1, 71, 64
3, 208, Note_off_c, 1, 71, 64
3, 288, Note_on_c, 1, 67, 64
3, 304, Note_off_c, 1, 67, 64
3, 384, Note_on_c, 1, 64, 64
3, 400, Note_off_c, 1, 64, 64
3, 456, Note_on_c, 1, 60, 64
3, 472, Note_off_c, 1, 60, 64
3, 528, Note_on_c, 1, 55, 64
3, 544, Note_off_c, 1, 55, 64
3, 600, Note_on_c, 1, 60, 64
3, 616, Note_off_c, 1, 60, 64
3, 648, Note_on_c, 1, 62, 64
3, 664, Note_off_c, 1, 62, 64
3, 696, Note_on_c, 1, 61, 64
3, 712, Note_off_c, 1, 61, 64
3, 720, Note_on_c, 1, 60, 64
3, 736, Note_off_c, 1, 60, 64
3, 768, Note_on_c, 1, 60, 64
3, 784, Note_off_c, 1, 60, 64
3, 800, Note_on_c, 1, 67, 64
3, 816, Note_off_c, 1, 67, 64
3, 832, Note_on_c, 1, 71, 64
3, 848, Note_off_c, 1, 71, 64
3, 864, Note_on_c, 1, 72, 64
3, 880, Note_off_c, 1, 72, 64
3, 912, Note_on_c, 1, 69, 64
3, 928, Note_off_c, 1, 69, 64
3, 936, Note_on_c, 1, 71, 64
3, 952, Note_off_c, 1, 71, 64
3, 984, Note_on_c, 1, 69, 64
3, 1000, Note_off_c, 1, 69, 64
3, 1032, Note_on_c, 1, 64, 64
3, 1048, Note_off_c, 1, 64, 64
3, 1056, Note_on_c, 1, 65, 64
3, 1072, Note_off_c, 1, 65, 64
3, 1080, Note_on_c, 1, 62, 64
3, 1096, Note_off_c, 1, 62, 64
3, 1152, Note_on_c, 1, 64, 64
3, 1168, Note_off_c, 1, 64, 64
3, 1224, Note_on_c, 1, 60, 64
3, 1240, Note_off_c, 1, 60, 64
3, 1296, Note_on_c, 1, 55, 64
3, 1312, Note_off_c, 1, 55, 64
3, 1368, Note_on_c, 1, 60, 64
3, 1384, Note_off_c, 1, 60, 64
3, 1416, Note_on_c, 1, 62, 64
3, 1432, Note_off_c, 1, 62, 64
3, 1464, Note_on_c, 1, 61, 64
3, 1480, Note_off_c, 1, 61, 64
3, 1488, Note_on_c, 1, 60, 64
3, 1504, Note_off_c, 1, 60, 64
3, 1536, Note_on_c, 1, 60, 64
3, 1552, Note_off_c, 1, 60, 64
3, 1568, Note_on_c, 1, 67, 64
3, 1584, Note_off_c, 1, 67, 64
3, 1600, Note_on_c, 1, 71, 64
3, 1616, Note_off_c, 1, 71, 64
3, 1632, Note_on_c, 1, 72, 64
3, 1648, Note_off_c, 1, 72, 64
3, 1680, Note_on_c, 1, 69, 64
3, 1696, Note_off_c, 1, 69, 64
3, 1704, Note_on_c, 1, 71, 64
3, 1720, Note_off_c, 1, 71, 64
3, 1752, Note_on_c, 1, 69, 64
3, 1768, Note_off_c, 1, 69, 64
3, 1800, Note_on_c, 1, 64, 64
3, 1816, Note_off_c, 1, 64, 64
3, 1824, Note_on_c, 1, 65, 64
3, 1840, Note_off_c, 1, 65, 64
3, 1848, Note_on_c, 1, 62, 64
3, 1864, Note_off_c, 1, 62, 64
3, 1968, Note_on_c, 1, 76, 64
3, 1984, Note_off_c, 1, 76, 64
3, 1992, Note_on_c, 1, 75, 64
3, 2008, Note_off_c, 1, 75, 64
3, 2016, Note_on_c, 1, 74, 64
3, 2032, Note_off_c, 1, 74, 64
3, 2040, Note_on_c, 1, 71, 64
3, 2056, Note_off_c, 1, 71, 64
3, 2088, Note_on_c, 1, 72, 64
3, 2104, Note_off_c, 1, 72, 64
3, 2136, Note_on_c, 1, 64, 64
3, 2152, Note_off_c, 1, 64, 64
3, 2160, Note_on_c, 1, 65, 64
3, 2176, Note_off_c, 1, 65, 64
3, 2184, Note_on_c, 1, 67, 64
3, 2200, Note_off_c, 1, 67, 64
3, 2232, Note_on_c, 1, 60, 64
3, 2248, Note_off_c, 1, 60, 64
3, 2256, Note_on_c, 1, 64, 64
3, 2272, Note_off_c, 1, 64, 64
3, 2280, Note_on_c, 1, 65, 64
3, 2296, Note_off_c, 1, 65, 64
3, 2352, Note_on_c, 1, 76, 64
3, 2368, Note_off_c, 1, 76, 64
3, 2376, Note_on_c, 1, 75, 64
3, 2392, Note_off_c, 1, 75, 64
3, 2400, Note_on_c, 1, 74, 64
3, 2416, Note_off_c, 1, 74, 64
3, 2424, Note_on_c, 1, 71, 64
3, 2440, Note_off_c, 1, 71, 64
3, 2472, Note_on_c, 1, 72, 64
3, 2488, Note_off_c, 1, 72, 64
3, 2520, Note_on_c, 1, 77, 64
3, 2536, Note_off_c, 1, 77, 64
3, 2568, Note_on_c, 1, 77, 64
3, 2584, Note_off_c, 1, 77, 64
3, 2592, Note_on_c, 1, 77, 64
3, 2608, Note_off_c, 1, 77, 64
3, 2736, Note_on_c, 1, 76, 64
3, 2752, Note_off_c, 1, 76, 64
3, 2760, Note_on_c, 1, 75, 64
3, 2776, Note_off_c, 1, 75, 64
3, 2784, Note_on_c, 1, 74, 64
3, 2800, Note_off_c, 1, 74, 64
3, 2808, Note_on_c, 1, 71, 64
3, 2824, Note_off_c, 1, 71, 64
3, 2856, Note_on_c, 1, 72, 64
3, 2872, Note_off_c, 1, 72, 64
3, 2904, Note_on_c, 1, 64, 64
3, 2920, Note_off_c, 1, 64, 64
3, 2928, Note_on_c, 1, 65, 64
3, 2944, Note_off_c, 1, 65, 64
3, 2952, Note_on_c, 1, 67, 64
3, 2968, Note_off_c, 1, 67, 64
3, 3000, Note_on_c, 1, 60, 64
3, 3016, Note_off_c, 1, 60, 64
3, 3024, Note_on_c, 1, 64, 64
3, 3040, Note_off_c, 1, 64, 64
3, 3048, Note_on_c, 1, 65, 64
3, 3064, Note_off_c, 1, 65, 64
3, 3120, Note_on_c, 1, 68, 64
3, 3136, Note_off_c, 1, 68, 64
3, 3192, Note_on_c, 1, 65, 64
3, 3208, Note_off_c, 1, 65, 64
3, 3264, Note_on_c, 1, 64, 64
3, 3280, Note_off_c, 1, 64, 64
3, 3504, Note_on_c, 1, 76, 64
3, 3520, Note_off_c, 1, 76, 64
3, 3528, Note_on_c, 1, 75, 64
3, 3544, Note_off_c, 1, 75, 64
3, 3552, Note_on_c, 1, 74, 64
3, 3568, Note_off_c, 1, 74, 64
3, 3576, Note_on_c, 1, 71, 64
3, 3592, Note_off_c, 1, 71, 64
3, 3624, Note_on_c, 1, 72, 64
3, 3640, Note_off_c, 1, 72, 64
3, 3672, Note_on_c, 1, 64, 64
3, 3688, Note_off_c, 1, 64, 64
3, 3696, Note_on_c, 1, 65, 64
3, 3712, Note_off_c, 1, 65, 64
3, 3720, Note_on_c, 1, 67, 64
3, 3736, Note_off_c, 1, 67, 64
3, 3768, Note_on_c, 1, 60, 64
3, 3784, Note_off_c, 1, 60, 64
3, 3792, Note_on_c, 1, 64, 64
3, 3808, Note_off_c, 1, 64, 64
3, 3816, Note_on_c, 1, 65, 64
3, 3832, Note_off_c, 1, 65, 64
3, 3888, Note_on_c, 1, 76, 64
3, 3904, Note_off_c, 1, 76, 64
3, 3912, Note_on_c, 1, 75, 64
3, 3928, Note_off_c, 1, 75, 64
3, 3936, Note_on_c, 1, 74, 64
3, 3952, Note_off_c, 1, 74, 64
3, 3960, Note_on_c, 1, 71, 64
3, 3976, Note_off_c, 1, 71, 64
3, 4008, Note_on_c, 1, 72, 64
3, 4024, Note_off_c, 1, 72, 64
3, 4056, Note_on_c, 1, 77, 64
3, 4072, Note_off_c, 1, 77, 64
3, 4104, Note_on_c, 1, 77, 64
3, 4120, Note_off_c, 1, 77, 64
3, 4128, Note_on_c, 1, 77, 64
3, 4144, Note_off_c, 1, 77, 64
3, 4272, Note_on_c, 1, 76, 64
3, 4288, Note_off_c, 1, 76, 64
3, 4296, Note_on_c, 1, 75, 64
3, 4312, Note_off_c, 1, 75, 64
3, 4320, Note_on_c, 1, 74, 64
3, 4336, Note_off_c, 1, 74, 64
3, 4344, Note_on_c, 1, 71, 64
3, 4360, Note_off_c, 1, 71, 64
3, 4392, Note_on_c, 1, 72, 64
3, 4408, Note_off_c, 1, 72, 64
3, 4440, Note_on_c, 1, 64, 64
3, 4456, Note_off_c, 1, 64, 64
3, 4464, Note_on_c, 1, 65, 64
3, 4480, Note_off_c, 1, 65, 64
3, 4488, Note_on_c, 1, 67, 64
3, 4504, Note_off_c, 1, 67, 64
3, 4536, Note_on_c, 1, 60, 64
3, 4552, Note_off_c, 1, 60, 64
3, 4560, Note_on_c, 1, 64, 64
3, 4576, Note_off_c, 1, 64, 64
3, 4584, Note_on_c, 1, 65, 64
3, 4600, Note_off_c, 1, 65, 64
3, 4656, Note_on_c, 1, 68, 64
3, 4672, Note_off_c, 1, 68, 64
3, 4728, Note_on_c, 1, 65, 64
3, 4744, Note_off_c, 1, 65, 64
3, 4800, Note_on_c, 1, 64, 64
3, 4816, Note_off_c, 1, 64, 64
3, 4992, Note_on_c, 1, 68, 64
3, 5008, Note_off_c, 1, 68, 64
3, 5016, Note_on_c, 1, 68, 64
3, 5032, Note_off_c, 1, 68, 64
3, 5064, Note_on_c, 1, 68, 64
3, 5080, Note_off_c, 1, 68, 64
3, 5112, Note_on_c, 1, 68, 64
3, 5128, Note_off_c, 1, 68, 64
3, 5136, Note_on_c, 1, 70, 64
3, 5152, Note_off_c, 1, 70, 64
3, 5184, Note_on_c, 1, 67, 64
3, 5200, Note_off_c, 1, 67, 64
3, 5208, Note_on_c, 1, 64, 64
3, 5224, Note_off_c, 1, 64, 64
3, 5256, Note_on_c, 1, 64, 64
3, 5272, Note_off_c, 1, 64, 64
3, 5280, Note_on_c, 1, 60, 64
3, 5296, Note_off_c, 1, 60, 64
3, 5376, Note_on_c, 1, 68, 64
3, 5392, Note_off_c, 1, 68, 64
3, 5400, Note_on_c, 1, 68, 64
3, 5416, Note_off_c, 1, 68, 64
3, 5448, Note_on_c, 1, 68, 64
3, 5464, Note_off_c, 1, 68, 64
3, 5496, Note_on_c, 1, 68, 64
3, 5512, Note_off_c, 1, 68, 64
3, 5520, Note_on_c, 1, 70, 64
3, 5536, Note_off_c, 1, 70, 64
3, 5544, Note_on_c, 1, 67, 64
3, 5560, Note_off_c, 1, 67, 64
3, 5760, Note_on_c, 1, 68, 64
3, 5776, Note_off_c, 1, 68, 64
3, 5784, Note_on_c, 1, 68, 64
3, 5800, Note_off_c, 1, 68, 64
3, 5832, Note_on_c, 1, 68, 64
3, 5848, Note_off_c, 1, 68, 64
3, 5880, Note_on_c, 1, 68, 64
3, 5896, Note_off_c, 1, 68, 64
3, 5904, Note_on_c, 1, 70, 64
3, 5920, Note_off_c, 1, 70, 64
3, 5952, Note_on_c, 1, 67, 64
3, 5968, Note_off_c, 1, 67, 64
3, 5976, Note_on_c, 1, 64, 64
3, 5992, Note_off_c, 1, 64, 64
3, 6024, Note_on_c, 1, 64, 64
3, 6040, Note_off_c, 1, 64, 64
3, 6048, Note_on_c, 1, 60, 64
3, 6064, Note_off_c, 1, 60, 64
3, 6144, Note_on_c, 1, 66, 64
3, 6160, Note_off_c, 1, 66, 64
3, 6168, Note_on_c, 1, 66, 64
3, 6184, Note_off_c, 1, 66, 64
3, 6216, Note_on_c, 1, 66, 64
3, 6232, Note_off_c, 1, 66, 64
3, 6264, Note_on_c, 1, 66, 64
3, 6280, Note_off_c, 1, 66, 64
3, 6288, Note_on_c, 1, 66, 64
3, 6304, Note_off_c, 1, 66, 64
3, 6336, Note_on_c, 1, 71, 64
3, 6352, Note_off_c, 1, 71, 64
3, 6432, Note_on_c, 1, 67, 64
3, 6448, Note_off_c, 1, 67, 64
3, 6528, Note_on_c, 1, 64, 64
3, 6544, Note_off_c, 1, 64, 64
3, 6600, Note_on_c, 1, 60, 64
3, 6616, Note_off_c, 1, 60, 64
3, 6672, Note_on_c, 1, 55, 64
3, 6688, Note_off_c, 1, 55, 64
3, 6744, Note_on_c, 1, 60, 64
3, 6760, Note_off_c, 1, 60, 64
3, 6792, Note_on_c, 1, 62, 64
3, 6808, Note_off_c, 1, 62, 64
3, 6840, Note_on_c, 1, 61, 64
3, 6856, Note_off_c, 1, 61, 64
3, 6864, Note_on_c, 1, 60, 64
3, 6880, Note_off_c, 1, 60, 64
3, 6912, Note_on_c, 1, 60, 64
3, 6928, Note_off_c, 1, 60, 64
3, 6944, Note_on_c, 1, 67, 64
3, 6960, Note_off_c, 1, 67, 64
3, 6976, Note_on_c, 1, 71, 64
3, 6992, Note_off_c, 1, 71, 64
3, 7008, Note_on_c, 1, 72, 64
3, 7024, Note_off_c, 1, 72, 64
3, 7056, Note_on_c, 1, 69, 64
3, 7072, Note_off_c, 1, 69, 64
3, 7080, Note_on_c, 1, 71, 64
3, 7096, Note_off_c, 1, 71, 64
3, 7128, Note_on_c, 1, 69, 64
3, 7144, Note_off_c, 1, 69, 64
3, 7176, Note_on_c, 1, 64, 64
3, 7192, Note_off_c, 1, 64, 64
3, 7200, Note_on_c, 1, 65, 64
3, 7216, Note_off_c, 1, 65, 64
3, 7224, Note_on_c, 1, 62, 64
3, 7240, Note_off_c, 1, 62, 64
3, 7296, Note_on_c, 1, 64, 64
3, 7312, Note_off_c, 1, 64, 64
3, 7368, Note_on_c, 1, 60, 64
3, 7384, Note_off_c, 1, 60, 64
3, 7440, Note_on_c, 1, 55, 64
3, 7456, Note_off_c, 1, 55, 64
3, 7512, Note_on_c, 1, 60, 64
3, 7528, Note_off_c, 1, 60, 64
3, 7560, Note_on_c, 1, 62, 64
3, 7576, Note_off_c, 1, 62, 64
3, 7608, Note_on_c, 1, 61, 64
3, 7624, Note_off_c, 1, 61, 64
3, 7632, Note_on_c, 1, 60, 64
3, 7648, Note_off_c, 1, 60, 64
3, 7680, Note_on_c, 1, 60, 64
3, 7696, Note_off_c, 1, 60, 64
3, 7712, Note_on_c, 1, 67, 64
3, 7728, Note_off_c, 1, 67, 64
3, 7744, Note_on_c, 1, 71, 64
3, 7760, Note_off_c, 1, 71, 64
3, 7776, Note_on_c, 1, 72, 64
3, 7792, Note_off_c, 1, 72, 64
3, 7824, Note_on_c, 1, 69, 64
3, 7840, Note_off_c, 1, 69, 64
3, 7848, Note_on_c, 1, 71, 64
3, 7864, Note_off_c, 1, 71, 64
3, 7896, Note_on_c, 1, 69, 64
3, 7912, Note_off_c, 1, 69, 64
3, 7944, Note_on_c, 1, 64, 64
3, 7960, Note_off_c, 1, 64, 64
3, 7968, Note_on_c, 1, 65, 64
3, 7984, Note_off_c, 1, 65, 64
3, 7992, Note_on_c, 1, 62, 64
3, 8008, Note_off_c, 1, 62, 64
3, 8064, Note_on_c, 1, 72, 64
3, 8080, Note_off_c, 1, 72, 64
3, 8088, Note_on_c, 1, 69, 64
3, 8104, Note_off_c, 1, 69, 64
3, 8136, Note_on_c, 1, 64, 64
3, 8152, Note_off_c, 1, 64, 64
3, 8208, Note_on_c, 1, 64, 64
3, 8224, Note_off_c, 1, 64, 64
3, 8256, Note_on_c, 1, 65, 64
3, 8272, Note_off_c, 1, 65, 64
3, 8280, Note_on_c, 1, 72, 64
3, 8296, Note_off_c, 1, 72, 64
3, 8328, Note_on_c, 1, 72, 64
3, 8344, Note_off_c, 1, 72, 64
3, 8352, Note_on_c, 1, 65, 64
3, 8368, Note_off_c, 1, 65, 64
3, 8448, Note_on_c, 1, 67, 64
3, 8464, Note_off_c, 1, 67, 64
3, 8480, Note_on_c, 1, 77, 64
3, 8496, Note_off_c, 1, 77, 64
3, 8512, Note_on_c, 1, 77, 64
3, 8528, Note_off_c, 1, 77, 64
3, 8544, Note_on_c, 1, 77, 64
3, 8560, Note_off_c, 1, 77, 64
3, 8576, Note_on_c, 1, 76, 64
3, 8592, Note_off_c, 1, 76, 64
3, 8608, Note_on_c, 1, 74, 64
3, 8624, Note_off_c, 1, 74, 64
3, 8640, Note_on_c, 1, 72, 64
3, 8656, Note_off_c, 1, 72, 64
3, 8664, Note_on_c, 1, 69, 64
3, 8680, Note_off_c, 1, 69, 64
3, 8712, Note_on_c, 1, 65, 64
3, 8728, Note_off_c, 1, 65, 64
3, 8736, Note_on_c, 1, 64, 64
3, 8752, Note_off_c, 1, 64, 64
3, 8832, Note_on_c, 1, 72, 64
3, 8848, Note_off_c, 1, 72, 64
3, 8856, Note_on_c, 1, 69, 64
3, 8872, Note_off_c, 1, 69, 64
3, 8904, Note_on_c, 1, 64, 64
3, 8920, Note_off_c, 1, 64, 64
3, 8976, Note_on_c, 1, 64, 64
3, 8992, Note_off_c, 1, 64, 64
3, 9024, Note_on_c, 1, 65, 64
3, 9040, Note_off_c, 1, 65, 64
3, 9048, Note_on_c, 1, 72, 64
3, 9064, Note_off_c, 1, 72, 64
3, 9096, Note_on_c, 1, 72, 64
3, 9112, Note_off_c, 1, 72, 64
3, 9120, Note_on_c, 1, 65, 64
3, 9136, Note_off_c, 1, 65, 64
3, 9216, Note_on_c, 1, 67, 64
3, 9232, Note_off_c, 1, 67, 64
3, 9240, Note_on_c, 1, 74, 64
3, 9256, Note_off_c, 1, 74, 64
3, 9288, Note_on_c, 1, 74, 64
3, 9304, Note_off_c, 1, 74, 64
3, 9312, Note_on_c, 1, 74, 64
3, 9328, Note_off_c, 1, 74, 64
3, 9344, Note_on_c, 1, 72, 64
3, 9360, Note_off_c, 1, 72, 64
3, 9376, Note_on_c, 1, 71, 64
3, 9392, Note_off_c, 1, 71, 64
3, 9408, Note_on_c, 1, 67, 64
3, 9424, Note_off_c, 1, 67, 64
3, 9432, Note_on_c, 1, 64, 64
3, 9448, Note_off_c, 1, 64, 64
3, 9480, Note_on_c, 1, 64, 64
3, 9496, Note_off_c, 1, 64, 64
3, 9504, Note_on_c, 1, 60, 64
3, 9520, Note_off_c, 1, 60, 64
3, 9600, Note_on_c, 1, 72, 64
3, 9616, Note_off_c, 1, 72, 64
3, 9624, Note_on_c, 1, 69, 64
3, 9640, Note_off_c, 1, 69, 64
3, 9672, Note_on_c, 1, 64, 64
3, 9688, Note_off_c, 1, 64, 64
3, 9744, Note_on_c, 1, 64, 64
3, 9760, Note_off_c, 1, 64, 64
3, 9792, Note_on_c, 1, 65, 64
3, 9808, Note_off_c, 1, 65, 64
3, 9816, Note_on_c, 1, 72, 64
3, 9832, Note_off_c, 1, 72, 64
3, 9864, Note_on_c, 1, 72, 64
3, 9880, Note_off_c, 1, 72, 64
3, 9888, Note_on_c, 1, 65, 64
3, 9904, Note_off_c, 1, 65, 64
3, 9984, Note_on_c, 1, 67, 64
3, 10000, Note_off_c, 1, 67, 64
3, 10016, Note_on_c, 1, 77, 64
3, 10032, Note_off_c, 1, 77, 64
3, 10048, Note_on_c, 1, 77, 64
3, 10064, Note_off_c, 1, 77, 64
3, 10080, Note_on_c, 1, 77, 64
3, 10096, Note_off_c, 1, 77, 64
3, 10112, Note_on_c, 1, 76, 64
3, 10128, Note_off_c, 1, 76, 64
3, 10144, Note_on_c, 1, 74, 64
3, 10160, Note_off_c, 1, 74, 64
3, 10176, Note_on_c, 1, 72, 64
3, 10192, Note_off_c, 1, 72, 64
3, 10200, Note_on_c, 1, 69, 64
3, 10216, Note_off_c, 1, 69, 64
3, 10248, Note_on_c, 1, 65, 64
3, 10264, Note_off_c, 1, 65, 64
3, 10272, Note_on_c, 1, 64, 64
3, 10288, Note_off_c, 1, 64, 64
3, 10368, Note_on_c, 1, 72, 64
3, 10384, Note_off_c, 1, 72, 64
3, 10392, Note_on_c, 1, 69, 64
3, 10408, Note_off_c, 1, 69, 64
3, 10440, Note_on_c, 1, 64, 64
3, 10456, Note_off_c, 1, 64, 64
3, 10512, Note_on_c, 1, 64, 64
3, 10528, Note_off_c, 1, 64, 64
3, 10560, Note_on_c, 1, 65, 64
3, 10576, Note_off_c, 1, 65, 64
3, 10584, Note_on_c, 1, 72, 64
3, 10600, Note_off_c, 1, 72, 64
3, 10632, Note_on_c, 1, 72, 64
3, 10648, Note_off_c, 1, 72, 64
3, 10656, Note_on_c, 1, 65, 64
3, 10672, Note_off_c, 1, 65, 64
3, 10752, Note_on_c, 1, 67, 64
3, 10768, Note_off_c, 1, 67, 64
3, 10776, Note_on_c, 1, 74, 64
3, 10792, Note_off_c, 1, 74, 64
3, 10824, Note_on_c, 1, 74, 64
3, 10840, Note_off_c, 1, 74, 64
3, 10848, Note_on_c, 1, 74, 64
3, 10864, Note_off_c, 1, 74, 64
3, 10880, Note_on_c, 1, 72, 64
3, 10896, Note_off_c, 1, 72, 64
3, 10912, Note_on_c, 1, 71, 64
3, 10928, Note_off_c, 1, 71, 64
3, 10944, Note_on_c, 1, 67, 64
3, 10960, Note_off_c, 1, 67, 64
3, 10968, Note_on_c, 1, 64, 64
3, 10984, Note_off_c, 1, 64, 64
3, 11016, Note_on_c, 1, 64, 64
3, 11032, Note_off_c, 1, 64, 64
3, 11040, Note_on_c, 1, 60, 64
3, 11056, Note_off_c, 1, 60, 64
3, 11136, Note_on_c, 1, 68, 64
3, 11152, Note_off_c, 1, 68, 64
3, 11160, Note_on_c, 1, 68, 64
3, 11176, Note_off_c, 1, 68, 64
3, 11208, Note_on_c, 1, 68, 64
3, 11224, Note_off_c, 1, 68, 64
3, 11256, Note_on_c, 1, 68, 64
3, 11272, Note_off_c, 1, 68, 64
3, 11280, Note_on_c, 1, 70, 64
3, 11296, Note_off_c, 1, 70, 64
3, 11328, Note_on_c, 1, 67, 64
3, 11344, Note_off_c, 1, 67, 64
3, 11352, Note_on_c, 1, 64, 64
3, 11368, Note_off_c, 1, 64, 64
3, 11400, Note_on_c, 1, 64, 64
3, 11416, Note_off_c, 1, 64, 64
3, 11424, Note_on_c, 1, 60, 64
3, 11440, Note_off_c, 1, 60, 64
3, 11520, Note_on_c, 1, 68, 64
3, 11536, Note_off_c, 1, 68, 64
3, 11544, Note_on_c, 1, 68, 64
3, 11560, Note_off_c, 1, 68, 64
3, 11592, Note_on_c, 1, 68, 64
3, 11608, Note_off_c, 1, 68, 64
3, 11640, Note_on_c, 1, 68, 64
3, 11656, Note_off_c, 1, 68, 64
3, 11664, Note_on_c, 1, 70, 64
3, 11680, Note_off_c, 1, 70, 64
3, 11688, Note_on_c, 1, 67, 64
3, 11704, Note_off_c, 1, 67, 64
3, 11904, Note_on_c, 1, 68, 64
3, 11920, Note_off_c, 1, 68, 64
3, 11928, Note_on_c, 1, 68, 64
3, 11944, Note_off_c, 1, 68, 64
3, 11976, Note_on_c, 1, 68, 64
3, 11992, Note_off_c, 1, 68, 64
3, 12024, Note_on_c, 1, 68, 64
3, 12040, Note_off_c, 1, 68, 64
3, 12048, Note_on_c, 1, 70, 64
3, 12064, Note_off_c, 1, 70, 64
3, 12096, Note_on_c, 1, 67, 64
3, 12112, Note_off_c, 1, 67, 64
3, 12120, Note_on_c, 1, 64, 64
3, 12136, Note_off_c, 1, 64, 64
3, 12168, Note_on_c, 1, 64, 64
3, 12184, Note_off_c, 1, 64, 64
3, 12192, Note_on_c, 1, 60, 64
3, 12208, Note_off_c, 1, 60, 64
3, 12288, Note_on_c, 1, 66, 64
3, 12304, Note_off_c, 1, 66, 64
3, 12312, Note_on_c, 1, 66, 64
3, 12328, Note_off_c, 1, 66, 64
3, 12360, Note_on_c, 1, 66, 64
3, 12376, Note_off_c, 1, 66, 64
3, 12408, Note_on_c, 1, 66, 64
3, 12424, Note_off_c, 1, 66, 64
3, 12432, Note_on_c, 1, 66, 64
3, 12448, Note_off_c, 1, 66, 64
3, 12480, Note_on_c, 1, 71, 64
3, 12496, Note_off_c, 1, 71, 64
3, 12576, Note_on_c, 1, 67, 64
3, 12592, Note_off_c, 1, 67, 64
3, 12672, Note_on_c, 1, 72, 64
3, 12688, Note_off_c, 1, 72, 64
3, 12696, Note_on_c, 1, 69, 64
3, 12712, Note_off_c, 1, 69, 64
3, 12744, Note_on_c, 1, 64, 64
3, 12760, Note_off_c, 1, 64, 64
3, 12816, Note_on_c, 1, 64, 64
3, 12832, Note_off_c, 1, 64, 64
3, 12864, Note_on_c, 1, 65, 64
3, 12880, Note_off_c, 1, 65, 64
3, 12888, Note_on_c, 1, 72, 64
3, 12904, Note_off_c, 1, 72, 64
3, 12936, Note_on_c, 1, 72, 64
3, 12952, Note_off_c, 1, 72, 64
3, 12960, Note_on_c, 1, 65, 64
3, 12976, Note_off_c, 1, 65, 64
3, 13056, Note_on_c, 1, 67, 64
3, 13072, Note_off_c, 1, 67, 64
3, 13088, Note_on_c, 1, 77, 64
3, 13104, Note_off_c, 1, 77, 64
3, 13120, Note_on_c, 1, 77, 64
3, 13136, Note_off_c, 1, 77, 64
3, 13152, Note_on_c, 1, 77, 64
3, 13168, Note_off_c, 1, 77, 64
3, 13184, Note_on_c, 1, 76, 64
3, 13200, Note_off_c, 1, 76, 64
3, 13216, Note_on_c, 1, 74, 64
3, 13232, Note_off_c, 1, 74, 64
3, 13248, Note_on_c, 1, 72, 64
3, 13264, Note_off_c, 1, 72, 64
3, 13272, Note_on_c, 1, 69, 64
3, 13288, Note_off_c, 1, 69, 64
3, 13320, Note_on_c, 1, 65, 64
3, 13336, Note_off_c, 1, 65, 64
3, 13344, Note_on_c, 1, 64, 64
3, 13360, Note_off_c, 1, 64, 64
3, 13440, Note_on_c, 1, 72, 64
3, 13456, Note_off_c, 1, 72, 64
3, 13464, Note_on_c, 1, 69, 64
3, 13480, Note_off_c, 1, 69, 64
3, 13512, Note_on_c, 1, 64, 64
3, 13528, Note_off_c, 1, 64, 64
3, 13584, Note_on_c, 1, 64, 64
3, 13600, Note_off_c, 1, 64, 64
3, 13632, Note_on_c, 1, 65, 64
3, 13648, Note_off_c, 1, 65, 64
3, 13656, Note_on_c, 1, 72, 64
3, 13672, Note_off_c, 1, 72, 64
3, 13704, Note_on_c, 1, 72, 64
3, 13720, Note_off_c, 1, 72, 64
3, 13728, Note_on_c, 1, 65, 64
3, 13744, Note_off_c, 1, 65, 64
3, 13824, Note_on_c, 1, 67, 64
3, 13840, Note_off_c, 1, 67, 64
3, 13848, Note_on_c, 1, 74, 64
3, 13864, Note_off_c, 1, 74, 64
3, 13896, Note_on_c, 1, 74, 64
3, 13912, Note_off_c, 1, 74, 64
3, 13920, Note_on_c, 1, 74, 64
3, 13936, Note_off_c, 1, 74, 64
3, 13952, Note_on_c, 1, 72, 64
3, 13968, Note_off_c, 1, 72, 64
3, 13984, Note_on_c, 1, 71, 64
3, 14000, Note_off_c, 1, 71, 64
3, 14016, Note_on_c, 1, 67, 64
3, 14032, Note_off_c, 1, 67, 64
3, 14040, Note_on_c, 1, 64, 64
3, 14056, Note_off_c, 1, 64, 64
3, 14088, Note_on_c, 1, 64, 64
3, 14104, Note_off_c, 1, 64, 64
3, 14112, Note_on_c, 1, 60, 64
3, 14128, Note_off_c, 1, 60, 64
3, 14128, End_track
4, 0, Start_track
4, 0, Title_t, "Bass Line"
4, 0, Control_c, 2, 0, 0
4, 0, Program_c, 2, 26
4, 0, Time_signature, 4, 2, 96, 8
4, 0, Tempo, 571428
4, 0, Note_on_c, 2, 50, 64
4, 16, Note_off_c, 2, 50, 64
4, 24, Note_on_c, 2, 50, 64
4, 40, Note_off_c, 2, 50, 64
4, 72, Note_on_c, 2, 50, 64
4, 88, Note_off_c, 2, 50, 64
4, 120, Note_on_c, 2, 50, 64
4, 136, Note_off_c, 2, 50, 64
4, 144, Note_on_c, 2, 50, 64
4, 160, Note_off_c, 2, 50, 64
4, 192, Note_on_c, 2, 67, 64
4, 208, Note_off_c, 2, 67, 64
4, 288, Note_on_c, 2, 55, 64
4, 304, Note_off_c, 2, 55, 64
4, 384, Note_on_c, 2, 55, 64
4, 400, Note_off_c, 2, 55, 64
4, 456, Note_on_c, 2, 52, 64
4, 472, Note_off_c, 2, 52, 64
4, 528, Note_on_c, 2, 48, 64
4, 544, Note_off_c, 2, 48, 64
4, 600, Note_on_c, 2, 53, 64
4, 616, Note_off_c, 2, 53, 64
4, 648, Note_on_c, 2, 55, 64
4, 664, Note_off_c, 2, 55, 64
4, 696, Note_on_c, 2, 54, 64
4, 712, Note_off_c, 2, 54, 64
4, 720, Note_on_c, 2, 53, 64
4, 736, Note_off_c, 2, 53, 64
4, 768, Note_on_c, 2, 52, 64
4, 784, Note_off_c, 2, 52, 64
4, 800, Note_on_c, 2, 60, 64
4, 816, Note_off_c, 2, 60, 64
4, 832, Note_on_c, 2, 64, 64
4, 848, Note_off_c, 2, 64, 64
4, 864, Note_on_c, 2, 65, 64
4, 880, Note_off_c, 2, 65, 64
4, 912, Note_on_c, 2, 62, 64
4, 928, Note_off_c, 2, 62, 64
4, 936, Note_on_c, 2, 64, 64
4, 952, Note_off_c, 2, 64, 64
4, 984, Note_on_c, 2, 60, 64
4, 1000, Note_off_c, 2, 60, 64
4, 1032, Note_on_c, 2, 57, 64
4, 1048, Note_off_c, 2, 57, 64
4, 1056, Note_on_c, 2, 59, 64
4, 1072, Note_off_c, 2, 59, 64
4, 1080, Note_on_c, 2, 55, 64
4, 1096, Note_off_c, 2, 55, 64
4, 1152, Note_on_c, 2, 55, 64
4, 1168, Note_off_c, 2, 55, 64
4, 1224, Note_on_c, 2, 52, 64
4, 1240, Note_off_c, 2, 52, 64
4, 1296, Note_on_c, 2, 48, 64
4, 1312, Note_off_c, 2, 48, 64
4, 1368, Note_on_c, 2, 53, 64
4, 1384, Note_off_c, 2, 53, 64
4, 1416, Note_on_c, 2, 55, 64
4, 1432, Note_off_c, 2, 55, 64
4, 1464, Note_on_c, 2, 54, 64
4, 1480, Note_off_c, 2, 54, 64
4, 1488, Note_on_c, 2, 53, 64
4, 1504, Note_off_c, 2, 53, 64
4, 1536, Note_on_c, 2, 52, 64
4, 1552, Note_off_c, 2, 52, 64
4, 1568, Note_on_c, 2, 60, 64
4, 1584, Note_off_c, 2, 60, 64
4, 1600, Note_on_c, 2, 64, 64
4, 1616, Note_off_c, 2, 64, 64
4, 1632, Note_on_c, 2, 65, 64
4, 1648, Note_off_c, 2, 65, 64
4, 1680, Note_on_c, 2, 62, 64
4, 1696, Note_off_c, 2, 62, 64
4, 1704, Note_on_c, 2, 64, 64
4, 1720, Note_off_c, 2, 64, 64
4, 1752, Note_on_c, 2, 60, 64
4, 1768, Note_off_c, 2, 60, 64
4, 1800, Note_on_c, 2, 57, 64
4, 1816, Note_off_c, 2, 57, 64
4, 1824, Note_on_c, 2, 59, 64
4, 1840, Note_off_c, 2, 59, 64
4, 1848, Note_on_c, 2, 55, 64
4, 1864, Note_off_c, 2, 55, 64
4, 1920, Note_on_c, 2, 48, 64
4, 1936, Note_off_c, 2, 48, 64
4, 1992, Note_on_c, 2, 55, 64
4, 2008, Note_off_c, 2, 55, 64
4, 2064, Note_on_c, 2, 60, 64
4, 2080, Note_off_c, 2, 60, 64
4, 2112, Note_on_c, 2, 53, 64
4, 2128, Note_off_c, 2, 53, 64
4, 2184, Note_on_c, 2, 60, 64
4, 2200, Note_off_c, 2, 60, 64
4, 2208, Note_on_c, 2, 60, 64
4, 2224, Note_off_c, 2, 60, 64
4, 2256, Note_on_c, 2, 53, 64
4, 2272, Note_off_c, 2, 53, 64
4, 2304, Note_on_c, 2, 48, 64
4, 2320, Note_off_c, 2, 48, 64
4, 2376, Note_on_c, 2, 52, 64
4, 2392, Note_off_c, 2, 52, 64
4, 2448, Note_on_c, 2, 55, 64
4, 2464, Note_off_c, 2, 55, 64
4, 2472, Note_on_c, 2, 60, 64
4, 2488, Note_off_c, 2, 60, 64
4, 2520, Note_on_c, 2, 79, 64
4, 2536, Note_off_c, 2, 79, 64
4, 2568, Note_on_c, 2, 79, 64
4, 2584, Note_off_c, 2, 79, 64
4, 2592, Note_on_c, 2, 79, 64
4, 2608, Note_off_c, 2, 79, 64
4, 2640, Note_on_c, 2, 55, 64
4, 2656, Note_off_c, 2, 55, 64
4, 2688, Note_on_c, 2, 48, 64
4, 2704, Note_off_c, 2, 48, 64
4, 2760, Note_on_c, 2, 55, 64
4, 2776, Note_off_c, 2, 55, 64
4, 2832, Note_on_c, 2, 60, 64
4, 2848, Note_off_c, 2, 60, 64
4, 2880, Note_on_c, 2, 53, 64
4, 2896, Note_off_c, 2, 53, 64
4, 2952, Note_on_c, 2, 60, 64
4, 2968, Note_off_c, 2, 60, 64
4, 2976, Note_on_c, 2, 60, 64
4, 2992, Note_off_c, 2, 60, 64
4, 3024, Note_on_c, 2, 53, 64
4, 3040, Note_off_c, 2, 53, 64
4, 3072, Note_on_c, 2, 48, 64
4, 3088, Note_off_c, 2, 48, 64
4, 3120, Note_on_c, 2, 56, 64
4, 3136, Note_off_c, 2, 56, 64
4, 3192, Note_on_c, 2, 58, 64
4, 3208, Note_off_c, 2, 58, 64
4, 3264, Note_on_c, 2, 60, 64
4, 3280, Note_off_c, 2, 60, 64
4, 3336, Note_on_c, 2, 55, 64
4, 3352, Note_off_c, 2, 55, 64
4, 3360, Note_on_c, 2, 55, 64
4, 3376, Note_off_c, 2, 55, 64
4, 3408, Note_on_c, 2, 48, 64
4, 3424, Note_off_c, 2, 48, 64
4, 3456, Note_on_c, 2, 48, 64
4, 3472, Note_off_c, 2, 48, 64
4, 3528, Note_on_c, 2, 55, 64
4, 3544, Note_off_c, 2, 55, 64
4, 3600, Note_on_c, 2, 60, 64
4, 3616, Note_off_c, 2, 60, 64
4, 3648, Note_on_c, 2, 53, 64
4, 3664, Note_off_c, 2, 53, 64
4, 3720, Note_on_c, 2, 60, 64
4, 3736, Note_off_c, 2, 60, 64
4, 3744, Note_on_c, 2, 60, 64
4, 3760, Note_off_c, 2, 60, 64
4, 3792, Note_on_c, 2, 53, 64
4, 3808, Note_off_c, 2, 53, 64
4, 3840, Note_on_c, 2, 48, 64
4, 3856, Note_off_c, 2, 48, 64
4, 3912, Note_on_c, 2, 52, 64
4, 3928, Note_off_c, 2, 52, 64
4, 3984, Note_on_c, 2, 55, 64
4, 4000, Note_off_c, 2, 55, 64
4, 4008, Note_on_c, 2, 60, 64
4, 4024, Note_off_c, 2, 60, 64
4, 4056, Note_on_c, 2, 79, 64
4, 4072, Note_off_c, 2, 79, 64
4, 4104, Note_on_c, 2, 79, 64
4, 4120, Note_off_c, 2, 79, 64
4, 4128, Note_on_c, 2, 79, 64
4, 4144, Note_off_c, 2, 79, 64
4, 4176, Note_on_c, 2, 55, 64
4, 4192, Note_off_c, 2, 55, 64
4, 4224, Note_on_c, 2, 48, 64
4, 4240, Note_off_c, 2, 48, 64
4, 4296, Note_on_c, 2, 55, 64
4, 4312, Note_off_c, 2, 55, 64
4, 4368, Note_on_c, 2, 60, 64
4, 4384, Note_off_c, 2, 60, 64
4, 4416, Note_on_c, 2, 53, 64
4, 4432, Note_off_c, 2, 53, 64
4, 4488, Note_on_c, 2, 60, 64
4, 4504, Note_off_c, 2, 60, 64
4, 4512, Note_on_c, 2, 60, 64
4, 4528, Note_off_c, 2, 60, 64
4, 4560, Note_on_c, 2, 53, 64
4, 4576, Note_off_c, 2, 53, 64
4, 4608, Note_on_c, 2, 48, 64
4, 4624, Note_off_c, 2, 48, 64
4, 4656, Note_on_c, 2, 56, 64
4, 4672, Note_off_c, 2, 56, 64
4, 4728, Note_on_c, 2, 58, 64
4, 4744, Note_off_c, 2, 58, 64
4, 4800, Note_on_c, 2, 60, 64
4, 4816, Note_off_c, 2, 60, 64
4, 4872, Note_on_c, 2, 55, 64
4, 4888, Note_off_c, 2, 55, 64
4, 4896, Note_on_c, 2, 55, 64
4, 4912, Note_off_c, 2, 55, 64
4, 4944, Note_on_c, 2, 48, 64
4, 4960, Note_off_c, 2, 48, 64
4, 4992, Note_on_c, 2, 44, 64
4, 5008, Note_off_c, 2, 44, 64
4, 5064, Note_on_c, 2, 51, 64
4, 5080, Note_off_c, 2, 51, 64
4, 5136, Note_on_c, 2, 56, 64
4, 5152, Note_off_c, 2, 56, 64
4, 5184, Note_on_c, 2, 55, 64
4, 5200, Note_off_c, 2, 55, 64
4, 5256, Note_on_c, 2, 48, 64
4, 5272, Note_off_c, 2, 48, 64
4, 5328, Note_on_c, 2, 43, 64
4, 5344, Note_off_c, 2, 43, 64
4, 5376, Note_on_c, 2, 44, 64
4, 5392, Note_off_c, 2, 44, 64
4, 5448, Note_on_c, 2, 51, 64
4, 5464, Note_off_c, 2, 51, 64
4, 5520, Note_on_c, 2, 56, 64
4, 5536, Note_off_c, 2, 56, 64
4, 5568, Note_on_c, 2, 55, 64
4, 5584, Note_off_c, 2, 55, 64
4, 5640, Note_on_c, 2, 48, 64
4, 5656, Note_off_c, 2, 48, 64
4, 5712, Note_on_c, 2, 43, 64
4, 5728, Note_off_c, 2, 43, 64
4, 5760, Note_on_c, 2, 44, 64
4, 5776, Note_off_c, 2, 44, 64
4, 5832, Note_on_c, 2, 51, 64
4, 5848, Note_off_c, 2, 51, 64
4, 5904, Note_on_c, 2, 56, 64
4, 5920, Note_off_c, 2, 56, 64
4, 5952, Note_on_c, 2, 55, 64
4, 5968, Note_off_c, 2, 55, 64
4, 6024, Note_on_c, 2, 48, 64
4, 6040, Note_off_c, 2, 48, 64
4, 6096, Note_on_c, 2, 43, 64
4, 6112, Note_off_c, 2, 43, 64
4, 6144, Note_on_c, 2, 50, 64
4, 6160, Note_off_c, 2, 50, 64
4, 6168, Note_on_c, 2, 50, 64
4, 6184, Note_off_c, 2, 50, 64
4, 6216, Note_on_c, 2, 50, 64
4, 6232, Note_off_c, 2, 50, 64
4, 6264, Note_on_c, 2, 50, 64
4, 6280, Note_off_c, 2, 50, 64
4, 6288, Note_on_c, 2, 50, 64
4, 6304, Note_off_c, 2, 50, 64
4, 6336, Note_on_c, 2, 67, 64
4, 6352, Note_off_c, 2, 67, 64
4, 6432, Note_on_c, 2, 55, 64
4, 6448, Note_off_c, 2, 55, 64
4, 6528, Note_on_c, 2, 55, 64
4, 6544, Note_off_c, 2, 55, 64
4, 6600, Note_on_c, 2, 52, 64
4, 6616, Note_off_c, 2, 52, 64
4, 6672, Note_on_c, 2, 48, 64
4, 6688, Note_off_c, 2, 48, 64
4, 6744, Note_on_c, 2, 53, 64
4, 6760, Note_off_c, 2, 53, 64
4, 6792, Note_on_c, 2, 55, 64
4, 6808, Note_off_c, 2, 55, 64
4, 6840, Note_on_c, 2, 54, 64
4, 6856, Note_off_c, 2, 54, 64
4, 6864, Note_on_c, 2, 53, 64
4, 6880, Note_off_c, 2, 53, 64
4, 6912, Note_on_c, 2, 52, 64
4, 6928, Note_off_c, 2, 52, 64
4, 6944, Note_on_c, 2, 60, 64
4, 6960, Note_off_c, 2, 60, 64
4, 6976, Note_on_c, 2, 64, 64
4, 6992, Note_off_c, 2, 64, 64
4, 7008, Note_on_c, 2, 65, 64
4, 7024, Note_off_c, 2, 65, 64
4, 7056, Note_on_c, 2, 62, 64
4, 7072, Note_off_c, 2, 62, 64
4, 7080, Note_on_c, 2, 64, 64
4, 7096, Note_off_c, 2, 64, 64
4, 7128, Note_on_c, 2, 60, 64
4, 7144, Note_off_c, 2, 60, 64
4, 7176, Note_on_c, 2, 57, 64
4, 7192, Note_off_c, 2, 57, 64
4, 7200, Note_on_c, 2, 59, 64
4, 7216, Note_off_c, 2, 59, 64
4, 7224, Note_on_c, 2, 55, 64
4, 7240, Note_off_c, 2, 55, 64
4, 7296, Note_on_c, 2, 55, 64
4, 7312, Note_off_c, 2, 55, 64
4, 7368, Note_on_c, 2, 52, 64
4, 7384, Note_off_c, 2, 52, 64
4, 7440, Note_on_c, 2, 48, 64
4, 7456, Note_off_c, 2, 48, 64
4, 7512, Note_on_c, 2, 53, 64
4, 7528, Note_off_c, 2, 53, 64
4, 7560, Note_on_c, 2, 55, 64
4, 7576, Note_off_c, 2, 55, 64
4, 7608, Note_on_c, 2, 54, 64
4, 7624, Note_off_c, 2, 54, 64
4, 7632, Note_on_c, 2, 53, 64
4, 7648, Note_off_c, 2, 53, 64
4, 7680, Note_on_c, 2, 52, 64
4, 7696, Note_off_c, 2, 52, 64
4, 7712, Note_on_c, 2, 60, 64
4, 7728, Note_off_c, 2, 60, 64
4, 7744, Note_on_c, 2, 64, 64
4, 7760, Note_off_c, 2, 64, 64
4, 7776, Note_on_c, 2, 65, 64
4, 7792, Note_off_c, 2, 65, 64
4, 7824, Note_on_c, 2, 62, 64
4, 7840, Note_off_c, 2, 62, 64
4, 7848, Note_on_c, 2, 64, 64
4, 7864, Note_off_c, 2, 64, 64
4, 7896, Note_on_c, 2, 60, 64
4, 7912, Note_off_c, 2, 60, 64
4, 7944, Note_on_c, 2, 57, 64
4, 7960, Note_off_c, 2, 57, 64
4, 7968, Note_on_c, 2, 59, 64
4, 7984, Note_off_c, 2, 59, 64
4, 7992, Note_on_c, 2, 55, 64
4, 8008, Note_off_c, 2, 55, 64
4, 8064, Note_on_c, 2, 48, 64
4, 8080, Note_off_c, 2, 48, 64
4, 8136, Note_on_c, 2, 54, 64
4, 8152, Note_off_c, 2, 54, 64
4, 8160, Note_on_c, 2, 55, 64
4, 8176, Note_off_c, 2, 55, 64
4, 8208, Note_on_c, 2, 60, 64
4, 8224, Note_off_c, 2, 60, 64
4, 8256, Note_on_c, 2, 53, 64
4, 8272, Note_off_c, 2, 53, 64
4, 8304, Note_on_c, 2, 53, 64
4, 8320, Note_off_c, 2, 53, 64
4, 8352, Note_on_c, 2, 60, 64
4, 8368, Note_off_c, 2, 60, 64
4, 8376, Note_on_c, 2, 60, 64
4, 8392, Note_off_c, 2, 60, 64
4, 8400, Note_on_c, 2, 53, 64
4, 8416, Note_off_c, 2, 53, 64
4, 8448, Note_on_c, 2, 50, 64
4, 8464, Note_off_c, 2, 50, 64
4, 8520, Note_on_c, 2, 53, 64
4, 8536, Note_off_c, 2, 53, 64
4, 8544, Note_on_c, 2, 55, 64
4, 8560, Note_off_c, 2, 55, 64
4, 8592, Note_on_c, 2, 59, 64
4, 8608, Note_off_c, 2, 59, 64
4, 8640, Note_on_c, 2, 55, 64
4, 8656, Note_off_c, 2, 55, 64
4, 8688, Note_on_c, 2, 55, 64
4, 8704, Note_off_c, 2, 55, 64
4, 8736, Note_on_c, 2, 60, 64
4, 8752, Note_off_c, 2, 60, 64
4, 8760, Note_on_c, 2, 60, 64
4, 8776, Note_off_c, 2, 60, 64
4, 8784, Note_on_c, 2, 55, 64
4, 8800, Note_off_c, 2, 55, 64
4, 8832, Note_on_c, 2, 48, 64
4, 8848, Note_off_c, 2, 48, 64
4, 8904, Note_on_c, 2, 54, 64
4, 8920, Note_off_c, 2, 54, 64
4, 8928, Note_on_c, 2, 55, 64
4, 8944, Note_off_c, 2, 55, 64
4, 8976, Note_on_c, 2, 60, 64
4, 8992, Note_off_c, 2, 60, 64
4, 9024, Note_on_c, 2, 53, 64
4, 9040, Note_off_c, 2, 53, 64
4, 9072, Note_on_c, 2, 53, 64
4, 9088, Note_off_c, 2, 53, 64
4, 9120, Note_on_c, 2, 60, 64
4, 9136, Note_off_c, 2, 60, 64
4, 9144, Note_on_c, 2, 60, 64
4, 9160, Note_off_c, 2, 60, 64
4, 9168, Note_on_c, 2, 53, 64
4, 9184, Note_off_c, 2, 53, 64
4, 9216, Note_on_c, 2, 55, 64
4, 9232, Note_off_c, 2, 55, 64
4, 9240, Note_on_c, 2, 55, 64
4, 9256, Note_off_c, 2, 55, 64
4, 9288, Note_on_c, 2, 55, 64
4, 9304, Note_off_c, 2, 55, 64
4, 9312, Note_on_c, 2, 55, 64
4, 9328, Note_off_c, 2, 55, 64
4, 9344, Note_on_c, 2, 57, 64
4, 9360, Note_off_c, 2, 57, 64
4, 9376, Note_on_c, 2, 59, 64
4, 9392, Note_off_c, 2, 59, 64
4, 9408, Note_on_c, 2, 60, 64
4, 9424, Note_off_c, 2, 60, 64
4, 9456, Note_on_c, 2, 55, 64
4, 9472, Note_off_c, 2, 55, 64
4, 9504, Note_on_c, 2, 48, 64
4, 9520, Note_off_c, 2, 48, 64
4, 9600, Note_on_c, 2, 48, 64
4, 9616, Note_off_c, 2, 48, 64
4, 9672, Note_on_c, 2, 54, 64
4, 9688, Note_off_c, 2, 54, 64
4, 9696, Note_on_c, 2, 55, 64
4, 9712, Note_off_c, 2, 55, 64
4, 9744, Note_on_c, 2, 60, 64
4, 9760, Note_off_c, 2, 60, 64
4, 9792, Note_on_c, 2, 53, 64
4, 9808, Note_off_c, 2, 53, 64
4, 9840, Note_on_c, 2, 53, 64
4, 9856, Note_off_c, 2, 53, 64
4, 9888, Note_on_c, 2, 60, 64
4, 9904, Note_off_c, 2, 60, 64
4, 9912, Note_on_c, 2, 60, 64
4, 9928, Note_off_c, 2, 60, 64
4, 9936, Note_on_c, 2, 53, 64
4, 9952, Note_off_c, 2, 53, 64
4, 9984, Note_on_c, 2, 50, 64
4, 10000, Note_off_c, 2, 50, 64
4, 10056, Note_on_c, 2, 53, 64
4, 10072, Note_off_c, 2, 53, 64
4, 10080, Note_on_c, 2, 55, 64
4, 10096, Note_off_c, 2, 55, 64
4, 10128, Note_on_c, 2, 59, 64
4, 10144, Note_off_c, 2, 59, 64
4, 10176, Note_on_c, 2, 55, 64
4, 10192, Note_off_c, 2, 55, 64
4, 10224, Note_on_c, 2, 55, 64
4, 10240, Note_off_c, 2, 55, 64
4, 10272, Note_on_c, 2, 60, 64
4, 10288, Note_off_c, 2, 60, 64
4, 10296, Note_on_c, 2, 60, 64
4, 10312, Note_off_c, 2, 60, 64
4, 10320, Note_on_c, 2, 55, 64
4, 10336, Note_off_c, 2, 55, 64
4, 10368, Note_on_c, 2, 48, 64
4, 10384, Note_off_c, 2, 48, 64
4, 10440, Note_on_c, 2, 54, 64
4, 10456, Note_off_c, 2, 54, 64
4, 10464, Note_on_c, 2, 55, 64
4, 10480, Note_off_c, 2, 55, 64
4, 10512, Note_on_c, 2, 60, 64
4, 10528, Note_off_c, 2, 60, 64
4, 10560, Note_on_c, 2, 53, 64
4, 10576, Note_off_c, 2, 53, 64
4, 10608, Note_on_c, 2, 53, 64
4, 10624, Note_off_c, 2, 53, 64
4, 10656, Note_on_c, 2, 60, 64
4, 10672, Note_off_c, 2, 60, 64
4, 10680, Note_on_c, 2, 60, 64
4, 10696, Note_off_c, 2, 60, 64
4, 10704, Note_on_c, 2, 53, 64
4, 10720, Note_off_c, 2, 53, 64
4, 10752, Note_on_c, 2, 55, 64
4, 10768, Note_off_c, 2, 55, 64
4, 10776, Note_on_c, 2, 55, 64
4, 10792, Note_off_c, 2, 55, 64
4, 10824, Note_on_c, 2, 55, 64
4, 10840, Note_off_c, 2, 55, 64
4, 10848, Note_on_c, 2, 55, 64
4, 10864, Note_off_c, 2, 55, 64
4, 10880, Note_on_c, 2, 57, 64
4, 10896, Note_off_c, 2, 57, 64
4, 10912, Note_on_c, 2, 59, 64
4, 10928, Note_off_c, 2, 59, 64
4, 10944, Note_on_c, 2, 60, 64
4, 10960, Note_off_c, 2, 60, 64
4, 10992, Note_on_c, 2, 55, 64
4, 11008, Note_off_c, 2, 55, 64
4, 11040, Note_on_c, 2, 48, 64
4, 11056, Note_off_c, 2, 48, 64
4, 11136, Note_on_c, 2, 44, 64
4, 11152, Note_off_c, 2, 44, 64
4, 11208, Note_on_c, 2, 51, 64
4, 11224, Note_off_c, 2, 51, 64
4, 11280, Note_on_c, 2, 56, 64
4, 11296, Note_off_c, 2, 56, 64
4, 11328, Note_on_c, 2, 55, 64
4, 11344, Note_off_c, 2, 55, 64
4, 11400, Note_on_c, 2, 48, 64
4, 11416, Note_off_c, 2, 48, 64
4, 11472, Note_on_c, 2, 43, 64
4, 11488, Note_off_c, 2, 43, 64
4, 11520, Note_on_c, 2, 44, 64
4, 11536, Note_off_c, 2, 44, 64
4, 11592, Note_on_c, 2, 51, 64
4, 11608, Note_off_c, 2, 51, 64
4, 11664, Note_on_c, 2, 56, 64
4, 11680, Note_off_c, 2, 56, 64
4, 11712, Note_on_c, 2, 55, 64
4, 11728, Note_off_c, 2, 55, 64
4, 11784, Note_on_c, 2, 48, 64
4, 11800, Note_off_c, 2, 48, 64
4, 11856, Note_on_c, 2, 43, 64
4, 11872, Note_off_c, 2, 43, 64
4, 11904, Note_on_c, 2, 44, 64
4, 11920, Note_off_c, 2, 44, 64
4, 11976, Note_on_c, 2, 51, 64
4, 11992, Note_off_c, 2, 51, 64
4, 12048, Note_on_c, 2, 56, 64
4, 12064, Note_off_c, 2, 56, 64
4, 12096, Note_on_c, 2, 55, 64
4, 12112, Note_off_c, 2, 55, 64
4, 12168, Note_on_c, 2, 48, 64
4, 12184, Note_off_c, 2, 48, 64
4, 12240, Note_on_c, 2, 43, 64
4, 12256, Note_off_c, 2, 43, 64
4, 12288, Note_on_c, 2, 50, 64
4, 12304, Note_off_c, 2, 50, 64
4, 12312, Note_on_c, 2, 50, 64
4, 12328, Note_off_c, 2, 50, 64
4, 12360, Note_on_c, 2, 50, 64
4, 12376, Note_off_c, 2, 50, 64
4, 12408, Note_on_c, 2, 50, 64
4, 12424, Note_off_c, 2, 50, 64
4, 12432, Note_on_c, 2, 50, 64
4, 12448, Note_off_c, 2, 50, 64
4, 12480, Note_on_c, 2, 67, 64
4, 12496, Note_off_c, 2, 67, 64
4, 12576, Note_on_c, 2, 55, 64
4, 12592, Note_off_c, 2, 55, 64
4, 12672, Note_on_c, 2, 48, 64
4, 12688, Note_off_c, 2, 48, 64
4, 12744, Note_on_c, 2, 54, 64
4, 12760, Note_off_c, 2, 54, 64
4, 12768, Note_on_c, 2, 55, 64
4, 12784, Note_off_c, 2, 55, 64
4, 12816, Note_on_c, 2, 60, 64
4, 12832, Note_off_c, 2, 60, 64
4, 12864, Note_on_c, 2, 53, 64
4, 12880, Note_off_c, 2, 53, 64
4, 12912, Note_on_c, 2, 53, 64
4, 12928, Note_off_c, 2, 53, 64
4, 12960, Note_on_c, 2, 60, 64
4, 12976, Note_off_c, 2, 60, 64
4, 12984, Note_on_c, 2, 60, 64
4, 13000, Note_off_c, 2, 60, 64
4, 13008, Note_on_c, 2, 53, 64
4, 13024, Note_off_c, 2, 53, 64
4, 13056, Note_on_c, 2, 50, 64
4, 13072, Note_off_c, 2, 50, 64
4, 13128, Note_on_c, 2, 53, 64
4, 13144, Note_off_c, 2, 53, 64
4, 13152, Note_on_c, 2, 55, 64
4, 13168, Note_off_c, 2, 55, 64
4, 13200, Note_on_c, 2, 59, 64
4, 13216, Note_off_c, 2, 59, 64
4, 13248, Note_on_c, 2, 55, 64
4, 13264, Note_off_c, 2, 55, 64
4, 13296, Note_on_c, 2, 55, 64
4, 13312, Note_off_c, 2, 55, 64
4, 13344, Note_on_c, 2, 60, 64
4, 13360, Note_off_c, 2, 60, 64
4, 13368, Note_on_c, 2, 60, 64
4, 13384, Note_off_c, 2, 60, 64
4, 13392, Note_on_c, 2, 55, 64
4, 13408, Note_off_c, 2, 55, 64
4, 13440, Note_on_c, 2, 48, 64
4, 13456, Note_off_c, 2, 48, 64
4, 13512, Note_on_c, 2, 54, 64
4, 13528, Note_off_c, 2, 54, 64
4, 13536, Note_on_c, 2, 55, 64
4, 13552, Note_off_c, 2, 55, 64
4, 13584, Note_on_c, 2, 60, 64
4, 13600, Note_off_c, 2, 60, 64
4, 13632, Note_on_c, 2, 53, 64
4, 13648, Note_off_c, 2, 53, 64
4, 13680, Note_on_c, 2, 53, 64
4, 13696, Note_off_c, 2, 53, 64
4, 13728, Note_on_c, 2, 60, 64
4, 13744, Note_off_c, 2, 60, 64
4, 13752, Note_on_c, 2, 60, 64
4, 13768, Note_off_c, 2, 60, 64
4, 13776, Note_on_c, 2, 53, 64
4, 13792, Note_off_c, 2, 53, 64
4, 13824, Note_on_c, 2, 55, 64
4, 13840, Note_off_c, 2, 55, 64
4, 13848, Note_on_c, 2, 55, 64
4, 13864, Note_off_c, 2, 55, 64
4, 13896, Note_on_c, 2, 55, 64
4, 13912, Note_off_c, 2, 55, 64
4, 13920, Note_on_c, 2, 55, 64
4, 13936, Note_off_c, 2, 55, 64
4, 13952, Note_on_c, 2, 57, 64
4, 13968, Note_off_c, 2, 57, 64
4, 13984, Note_on_c, 2, 59, 64
4, 14000, Note_off_c, 2, 59, 64
4, 14016, Note_on_c, 2, 60, 64
4, 14032, Note_off_c, 2, 60, 64
4, 14064, Note_on_c, 2, 55, 64
4, 14080, Note_off_c, 2, 55, 64
4, 14112, Note_on_c, 2, 48, 64
4, 14128, Note_off_c, 2, 48, 64
4, 14128, End_track
5, 0, Start_track
5, 0, Title_t, "Percussion"
5, 0, Control_c, 9, 0, 0
5, 0, Program_c, 9, 0
5, 0, Time_signature, 4, 2, 96, 8
5, 0, Tempo, 571428
5, 0, Note_on_c, 9, 42, 96
5, 32, Note_off_c, 9, 42, 64
5, 48, Note_on_c, 9, 42, 96
5, 64, Note_off_c, 9, 42, 64
5, 72, Note_on_c, 9, 42, 96
5, 104, Note_off_c, 9, 42, 64
5, 120, Note_on_c, 9, 42, 96
5, 136, Note_off_c, 9, 42, 64
5, 144, Note_on_c, 9, 42, 96
5, 176, Note_off_c, 9, 42, 64
5, 192, Note_on_c, 9, 42, 96
5, 224, Note_off_c, 9, 42, 64
5, 264, Note_on_c, 9, 42, 96
5, 296, Note_off_c, 9, 42, 64
5, 312, Note_on_c, 9, 42, 96
5, 328, Note_off_c, 9, 42, 64
5, 336, Note_on_c, 9, 42, 96
5, 352, Note_off_c, 9, 42, 64
5, 360, Note_on_c, 9, 42, 96
5, 376, Note_off_c, 9, 42, 64
5, 384, Note_on_c, 9, 42, 96
5, 400, Note_off_c, 9, 42, 64
5, 432, Note_on_c, 9, 42, 96
5, 448, Note_off_c, 9, 42, 64
5, 464, Note_on_c, 9, 42, 96
5, 480, Note_off_c, 9, 42, 64
5, 480, Note_on_c, 9, 42, 96
5, 512, Note_off_c, 9, 42, 64
5, 528, Note_on_c, 9, 42, 96
5, 544, Note_off_c, 9, 42, 64
5, 560, Note_on_c, 9, 42, 96
5, 576, Note_off_c, 9, 42, 64
5, 576, Note_on_c, 9, 42, 96
5, 592, Note_off_c, 9, 42, 64
5, 624, Note_on_c, 9, 42, 96
5, 640, Note_off_c, 9, 42, 64
5, 656, Note_on_c, 9, 42, 96
5, 672, Note_off_c, 9, 42, 64
5, 672, Note_on_c, 9, 42, 96
5, 704, Note_off_c, 9, 42, 64
5, 720, Note_on_c, 9, 42, 96
5, 736, Note_off_c, 9, 42, 64
5, 752, Note_on_c, 9, 42, 96
5, 768, Note_off_c, 9, 42, 64
5, 768, Note_on_c, 9, 42, 96
5, 784, Note_off_c, 9, 42, 64
5, 816, Note_on_c, 9, 42, 96
5, 832, Note_off_c, 9, 42, 64
5, 848, Note_on_c, 9, 42, 96
5, 864, Note_off_c, 9, 42, 64
5, 864, Note_on_c, 9, 42, 96
5, 896, Note_off_c, 9, 42, 64
5, 912, Note_on_c, 9, 42, 96
5, 928, Note_off_c, 9, 42, 64
5, 944, Note_on_c, 9, 42, 96
5, 960, Note_off_c, 9, 42, 64
5, 960, Note_on_c, 9, 42, 96
5, 976, Note_off_c, 9, 42, 64
5, 1008, Note_on_c, 9, 42, 96
5, 1024, Note_off_c, 9, 42, 64
5, 1040, Note_on_c, 9, 42, 96
5, 1056, Note_off_c, 9, 42, 64
5, 1056, Note_on_c, 9, 42, 96
5, 1088, Note_off_c, 9, 42, 64
5, 1104, Note_on_c, 9, 42, 96
5, 1120, Note_off_c, 9, 42, 64
5, 1136, Note_on_c, 9, 42, 96
5, 1152, Note_off_c, 9, 42, 64
5, 1152, Note_on_c, 9, 42, 96
5, 1168, Note_off_c, 9, 42, 64
5, 1200, Note_on_c, 9, 42, 96
5, 1216, Note_off_c, 9, 42, 64
5, 1232, Note_on_c, 9, 42, 96
5, 1248, Note_off_c, 9, 42, 64
5, 1248, Note_on_c, 9, 42, 96
5, 1280, Note_off_c, 9, 42, 64
5, 1296, Note_on_c, 9, 42, 96
5, 1312, Note_off_c, 9, 42, 64
5, 1328, Note_on_c, 9, 42, 96
5, 1344, Note_off_c, 9, 42, 64
5, 1344, Note_on_c, 9, 42, 96
5, 1360, Note_off_c, 9, 42, 64
5, 1392, Note_on_c, 9, 42, 96
5, 1408, Note_off_c, 9, 42, 64
5, 1424, Note_on_c, 9, 42, 96
5, 1440, Note_off_c, 9, 42, 64
5, 1440, Note_on_c, 9, 42, 96
5, 1472, Note_off_c, 9, 42, 64
5, 1488, Note_on_c, 9, 42, 96
5, 1504, Note_off_c, 9, 42, 64
5, 1520, Note_on_c, 9, 42, 96
5, 1536, Note_off_c, 9, 42, 64
5, 1536, Note_on_c, 9, 42, 96
5, 1552, Note_off_c, 9, 42, 64
5, 1584, Note_on_c, 9, 42, 96
5, 1600, Note_off_c, 9, 42, 64
5, 1616, Note_on_c, 9, 42, 96
5, 1632, Note_off_c, 9, 42, 64
5, 1632, Note_on_c, 9, 42, 96
5, 1664, Note_off_c, 9, 42, 64
5, 1680, Note_on_c, 9, 42, 96
5, 1696, Note_off_c, 9, 42, 64
5, 1712, Note_on_c, 9, 42, 96
5, 1728, Note_off_c, 9, 42, 64
5, 1728, Note_on_c, 9, 42, 96
5, 1744, Note_off_c, 9, 42, 64
5, 1776, Note_on_c, 9, 42, 96
5, 1792, Note_off_c, 9, 42, 64
5, 1808, Note_on_c, 9, 42, 96
5, 1824, Note_off_c, 9, 42, 64
5, 1824, Note_on_c, 9, 42, 96
5, 1856, Note_off_c, 9, 42, 64
5, 1872, Note_on_c, 9, 42, 96
5, 1888, Note_off_c, 9, 42, 64
5, 1904, Note_on_c, 9, 42, 96
5, 1920, Note_off_c, 9, 42, 64
5, 1920, Note_on_c, 9, 42, 96
5, 1936, Note_off_c, 9, 42, 64
5, 1968, Note_on_c, 9, 42, 96
5, 1984, Note_off_c, 9, 42, 64
5, 2000, Note_on_c, 9, 42, 96
5, 2016, Note_off_c, 9, 42, 64
5, 2016, Note_on_c, 9, 42, 96
5, 2048, Note_off_c, 9, 42, 64
5, 2064, Note_on_c, 9, 42, 96
5, 2080, Note_off_c, 9, 42, 64
5, 2096, Note_on_c, 9, 42, 96
5, 2112, Note_off_c, 9, 42, 64
5, 2112, Note_on_c, 9, 42, 96
5, 2128, Note_off_c, 9, 42, 64
5, 2160, Note_on_c, 9, 42, 96
5, 2176, Note_off_c, 9, 42, 64
5, 2192, Note_on_c, 9, 42, 96
5, 2208, Note_off_c, 9, 42, 64
5, 2208, Note_on_c, 9, 42, 96
5, 2240, Note_off_c, 9, 42, 64
5, 2256, Note_on_c, 9, 42, 96
5, 2272, Note_off_c, 9, 42, 64
5, 2288, Note_on_c, 9, 42, 96
5, 2304, Note_off_c, 9, 42, 64
5, 2304, Note_on_c, 9, 42, 96
5, 2320, Note_off_c, 9, 42, 64
5, 2352, Note_on_c, 9, 42, 96
5, 2368, Note_off_c, 9, 42, 64
5, 2384, Note_on_c, 9, 42, 96
5, 2400, Note_off_c, 9, 42, 64
5, 2400, Note_on_c, 9, 42, 96
5, 2432, Note_off_c, 9, 42, 64
5, 2448, Note_on_c, 9, 42, 96
5, 2464, Note_off_c, 9, 42, 64
5, 2480, Note_on_c, 9, 42, 96
5, 2496, Note_off_c, 9, 42, 64
5, 2496, Note_on_c, 9, 42, 96
5, 2512, Note_off_c, 9, 42, 64
5, 2544, Note_on_c, 9, 42, 96
5, 2560, Note_off_c, 9, 42, 64
5, 2576, Note_on_c, 9, 42, 96
5, 2592, Note_off_c, 9, 42, 64
5, 2592, Note_on_c, 9, 42, 96
5, 2624, Note_off_c, 9, 42, 64
5, 2640, Note_on_c, 9, 42, 96
5, 2656, Note_off_c, 9, 42, 64
5, 2672, Note_on_c, 9, 42, 96
5, 2688, Note_off_c, 9, 42, 64
5, 2688, Note_on_c, 9, 42, 96
5, 2704, Note_off_c, 9, 42, 64
5, 2736, Note_on_c, 9, 42, 96
5, 2752, Note_off_c, 9, 42, 64
5, 2768, Note_on_c, 9, 42, 96
5, 2784, Note_off_c, 9, 42, 64
5, 2784, Note_on_c, 9, 42, 96
5, 2816, Note_off_c, 9, 42, 64
5, 2832, Note_on_c, 9, 42, 96
5, 2848, Note_off_c, 9, 42, 64
5, 2864, Note_on_c, 9, 42, 96
5, 2880, Note_off_c, 9, 42, 64
5, 2880, Note_on_c, 9, 42, 96
5, 2896, Note_off_c, 9, 42, 64
5, 2928, Note_on_c, 9, 42, 96
5, 2944, Note_off_c, 9, 42, 64
5, 2960, Note_on_c, 9, 42, 96
5, 2976, Note_off_c, 9, 42, 64
5, 2976, Note_on_c, 9, 42, 96
5, 3008, Note_off_c, 9, 42, 64
5, 3024, Note_on_c, 9, 42, 96
5, 3040, Note_off_c, 9, 42, 64
5, 3056, Note_on_c, 9, 42, 96
5, 3072, Note_off_c, 9, 42, 64
5, 3072, Note_on_c, 9, 42, 96
5, 3088, Note_off_c, 9, 42, 64
5, 3120, Note_on_c, 9, 42, 96
5, 3136, Note_off_c, 9, 42, 64
5, 3152, Note_on_c, 9, 42, 96
5, 3168, Note_off_c, 9, 42, 64
5, 3168, Note_on_c, 9, 42, 96
5, 3200, Note_off_c, 9, 42, 64
5, 3216, Note_on_c, 9, 42, 96
5, 3232, Note_off_c, 9, 42, 64
5, 3248, Note_on_c, 9, 42, 96
5, 3264, Note_off_c, 9, 42, 64
5, 3264, Note_on_c, 9, 42, 96
5, 3280, Note_off_c, 9, 42, 64
5, 3312, Note_on_c, 9, 42, 96
5, 3328, Note_off_c, 9, 42, 64
5, 3344, Note_on_c, 9, 42, 96
5, 3360, Note_off_c, 9, 42, 64
5, 3360, Note_on_c, 9, 42, 96
5, 3392, Note_off_c, 9, 42, 64
5, 3408, Note_on_c, 9, 42, 96
5, 3424, Note_off_c, 9, 42, 64
5, 3440, Note_on_c, 9, 42, 96
5, 3456, Note_off_c, 9, 42, 64
5, 3456, Note_on_c, 9, 42, 96
5, 3472, Note_off_c, 9, 42, 64
5, 3504, Note_on_c, 9, 42, 96
5, 3520, Note_off_c, 9, 42, 64
5, 3536, Note_on_c, 9, 42, 96
5, 3552, Note_off_c, 9, 42, 64
5, 3552, Note_on_c, 9, 42, 96
5, 3584, Note_off_c, 9, 42, 64
5, 3600, Note_on_c, 9, 42, 96
5, 3616, Note_off_c, 9, 42, 64
5, 3632, Note_on_c, 9, 42, 96
5, 3648, Note_off_c, 9, 42, 64
5, 3648, Note_on_c, 9, 42, 96
5, 3664, Note_off_c, 9, 42, 64
5, 3696, Note_on_c, 9, 42, 96
5, 3712, Note_off_c, 9, 42, 64
5, 3728, Note_on_c, 9, 42, 96
5, 3744, Note_off_c, 9, 42, 64
5, 3744, Note_on_c, 9, 42, 96
5, 3776, Note_off_c, 9, 42, 64
5, 3792, Note_on_c, 9, 42, 96
5, 3808, Note_off_c, 9, 42, 64
5, 3824, Note_on_c, 9, 42, 96
5, 3840, Note_off_c, 9, 42, 64
5, 3840, Note_on_c, 9, 42, 96
5, 3856, Note_off_c, 9, 42, 64
5, 3888, Note_on_c, 9, 42, 96
5, 3904, Note_off_c, 9, 42, 64
5, 3920, Note_on_c, 9, 42, 96
5, 3936, Note_off_c, 9, 42, 64
5, 3936, Note_on_c, 9, 42, 96
5, 3968, Note_off_c, 9, 42, 64
5, 3984, Note_on_c, 9, 42, 96
5, 4000, Note_off_c, 9, 42, 64
5, 4016, Note_on_c, 9, 42, 96
5, 4032, Note_off_c, 9, 42, 64
5, 4032, Note_on_c, 9, 42, 96
5, 4048, Note_off_c, 9, 42, 64
5, 4080, Note_on_c, 9, 42, 96
5, 4096, Note_off_c, 9, 42, 64
5, 4112, Note_on_c, 9, 42, 96
5, 4128, Note_off_c, 9, 42, 64
5, 4128, Note_on_c, 9, 42, 96
5, 4160, Note_off_c, 9, 42, 64
5, 4176, Note_on_c, 9, 42, 96
5, 4192, Note_off_c, 9, 42, 64
5, 4208, Note_on_c, 9, 42, 96
5, 4224, Note_off_c, 9, 42, 64
5, 4224, Note_on_c, 9, 42, 96
5, 4240, Note_off_c, 9, 42, 64
5, 4272, Note_on_c, 9, 42, 96
5, 4288, Note_off_c, 9, 42, 64
5, 4304, Note_on_c, 9, 42, 96
5, 4320, Note_off_c, 9, 42, 64
5, 4320, Note_on_c, 9, 42, 96
5, 4352, Note_off_c, 9, 42, 64
5, 4368, Note_on_c, 9, 42, 96
5, 4384, Note_off_c, 9, 42, 64
5, 4400, Note_on_c, 9, 42, 96
5, 4416, Note_off_c, 9, 42, 64
5, 4416, Note_on_c, 9, 42, 96
5, 4432, Note_off_c, 9, 42, 64
5, 4464, Note_on_c, 9, 42, 96
5, 4480, Note_off_c, 9, 42, 64
5, 4496, Note_on_c, 9, 42, 96
5, 4512, Note_off_c, 9, 42, 64
5, 4512, Note_on_c, 9, 42, 96
5, 4544, Note_off_c, 9, 42, 64
5, 4560, Note_on_c, 9, 42, 96
5, 4576, Note_off_c, 9, 42, 64
5, 4592, Note_on_c, 9, 42, 96
5, 4608, Note_off_c, 9, 42, 64
5, 4608, Note_on_c, 9, 42, 96
5, 4624, Note_off_c, 9, 42, 64
5, 4656, Note_on_c, 9, 42, 96
5, 4672, Note_off_c, 9, 42, 64
5, 4688, Note_on_c, 9, 42, 96
5, 4704, Note_off_c, 9, 42, 64
5, 4704, Note_on_c, 9, 42, 96
5, 4736, Note_off_c, 9, 42, 64
5, 4752, Note_on_c, 9, 42, 96
5, 4768, Note_off_c, 9, 42, 64
5, 4784, Note_on_c, 9, 42, 96
5, 4800, Note_off_c, 9, 42, 64
5, 4800, Note_on_c, 9, 42, 96
5, 4816, Note_off_c, 9, 42, 64
5, 4848, Note_on_c, 9, 42, 96
5, 4864, Note_off_c, 9, 42, 64
5, 4880, Note_on_c, 9, 42, 96
5, 4896, Note_off_c, 9, 42, 64
5, 4896, Note_on_c, 9, 42, 96
5, 4928, Note_off_c, 9, 42, 64
5, 4944, Note_on_c, 9, 42, 96
5, 4960, Note_off_c, 9, 42, 64
5, 4976, Note_on_c, 9, 42, 96
5, 4992, Note_off_c, 9, 42, 64
5, 4992, Note_on_c, 9, 42, 96
5, 5024, Note_off_c, 9, 42, 64
5, 5040, Note_on_c, 9, 42, 96
5, 5056, Note_off_c, 9, 42, 64
5, 5064, Note_on_c, 9, 42, 96
5, 5096, Note_off_c, 9, 42, 64
5, 5112, Note_on_c, 9, 42, 96
5, 5128, Note_off_c, 9, 42, 64
5, 5136, Note_on_c, 9, 42, 96
5, 5168, Note_off_c, 9, 42, 64
5, 5184, Note_on_c, 9, 42, 96
5, 5216, Note_off_c, 9, 42, 64
5, 5256, Note_on_c, 9, 42, 96
5, 5288, Note_off_c, 9, 42, 64
5, 5304, Note_on_c, 9, 42, 96
5, 5320, Note_off_c, 9, 42, 64
5, 5328, Note_on_c, 9, 42, 96
5, 5344, Note_off_c, 9, 42, 64
5, 5352, Note_on_c, 9, 42, 96
5, 5368, Note_off_c, 9, 42, 64
5, 5376, Note_on_c, 9, 42, 96
5, 5408, Note_off_c, 9, 42, 64
5, 5424, Note_on_c, 9, 42, 96
5, 5440, Note_off_c, 9, 42, 64
5, 5448, Note_on_c, 9, 42, 96
5, 5480, Note_off_c, 9, 42, 64
5, 5496, Note_on_c, 9, 42, 96
5, 5512, Note_off_c, 9, 42, 64
5, 5520, Note_on_c, 9, 42, 96
5, 5552, Note_off_c, 9, 42, 64
5, 5568, Note_on_c, 9, 42, 96
5, 5600, Note_off_c, 9, 42, 64
5, 5640, Note_on_c, 9, 42, 96
5, 5672, Note_off_c, 9, 42, 64
5, 5688, Note_on_c, 9, 42, 96
5, 5704, Note_off_c, 9, 42, 64
5, 5712, Note_on_c, 9, 42, 96
5, 5728, Note_off_c, 9, 42, 64
5, 5736, Note_on_c, 9, 42, 96
5, 5752, Note_off_c, 9, 42, 64
5, 5760, Note_on_c, 9, 42, 96
5, 5792, Note_off_c, 9, 42, 64
5, 5808, Note_on_c, 9, 42, 96
5, 5824, Note_off_c, 9, 42, 64
5, 5832, Note_on_c, 9, 42, 96
5, 5864, Note_off_c, 9, 42, 64
5, 5880, Note_on_c, 9, 42, 96
5, 5896, Note_off_c, 9, 42, 64
5, 5904, Note_on_c, 9, 42, 96
5, 5936, Note_off_c, 9, 42, 64
5, 5952, Note_on_c, 9, 42, 96
5, 5984, Note_off_c, 9, 42, 64
5, 6024, Note_on_c, 9, 42, 96
5, 6056, Note_off_c, 9, 42, 64
5, 6072, Note_on_c, 9, 42, 96
5, 6088, Note_off_c, 9, 42, 64
5, 6096, Note_on_c, 9, 42, 96
5, 6112, Note_off_c, 9, 42, 64
5, 6120, Note_on_c, 9, 42, 96
5, 6136, Note_off_c, 9, 42, 64
5, 6144, Note_on_c, 9, 42, 96
5, 6176, Note_off_c, 9, 42, 64
5, 6192, Note_on_c, 9, 42, 96
5, 6208, Note_off_c, 9, 42, 64
5, 6216, Note_on_c, 9, 42, 96
5, 6248, Note_off_c, 9, 42, 64
5, 6264, Note_on_c, 9, 42, 96
5, 6280, Note_off_c, 9, 42, 64
5, 6288, Note_on_c, 9, 42, 96
5, 6320, Note_off_c, 9, 42, 64
5, 6336, Note_on_c, 9, 42, 96
5, 6368, Note_off_c, 9, 42, 64
5, 6408, Note_on_c, 9, 42, 96
5, 6440, Note_off_c, 9, 42, 64
5, 6456, Note_on_c, 9, 42, 96
5, 6472, Note_off_c, 9, 42, 64
5, 6480, Note_on_c, 9, 42, 96
5, 6496, Note_off_c, 9, 42, 64
5, 6504, Note_on_c, 9, 42, 96
5, 6520, Note_off_c, 9, 42, 64
5, 6528, Note_on_c, 9, 42, 96
5, 6544, Note_off_c, 9, 42, 64
5, 6576, Note_on_c, 9, 42, 96
5, 6592, Note_off_c, 9, 42, 64
5, 6608, Note_on_c, 9, 42, 96
5, 6624, Note_off_c, 9, 42, 64
5, 6624, Note_on_c, 9, 42, 96
5, 6656, Note_off_c, 9, 42, 64
5, 6672, Note_on_c, 9, 42, 96
5, 6688, Note_off_c, 9, 42, 64
5, 6704, Note_on_c, 9, 42, 96
5, 6720, Note_off_c, 9, 42, 64
5, 6720, Note_on_c, 9, 42, 96
5, 6736, Note_off_c, 9, 42, 64
5, 6768, Note_on_c, 9, 42, 96
5, 6784, Note_off_c, 9, 42, 64
5, 6800, Note_on_c, 9, 42, 96
5, 6816, Note_off_c, 9, 42, 64
5, 6816, Note_on_c, 9, 42, 96
5, 6848, Note_off_c, 9, 42, 64
5, 6864, Note_on_c, 9, 42, 96
5, 6880, Note_off_c, 9, 42, 64
5, 6896, Note_on_c, 9, 42, 96
5, 6912, Note_off_c, 9, 42, 64
5, 6912, Note_on_c, 9, 42, 96
5, 6928, Note_off_c, 9, 42, 64
5, 6960, Note_on_c, 9, 42, 96
5, 6976, Note_off_c, 9, 42, 64
5, 6992, Note_on_c, 9, 42, 96
5, 7008, Note_off_c, 9, 42, 64
5, 7008, Note_on_c, 9, 42, 96
5, 7040, Note_off_c, 9, 42, 64
5, 7056, Note_on_c, 9, 42, 96
5, 7072, Note_off_c, 9, 42, 64
5, 7088, Note_on_c, 9, 42, 96
5, 7104, Note_off_c, 9, 42, 64
5, 7104, Note_on_c, 9, 42, 96
5, 7120, Note_off_c, 9, 42, 64
5, 7152, Note_on_c, 9, 42, 96
5, 7168, Note_off_c, 9, 42, 64
5, 7184, Note_on_c, 9, 42, 96
5, 7200, Note_off_c, 9, 42, 64
5, 7200, Note_on_c, 9, 42, 96
5, 7232, Note_off_c, 9, 42, 64
5, 7248, Note_on_c, 9, 42, 96
5, 7264, Note_off_c, 9, 42, 64
5, 7280, Note_on_c, 9, 42, 96
5, 7296, Note_off_c, 9, 42, 64
5, 7296, Note_on_c, 9, 42, 96
5, 7312, Note_off_c, 9, 42, 64
5, 7344, Note_on_c, 9, 42, 96
5, 7360, Note_off_c, 9, 42, 64
5, 7376, Note_on_c, 9, 42, 96
5, 7392, Note_off_c, 9, 42, 64
5, 7392, Note_on_c, 9, 42, 96
5, 7424, Note_off_c, 9, 42, 64
5, 7440, Note_on_c, 9, 42, 96
5, 7456, Note_off_c, 9, 42, 64
5, 7472, Note_on_c, 9, 42, 96
5, 7488, Note_off_c, 9, 42, 64
5, 7488, Note_on_c, 9, 42, 96
5, 7504, Note_off_c, 9, 42, 64
5, 7536, Note_on_c, 9, 42, 96
5, 7552, Note_off_c, 9, 42, 64
5, 7568, Note_on_c, 9, 42, 96
5, 7584, Note_off_c, 9, 42, 64
5, 7584, Note_on_c, 9, 42, 96
5, 7616, Note_off_c, 9, 42, 64
5, 7632, Note_on_c, 9, 42, 96
5, 7648, Note_off_c, 9, 42, 64
5, 7664, Note_on_c, 9, 42, 96
5, 7680, Note_off_c, 9, 42, 64
5, 7680, Note_on_c, 9, 42, 96
5, 7696, Note_off_c, 9, 42, 64
5, 7728, Note_on_c, 9, 42, 96
5, 7744, Note_off_c, 9, 42, 64
5, 7760, Note_on_c, 9, 42, 96
5, 7776, Note_off_c, 9, 42, 64
5, 7776, Note_on_c, 9, 42, 96
5, 7808, Note_off_c, 9, 42, 64
5, 7824, Note_on_c, 9, 42, 96
5, 7840, Note_off_c, 9, 42, 64
5, 7856, Note_on_c, 9, 42, 96
5, 7872, Note_off_c, 9, 42, 64
5, 7872, Note_on_c, 9, 42, 96
5, 7888, Note_off_c, 9, 42, 64
5, 7920, Note_on_c, 9, 42, 96
5, 7936, Note_off_c, 9, 42, 64
5, 7952, Note_on_c, 9, 42, 96
5, 7968, Note_off_c, 9, 42, 64
5, 7968, Note_on_c, 9, 42, 96
5, 8000, Note_off_c, 9, 42, 64
5, 8016, Note_on_c, 9, 42, 96
5, 8032, Note_off_c, 9, 42, 64
5, 8048, Note_on_c, 9, 42, 96
5, 8064, Note_off_c, 9, 42, 64
5, 8064, Note_on_c, 9, 42, 96
5, 8080, Note_off_c, 9, 42, 64
5, 8136, Note_on_c, 9, 42, 96
5, 8152, Note_off_c, 9, 42, 64
5, 8160, Note_on_c, 9, 42, 96
5, 8192, Note_off_c, 9, 42, 64
5, 8208, Note_on_c, 9, 42, 96
5, 8224, Note_off_c, 9, 42, 64
5, 8256, Note_on_c, 9, 42, 96
5, 8272, Note_off_c, 9, 42, 64
5, 8328, Note_on_c, 9, 42, 96
5, 8344, Note_off_c, 9, 42, 64
5, 8352, Note_on_c, 9, 42, 96
5, 8384, Note_off_c, 9, 42, 64
5, 8400, Note_on_c, 9, 42, 96
5, 8416, Note_off_c, 9, 42, 64
5, 8448, Note_on_c, 9, 42, 96
5, 8464, Note_off_c, 9, 42, 64
5, 8520, Note_on_c, 9, 42, 96
5, 8536, Note_off_c, 9, 42, 64
5, 8544, Note_on_c, 9, 42, 96
5, 8576, Note_off_c, 9, 42, 64
5, 8592, Note_on_c, 9, 42, 96
5, 8608, Note_off_c, 9, 42, 64
5, 8640, Note_on_c, 9, 42, 96
5, 8656, Note_off_c, 9, 42, 64
5, 8712, Note_on_c, 9, 42, 96
5, 8728, Note_off_c, 9, 42, 64
5, 8736, Note_on_c, 9, 42, 96
5, 8768, Note_off_c, 9, 42, 64
5, 8784, Note_on_c, 9, 42, 96
5, 8800, Note_off_c, 9, 42, 64
5, 8832, Note_on_c, 9, 42, 96
5, 8848, Note_off_c, 9, 42, 64
5, 8904, Note_on_c, 9, 42, 96
5, 8920, Note_off_c, 9, 42, 64
5, 8928, Note_on_c, 9, 42, 96
5, 8960, Note_off_c, 9, 42, 64
5, 8976, Note_on_c, 9, 42, 96
5, 8992, Note_off_c, 9, 42, 64
5, 9024, Note_on_c, 9, 42, 96
5, 9040, Note_off_c, 9, 42, 64
5, 9096, Note_on_c, 9, 42, 96
5, 9112, Note_off_c, 9, 42, 64
5, 9120, Note_on_c, 9, 42, 96
5, 9152, Note_off_c, 9, 42, 64
5, 9168, Note_on_c, 9, 42, 96
5, 9184, Note_off_c, 9, 42, 64
5, 9216, Note_on_c, 9, 42, 96
5, 9232, Note_off_c, 9, 42, 64
5, 9288, Note_on_c, 9, 42, 96
5, 9304, Note_off_c, 9, 42, 64
5, 9312, Note_on_c, 9, 42, 96
5, 9344, Note_off_c, 9, 42, 64
5, 9360, Note_on_c, 9, 42, 96
5, 9376, Note_off_c, 9, 42, 64
5, 9408, Note_on_c, 9, 42, 96
5, 9424, Note_off_c, 9, 42, 64
5, 9480, Note_on_c, 9, 42, 96
5, 9496, Note_off_c, 9, 42, 64
5, 9504, Note_on_c, 9, 42, 96
5, 9536, Note_off_c, 9, 42, 64
5, 9552, Note_on_c, 9, 42, 96
5, 9568, Note_off_c, 9, 42, 64
5, 9600, Note_on_c, 9, 42, 96
5, 9616, Note_off_c, 9, 42, 64
5, 9672, Note_on_c, 9, 42, 96
5, 9688, Note_off_c, 9, 42, 64
5, 9696, Note_on_c, 9, 42, 96
5, 9728, Note_off_c, 9, 42, 64
5, 9744, Note_on_c, 9, 42, 96
5, 9760, Note_off_c, 9, 42, 64
5, 9792, Note_on_c, 9, 42, 96
5, 9808, Note_off_c, 9, 42, 64
5, 9864, Note_on_c, 9, 42, 96
5, 9880, Note_off_c, 9, 42, 64
5, 9888, Note_on_c, 9, 42, 96
5, 9920, Note_off_c, 9, 42, 64
5, 9936, Note_on_c, 9, 42, 96
5, 9952, Note_off_c, 9, 42, 64
5, 9984, Note_on_c, 9, 42, 96
5, 10000, Note_off_c, 9, 42, 64
5, 10056, Note_on_c, 9, 42, 96
5, 10072, Note_off_c, 9, 42, 64
5, 10080, Note_on_c, 9, 42, 96
5, 10112, Note_off_c, 9, 42, 64
5, 10128, Note_on_c, 9, 42, 96
5, 10144, Note_off_c, 9, 42, 64
5, 10176, Note_on_c, 9, 42, 96
5, 10192, Note_off_c, 9, 42, 64
5, 10248, Note_on_c, 9, 42, 96
5, 10264, Note_off_c, 9, 42, 64
5, 10272, Note_on_c, 9, 42, 96
5, 10304, Note_off_c, 9, 42, 64
5, 10320, Note_on_c, 9, 42, 96
5, 10336, Note_off_c, 9, 42, 64
5, 10368, Note_on_c, 9, 42, 96
5, 10384, Note_off_c, 9, 42, 64
5, 10440, Note_on_c, 9, 42, 96
5, 10456, Note_off_c, 9, 42, 64
5, 10464, Note_on_c, 9, 42, 96
5, 10496, Note_off_c, 9, 42, 64
5, 10512, Note_on_c, 9, 42, 96
5, 10528, Note_off_c, 9, 42, 64
5, 10560, Note_on_c, 9, 42, 96
5, 10576, Note_off_c, 9, 42, 64
5, 10632, Note_on_c, 9, 42, 96
5, 10648, Note_off_c, 9, 42, 64
5, 10656, Note_on_c, 9, 42, 96
5, 10688, Note_off_c, 9, 42, 64
5, 10704, Note_on_c, 9, 42, 96
5, 10720, Note_off_c, 9, 42, 64
5, 10752, Note_on_c, 9, 42, 96
5, 10768, Note_off_c, 9, 42, 64
5, 10824, Note_on_c, 9, 42, 96
5, 10840, Note_off_c, 9, 42, 64
5, 10848, Note_on_c, 9, 42, 96
5, 10880, Note_off_c, 9, 42, 64
5, 10896, Note_on_c, 9, 42, 96
5, 10912, Note_off_c, 9, 42, 64
5, 10944, Note_on_c, 9, 42, 96
5, 10960, Note_off_c, 9, 42, 64
5, 11016, Note_on_c, 9, 42, 96
5, 11032, Note_off_c, 9, 42, 64
5, 11040, Note_on_c, 9, 42, 96
5, 11072, Note_off_c, 9, 42, 64
5, 11088, Note_on_c, 9, 42, 96
5, 11104, Note_off_c, 9, 42, 64
5, 11136, Note_on_c, 9, 42, 96
5, 11168, Note_off_c, 9, 42, 64
5, 11184, Note_on_c, 9, 42, 96
5, 11200, Note_off_c, 9, 42, 64
5, 11208, Note_on_c, 9, 42, 96
5, 11240, Note_off_c, 9, 42, 64
5, 11256, Note_on_c, 9, 42, 96
5, 11272, Note_off_c, 9, 42, 64
5, 11280, Note_on_c, 9, 42, 96
5, 11312, Note_off_c, 9, 42, 64
5, 11328, Note_on_c, 9, 42, 96
5, 11360, Note_off_c, 9, 42, 64
5, 11400, Note_on_c, 9, 42, 96
5, 11432, Note_off_c, 9, 42, 64
5, 11448, Note_on_c, 9, 42, 96
5, 11464, Note_off_c, 9, 42, 64
5, 11472, Note_on_c, 9, 42, 96
5, 11488, Note_off_c, 9, 42, 64
5, 11496, Note_on_c, 9, 42, 96
5, 11512, Note_off_c, 9, 42, 64
5, 11520, Note_on_c, 9, 42, 96
5, 11552, Note_off_c, 9, 42, 64
5, 11568, Note_on_c, 9, 42, 96
5, 11584, Note_off_c, 9, 42, 64
5, 11592, Note_on_c, 9, 42, 96
5, 11624, Note_off_c, 9, 42, 64
5, 11640, Note_on_c, 9, 42, 96
5, 11656, Note_off_c, 9, 42, 64
5, 11664, Note_on_c, 9, 42, 96
5, 11696, Note_off_c, 9, 42, 64
5, 11712, Note_on_c, 9, 42, 96
5, 11744, Note_off_c, 9, 42, 64
5, 11784, Note_on_c, 9, 42, 96
5, 11816, Note_off_c, 9, 42, 64
5, 11832, Note_on_c, 9, 42, 96
5, 11848, Note_off_c, 9, 42, 64
5, 11856, Note_on_c, 9, 42, 96
5, 11872, Note_off_c, 9, 42, 64
5, 11880, Note_on_c, 9, 42, 96
5, 11896, Note_off_c, 9, 42, 64
5, 11904, Note_on_c, 9, 42, 96
5, 11936, Note_off_c, 9, 42, 64
5, 11952, Note_on_c, 9, 42, 96
5, 11968, Note_off_c, 9, 42, 64
5, 11976, Note_on_c, 9, 42, 96
5, 12008, Note_off_c, 9, 42, 64
5, 12024, Note_on_c, 9, 42, 96
5, 12040, Note_off_c, 9, 42, 64
5, 12048, Note_on_c, 9, 42, 96
5, 12080, Note_off_c, 9, 42, 64
5, 12096, Note_on_c, 9, 42, 96
5, 12128, Note_off_c, 9, 42, 64
5, 12168, Note_on_c, 9, 42, 96
5, 12200, Note_off_c, 9, 42, 64
5, 12216, Note_on_c, 9, 42, 96
5, 12232, Note_off_c, 9, 42, 64
5, 12240, Note_on_c, 9, 42, 96
5, 12256, Note_off_c, 9, 42, 64
5, 12264, Note_on_c, 9, 42, 96
5, 12280, Note_off_c, 9, 42, 64
5, 12288, Note_on_c, 9, 42, 96
5, 12320, Note_off_c, 9, 42, 64
5, 12336, Note_on_c, 9, 42, 96
5, 12352, Note_off_c, 9, 42, 64
5, 12360, Note_on_c, 9, 42, 96
5, 12392, Note_off_c, 9, 42, 64
5, 12408, Note_on_c, 9, 42, 96
5, 12424, Note_off_c, 9, 42, 64
5, 12432, Note_on_c, 9, 42, 96
5, 12464, Note_off_c, 9, 42, 64
5, 12480, Note_on_c, 9, 42, 96
5, 12512, Note_off_c, 9, 42, 64
5, 12552, Note_on_c, 9, 42, 96
5, 12584, Note_off_c, 9, 42, 64
5, 12600, Note_on_c, 9, 42, 96
5, 12616, Note_off_c, 9, 42, 64
5, 12624, Note_on_c, 9, 42, 96
5, 12640, Note_off_c, 9, 42, 64
5, 12648, Note_on_c, 9, 42, 96
5, 12664, Note_off_c, 9, 42, 64
5, 12672, Note_on_c, 9, 42, 96
5, 12688, Note_off_c, 9, 42, 64
5, 12744, Note_on_c, 9, 42, 96
5, 12760, Note_off_c, 9, 42, 64
5, 12768, Note_on_c, 9, 42, 96
5, 12800, Note_off_c, 9, 42, 64
5, 12816, Note_on_c, 9, 42, 96
5, 12832, Note_off_c, 9, 42, 64
5, 12864, Note_on_c, 9, 42, 96
5, 12880, Note_off_c, 9, 42, 64
5, 12936, Note_on_c, 9, 42, 96
5, 12952, Note_off_c, 9, 42, 64
5, 12960, Note_on_c, 9, 42, 96
5, 12992, Note_off_c, 9, 42, 64
5, 13008, Note_on_c, 9, 42, 96
5, 13024, Note_off_c, 9, 42, 64
5, 13056, Note_on_c, 9, 42, 96
5, 13072, Note_off_c, 9, 42, 64
5, 13128, Note_on_c, 9, 42, 96
5, 13144, Note_off_c, 9, 42, 64
5, 13152, Note_on_c, 9, 42, 96
5, 13184, Note_off_c, 9, 42, 64
5, 13200, Note_on_c, 9, 42, 96
5, 13216, Note_off_c, 9, 42, 64
5, 13248, Note_on_c, 9, 42, 96
5, 13264, Note_off_c, 9, 42, 64
5, 13320, Note_on_c, 9, 42, 96
5, 13336, Note_off_c, 9, 42, 64
5, 13344, Note_on_c, 9, 42, 96
5, 13376, Note_off_c, 9, 42, 64
5, 13392, Note_on_c, 9, 42, 96
5, 13408, Note_off_c, 9, 42, 64
5, 13440, Note_on_c, 9, 42, 96
5, 13456, Note_off_c, 9, 42, 64
5, 13512, Note_on_c, 9, 42, 96
5, 13528, Note_off_c, 9, 42, 64
5, 13536, Note_on_c, 9, 42, 96
5, 13568, Note_off_c, 9, 42, 64
5, 13584, Note_on_c, 9, 42, 96
5, 13600, Note_off_c, 9, 42, 64
5, 13632, Note_on_c, 9, 42, 96
5, 13648, Note_off_c, 9, 42, 64
5, 13704, Note_on_c, 9, 42, 96
5, 13720, Note_off_c, 9, 42, 64
5, 13728, Note_on_c, 9, 42, 96
5, 13760, Note_off_c, 9, 42, 64
5, 13776, Note_on_c, 9, 42, 96
5, 13792, Note_off_c, 9, 42, 64
5, 13824, Note_on_c, 9, 42, 96
5, 13840, Note_off_c, 9, 42, 64
5, 13896, Note_on_c, 9, 42, 96
5, 13912, Note_off_c, 9, 42, 64
5, 13920, Note_on_c, 9, 42, 96
5, 13952, Note_off_c, 9, 42, 64
5, 13968, Note_on_c, 9, 42, 96
5, 13984, Note_off_c, 9, 42, 64
5, 14016, Note_on_c, 9, 42, 96
5, 14032, Note_off_c, 9, 42, 64
5, 14088, Note_on_c, 9, 42, 96
5, 14104, Note_off_c, 9, 42, 64
5, 14112, Note_on_c, 9, 42, 96
5, 14144, Note_off_c, 9, 42, 64
5, 14160, Note_on_c, 9, 42, 96
5, 14176, Note_off_c, 9, 42, 64
5, 14176, End_track
0, 0, End_of_file
