0, 0, Header, 1, 5, 384
1, 0, Start_track
1, 0, Title_t, "control track"
1, 0, Text_t, "creator: "
1, 0, Text_t, "GNU LilyPond 2.18.2           "
1, 0, Time_signature, 5, 2, 18, 8
1, 0, Tempo, 288461
1, 38400, Time_signature, 4, 2, 18, 8
1, 38400, Tempo, 416666
1, 46080, Tempo, 428571
1, 46080, End_track
2, 0, Start_track
2, 0, Program_c, 0, 29
2, 0, Program_c, 0, 29
2, 0, Key_signature, 1, "minor"
2, 0, Instrument_name_t, "overdriven guitar"
2, 0, Control_c, 0, 7, 100
2, 0, Note_on_c, 0, 60, 90
2, 384, Note_on_c, 0, 60, 0
2, 384, Note_on_c, 0, 54, 90
2, 576, Note_on_c, 0, 54, 0
2, 576, Note_on_c, 0, 60, 90
2, 960, Note_on_c, 0, 60, 0
2, 960, Note_on_c, 0, 60, 90
2, 1344, Note_on_c, 0, 60, 0
2, 1344, Note_on_c, 0, 60, 90
2, 1728, Note_on_c, 0, 60, 0
2, 1728, Note_on_c, 0, 54, 90
2, 1920, Note_on_c, 0, 54, 0
2, 1920, Note_on_c, 0, 60, 90
2, 2304, Note_on_c, 0, 60, 0
2, 2304, Note_on_c, 0, 60, 90
2, 2688, Note_on_c, 0, 60, 0
2, 2688, Note_on_c, 0, 60, 90
2, 3072, Note_on_c, 0, 60, 0
2, 3072, Note_on_c, 0, 60, 90
2, 3456, Note_on_c, 0, 60, 0
2, 3456, Note_on_c, 0, 54, 90
2, 3648, Note_on_c, 0, 54, 0
2, 3648, Note_on_c, 0, 54, 90
2, 3840, Note_on_c, 0, 54, 0
2, 3840, Note_on_c, 0, 60, 90
2, 4224, Note_on_c, 0, 60, 0
2, 4224, Note_on_c, 0, 54, 90
2, 4416, Note_on_c, 0, 54, 0
2, 4416, Note_on_c, 0, 60, 90
2, 4800, Note_on_c, 0, 60, 0
2, 4800, Note_on_c, 0, 60, 90
2, 5184, Note_on_c, 0, 60, 0
2, 5184, Note_on_c, 0, 60, 90
2, 5568, Note_on_c, 0, 60, 0
2, 5568, Note_on_c, 0, 54, 90
2, 5760, Note_on_c, 0, 54, 0
2, 5760, Note_on_c, 0, 60, 90
2, 6144, Note_on_c, 0, 60, 0
2, 6144, Note_on_c, 0, 60, 90
2, 6528, Note_on_c, 0, 60, 0
2, 6528, Note_on_c, 0, 60, 90
2, 6912, Note_on_c, 0, 60, 0
2, 6912, Note_on_c, 0, 60, 90
2, 7296, Note_on_c, 0, 60, 0
2, 7296, Note_on_c, 0, 54, 90
2, 7488, Note_on_c, 0, 54, 0
2, 7488, Note_on_c, 0, 54, 90
2, 7680, Note_on_c, 0, 54, 0
2, 7680, Note_on_c, 0, 60, 90
2, 8064, Note_on_c, 0, 60, 0
2, 8064, Note_on_c, 0, 54, 90
2, 8256, Note_on_c, 0, 54, 0
2, 8256, Note_on_c, 0, 60, 90
2, 8640, Note_on_c, 0, 60, 0
2, 8640, Note_on_c, 0, 60, 90
2, 9024, Note_on_c, 0, 60, 0
2, 9024, Note_on_c, 0, 60, 90
2, 9408, Note_on_c, 0, 60, 0
2, 9408, Note_on_c, 0, 54, 90
2, 9600, Note_on_c, 0, 54, 0
2, 9600, Note_on_c, 0, 60, 90
2, 9984, Note_on_c, 0, 60, 0
2, 9984, Note_on_c, 0, 60, 90
2, 10368, Note_on_c, 0, 60, 0
2, 10368, Note_on_c, 0, 60, 90
2, 10752, Note_on_c, 0, 60, 0
2, 10752, Note_on_c, 0, 60, 90
2, 11136, Note_on_c, 0, 60, 0
2, 11136, Note_on_c, 0, 54, 90
2, 11328, Note_on_c, 0, 54, 0
2, 11328, Note_on_c, 0, 54, 90
2, 11520, Note_on_c, 0, 54, 0
2, 11520, Note_on_c, 0, 60, 90
2, 11904, Note_on_c, 0, 60, 0
2, 11904, Note_on_c, 0, 54, 90
2, 12096, Note_on_c, 0, 54, 0
2, 12096, Note_on_c, 0, 60, 90
2, 12480, Note_on_c, 0, 60, 0
2, 12480, Note_on_c, 0, 60, 90
2, 12864, Note_on_c, 0, 60, 0
2, 12864, Note_on_c, 0, 60, 90
2, 13248, Note_on_c, 0, 60, 0
2, 13248, Note_on_c, 0, 54, 90
2, 13440, Note_on_c, 0, 54, 0
2, 13440, Note_on_c, 0, 60, 90
2, 13824, Note_on_c, 0, 60, 0
2, 13824, Note_on_c, 0, 60, 90
2, 14208, Note_on_c, 0, 60, 0
2, 14208, Note_on_c, 0, 60, 90
2, 14592, Note_on_c, 0, 60, 0
2, 14592, Note_on_c, 0, 60, 90
2, 14976, Note_on_c, 0, 60, 0
2, 14976, Note_on_c, 0, 54, 90
2, 15168, Note_on_c, 0, 54, 0
2, 15168, Note_on_c, 0, 54, 90
2, 15360, Note_on_c, 0, 54, 0
2, 15360, Note_on_c, 0, 60, 90
2, 15744, Note_on_c, 0, 60, 0
2, 15744, Note_on_c, 0, 54, 90
2, 15936, Note_on_c, 0, 54, 0
2, 15936, Note_on_c, 0, 60, 90
2, 16320, Note_on_c, 0, 60, 0
2, 16320, Note_on_c, 0, 60, 90
2, 16704, Note_on_c, 0, 60, 0
2, 16704, Note_on_c, 0, 60, 90
2, 17088, Note_on_c, 0, 60, 0
2, 17088, Note_on_c, 0, 54, 90
2, 17280, Note_on_c, 0, 54, 0
2, 17280, Note_on_c, 0, 60, 90
2, 17664, Note_on_c, 0, 60, 0
2, 17664, Note_on_c, 0, 60, 90
2, 18048, Note_on_c, 0, 60, 0
2, 18048, Note_on_c, 0, 60, 90
2, 18432, Note_on_c, 0, 60, 0
2, 18432, Note_on_c, 0, 60, 90
2, 18816, Note_on_c, 0, 60, 0
2, 18816, Note_on_c, 0, 54, 90
2, 19008, Note_on_c, 0, 54, 0
2, 19008, Note_on_c, 0, 54, 90
2, 19200, Note_on_c, 0, 54, 0
2, 19200, Note_on_c, 0, 60, 90
2, 19584, Note_on_c, 0, 60, 0
2, 19584, Note_on_c, 0, 54, 90
2, 19776, Note_on_c, 0, 54, 0
2, 19776, Note_on_c, 0, 60, 90
2, 20160, Note_on_c, 0, 60, 0
2, 20160, Note_on_c, 0, 60, 90
2, 20544, Note_on_c, 0, 60, 0
2, 20544, Note_on_c, 0, 60, 90
2, 20928, Note_on_c, 0, 60, 0
2, 20928, Note_on_c, 0, 54, 90
2, 21120, Note_on_c, 0, 54, 0
2, 21120, Note_on_c, 0, 60, 90
2, 21504, Note_on_c, 0, 60, 0
2, 21504, Note_on_c, 0, 60, 90
2, 21888, Note_on_c, 0, 60, 0
2, 21888, Note_on_c, 0, 60, 90
2, 22272, Note_on_c, 0, 60, 0
2, 22272, Note_on_c, 0, 60, 90
2, 22656, Note_on_c, 0, 60, 0
2, 22656, Note_on_c, 0, 54, 90
2, 22848, Note_on_c, 0, 54, 0
2, 22848, Note_on_c, 0, 54, 90
2, 23040, Note_on_c, 0, 54, 0
2, 23040, Note_on_c, 0, 60, 90
2, 23424, Note_on_c, 0, 60, 0
2, 23424, Note_on_c, 0, 54, 90
2, 23616, Note_on_c, 0, 54, 0
2, 23616, Note_on_c, 0, 60, 90
2, 24000, Note_on_c, 0, 60, 0
2, 24000, Note_on_c, 0, 60, 90
2, 24384, Note_on_c, 0, 60, 0
2, 24384, Note_on_c, 0, 60, 90
2, 24768, Note_on_c, 0, 60, 0
2, 24768, Note_on_c, 0, 54, 90
2, 24960, Note_on_c, 0, 54, 0
2, 24960, Note_on_c, 0, 60, 90
2, 25344, Note_on_c, 0, 60, 0
2, 25344, Note_on_c, 0, 60, 90
2, 25728, Note_on_c, 0, 60, 0
2, 25728, Note_on_c, 0, 60, 90
2, 26112, Note_on_c, 0, 60, 0
2, 26112, Note_on_c, 0, 60, 90
2, 26496, Note_on_c, 0, 60, 0
2, 26496, Note_on_c, 0, 54, 90
2, 26688, Note_on_c, 0, 54, 0
2, 26688, Note_on_c, 0, 54, 90
2, 26880, Note_on_c, 0, 54, 0
2, 26880, Note_on_c, 0, 60, 90
2, 27264, Note_on_c, 0, 60, 0
2, 27264, Note_on_c, 0, 54, 90
2, 27456, Note_on_c, 0, 54, 0
2, 27456, Note_on_c, 0, 60, 90
2, 27840, Note_on_c, 0, 60, 0
2, 27840, Note_on_c, 0, 60, 90
2, 28224, Note_on_c, 0, 60, 0
2, 28224, Note_on_c, 0, 60, 90
2, 28608, Note_on_c, 0, 60, 0
2, 28608, Note_on_c, 0, 54, 90
2, 28800, Note_on_c, 0, 54, 0
2, 28800, Note_on_c, 0, 60, 90
2, 29184, Note_on_c, 0, 60, 0
2, 29184, Note_on_c, 0, 60, 90
2, 29568, Note_on_c, 0, 60, 0
2, 29568, Note_on_c, 0, 60, 90
2, 29952, Note_on_c, 0, 60, 0
2, 29952, Note_on_c, 0, 60, 90
2, 30336, Note_on_c, 0, 60, 0
2, 30336, Note_on_c, 0, 54, 90
2, 30528, Note_on_c, 0, 54, 0
2, 30528, Note_on_c, 0, 54, 90
2, 30720, Note_on_c, 0, 54, 0
2, 30720, Note_on_c, 0, 60, 90
2, 31104, Note_on_c, 0, 60, 0
2, 31104, Note_on_c, 0, 54, 90
2, 31296, Note_on_c, 0, 54, 0
2, 31296, Note_on_c, 0, 60, 90
2, 31680, Note_on_c, 0, 60, 0
2, 31680, Note_on_c, 0, 60, 90
2, 32064, Note_on_c, 0, 60, 0
2, 32064, Note_on_c, 0, 60, 90
2, 32448, Note_on_c, 0, 60, 0
2, 32448, Note_on_c, 0, 54, 90
2, 32640, Note_on_c, 0, 54, 0
2, 32640, Note_on_c, 0, 60, 90
2, 33024, Note_on_c, 0, 60, 0
2, 33024, Note_on_c, 0, 60, 90
2, 33408, Note_on_c, 0, 60, 0
2, 33408, Note_on_c, 0, 60, 90
2, 33792, Note_on_c, 0, 60, 0
2, 33792, Note_on_c, 0, 60, 90
2, 34176, Note_on_c, 0, 60, 0
2, 34176, Note_on_c, 0, 54, 90
2, 34368, Note_on_c, 0, 54, 0
2, 34368, Note_on_c, 0, 54, 90
2, 34560, Note_on_c, 0, 54, 0
2, 34560, Note_on_c, 0, 60, 90
2, 34944, Note_on_c, 0, 60, 0
2, 35136, Note_on_c, 0, 60, 90
2, 35520, Note_on_c, 0, 60, 0
2, 35520, Note_on_c, 0, 60, 90
2, 35904, Note_on_c, 0, 60, 0
2, 35904, Note_on_c, 0, 60, 90
2, 36288, Note_on_c, 0, 60, 0
2, 36480, Note_on_c, 0, 60, 90
2, 36864, Note_on_c, 0, 60, 0
2, 36864, Note_on_c, 0, 60, 90
2, 37248, Note_on_c, 0, 60, 0
2, 37248, Note_on_c, 0, 60, 90
2, 37632, Note_on_c, 0, 60, 0
2, 37632, Note_on_c, 0, 60, 90
2, 37824, Note_on_c, 0, 60, 0
2, 39936, Note_on_c, 0, 60, 90
2, 40032, Note_on_c, 0, 60, 0
2, 40032, Note_on_c, 0, 60, 90
2, 40128, Note_on_c, 0, 60, 0
2, 40128, Note_on_c, 0, 61, 90
2, 40224, Note_on_c, 0, 61, 0
2, 40224, Note_on_c, 0, 63, 90
2, 40320, Note_on_c, 0, 63, 0
2, 40320, Note_on_c, 0, 64, 90
2, 40416, Note_on_c, 0, 64, 0
2, 40416, Note_on_c, 0, 66, 90
2, 40512, Note_on_c, 0, 66, 0
2, 40512, Note_on_c, 0, 68, 90
2, 40608, Note_on_c, 0, 68, 0
2, 40608, Note_on_c, 0, 69, 90
2, 40704, Note_on_c, 0, 69, 0
2, 40704, Note_on_c, 0, 71, 90
2, 40800, Note_on_c, 0, 71, 0
2, 40800, Note_on_c, 0, 73, 90
2, 40896, Note_on_c, 0, 73, 0
2, 40896, Note_on_c, 0, 75, 90
2, 40992, Note_on_c, 0, 75, 0
2, 40992, Note_on_c, 0, 76, 90
2, 41088, Note_on_c, 0, 76, 0
2, 41088, Note_on_c, 0, 75, 90
2, 41216, Note_on_c, 0, 75, 0
2, 41216, Note_on_c, 0, 73, 90
2, 41344, Note_on_c, 0, 73, 0
2, 41344, Note_on_c, 0, 72, 90
2, 42048, Note_on_c, 0, 72, 0
2, 42624, Note_on_c, 0, 72, 90
2, 42752, Note_on_c, 0, 72, 0
2, 42752, Note_on_c, 0, 71, 90
2, 42880, Note_on_c, 0, 71, 0
2, 42880, Note_on_c, 0, 67, 90
2, 43008, Note_on_c, 0, 67, 0
2, 43008, Note_on_c, 0, 66, 90
2, 43200, Note_on_c, 0, 66, 0
2, 43776, Note_on_c, 0, 74, 90
2, 43872, Note_on_c, 0, 74, 0
2, 43872, Note_on_c, 0, 74, 90
2, 43968, Note_on_c, 0, 74, 0
2, 43968, Note_on_c, 0, 72, 90
2, 44064, Note_on_c, 0, 72, 0
2, 44064, Note_on_c, 0, 74, 90
2, 44160, Note_on_c, 0, 74, 0
2, 44160, Note_on_c, 0, 72, 90
2, 44256, Note_on_c, 0, 72, 0
2, 44256, Note_on_c, 0, 71, 90
2, 44352, Note_on_c, 0, 71, 0
2, 44352, Note_on_c, 0, 69, 90
2, 44448, Note_on_c, 0, 69, 0
2, 44448, Note_on_c, 0, 67, 90
2, 44544, Note_on_c, 0, 67, 0
2, 44544, Note_on_c, 0, 66, 90
2, 45696, Note_on_c, 0, 66, 0
2, 45696, Note_on_c, 0, 54, 90
2, 46080, Note_on_c, 0, 54, 0
2, 46080, Key_signature, 2, "minor"
2, 46080, Note_on_c, 0, 69, 90
2, 46176, Note_on_c, 0, 69, 0
2, 46176, Note_on_c, 0, 69, 90
2, 46272, Note_on_c, 0, 69, 0
2, 46272, Note_on_c, 0, 66, 90
2, 46368, Note_on_c, 0, 66, 0
2, 46368, Note_on_c, 0, 69, 90
2, 46464, Note_on_c, 0, 69, 0
2, 46464, Note_on_c, 0, 66, 90
2, 46560, Note_on_c, 0, 66, 0
2, 46560, Note_on_c, 0, 65, 90
2, 46656, Note_on_c, 0, 65, 0
2, 46656, Note_on_c, 0, 64, 90
2, 46848, Note_on_c, 0, 64, 0
2, 46848, Note_on_c, 0, 61, 90
2, 47616, Note_on_c, 0, 61, 0
2, 47616, Note_on_c, 0, 69, 90
2, 47712, Note_on_c, 0, 69, 0
2, 47712, Note_on_c, 0, 69, 90
2, 47808, Note_on_c, 0, 69, 0
2, 47808, Note_on_c, 0, 66, 90
2, 47904, Note_on_c, 0, 66, 0
2, 47904, Note_on_c, 0, 69, 90
2, 48000, Note_on_c, 0, 69, 0
2, 48000, Note_on_c, 0, 66, 90
2, 48096, Note_on_c, 0, 66, 0
2, 48096, Note_on_c, 0, 64, 90
2, 48192, Note_on_c, 0, 64, 0
2, 48192, Note_on_c, 0, 61, 90
2, 48384, Note_on_c, 0, 61, 0
2, 48384, Note_on_c, 0, 59, 90
2, 48672, Note_on_c, 0, 59, 0
2, 48672, Note_on_c, 0, 61, 90
2, 48960, Note_on_c, 0, 61, 0
2, 48960, Note_on_c, 0, 54, 90
2, 49152, Note_on_c, 0, 54, 0
2, 49152, Note_on_c, 0, 69, 90
2, 49248, Note_on_c, 0, 69, 0
2, 49248, Note_on_c, 0, 69, 90
2, 49344, Note_on_c, 0, 69, 0
2, 49344, Note_on_c, 0, 66, 90
2, 49440, Note_on_c, 0, 66, 0
2, 49440, Note_on_c, 0, 69, 90
2, 49536, Note_on_c, 0, 69, 0
2, 49536, Note_on_c, 0, 66, 90
2, 49632, Note_on_c, 0, 66, 0
2, 49632, Note_on_c, 0, 65, 90
2, 49728, Note_on_c, 0, 65, 0
2, 49728, Note_on_c, 0, 64, 90
2, 49920, Note_on_c, 0, 64, 0
2, 49920, Note_on_c, 0, 61, 90
2, 50688, Note_on_c, 0, 61, 0
2, 50688, Note_on_c, 0, 69, 90
2, 50784, Note_on_c, 0, 69, 0
2, 50784, Note_on_c, 0, 69, 90
2, 50880, Note_on_c, 0, 69, 0
2, 50880, Note_on_c, 0, 66, 90
2, 50976, Note_on_c, 0, 66, 0
2, 50976, Note_on_c, 0, 69, 90
2, 51072, Note_on_c, 0, 69, 0
2, 51072, Note_on_c, 0, 66, 90
2, 51168, Note_on_c, 0, 66, 0
2, 51168, Note_on_c, 0, 64, 90
2, 51264, Note_on_c, 0, 64, 0
2, 51264, Note_on_c, 0, 61, 90
2, 51456, Note_on_c, 0, 61, 0
2, 51456, Note_on_c, 0, 59, 90
2, 51744, Note_on_c, 0, 59, 0
2, 51744, Note_on_c, 0, 61, 90
2, 52032, Note_on_c, 0, 61, 0
2, 52032, Note_on_c, 0, 54, 90
2, 52224, Note_on_c, 0, 54, 0
2, 52224, Note_on_c, 0, 72, 90
2, 52320, Note_on_c, 0, 72, 0
2, 52320, Note_on_c, 0, 72, 90
2, 52416, Note_on_c, 0, 72, 0
2, 52416, Note_on_c, 0, 69, 90
2, 52512, Note_on_c, 0, 69, 0
2, 52512, Note_on_c, 0, 72, 90
2, 52608, Note_on_c, 0, 72, 0
2, 52608, Note_on_c, 0, 69, 90
2, 52704, Note_on_c, 0, 69, 0
2, 52704, Note_on_c, 0, 68, 90
2, 52800, Note_on_c, 0, 68, 0
2, 52800, Note_on_c, 0, 67, 90
2, 52992, Note_on_c, 0, 67, 0
2, 52992, Note_on_c, 0, 64, 90
2, 53760, Note_on_c, 0, 64, 0
2, 53760, Note_on_c, 0, 72, 90
2, 53856, Note_on_c, 0, 72, 0
2, 53856, Note_on_c, 0, 72, 90
2, 53952, Note_on_c, 0, 72, 0
2, 53952, Note_on_c, 0, 69, 90
2, 54048, Note_on_c, 0, 69, 0
2, 54048, Note_on_c, 0, 72, 90
2, 54144, Note_on_c, 0, 72, 0
2, 54144, Note_on_c, 0, 69, 90
2, 54240, Note_on_c, 0, 69, 0
2, 54240, Note_on_c, 0, 67, 90
2, 54336, Note_on_c, 0, 67, 0
2, 54336, Note_on_c, 0, 64, 90
2, 54528, Note_on_c, 0, 64, 0
2, 54528, Note_on_c, 0, 62, 90
2, 54816, Note_on_c, 0, 62, 0
2, 54816, Note_on_c, 0, 64, 90
2, 55104, Note_on_c, 0, 64, 0
2, 55104, Note_on_c, 0, 57, 90
2, 55296, Note_on_c, 0, 57, 0
2, 55296, Note_on_c, 0, 72, 90
2, 55392, Note_on_c, 0, 72, 0
2, 55392, Note_on_c, 0, 72, 90
2, 55488, Note_on_c, 0, 72, 0
2, 55488, Note_on_c, 0, 69, 90
2, 55584, Note_on_c, 0, 69, 0
2, 55584, Note_on_c, 0, 72, 90
2, 55680, Note_on_c, 0, 72, 0
2, 55680, Note_on_c, 0, 69, 90
2, 55776, Note_on_c, 0, 69, 0
2, 55776, Note_on_c, 0, 68, 90
2, 55872, Note_on_c, 0, 68, 0
2, 55872, Note_on_c, 0, 67, 90
2, 56064, Note_on_c, 0, 67, 0
2, 56064, Note_on_c, 0, 64, 90
2, 56832, Note_on_c, 0, 64, 0
2, 56832, Note_on_c, 0, 72, 90
2, 56928, Note_on_c, 0, 72, 0
2, 56928, Note_on_c, 0, 72, 90
2, 57024, Note_on_c, 0, 72, 0
2, 57024, Note_on_c, 0, 69, 90
2, 57120, Note_on_c, 0, 69, 0
2, 57120, Note_on_c, 0, 72, 90
2, 57216, Note_on_c, 0, 72, 0
2, 57216, Note_on_c, 0, 69, 90
2, 57312, Note_on_c, 0, 69, 0
2, 57312, Note_on_c, 0, 68, 90
2, 57408, Note_on_c, 0, 68, 0
2, 57408, Note_on_c, 0, 67, 90
2, 57504, Note_on_c, 0, 67, 0
2, 57504, Note_on_c, 0, 64, 90
2, 57600, Note_on_c, 0, 64, 0
2, 57600, Note_on_c, 0, 67, 90
2, 57696, Note_on_c, 0, 67, 0
2, 57696, Note_on_c, 0, 67, 90
2, 57792, Note_on_c, 0, 67, 0
2, 57792, Note_on_c, 0, 64, 90
2, 57888, Note_on_c, 0, 64, 0
2, 57888, Note_on_c, 0, 67, 90
2, 58176, Note_on_c, 0, 67, 0
2, 58176, Note_on_c, 0, 64, 90
2, 58368, Note_on_c, 0, 64, 0
2, 58368, Note_on_c, 0, 69, 90
2, 58464, Note_on_c, 0, 69, 0
2, 58464, Note_on_c, 0, 69, 90
2, 58560, Note_on_c, 0, 69, 0
2, 58560, Note_on_c, 0, 66, 90
2, 58656, Note_on_c, 0, 66, 0
2, 58656, Note_on_c, 0, 69, 90
2, 58752, Note_on_c, 0, 69, 0
2, 58752, Note_on_c, 0, 66, 90
2, 58848, Note_on_c, 0, 66, 0
2, 58848, Note_on_c, 0, 65, 90
2, 58944, Note_on_c, 0, 65, 0
2, 58944, Note_on_c, 0, 64, 90
2, 59136, Note_on_c, 0, 64, 0
2, 59136, Note_on_c, 0, 61, 90
2, 59904, Note_on_c, 0, 61, 0
2, 59904, Note_on_c, 0, 69, 90
2, 60000, Note_on_c, 0, 69, 0
2, 60000, Note_on_c, 0, 69, 90
2, 60096, Note_on_c, 0, 69, 0
2, 60096, Note_on_c, 0, 66, 90
2, 60192, Note_on_c, 0, 66, 0
2, 60192, Note_on_c, 0, 69, 90
2, 60288, Note_on_c, 0, 69, 0
2, 60288, Note_on_c, 0, 66, 90
2, 60384, Note_on_c, 0, 66, 0
2, 60384, Note_on_c, 0, 64, 90
2, 60480, Note_on_c, 0, 64, 0
2, 60480, Note_on_c, 0, 61, 90
2, 60672, Note_on_c, 0, 61, 0
2, 60672, Note_on_c, 0, 59, 90
2, 60960, Note_on_c, 0, 59, 0
2, 60960, Note_on_c, 0, 61, 90
2, 61248, Note_on_c, 0, 61, 0
2, 61248, Note_on_c, 0, 54, 90
2, 61440, Note_on_c, 0, 54, 0
2, 61440, Note_on_c, 0, 69, 90
2, 61536, Note_on_c, 0, 69, 0
2, 61536, Note_on_c, 0, 69, 90
2, 61632, Note_on_c, 0, 69, 0
2, 61632, Note_on_c, 0, 66, 90
2, 61728, Note_on_c, 0, 66, 0
2, 61728, Note_on_c, 0, 69, 90
2, 61824, Note_on_c, 0, 69, 0
2, 61824, Note_on_c, 0, 66, 90
2, 61920, Note_on_c, 0, 66, 0
2, 61920, Note_on_c, 0, 65, 90
2, 62016, Note_on_c, 0, 65, 0
2, 62016, Note_on_c, 0, 64, 90
2, 62208, Note_on_c, 0, 64, 0
2, 62208, Note_on_c, 0, 61, 90
2, 62976, Note_on_c, 0, 61, 0
2, 62976, Note_on_c, 0, 69, 90
2, 63072, Note_on_c, 0, 69, 0
2, 63072, Note_on_c, 0, 69, 90
2, 63168, Note_on_c, 0, 69, 0
2, 63168, Note_on_c, 0, 66, 90
2, 63264, Note_on_c, 0, 66, 0
2, 63264, Note_on_c, 0, 69, 90
2, 63360, Note_on_c, 0, 69, 0
2, 63360, Note_on_c, 0, 66, 90
2, 63456, Note_on_c, 0, 66, 0
2, 63456, Note_on_c, 0, 64, 90
2, 63552, Note_on_c, 0, 64, 0
2, 63552, Note_on_c, 0, 61, 90
2, 63744, Note_on_c, 0, 61, 0
2, 63744, Note_on_c, 0, 59, 90
2, 64032, Note_on_c, 0, 59, 0
2, 64032, Note_on_c, 0, 61, 90
2, 64320, Note_on_c, 0, 61, 0
2, 64320, Note_on_c, 0, 54, 90
2, 64512, Note_on_c, 0, 54, 0
2, 64512, Note_on_c, 0, 72, 90
2, 64608, Note_on_c, 0, 72, 0
2, 64608, Note_on_c, 0, 72, 90
2, 64704, Note_on_c, 0, 72, 0
2, 64704, Note_on_c, 0, 69, 90
2, 64800, Note_on_c, 0, 69, 0
2, 64800, Note_on_c, 0, 72, 90
2, 64896, Note_on_c, 0, 72, 0
2, 64896, Note_on_c, 0, 69, 90
2, 64992, Note_on_c, 0, 69, 0
2, 64992, Note_on_c, 0, 68, 90
2, 65088, Note_on_c, 0, 68, 0
2, 65088, Note_on_c, 0, 67, 90
2, 65280, Note_on_c, 0, 67, 0
2, 65280, Note_on_c, 0, 64, 90
2, 66048, Note_on_c, 0, 64, 0
2, 66048, Note_on_c, 0, 72, 90
2, 66144, Note_on_c, 0, 72, 0
2, 66144, Note_on_c, 0, 72, 90
2, 66240, Note_on_c, 0, 72, 0
2, 66240, Note_on_c, 0, 69, 90
2, 66336, Note_on_c, 0, 69, 0
2, 66336, Note_on_c, 0, 72, 90
2, 66432, Note_on_c, 0, 72, 0
2, 66432, Note_on_c, 0, 69, 90
2, 66528, Note_on_c, 0, 69, 0
2, 66528, Note_on_c, 0, 67, 90
2, 66624, Note_on_c, 0, 67, 0
2, 66624, Note_on_c, 0, 64, 90
2, 66816, Note_on_c, 0, 64, 0
2, 66816, Note_on_c, 0, 62, 90
2, 67104, Note_on_c, 0, 62, 0
2, 67104, Note_on_c, 0, 64, 90
2, 67392, Note_on_c, 0, 64, 0
2, 67392, Note_on_c, 0, 57, 90
2, 67584, Note_on_c, 0, 57, 0
2, 67584, Note_on_c, 0, 72, 90
2, 67680, Note_on_c, 0, 72, 0
2, 67680, Note_on_c, 0, 72, 90
2, 67776, Note_on_c, 0, 72, 0
2, 67776, Note_on_c, 0, 69, 90
2, 67872, Note_on_c, 0, 69, 0
2, 67872, Note_on_c, 0, 72, 90
2, 67968, Note_on_c, 0, 72, 0
2, 67968, Note_on_c, 0, 69, 90
2, 68064, Note_on_c, 0, 69, 0
2, 68064, Note_on_c, 0, 68, 90
2, 68160, Note_on_c, 0, 68, 0
2, 68160, Note_on_c, 0, 67, 90
2, 68352, Note_on_c, 0, 67, 0
2, 68352, Note_on_c, 0, 64, 90
2, 69120, Note_on_c, 0, 64, 0
2, 69120, Note_on_c, 0, 72, 90
2, 69216, Note_on_c, 0, 72, 0
2, 69216, Note_on_c, 0, 72, 90
2, 69312, Note_on_c, 0, 72, 0
2, 69312, Note_on_c, 0, 69, 90
2, 69408, Note_on_c, 0, 69, 0
2, 69408, Note_on_c, 0, 72, 90
2, 69504, Note_on_c, 0, 72, 0
2, 69504, Note_on_c, 0, 69, 90
2, 69600, Note_on_c, 0, 69, 0
2, 69600, Note_on_c, 0, 67, 90
2, 69696, Note_on_c, 0, 67, 0
2, 69696, Note_on_c, 0, 64, 90
2, 69888, Note_on_c, 0, 64, 0
2, 69888, Note_on_c, 0, 62, 90
2, 70176, Note_on_c, 0, 62, 0
2, 70176, Note_on_c, 0, 64, 90
2, 70464, Note_on_c, 0, 64, 0
2, 70464, Note_on_c, 0, 57, 90
2, 70656, Note_on_c, 0, 57, 0
2, 70656, Note_on_c, 0, 63, 90
2, 70944, Note_on_c, 0, 63, 0
2, 70944, Note_on_c, 0, 64, 90
2, 71232, Note_on_c, 0, 64, 0
2, 71232, Note_on_c, 0, 66, 90
2, 71424, Note_on_c, 0, 66, 0
2, 71424, Note_on_c, 0, 57, 90
2, 72192, Note_on_c, 0, 57, 0
2, 72384, Note_on_c, 0, 63, 90
2, 72576, Note_on_c, 0, 63, 0
2, 72576, Note_on_c, 0, 64, 90
2, 72768, Note_on_c, 0, 64, 0
2, 72768, Note_on_c, 0, 66, 90
2, 72960, Note_on_c, 0, 66, 0
2, 72960, Note_on_c, 0, 68, 90
2, 73344, Note_on_c, 0, 68, 0
2, 73344, Note_on_c, 0, 66, 90
2, 73728, Note_on_c, 0, 66, 0
2, 73728, Note_on_c, 0, 63, 90
2, 74016, Note_on_c, 0, 63, 0
2, 74016, Note_on_c, 0, 64, 90
2, 74304, Note_on_c, 0, 64, 0
2, 74304, Note_on_c, 0, 66, 90
2, 74496, Note_on_c, 0, 66, 0
2, 74496, Note_on_c, 0, 57, 90
2, 74592, Note_on_c, 0, 57, 0
2, 74592, Note_on_c, 0, 57, 90
2, 74688, Note_on_c, 0, 57, 0
2, 74688, Note_on_c, 0, 57, 90
2, 74784, Note_on_c, 0, 57, 0
2, 74784, Note_on_c, 0, 57, 90
2, 74880, Note_on_c, 0, 57, 0
2, 74880, Note_on_c, 0, 59, 90
2, 75264, Note_on_c, 0, 59, 0
2, 75456, Note_on_c, 0, 63, 90
2, 75648, Note_on_c, 0, 63, 0
2, 75648, Note_on_c, 0, 64, 90
2, 75840, Note_on_c, 0, 64, 0
2, 75840, Note_on_c, 0, 66, 90
2, 76032, Note_on_c, 0, 66, 0
2, 76032, Note_on_c, 0, 68, 90
2, 76416, Note_on_c, 0, 68, 0
2, 76416, Note_on_c, 0, 66, 90
2, 76800, Note_on_c, 0, 66, 0
2, 76800, Note_on_c, 0, 60, 90
2, 77088, Note_on_c, 0, 60, 0
2, 77088, Note_on_c, 0, 62, 90
2, 77376, Note_on_c, 0, 62, 0
2, 77376, Note_on_c, 0, 64, 90
2, 77568, Note_on_c, 0, 64, 0
2, 77568, Note_on_c, 0, 62, 90
2, 77664, Note_on_c, 0, 62, 0
2, 77664, Note_on_c, 0, 64, 90
2, 77760, Note_on_c, 0, 64, 0
2, 77760, Note_on_c, 0, 62, 90
2, 77856, Note_on_c, 0, 62, 0
2, 77856, Note_on_c, 0, 64, 90
2, 77952, Note_on_c, 0, 64, 0
2, 77952, Note_on_c, 0, 67, 90
2, 78336, Note_on_c, 0, 67, 0
2, 78528, Note_on_c, 0, 60, 90
2, 78720, Note_on_c, 0, 60, 0
2, 78720, Note_on_c, 0, 62, 90
2, 78912, Note_on_c, 0, 62, 0
2, 78912, Note_on_c, 0, 64, 90
2, 79104, Note_on_c, 0, 64, 0
2, 79104, Note_on_c, 0, 62, 90
2, 79200, Note_on_c, 0, 62, 0
2, 79200, Note_on_c, 0, 64, 90
2, 79296, Note_on_c, 0, 64, 0
2, 79296, Note_on_c, 0, 62, 90
2, 79392, Note_on_c, 0, 62, 0
2, 79392, Note_on_c, 0, 64, 90
2, 79488, Note_on_c, 0, 64, 0
2, 79488, Note_on_c, 0, 67, 90
2, 79584, Note_on_c, 0, 67, 0
2, 79584, Note_on_c, 0, 64, 90
2, 79680, Note_on_c, 0, 64, 0
2, 79680, Note_on_c, 0, 67, 90
2, 79872, Note_on_c, 0, 67, 0
2, 79872, Note_on_c, 0, 60, 90
2, 80160, Note_on_c, 0, 60, 0
2, 80160, Note_on_c, 0, 62, 90
2, 80448, Note_on_c, 0, 62, 0
2, 80448, Note_on_c, 0, 64, 90
2, 80640, Note_on_c, 0, 64, 0
2, 80640, Note_on_c, 0, 62, 90
2, 80736, Note_on_c, 0, 62, 0
2, 80736, Note_on_c, 0, 64, 90
2, 80832, Note_on_c, 0, 64, 0
2, 80832, Note_on_c, 0, 62, 90
2, 80928, Note_on_c, 0, 62, 0
2, 80928, Note_on_c, 0, 64, 90
2, 81024, Note_on_c, 0, 64, 0
2, 81024, Note_on_c, 0, 67, 90
2, 81408, Note_on_c, 0, 67, 0
2, 81600, Note_on_c, 0, 60, 90
2, 81792, Note_on_c, 0, 60, 0
2, 81792, Note_on_c, 0, 62, 90
2, 81984, Note_on_c, 0, 62, 0
2, 81984, Note_on_c, 0, 64, 90
2, 82176, Note_on_c, 0, 64, 0
2, 82176, Note_on_c, 0, 62, 90
2, 82272, Note_on_c, 0, 62, 0
2, 82272, Note_on_c, 0, 64, 90
2, 82368, Note_on_c, 0, 64, 0
2, 82368, Note_on_c, 0, 62, 90
2, 82464, Note_on_c, 0, 62, 0
2, 82464, Note_on_c, 0, 64, 90
2, 82560, Note_on_c, 0, 64, 0
2, 82560, Note_on_c, 0, 67, 90
2, 82656, Note_on_c, 0, 67, 0
2, 82656, Note_on_c, 0, 64, 90
2, 82752, Note_on_c, 0, 64, 0
2, 82752, Note_on_c, 0, 67, 90
2, 82944, Note_on_c, 0, 67, 0
2, 82944, Note_on_c, 0, 63, 90
2, 83232, Note_on_c, 0, 63, 0
2, 83232, Note_on_c, 0, 64, 90
2, 83520, Note_on_c, 0, 64, 0
2, 83520, Note_on_c, 0, 66, 90
2, 83712, Note_on_c, 0, 66, 0
2, 83712, Note_on_c, 0, 57, 90
2, 84480, Note_on_c, 0, 57, 0
2, 84672, Note_on_c, 0, 63, 90
2, 84864, Note_on_c, 0, 63, 0
2, 84864, Note_on_c, 0, 64, 90
2, 85056, Note_on_c, 0, 64, 0
2, 85056, Note_on_c, 0, 66, 90
2, 85248, Note_on_c, 0, 66, 0
2, 85248, Note_on_c, 0, 68, 90
2, 85632, Note_on_c, 0, 68, 0
2, 85632, Note_on_c, 0, 66, 90
2, 86016, Note_on_c, 0, 66, 0
2, 86016, Note_on_c, 0, 63, 90
2, 86304, Note_on_c, 0, 63, 0
2, 86304, Note_on_c, 0, 64, 90
2, 86592, Note_on_c, 0, 64, 0
2, 86592, Note_on_c, 0, 66, 90
2, 86784, Note_on_c, 0, 66, 0
2, 86784, Note_on_c, 0, 57, 90
2, 86880, Note_on_c, 0, 57, 0
2, 86880, Note_on_c, 0, 57, 90
2, 86976, Note_on_c, 0, 57, 0
2, 86976, Note_on_c, 0, 57, 90
2, 87072, Note_on_c, 0, 57, 0
2, 87072, Note_on_c, 0, 57, 90
2, 87168, Note_on_c, 0, 57, 0
2, 87168, Note_on_c, 0, 59, 90
2, 87552, Note_on_c, 0, 59, 0
2, 87744, Note_on_c, 0, 63, 90
2, 87936, Note_on_c, 0, 63, 0
2, 87936, Note_on_c, 0, 64, 90
2, 88128, Note_on_c, 0, 64, 0
2, 88128, Note_on_c, 0, 66, 90
2, 88320, Note_on_c, 0, 66, 0
2, 88320, Note_on_c, 0, 68, 90
2, 88704, Note_on_c, 0, 68, 0
2, 88704, Note_on_c, 0, 66, 90
2, 89088, Note_on_c, 0, 66, 0
2, 89088, Note_on_c, 0, 60, 90
2, 89376, Note_on_c, 0, 60, 0
2, 89376, Note_on_c, 0, 62, 90
2, 89664, Note_on_c, 0, 62, 0
2, 89664, Note_on_c, 0, 64, 90
2, 89856, Note_on_c, 0, 64, 0
2, 89856, Note_on_c, 0, 62, 90
2, 89952, Note_on_c, 0, 62, 0
2, 89952, Note_on_c, 0, 64, 90
2, 90048, Note_on_c, 0, 64, 0
2, 90048, Note_on_c, 0, 62, 90
2, 90144, Note_on_c, 0, 62, 0
2, 90144, Note_on_c, 0, 64, 90
2, 90240, Note_on_c, 0, 64, 0
2, 90240, Note_on_c, 0, 67, 90
2, 90624, Note_on_c, 0, 67, 0
2, 90816, Note_on_c, 0, 60, 90
2, 91008, Note_on_c, 0, 60, 0
2, 91008, Note_on_c, 0, 62, 90
2, 91200, Note_on_c, 0, 62, 0
2, 91200, Note_on_c, 0, 64, 90
2, 91392, Note_on_c, 0, 64, 0
2, 91392, Note_on_c, 0, 62, 90
2, 91488, Note_on_c, 0, 62, 0
2, 91488, Note_on_c, 0, 64, 90
2, 91584, Note_on_c, 0, 64, 0
2, 91584, Note_on_c, 0, 62, 90
2, 91680, Note_on_c, 0, 62, 0
2, 91680, Note_on_c, 0, 64, 90
2, 91776, Note_on_c, 0, 64, 0
2, 91776, Note_on_c, 0, 67, 90
2, 91872, Note_on_c, 0, 67, 0
2, 91872, Note_on_c, 0, 64, 90
2, 91968, Note_on_c, 0, 64, 0
2, 91968, Note_on_c, 0, 67, 90
2, 92160, Note_on_c, 0, 67, 0
2, 92160, Note_on_c, 0, 60, 90
2, 92448, Note_on_c, 0, 60, 0
2, 92448, Note_on_c, 0, 62, 90
2, 92736, Note_on_c, 0, 62, 0
2, 92736, Note_on_c, 0, 64, 90
2, 92928, Note_on_c, 0, 64, 0
2, 92928, Note_on_c, 0, 62, 90
2, 93024, Note_on_c, 0, 62, 0
2, 93024, Note_on_c, 0, 64, 90
2, 93120, Note_on_c, 0, 64, 0
2, 93120, Note_on_c, 0, 62, 90
2, 93216, Note_on_c, 0, 62, 0
2, 93216, Note_on_c, 0, 64, 90
2, 93312, Note_on_c, 0, 64, 0
2, 93312, Note_on_c, 0, 67, 90
2, 93696, Note_on_c, 0, 67, 0
2, 93888, Note_on_c, 0, 60, 90
2, 94080, Note_on_c, 0, 60, 0
2, 94080, Note_on_c, 0, 62, 90
2, 94272, Note_on_c, 0, 62, 0
2, 94272, Note_on_c, 0, 64, 90
2, 94464, Note_on_c, 0, 64, 0
2, 94464, Note_on_c, 0, 62, 90
2, 94560, Note_on_c, 0, 62, 0
2, 94560, Note_on_c, 0, 64, 90
2, 94656, Note_on_c, 0, 64, 0
2, 94656, Note_on_c, 0, 62, 90
2, 94752, Note_on_c, 0, 62, 0
2, 94752, Note_on_c, 0, 64, 90
2, 94848, Note_on_c, 0, 64, 0
2, 94848, Note_on_c, 0, 67, 90
2, 94944, Note_on_c, 0, 67, 0
2, 94944, Note_on_c, 0, 64, 90
2, 95040, Note_on_c, 0, 64, 0
2, 95040, Note_on_c, 0, 67, 90
2, 95232, Note_on_c, 0, 67, 0
2, 95232, Note_on_c, 0, 71, 90
2, 95424, Note_on_c, 0, 71, 0
2, 95424, End_track
3, 0, Start_track
3, 0, Program_c, 1, 48
3, 0, Program_c, 1, 48
3, 0, Key_signature, 1, "minor"
3, 0, Instrument_name_t, "string ensemble 1"
3, 0, Control_c, 1, 7, 100
3, 0, Note_on_c, 1, 78, 90
3, 3840, Note_on_c, 1, 78, 0
3, 3840, Note_on_c, 1, 80, 90
3, 7680, Note_on_c, 1, 80, 0
3, 7680, Note_on_c, 1, 75, 90
3, 9024, Note_on_c, 1, 75, 0
3, 9024, Note_on_c, 1, 73, 90
3, 11520, Note_on_c, 1, 73, 0
3, 11520, Note_on_c, 1, 72, 90
3, 15360, Note_on_c, 1, 72, 0
3, 15360, Note_on_c, 1, 78, 90
3, 19200, Note_on_c, 1, 78, 0
3, 19200, Note_on_c, 1, 80, 90
3, 23040, Note_on_c, 1, 80, 0
3, 23040, Note_on_c, 1, 75, 90
3, 24384, Note_on_c, 1, 75, 0
3, 24384, Note_on_c, 1, 73, 90
3, 26880, Note_on_c, 1, 73, 0
3, 26880, Note_on_c, 1, 72, 90
3, 30720, Note_on_c, 1, 72, 0
3, 30720, Note_on_c, 1, 72, 90
3, 34560, Note_on_c, 1, 72, 0
3, 34560, End_track
4, 0, Start_track
4, 0, Program_c, 2, 33
4, 0, Program_c, 2, 33
4, 0, Key_signature, 1, "minor"
4, 0, Instrument_name_t, "electric bass (finger)"
4, 0, Control_c, 2, 7, 100
4, 0, Note_on_c, 2, 48, 90
4, 384, Note_on_c, 2, 48, 0
4, 384, Note_on_c, 2, 42, 90
4, 576, Note_on_c, 2, 42, 0
4, 576, Note_on_c, 2, 48, 90
4, 960, Note_on_c, 2, 48, 0
4, 960, Note_on_c, 2, 48, 90
4, 1344, Note_on_c, 2, 48, 0
4, 1344, Note_on_c, 2, 48, 90
4, 1728, Note_on_c, 2, 48, 0
4, 1728, Note_on_c, 2, 42, 90
4, 1920, Note_on_c, 2, 42, 0
4, 1920, Note_on_c, 2, 48, 90
4, 2304, Note_on_c, 2, 48, 0
4, 2304, Note_on_c, 2, 48, 90
4, 2688, Note_on_c, 2, 48, 0
4, 2688, Note_on_c, 2, 48, 90
4, 3072, Note_on_c, 2, 48, 0
4, 3072, Note_on_c, 2, 48, 90
4, 3456, Note_on_c, 2, 48, 0
4, 3456, Note_on_c, 2, 42, 90
4, 3648, Note_on_c, 2, 42, 0
4, 3648, Note_on_c, 2, 42, 90
4, 3840, Note_on_c, 2, 42, 0
4, 3840, Note_on_c, 2, 48, 90
4, 4224, Note_on_c, 2, 48, 0
4, 4224, Note_on_c, 2, 42, 90
4, 4416, Note_on_c, 2, 42, 0
4, 4416, Note_on_c, 2, 48, 90
4, 4800, Note_on_c, 2, 48, 0
4, 4800, Note_on_c, 2, 48, 90
4, 5184, Note_on_c, 2, 48, 0
4, 5184, Note_on_c, 2, 48, 90
4, 5568, Note_on_c, 2, 48, 0
4, 5568, Note_on_c, 2, 42, 90
4, 5760, Note_on_c, 2, 42, 0
4, 5760, Note_on_c, 2, 48, 90
4, 6144, Note_on_c, 2, 48, 0
4, 6144, Note_on_c, 2, 48, 90
4, 6528, Note_on_c, 2, 48, 0
4, 6528, Note_on_c, 2, 48, 90
4, 6912, Note_on_c, 2, 48, 0
4, 6912, Note_on_c, 2, 48, 90
4, 7296, Note_on_c, 2, 48, 0
4, 7296, Note_on_c, 2, 42, 90
4, 7488, Note_on_c, 2, 42, 0
4, 7488, Note_on_c, 2, 42, 90
4, 7680, Note_on_c, 2, 42, 0
4, 7680, Note_on_c, 2, 48, 90
4, 8064, Note_on_c, 2, 48, 0
4, 8064, Note_on_c, 2, 42, 90
4, 8256, Note_on_c, 2, 42, 0
4, 8256, Note_on_c, 2, 48, 90
4, 8640, Note_on_c, 2, 48, 0
4, 8640, Note_on_c, 2, 48, 90
4, 9024, Note_on_c, 2, 48, 0
4, 9024, Note_on_c, 2, 48, 90
4, 9408, Note_on_c, 2, 48, 0
4, 9408, Note_on_c, 2, 42, 90
4, 9600, Note_on_c, 2, 42, 0
4, 9600, Note_on_c, 2, 48, 90
4, 9984, Note_on_c, 2, 48, 0
4, 9984, Note_on_c, 2, 48, 90
4, 10368, Note_on_c, 2, 48, 0
4, 10368, Note_on_c, 2, 48, 90
4, 10752, Note_on_c, 2, 48, 0
4, 10752, Note_on_c, 2, 48, 90
4, 11136, Note_on_c, 2, 48, 0
4, 11136, Note_on_c, 2, 42, 90
4, 11328, Note_on_c, 2, 42, 0
4, 11328, Note_on_c, 2, 42, 90
4, 11520, Note_on_c, 2, 42, 0
4, 11520, Note_on_c, 2, 48, 90
4, 11904, Note_on_c, 2, 48, 0
4, 11904, Note_on_c, 2, 42, 90
4, 12096, Note_on_c, 2, 42, 0
4, 12096, Note_on_c, 2, 48, 90
4, 12480, Note_on_c, 2, 48, 0
4, 12480, Note_on_c, 2, 48, 90
4, 12864, Note_on_c, 2, 48, 0
4, 12864, Note_on_c, 2, 48, 90
4, 13248, Note_on_c, 2, 48, 0
4, 13248, Note_on_c, 2, 42, 90
4, 13440, Note_on_c, 2, 42, 0
4, 13440, Note_on_c, 2, 48, 90
4, 13824, Note_on_c, 2, 48, 0
4, 13824, Note_on_c, 2, 48, 90
4, 14208, Note_on_c, 2, 48, 0
4, 14208, Note_on_c, 2, 48, 90
4, 14592, Note_on_c, 2, 48, 0
4, 14592, Note_on_c, 2, 48, 90
4, 14976, Note_on_c, 2, 48, 0
4, 14976, Note_on_c, 2, 42, 90
4, 15168, Note_on_c, 2, 42, 0
4, 15168, Note_on_c, 2, 42, 90
4, 15360, Note_on_c, 2, 42, 0
4, 15360, Note_on_c, 2, 48, 90
4, 15744, Note_on_c, 2, 48, 0
4, 15744, Note_on_c, 2, 42, 90
4, 15936, Note_on_c, 2, 42, 0
4, 15936, Note_on_c, 2, 48, 90
4, 16320, Note_on_c, 2, 48, 0
4, 16320, Note_on_c, 2, 48, 90
4, 16704, Note_on_c, 2, 48, 0
4, 16704, Note_on_c, 2, 48, 90
4, 17088, Note_on_c, 2, 48, 0
4, 17088, Note_on_c, 2, 42, 90
4, 17280, Note_on_c, 2, 42, 0
4, 17280, Note_on_c, 2, 48, 90
4, 17664, Note_on_c, 2, 48, 0
4, 17664, Note_on_c, 2, 48, 90
4, 18048, Note_on_c, 2, 48, 0
4, 18048, Note_on_c, 2, 48, 90
4, 18432, Note_on_c, 2, 48, 0
4, 18432, Note_on_c, 2, 48, 90
4, 18816, Note_on_c, 2, 48, 0
4, 18816, Note_on_c, 2, 42, 90
4, 19008, Note_on_c, 2, 42, 0
4, 19008, Note_on_c, 2, 42, 90
4, 19200, Note_on_c, 2, 42, 0
4, 19200, Note_on_c, 2, 48, 90
4, 19584, Note_on_c, 2, 48, 0
4, 19584, Note_on_c, 2, 42, 90
4, 19776, Note_on_c, 2, 42, 0
4, 19776, Note_on_c, 2, 48, 90
4, 20160, Note_on_c, 2, 48, 0
4, 20160, Note_on_c, 2, 48, 90
4, 20544, Note_on_c, 2, 48, 0
4, 20544, Note_on_c, 2, 48, 90
4, 20928, Note_on_c, 2, 48, 0
4, 20928, Note_on_c, 2, 42, 90
4, 21120, Note_on_c, 2, 42, 0
4, 21120, Note_on_c, 2, 48, 90
4, 21504, Note_on_c, 2, 48, 0
4, 21504, Note_on_c, 2, 48, 90
4, 21888, Note_on_c, 2, 48, 0
4, 21888, Note_on_c, 2, 48, 90
4, 22272, Note_on_c, 2, 48, 0
4, 22272, Note_on_c, 2, 48, 90
4, 22656, Note_on_c, 2, 48, 0
4, 22656, Note_on_c, 2, 42, 90
4, 22848, Note_on_c, 2, 42, 0
4, 22848, Note_on_c, 2, 42, 90
4, 23040, Note_on_c, 2, 42, 0
4, 23040, Note_on_c, 2, 48, 90
4, 23424, Note_on_c, 2, 48, 0
4, 23424, Note_on_c, 2, 42, 90
4, 23616, Note_on_c, 2, 42, 0
4, 23616, Note_on_c, 2, 48, 90
4, 24000, Note_on_c, 2, 48, 0
4, 24000, Note_on_c, 2, 48, 90
4, 24384, Note_on_c, 2, 48, 0
4, 24384, Note_on_c, 2, 48, 90
4, 24768, Note_on_c, 2, 48, 0
4, 24768, Note_on_c, 2, 42, 90
4, 24960, Note_on_c, 2, 42, 0
4, 24960, Note_on_c, 2, 48, 90
4, 25344, Note_on_c, 2, 48, 0
4, 25344, Note_on_c, 2, 48, 90
4, 25728, Note_on_c, 2, 48, 0
4, 25728, Note_on_c, 2, 48, 90
4, 26112, Note_on_c, 2, 48, 0
4, 26112, Note_on_c, 2, 48, 90
4, 26496, Note_on_c, 2, 48, 0
4, 26496, Note_on_c, 2, 42, 90
4, 26688, Note_on_c, 2, 42, 0
4, 26688, Note_on_c, 2, 42, 90
4, 26880, Note_on_c, 2, 42, 0
4, 26880, Note_on_c, 2, 48, 90
4, 27264, Note_on_c, 2, 48, 0
4, 27264, Note_on_c, 2, 42, 90
4, 27456, Note_on_c, 2, 42, 0
4, 27456, Note_on_c, 2, 48, 90
4, 27840, Note_on_c, 2, 48, 0
4, 27840, Note_on_c, 2, 48, 90
4, 28224, Note_on_c, 2, 48, 0
4, 28224, Note_on_c, 2, 48, 90
4, 28608, Note_on_c, 2, 48, 0
4, 28608, Note_on_c, 2, 42, 90
4, 28800, Note_on_c, 2, 42, 0
4, 28800, Note_on_c, 2, 48, 90
4, 29184, Note_on_c, 2, 48, 0
4, 29184, Note_on_c, 2, 48, 90
4, 29568, Note_on_c, 2, 48, 0
4, 29568, Note_on_c, 2, 48, 90
4, 29952, Note_on_c, 2, 48, 0
4, 29952, Note_on_c, 2, 48, 90
4, 30336, Note_on_c, 2, 48, 0
4, 30336, Note_on_c, 2, 42, 90
4, 30528, Note_on_c, 2, 42, 0
4, 30528, Note_on_c, 2, 42, 90
4, 30720, Note_on_c, 2, 42, 0
4, 30720, Note_on_c, 2, 36, 90
4, 31104, Note_on_c, 2, 36, 0
4, 31104, Note_on_c, 2, 30, 90
4, 31296, Note_on_c, 2, 30, 0
4, 31296, Note_on_c, 2, 36, 90
4, 31680, Note_on_c, 2, 36, 0
4, 31680, Note_on_c, 2, 36, 90
4, 32064, Note_on_c, 2, 36, 0
4, 32064, Note_on_c, 2, 36, 90
4, 32448, Note_on_c, 2, 36, 0
4, 32448, Note_on_c, 2, 30, 90
4, 32640, Note_on_c, 2, 30, 0
4, 32640, Note_on_c, 2, 36, 90
4, 33024, Note_on_c, 2, 36, 0
4, 33024, Note_on_c, 2, 36, 90
4, 33408, Note_on_c, 2, 36, 0
4, 33408, Note_on_c, 2, 36, 90
4, 33792, Note_on_c, 2, 36, 0
4, 33792, Note_on_c, 2, 36, 90
4, 34176, Note_on_c, 2, 36, 0
4, 34176, Note_on_c, 2, 30, 90
4, 34368, Note_on_c, 2, 30, 0
4, 34368, Note_on_c, 2, 30, 90
4, 34560, Note_on_c, 2, 30, 0
4, 34560, Note_on_c, 2, 36, 90
4, 34944, Note_on_c, 2, 36, 0
4, 35136, Note_on_c, 2, 36, 90
4, 35520, Note_on_c, 2, 36, 0
4, 35520, Note_on_c, 2, 36, 90
4, 35904, Note_on_c, 2, 36, 0
4, 35904, Note_on_c, 2, 36, 90
4, 36288, Note_on_c, 2, 36, 0
4, 36480, Note_on_c, 2, 36, 90
4, 36864, Note_on_c, 2, 36, 0
4, 36864, Note_on_c, 2, 36, 90
4, 37248, Note_on_c, 2, 36, 0
4, 37248, Note_on_c, 2, 36, 90
4, 37632, Note_on_c, 2, 36, 0
4, 37632, Note_on_c, 2, 36, 90
4, 37824, Note_on_c, 2, 36, 0
4, 39936, Note_on_c, 2, 36, 90
4, 40032, Note_on_c, 2, 36, 0
4, 40032, Note_on_c, 2, 36, 90
4, 40128, Note_on_c, 2, 36, 0
4, 40128, Note_on_c, 2, 37, 90
4, 40224, Note_on_c, 2, 37, 0
4, 40224, Note_on_c, 2, 39, 90
4, 40320, Note_on_c, 2, 39, 0
4, 40320, Note_on_c, 2, 40, 90
4, 40416, Note_on_c, 2, 40, 0
4, 40416, Note_on_c, 2, 42, 90
4, 40512, Note_on_c, 2, 42, 0
4, 40512, Note_on_c, 2, 44, 90
4, 40608, Note_on_c, 2, 44, 0
4, 40608, Note_on_c, 2, 45, 90
4, 40704, Note_on_c, 2, 45, 0
4, 40704, Note_on_c, 2, 47, 90
4, 40800, Note_on_c, 2, 47, 0
4, 40800, Note_on_c, 2, 49, 90
4, 40896, Note_on_c, 2, 49, 0
4, 40896, Note_on_c, 2, 51, 90
4, 40992, Note_on_c, 2, 51, 0
4, 40992, Note_on_c, 2, 52, 90
4, 41088, Note_on_c, 2, 52, 0
4, 41088, Note_on_c, 2, 51, 90
4, 41216, Note_on_c, 2, 51, 0
4, 41216, Note_on_c, 2, 49, 90
4, 41344, Note_on_c, 2, 49, 0
4, 41344, Note_on_c, 2, 48, 90
4, 42048, Note_on_c, 2, 48, 0
4, 42624, Note_on_c, 2, 48, 90
4, 42752, Note_on_c, 2, 48, 0
4, 42752, Note_on_c, 2, 47, 90
4, 42880, Note_on_c, 2, 47, 0
4, 42880, Note_on_c, 2, 43, 90
4, 43008, Note_on_c, 2, 43, 0
4, 43008, Note_on_c, 2, 42, 90
4, 43200, Note_on_c, 2, 42, 0
4, 43776, Note_on_c, 2, 50, 90
4, 43872, Note_on_c, 2, 50, 0
4, 43872, Note_on_c, 2, 50, 90
4, 43968, Note_on_c, 2, 50, 0
4, 43968, Note_on_c, 2, 48, 90
4, 44064, Note_on_c, 2, 48, 0
4, 44064, Note_on_c, 2, 50, 90
4, 44160, Note_on_c, 2, 50, 0
4, 44160, Note_on_c, 2, 48, 90
4, 44256, Note_on_c, 2, 48, 0
4, 44256, Note_on_c, 2, 47, 90
4, 44352, Note_on_c, 2, 47, 0
4, 44352, Note_on_c, 2, 45, 90
4, 44448, Note_on_c, 2, 45, 0
4, 44448, Note_on_c, 2, 43, 90
4, 44544, Note_on_c, 2, 43, 0
4, 44544, Note_on_c, 2, 42, 90
4, 45696, Note_on_c, 2, 42, 0
4, 45696, Note_on_c, 2, 30, 90
4, 46080, Note_on_c, 2, 30, 0
4, 46080, Key_signature, 2, "minor"
4, 46080, Note_on_c, 2, 45, 90
4, 46176, Note_on_c, 2, 45, 0
4, 46176, Note_on_c, 2, 45, 90
4, 46272, Note_on_c, 2, 45, 0
4, 46272, Note_on_c, 2, 42, 90
4, 46368, Note_on_c, 2, 42, 0
4, 46368, Note_on_c, 2, 45, 90
4, 46464, Note_on_c, 2, 45, 0
4, 46464, Note_on_c, 2, 42, 90
4, 46560, Note_on_c, 2, 42, 0
4, 46560, Note_on_c, 2, 41, 90
4, 46656, Note_on_c, 2, 41, 0
4, 46656, Note_on_c, 2, 40, 90
4, 46848, Note_on_c, 2, 40, 0
4, 46848, Note_on_c, 2, 37, 90
4, 47616, Note_on_c, 2, 37, 0
4, 47616, Note_on_c, 2, 45, 90
4, 47712, Note_on_c, 2, 45, 0
4, 47712, Note_on_c, 2, 45, 90
4, 47808, Note_on_c, 2, 45, 0
4, 47808, Note_on_c, 2, 42, 90
4, 47904, Note_on_c, 2, 42, 0
4, 47904, Note_on_c, 2, 45, 90
4, 48000, Note_on_c, 2, 45, 0
4, 48000, Note_on_c, 2, 42, 90
4, 48096, Note_on_c, 2, 42, 0
4, 48096, Note_on_c, 2, 41, 90
4, 48192, Note_on_c, 2, 41, 0
4, 48192, Note_on_c, 2, 40, 90
4, 48288, Note_on_c, 2, 40, 0
4, 48288, Note_on_c, 2, 37, 90
4, 48384, Note_on_c, 2, 37, 0
4, 48384, Note_on_c, 2, 35, 90
4, 48672, Note_on_c, 2, 35, 0
4, 48672, Note_on_c, 2, 37, 90
4, 48960, Note_on_c, 2, 37, 0
4, 48960, Note_on_c, 2, 33, 90
4, 49152, Note_on_c, 2, 33, 0
4, 49152, Note_on_c, 2, 45, 90
4, 49248, Note_on_c, 2, 45, 0
4, 49248, Note_on_c, 2, 45, 90
4, 49344, Note_on_c, 2, 45, 0
4, 49344, Note_on_c, 2, 42, 90
4, 49440, Note_on_c, 2, 42, 0
4, 49440, Note_on_c, 2, 45, 90
4, 49536, Note_on_c, 2, 45, 0
4, 49536, Note_on_c, 2, 42, 90
4, 49632, Note_on_c, 2, 42, 0
4, 49632, Note_on_c, 2, 41, 90
4, 49728, Note_on_c, 2, 41, 0
4, 49728, Note_on_c, 2, 40, 90
4, 49920, Note_on_c, 2, 40, 0
4, 49920, Note_on_c, 2, 37, 90
4, 50688, Note_on_c, 2, 37, 0
4, 50688, Note_on_c, 2, 45, 90
4, 50784, Note_on_c, 2, 45, 0
4, 50784, Note_on_c, 2, 45, 90
4, 50880, Note_on_c, 2, 45, 0
4, 50880, Note_on_c, 2, 42, 90
4, 50976, Note_on_c, 2, 42, 0
4, 50976, Note_on_c, 2, 45, 90
4, 51072, Note_on_c, 2, 45, 0
4, 51072, Note_on_c, 2, 42, 90
4, 51168, Note_on_c, 2, 42, 0
4, 51168, Note_on_c, 2, 41, 90
4, 51264, Note_on_c, 2, 41, 0
4, 51264, Note_on_c, 2, 40, 90
4, 51360, Note_on_c, 2, 40, 0
4, 51360, Note_on_c, 2, 37, 90
4, 51456, Note_on_c, 2, 37, 0
4, 51456, Note_on_c, 2, 35, 90
4, 51744, Note_on_c, 2, 35, 0
4, 51744, Note_on_c, 2, 37, 90
4, 52032, Note_on_c, 2, 37, 0
4, 52032, Note_on_c, 2, 33, 90
4, 52224, Note_on_c, 2, 33, 0
4, 52224, Note_on_c, 2, 48, 90
4, 52320, Note_on_c, 2, 48, 0
4, 52320, Note_on_c, 2, 48, 90
4, 52416, Note_on_c, 2, 48, 0
4, 52416, Note_on_c, 2, 45, 90
4, 52512, Note_on_c, 2, 45, 0
4, 52512, Note_on_c, 2, 48, 90
4, 52608, Note_on_c, 2, 48, 0
4, 52608, Note_on_c, 2, 45, 90
4, 52704, Note_on_c, 2, 45, 0
4, 52704, Note_on_c, 2, 44, 90
4, 52800, Note_on_c, 2, 44, 0
4, 52800, Note_on_c, 2, 43, 90
4, 52992, Note_on_c, 2, 43, 0
4, 52992, Note_on_c, 2, 40, 90
4, 53760, Note_on_c, 2, 40, 0
4, 53760, Note_on_c, 2, 48, 90
4, 53856, Note_on_c, 2, 48, 0
4, 53856, Note_on_c, 2, 48, 90
4, 53952, Note_on_c, 2, 48, 0
4, 53952, Note_on_c, 2, 45, 90
4, 54048, Note_on_c, 2, 45, 0
4, 54048, Note_on_c, 2, 48, 90
4, 54144, Note_on_c, 2, 48, 0
4, 54144, Note_on_c, 2, 45, 90
4, 54240, Note_on_c, 2, 45, 0
4, 54240, Note_on_c, 2, 44, 90
4, 54336, Note_on_c, 2, 44, 0
4, 54336, Note_on_c, 2, 43, 90
4, 54432, Note_on_c, 2, 43, 0
4, 54432, Note_on_c, 2, 40, 90
4, 54528, Note_on_c, 2, 40, 0
4, 54528, Note_on_c, 2, 38, 90
4, 54816, Note_on_c, 2, 38, 0
4, 54816, Note_on_c, 2, 40, 90
4, 55104, Note_on_c, 2, 40, 0
4, 55104, Note_on_c, 2, 33, 90
4, 55296, Note_on_c, 2, 33, 0
4, 55296, Note_on_c, 2, 48, 90
4, 55392, Note_on_c, 2, 48, 0
4, 55392, Note_on_c, 2, 48, 90
4, 55488, Note_on_c, 2, 48, 0
4, 55488, Note_on_c, 2, 45, 90
4, 55584, Note_on_c, 2, 45, 0
4, 55584, Note_on_c, 2, 48, 90
4, 55680, Note_on_c, 2, 48, 0
4, 55680, Note_on_c, 2, 45, 90
4, 55776, Note_on_c, 2, 45, 0
4, 55776, Note_on_c, 2, 44, 90
4, 55872, Note_on_c, 2, 44, 0
4, 55872, Note_on_c, 2, 43, 90
4, 56064, Note_on_c, 2, 43, 0
4, 56064, Note_on_c, 2, 40, 90
4, 56832, Note_on_c, 2, 40, 0
4, 56832, Note_on_c, 2, 48, 90
4, 56928, Note_on_c, 2, 48, 0
4, 56928, Note_on_c, 2, 48, 90
4, 57024, Note_on_c, 2, 48, 0
4, 57024, Note_on_c, 2, 45, 90
4, 57120, Note_on_c, 2, 45, 0
4, 57120, Note_on_c, 2, 48, 90
4, 57216, Note_on_c, 2, 48, 0
4, 57216, Note_on_c, 2, 45, 90
4, 57312, Note_on_c, 2, 45, 0
4, 57312, Note_on_c, 2, 44, 90
4, 57408, Note_on_c, 2, 44, 0
4, 57408, Note_on_c, 2, 43, 90
4, 57504, Note_on_c, 2, 43, 0
4, 57504, Note_on_c, 2, 40, 90
4, 57600, Note_on_c, 2, 40, 0
4, 57600, Note_on_c, 2, 43, 90
4, 57696, Note_on_c, 2, 43, 0
4, 57696, Note_on_c, 2, 43, 90
4, 57792, Note_on_c, 2, 43, 0
4, 57792, Note_on_c, 2, 40, 90
4, 57888, Note_on_c, 2, 40, 0
4, 57888, Note_on_c, 2, 43, 90
4, 57984, Note_on_c, 2, 43, 0
4, 58080, Note_on_c, 2, 43, 90
4, 58176, Note_on_c, 2, 43, 0
4, 58176, Note_on_c, 2, 40, 90
4, 58368, Note_on_c, 2, 40, 0
4, 58368, Note_on_c, 2, 45, 90
4, 58464, Note_on_c, 2, 45, 0
4, 58464, Note_on_c, 2, 45, 90
4, 58560, Note_on_c, 2, 45, 0
4, 58560, Note_on_c, 2, 42, 90
4, 58656, Note_on_c, 2, 42, 0
4, 58656, Note_on_c, 2, 45, 90
4, 58752, Note_on_c, 2, 45, 0
4, 58752, Note_on_c, 2, 42, 90
4, 58848, Note_on_c, 2, 42, 0
4, 58848, Note_on_c, 2, 41, 90
4, 58944, Note_on_c, 2, 41, 0
4, 58944, Note_on_c, 2, 40, 90
4, 59136, Note_on_c, 2, 40, 0
4, 59136, Note_on_c, 2, 37, 90
4, 59904, Note_on_c, 2, 37, 0
4, 59904, Note_on_c, 2, 45, 90
4, 60000, Note_on_c, 2, 45, 0
4, 60000, Note_on_c, 2, 45, 90
4, 60096, Note_on_c, 2, 45, 0
4, 60096, Note_on_c, 2, 42, 90
4, 60192, Note_on_c, 2, 42, 0
4, 60192, Note_on_c, 2, 45, 90
4, 60288, Note_on_c, 2, 45, 0
4, 60288, Note_on_c, 2, 42, 90
4, 60384, Note_on_c, 2, 42, 0
4, 60384, Note_on_c, 2, 41, 90
4, 60480, Note_on_c, 2, 41, 0
4, 60480, Note_on_c, 2, 40, 90
4, 60576, Note_on_c, 2, 40, 0
4, 60576, Note_on_c, 2, 37, 90
4, 60672, Note_on_c, 2, 37, 0
4, 60672, Note_on_c, 2, 35, 90
4, 60960, Note_on_c, 2, 35, 0
4, 60960, Note_on_c, 2, 37, 90
4, 61248, Note_on_c, 2, 37, 0
4, 61248, Note_on_c, 2, 33, 90
4, 61440, Note_on_c, 2, 33, 0
4, 61440, Note_on_c, 2, 45, 90
4, 61536, Note_on_c, 2, 45, 0
4, 61536, Note_on_c, 2, 45, 90
4, 61632, Note_on_c, 2, 45, 0
4, 61632, Note_on_c, 2, 42, 90
4, 61728, Note_on_c, 2, 42, 0
4, 61728, Note_on_c, 2, 45, 90
4, 61824, Note_on_c, 2, 45, 0
4, 61824, Note_on_c, 2, 42, 90
4, 61920, Note_on_c, 2, 42, 0
4, 61920, Note_on_c, 2, 41, 90
4, 62016, Note_on_c, 2, 41, 0
4, 62016, Note_on_c, 2, 40, 90
4, 62208, Note_on_c, 2, 40, 0
4, 62208, Note_on_c, 2, 37, 90
4, 62976, Note_on_c, 2, 37, 0
4, 62976, Note_on_c, 2, 45, 90
4, 63072, Note_on_c, 2, 45, 0
4, 63072, Note_on_c, 2, 45, 90
4, 63168, Note_on_c, 2, 45, 0
4, 63168, Note_on_c, 2, 42, 90
4, 63264, Note_on_c, 2, 42, 0
4, 63264, Note_on_c, 2, 45, 90
4, 63360, Note_on_c, 2, 45, 0
4, 63360, Note_on_c, 2, 42, 90
4, 63456, Note_on_c, 2, 42, 0
4, 63456, Note_on_c, 2, 41, 90
4, 63552, Note_on_c, 2, 41, 0
4, 63552, Note_on_c, 2, 40, 90
4, 63648, Note_on_c, 2, 40, 0
4, 63648, Note_on_c, 2, 37, 90
4, 63744, Note_on_c, 2, 37, 0
4, 63744, Note_on_c, 2, 35, 90
4, 64032, Note_on_c, 2, 35, 0
4, 64032, Note_on_c, 2, 37, 90
4, 64320, Note_on_c, 2, 37, 0
4, 64320, Note_on_c, 2, 33, 90
4, 64512, Note_on_c, 2, 33, 0
4, 64512, Note_on_c, 2, 48, 90
4, 64608, Note_on_c, 2, 48, 0
4, 64608, Note_on_c, 2, 48, 90
4, 64704, Note_on_c, 2, 48, 0
4, 64704, Note_on_c, 2, 45, 90
4, 64800, Note_on_c, 2, 45, 0
4, 64800, Note_on_c, 2, 48, 90
4, 64896, Note_on_c, 2, 48, 0
4, 64896, Note_on_c, 2, 45, 90
4, 64992, Note_on_c, 2, 45, 0
4, 64992, Note_on_c, 2, 44, 90
4, 65088, Note_on_c, 2, 44, 0
4, 65088, Note_on_c, 2, 43, 90
4, 65280, Note_on_c, 2, 43, 0
4, 65280, Note_on_c, 2, 40, 90
4, 66048, Note_on_c, 2, 40, 0
4, 66048, Note_on_c, 2, 48, 90
4, 66144, Note_on_c, 2, 48, 0
4, 66144, Note_on_c, 2, 48, 90
4, 66240, Note_on_c, 2, 48, 0
4, 66240, Note_on_c, 2, 45, 90
4, 66336, Note_on_c, 2, 45, 0
4, 66336, Note_on_c, 2, 48, 90
4, 66432, Note_on_c, 2, 48, 0
4, 66432, Note_on_c, 2, 45, 90
4, 66528, Note_on_c, 2, 45, 0
4, 66528, Note_on_c, 2, 44, 90
4, 66624, Note_on_c, 2, 44, 0
4, 66624, Note_on_c, 2, 43, 90
4, 66720, Note_on_c, 2, 43, 0
4, 66720, Note_on_c, 2, 40, 90
4, 66816, Note_on_c, 2, 40, 0
4, 66816, Note_on_c, 2, 38, 90
4, 67104, Note_on_c, 2, 38, 0
4, 67104, Note_on_c, 2, 40, 90
4, 67392, Note_on_c, 2, 40, 0
4, 67392, Note_on_c, 2, 33, 90
4, 67584, Note_on_c, 2, 33, 0
4, 67584, Note_on_c, 2, 48, 90
4, 67680, Note_on_c, 2, 48, 0
4, 67680, Note_on_c, 2, 48, 90
4, 67776, Note_on_c, 2, 48, 0
4, 67776, Note_on_c, 2, 45, 90
4, 67872, Note_on_c, 2, 45, 0
4, 67872, Note_on_c, 2, 48, 90
4, 67968, Note_on_c, 2, 48, 0
4, 67968, Note_on_c, 2, 45, 90
4, 68064, Note_on_c, 2, 45, 0
4, 68064, Note_on_c, 2, 44, 90
4, 68160, Note_on_c, 2, 44, 0
4, 68160, Note_on_c, 2, 43, 90
4, 68352, Note_on_c, 2, 43, 0
4, 68352, Note_on_c, 2, 40, 90
4, 69120, Note_on_c, 2, 40, 0
4, 69120, Note_on_c, 2, 48, 90
4, 69216, Note_on_c, 2, 48, 0
4, 69216, Note_on_c, 2, 48, 90
4, 69312, Note_on_c, 2, 48, 0
4, 69312, Note_on_c, 2, 45, 90
4, 69408, Note_on_c, 2, 45, 0
4, 69408, Note_on_c, 2, 48, 90
4, 69504, Note_on_c, 2, 48, 0
4, 69504, Note_on_c, 2, 45, 90
4, 69600, Note_on_c, 2, 45, 0
4, 69600, Note_on_c, 2, 44, 90
4, 69696, Note_on_c, 2, 44, 0
4, 69696, Note_on_c, 2, 43, 90
4, 69792, Note_on_c, 2, 43, 0
4, 69792, Note_on_c, 2, 40, 90
4, 69888, Note_on_c, 2, 40, 0
4, 69888, Note_on_c, 2, 38, 90
4, 70176, Note_on_c, 2, 38, 0
4, 70176, Note_on_c, 2, 40, 90
4, 70464, Note_on_c, 2, 40, 0
4, 70464, Note_on_c, 2, 33, 90
4, 70656, Note_on_c, 2, 33, 0
4, 70656, Note_on_c, 2, 35, 90
4, 70944, Note_on_c, 2, 35, 0
4, 70944, Note_on_c, 2, 39, 90
4, 71232, Note_on_c, 2, 39, 0
4, 71232, Note_on_c, 2, 30, 90
4, 71424, Note_on_c, 2, 30, 0
4, 71424, Note_on_c, 2, 40, 90
4, 72192, Note_on_c, 2, 40, 0
4, 72384, Note_on_c, 2, 35, 90
4, 72576, Note_on_c, 2, 35, 0
4, 72576, Note_on_c, 2, 39, 90
4, 72768, Note_on_c, 2, 39, 0
4, 72768, Note_on_c, 2, 30, 90
4, 72960, Note_on_c, 2, 30, 0
4, 72960, Note_on_c, 2, 45, 90
4, 73056, Note_on_c, 2, 45, 0
4, 73056, Note_on_c, 2, 45, 90
4, 73152, Note_on_c, 2, 45, 0
4, 73152, Note_on_c, 2, 42, 90
4, 73248, Note_on_c, 2, 42, 0
4, 73248, Note_on_c, 2, 45, 90
4, 73440, Note_on_c, 2, 45, 0
4, 73440, Note_on_c, 2, 45, 90
4, 73536, Note_on_c, 2, 45, 0
4, 73536, Note_on_c, 2, 40, 90
4, 73728, Note_on_c, 2, 40, 0
4, 73728, Note_on_c, 2, 35, 90
4, 74016, Note_on_c, 2, 35, 0
4, 74016, Note_on_c, 2, 39, 90
4, 74304, Note_on_c, 2, 39, 0
4, 74304, Note_on_c, 2, 30, 90
4, 74496, Note_on_c, 2, 30, 0
4, 74496, Note_on_c, 2, 40, 90
4, 74880, Note_on_c, 2, 40, 0
4, 74880, Note_on_c, 2, 42, 90
4, 75264, Note_on_c, 2, 42, 0
4, 75456, Note_on_c, 2, 35, 90
4, 75648, Note_on_c, 2, 35, 0
4, 75648, Note_on_c, 2, 39, 90
4, 75840, Note_on_c, 2, 39, 0
4, 75840, Note_on_c, 2, 30, 90
4, 76032, Note_on_c, 2, 30, 0
4, 76032, Note_on_c, 2, 45, 90
4, 76128, Note_on_c, 2, 45, 0
4, 76128, Note_on_c, 2, 45, 90
4, 76224, Note_on_c, 2, 45, 0
4, 76224, Note_on_c, 2, 42, 90
4, 76320, Note_on_c, 2, 42, 0
4, 76320, Note_on_c, 2, 45, 90
4, 76512, Note_on_c, 2, 45, 0
4, 76512, Note_on_c, 2, 45, 90
4, 76608, Note_on_c, 2, 45, 0
4, 76608, Note_on_c, 2, 40, 90
4, 76800, Note_on_c, 2, 40, 0
4, 76800, Note_on_c, 2, 36, 90
4, 77088, Note_on_c, 2, 36, 0
4, 77088, Note_on_c, 2, 43, 90
4, 77376, Note_on_c, 2, 43, 0
4, 77376, Note_on_c, 2, 50, 90
4, 77568, Note_on_c, 2, 50, 0
4, 77568, Note_on_c, 2, 48, 90
4, 77952, Note_on_c, 2, 48, 0
4, 77952, Note_on_c, 2, 50, 90
4, 78336, Note_on_c, 2, 50, 0
4, 78528, Note_on_c, 2, 36, 90
4, 78720, Note_on_c, 2, 36, 0
4, 78720, Note_on_c, 2, 43, 90
4, 78912, Note_on_c, 2, 43, 0
4, 78912, Note_on_c, 2, 50, 90
4, 79104, Note_on_c, 2, 50, 0
4, 79104, Note_on_c, 2, 48, 90
4, 79200, Note_on_c, 2, 48, 0
4, 79200, Note_on_c, 2, 48, 90
4, 79296, Note_on_c, 2, 48, 0
4, 79296, Note_on_c, 2, 45, 90
4, 79392, Note_on_c, 2, 45, 0
4, 79392, Note_on_c, 2, 48, 90
4, 79584, Note_on_c, 2, 48, 0
4, 79584, Note_on_c, 2, 48, 90
4, 79680, Note_on_c, 2, 48, 0
4, 79680, Note_on_c, 2, 43, 90
4, 79872, Note_on_c, 2, 43, 0
4, 79872, Note_on_c, 2, 36, 90
4, 80160, Note_on_c, 2, 36, 0
4, 80160, Note_on_c, 2, 43, 90
4, 80448, Note_on_c, 2, 43, 0
4, 80448, Note_on_c, 2, 50, 90
4, 80640, Note_on_c, 2, 50, 0
4, 80640, Note_on_c, 2, 48, 90
4, 80832, Note_on_c, 2, 48, 0
4, 80832, Note_on_c, 2, 52, 90
4, 81024, Note_on_c, 2, 52, 0
4, 81024, Note_on_c, 2, 50, 90
4, 81216, Note_on_c, 2, 50, 0
4, 81216, Note_on_c, 2, 48, 90
4, 81408, Note_on_c, 2, 48, 0
4, 81408, Note_on_c, 2, 47, 90
4, 81504, Note_on_c, 2, 47, 0
4, 81504, Note_on_c, 2, 48, 90
4, 81600, Note_on_c, 2, 48, 0
4, 81600, Note_on_c, 2, 43, 90
4, 81696, Note_on_c, 2, 43, 0
4, 81696, Note_on_c, 2, 48, 90
4, 81792, Note_on_c, 2, 48, 0
4, 81792, Note_on_c, 2, 45, 90
4, 81888, Note_on_c, 2, 45, 0
4, 81888, Note_on_c, 2, 44, 90
4, 81984, Note_on_c, 2, 44, 0
4, 81984, Note_on_c, 2, 43, 90
4, 82080, Note_on_c, 2, 43, 0
4, 82080, Note_on_c, 2, 40, 90
4, 82176, Note_on_c, 2, 40, 0
4, 82176, Note_on_c, 2, 45, 90
4, 82272, Note_on_c, 2, 45, 0
4, 82272, Note_on_c, 2, 42, 90
4, 82368, Note_on_c, 2, 42, 0
4, 82368, Note_on_c, 2, 40, 90
4, 82464, Note_on_c, 2, 40, 0
4, 82464, Note_on_c, 2, 43, 90
4, 82560, Note_on_c, 2, 43, 0
4, 82656, Note_on_c, 2, 43, 90
4, 82752, Note_on_c, 2, 43, 0
4, 82752, Note_on_c, 2, 40, 90
4, 82944, Note_on_c, 2, 40, 0
4, 82944, Note_on_c, 2, 35, 90
4, 83232, Note_on_c, 2, 35, 0
4, 83232, Note_on_c, 2, 39, 90
4, 83520, Note_on_c, 2, 39, 0
4, 83520, Note_on_c, 2, 30, 90
4, 83712, Note_on_c, 2, 30, 0
4, 83712, Note_on_c, 2, 40, 90
4, 84480, Note_on_c, 2, 40, 0
4, 84672, Note_on_c, 2, 35, 90
4, 84864, Note_on_c, 2, 35, 0
4, 84864, Note_on_c, 2, 39, 90
4, 85056, Note_on_c, 2, 39, 0
4, 85056, Note_on_c, 2, 30, 90
4, 85248, Note_on_c, 2, 30, 0
4, 85248, Note_on_c, 2, 45, 90
4, 85344, Note_on_c, 2, 45, 0
4, 85344, Note_on_c, 2, 45, 90
4, 85440, Note_on_c, 2, 45, 0
4, 85440, Note_on_c, 2, 42, 90
4, 85536, Note_on_c, 2, 42, 0
4, 85536, Note_on_c, 2, 45, 90
4, 85728, Note_on_c, 2, 45, 0
4, 85728, Note_on_c, 2, 45, 90
4, 85824, Note_on_c, 2, 45, 0
4, 85824, Note_on_c, 2, 40, 90
4, 86016, Note_on_c, 2, 40, 0
4, 86016, Note_on_c, 2, 35, 90
4, 86304, Note_on_c, 2, 35, 0
4, 86304, Note_on_c, 2, 39, 90
4, 86592, Note_on_c, 2, 39, 0
4, 86592, Note_on_c, 2, 30, 90
4, 86784, Note_on_c, 2, 30, 0
4, 86784, Note_on_c, 2, 40, 90
4, 87168, Note_on_c, 2, 40, 0
4, 87168, Note_on_c, 2, 42, 90
4, 87552, Note_on_c, 2, 42, 0
4, 87744, Note_on_c, 2, 35, 90
4, 87936, Note_on_c, 2, 35, 0
4, 87936, Note_on_c, 2, 39, 90
4, 88128, Note_on_c, 2, 39, 0
4, 88128, Note_on_c, 2, 30, 90
4, 88320, Note_on_c, 2, 30, 0
4, 88320, Note_on_c, 2, 45, 90
4, 88416, Note_on_c, 2, 45, 0
4, 88416, Note_on_c, 2, 45, 90
4, 88512, Note_on_c, 2, 45, 0
4, 88512, Note_on_c, 2, 42, 90
4, 88608, Note_on_c, 2, 42, 0
4, 88608, Note_on_c, 2, 45, 90
4, 88800, Note_on_c, 2, 45, 0
4, 88800, Note_on_c, 2, 45, 90
4, 88896, Note_on_c, 2, 45, 0
4, 88896, Note_on_c, 2, 40, 90
4, 89088, Note_on_c, 2, 40, 0
4, 89088, Note_on_c, 2, 36, 90
4, 89376, Note_on_c, 2, 36, 0
4, 89376, Note_on_c, 2, 43, 90
4, 89664, Note_on_c, 2, 43, 0
4, 89664, Note_on_c, 2, 45, 90
4, 89856, Note_on_c, 2, 45, 0
4, 89856, Note_on_c, 2, 50, 90
4, 90240, Note_on_c, 2, 50, 0
4, 90240, Note_on_c, 2, 48, 90
4, 90624, Note_on_c, 2, 48, 0
4, 90816, Note_on_c, 2, 36, 90
4, 91008, Note_on_c, 2, 36, 0
4, 91008, Note_on_c, 2, 43, 90
4, 91200, Note_on_c, 2, 43, 0
4, 91200, Note_on_c, 2, 50, 90
4, 91392, Note_on_c, 2, 50, 0
4, 91392, Note_on_c, 2, 48, 90
4, 91488, Note_on_c, 2, 48, 0
4, 91488, Note_on_c, 2, 48, 90
4, 91584, Note_on_c, 2, 48, 0
4, 91584, Note_on_c, 2, 45, 90
4, 91680, Note_on_c, 2, 45, 0
4, 91680, Note_on_c, 2, 48, 90
4, 91872, Note_on_c, 2, 48, 0
4, 91872, Note_on_c, 2, 48, 90
4, 91968, Note_on_c, 2, 48, 0
4, 91968, Note_on_c, 2, 43, 90
4, 92160, Note_on_c, 2, 43, 0
4, 92160, Note_on_c, 2, 36, 90
4, 92448, Note_on_c, 2, 36, 0
4, 92448, Note_on_c, 2, 43, 90
4, 92736, Note_on_c, 2, 43, 0
4, 92736, Note_on_c, 2, 50, 90
4, 92928, Note_on_c, 2, 50, 0
4, 92928, Note_on_c, 2, 48, 90
4, 93312, Note_on_c, 2, 48, 0
4, 93312, Note_on_c, 2, 50, 90
4, 93696, Note_on_c, 2, 50, 0
4, 93696, Note_on_c, 2, 48, 90
4, 93888, Note_on_c, 2, 48, 0
4, 93888, Note_on_c, 2, 47, 90
4, 94080, Note_on_c, 2, 47, 0
4, 94080, Note_on_c, 2, 48, 90
4, 94272, Note_on_c, 2, 48, 0
4, 94272, Note_on_c, 2, 47, 90
4, 94464, Note_on_c, 2, 47, 0
4, 94464, Note_on_c, 2, 45, 90
4, 94656, Note_on_c, 2, 45, 0
4, 94656, Note_on_c, 2, 43, 90
4, 94848, Note_on_c, 2, 43, 0
4, 94848, Note_on_c, 2, 41, 90
4, 95040, Note_on_c, 2, 41, 0
4, 95040, Note_on_c, 2, 38, 90
4, 95232, Note_on_c, 2, 38, 0
4, 95232, Note_on_c, 2, 35, 90
4, 95424, Note_on_c, 2, 35, 0
4, 95424, End_track
5, 0, Start_track
5, 0, Program_c, 9, 0
5, 0, Program_c, 9, 0
5, 0, Instrument_name_t, "drums"
5, 0, Control_c, 9, 7, 100
5, 0, Note_on_c, 9, 49, 90
5, 384, Note_on_c, 9, 49, 0
5, 384, Note_on_c, 9, 36, 90
5, 576, Note_on_c, 9, 36, 0
5, 576, Note_on_c, 9, 38, 90
5, 960, Note_on_c, 9, 38, 0
5, 960, Note_on_c, 9, 38, 90
5, 1344, Note_on_c, 9, 38, 0
5, 1344, Note_on_c, 9, 38, 90
5, 1728, Note_on_c, 9, 38, 0
5, 1728, Note_on_c, 9, 36, 90
5, 1920, Note_on_c, 9, 36, 0
5, 1920, Note_on_c, 9, 38, 90
5, 2304, Note_on_c, 9, 38, 0
5, 2304, Note_on_c, 9, 38, 90
5, 2688, Note_on_c, 9, 38, 0
5, 2688, Note_on_c, 9, 38, 90
5, 3072, Note_on_c, 9, 38, 0
5, 3072, Note_on_c, 9, 38, 90
5, 3456, Note_on_c, 9, 38, 0
5, 3456, Note_on_c, 9, 36, 90
5, 3648, Note_on_c, 9, 36, 0
5, 3648, Note_on_c, 9, 36, 90
5, 3840, Note_on_c, 9, 36, 0
5, 3840, Note_on_c, 9, 49, 90
5, 4224, Note_on_c, 9, 49, 0
5, 4224, Note_on_c, 9, 36, 90
5, 4416, Note_on_c, 9, 36, 0
5, 4416, Note_on_c, 9, 38, 90
5, 4800, Note_on_c, 9, 38, 0
5, 4800, Note_on_c, 9, 38, 90
5, 5184, Note_on_c, 9, 38, 0
5, 5184, Note_on_c, 9, 38, 90
5, 5568, Note_on_c, 9, 38, 0
5, 5568, Note_on_c, 9, 36, 90
5, 5760, Note_on_c, 9, 36, 0
5, 5760, Note_on_c, 9, 38, 90
5, 6144, Note_on_c, 9, 38, 0
5, 6144, Note_on_c, 9, 38, 90
5, 6528, Note_on_c, 9, 38, 0
5, 6528, Note_on_c, 9, 38, 90
5, 6912, Note_on_c, 9, 38, 0
5, 6912, Note_on_c, 9, 38, 90
5, 7296, Note_on_c, 9, 38, 0
5, 7296, Note_on_c, 9, 36, 90
5, 7488, Note_on_c, 9, 36, 0
5, 7488, Note_on_c, 9, 36, 90
5, 7680, Note_on_c, 9, 36, 0
5, 7680, Note_on_c, 9, 49, 90
5, 8064, Note_on_c, 9, 49, 0
5, 8064, Note_on_c, 9, 36, 90
5, 8256, Note_on_c, 9, 36, 0
5, 8256, Note_on_c, 9, 38, 90
5, 8640, Note_on_c, 9, 38, 0
5, 8640, Note_on_c, 9, 38, 90
5, 9024, Note_on_c, 9, 38, 0
5, 9024, Note_on_c, 9, 38, 90
5, 9408, Note_on_c, 9, 38, 0
5, 9408, Note_on_c, 9, 36, 90
5, 9600, Note_on_c, 9, 36, 0
5, 9600, Note_on_c, 9, 38, 90
5, 9984, Note_on_c, 9, 38, 0
5, 9984, Note_on_c, 9, 38, 90
5, 10368, Note_on_c, 9, 38, 0
5, 10368, Note_on_c, 9, 38, 90
5, 10752, Note_on_c, 9, 38, 0
5, 10752, Note_on_c, 9, 38, 90
5, 11136, Note_on_c, 9, 38, 0
5, 11136, Note_on_c, 9, 36, 90
5, 11328, Note_on_c, 9, 36, 0
5, 11328, Note_on_c, 9, 36, 90
5, 11520, Note_on_c, 9, 36, 0
5, 11520, Note_on_c, 9, 49, 90
5, 11904, Note_on_c, 9, 49, 0
5, 11904, Note_on_c, 9, 36, 90
5, 12096, Note_on_c, 9, 36, 0
5, 12096, Note_on_c, 9, 38, 90
5, 12480, Note_on_c, 9, 38, 0
5, 12480, Note_on_c, 9, 38, 90
5, 12864, Note_on_c, 9, 38, 0
5, 12864, Note_on_c, 9, 38, 90
5, 13248, Note_on_c, 9, 38, 0
5, 13248, Note_on_c, 9, 36, 90
5, 13440, Note_on_c, 9, 36, 0
5, 13440, Note_on_c, 9, 38, 90
5, 13824, Note_on_c, 9, 38, 0
5, 13824, Note_on_c, 9, 38, 90
5, 14208, Note_on_c, 9, 38, 0
5, 14208, Note_on_c, 9, 38, 90
5, 14592, Note_on_c, 9, 38, 0
5, 14592, Note_on_c, 9, 38, 90
5, 14976, Note_on_c, 9, 38, 0
5, 14976, Note_on_c, 9, 38, 90
5, 15072, Note_on_c, 9, 38, 0
5, 15072, Note_on_c, 9, 38, 90
5, 15168, Note_on_c, 9, 38, 0
5, 15168, Note_on_c, 9, 38, 90
5, 15264, Note_on_c, 9, 38, 0
5, 15264, Note_on_c, 9, 38, 90
5, 15360, Note_on_c, 9, 38, 0
5, 15360, Note_on_c, 9, 49, 90
5, 15744, Note_on_c, 9, 49, 0
5, 15744, Note_on_c, 9, 36, 90
5, 15936, Note_on_c, 9, 36, 0
5, 15936, Note_on_c, 9, 38, 90
5, 16320, Note_on_c, 9, 38, 0
5, 16320, Note_on_c, 9, 38, 90
5, 16704, Note_on_c, 9, 38, 0
5, 16704, Note_on_c, 9, 38, 90
5, 17088, Note_on_c, 9, 38, 0
5, 17088, Note_on_c, 9, 36, 90
5, 17280, Note_on_c, 9, 36, 0
5, 17280, Note_on_c, 9, 38, 90
5, 17664, Note_on_c, 9, 38, 0
5, 17664, Note_on_c, 9, 38, 90
5, 18048, Note_on_c, 9, 38, 0
5, 18048, Note_on_c, 9, 38, 90
5, 18432, Note_on_c, 9, 38, 0
5, 18432, Note_on_c, 9, 38, 90
5, 18816, Note_on_c, 9, 38, 0
5, 18816, Note_on_c, 9, 36, 90
5, 19008, Note_on_c, 9, 36, 0
5, 19008, Note_on_c, 9, 36, 90
5, 19200, Note_on_c, 9, 36, 0
5, 19200, Note_on_c, 9, 38, 90
5, 19584, Note_on_c, 9, 38, 0
5, 19584, Note_on_c, 9, 38, 90
5, 19776, Note_on_c, 9, 38, 0
5, 19776, Note_on_c, 9, 36, 90
5, 19968, Note_on_c, 9, 36, 0
5, 19968, Note_on_c, 9, 51, 90
5, 20160, Note_on_c, 9, 51, 0
5, 20160, Note_on_c, 9, 36, 90
5, 20352, Note_on_c, 9, 36, 0
5, 20352, Note_on_c, 9, 51, 90
5, 20544, Note_on_c, 9, 51, 0
5, 20544, Note_on_c, 9, 36, 90
5, 20736, Note_on_c, 9, 36, 0
5, 20736, Note_on_c, 9, 51, 90
5, 20928, Note_on_c, 9, 51, 0
5, 20928, Note_on_c, 9, 36, 90
5, 21120, Note_on_c, 9, 36, 0
5, 21120, Note_on_c, 9, 38, 90
5, 21312, Note_on_c, 9, 38, 0
5, 21312, Note_on_c, 9, 36, 90
5, 21504, Note_on_c, 9, 36, 0
5, 21504, Note_on_c, 9, 38, 90
5, 21696, Note_on_c, 9, 38, 0
5, 21696, Note_on_c, 9, 36, 90
5, 21888, Note_on_c, 9, 36, 0
5, 21888, Note_on_c, 9, 38, 90
5, 22080, Note_on_c, 9, 38, 0
5, 22080, Note_on_c, 9, 36, 90
5, 22272, Note_on_c, 9, 36, 0
5, 22272, Note_on_c, 9, 38, 90
5, 22656, Note_on_c, 9, 38, 0
5, 22656, Note_on_c, 9, 38, 90
5, 22752, Note_on_c, 9, 38, 0
5, 22752, Note_on_c, 9, 38, 90
5, 22848, Note_on_c, 9, 38, 0
5, 22848, Note_on_c, 9, 38, 90
5, 22944, Note_on_c, 9, 38, 0
5, 22944, Note_on_c, 9, 38, 90
5, 23040, Note_on_c, 9, 38, 0
5, 23040, Note_on_c, 9, 49, 90
5, 23424, Note_on_c, 9, 49, 0
5, 23424, Note_on_c, 9, 36, 90
5, 23616, Note_on_c, 9, 36, 0
5, 23616, Note_on_c, 9, 38, 90
5, 24000, Note_on_c, 9, 38, 0
5, 24000, Note_on_c, 9, 38, 90
5, 24384, Note_on_c, 9, 38, 0
5, 24384, Note_on_c, 9, 38, 90
5, 24768, Note_on_c, 9, 38, 0
5, 24768, Note_on_c, 9, 36, 90
5, 24960, Note_on_c, 9, 36, 0
5, 24960, Note_on_c, 9, 38, 90
5, 25344, Note_on_c, 9, 38, 0
5, 25344, Note_on_c, 9, 38, 90
5, 25728, Note_on_c, 9, 38, 0
5, 25728, Note_on_c, 9, 38, 90
5, 26112, Note_on_c, 9, 38, 0
5, 26112, Note_on_c, 9, 38, 90
5, 26496, Note_on_c, 9, 38, 0
5, 26496, Note_on_c, 9, 36, 90
5, 26688, Note_on_c, 9, 36, 0
5, 26688, Note_on_c, 9, 36, 90
5, 26880, Note_on_c, 9, 36, 0
5, 26880, Note_on_c, 9, 38, 90
5, 27264, Note_on_c, 9, 38, 0
5, 27264, Note_on_c, 9, 38, 90
5, 27456, Note_on_c, 9, 38, 0
5, 27456, Note_on_c, 9, 36, 90
5, 27648, Note_on_c, 9, 36, 0
5, 27648, Note_on_c, 9, 51, 90
5, 27840, Note_on_c, 9, 51, 0
5, 27840, Note_on_c, 9, 36, 90
5, 28032, Note_on_c, 9, 36, 0
5, 28032, Note_on_c, 9, 51, 90
5, 28224, Note_on_c, 9, 51, 0
5, 28224, Note_on_c, 9, 36, 90
5, 28416, Note_on_c, 9, 36, 0
5, 28416, Note_on_c, 9, 51, 90
5, 28608, Note_on_c, 9, 51, 0
5, 28608, Note_on_c, 9, 36, 90
5, 28800, Note_on_c, 9, 36, 0
5, 28800, Note_on_c, 9, 38, 90
5, 28992, Note_on_c, 9, 38, 0
5, 28992, Note_on_c, 9, 36, 90
5, 29184, Note_on_c, 9, 36, 0
5, 29184, Note_on_c, 9, 38, 90
5, 29376, Note_on_c, 9, 38, 0
5, 29376, Note_on_c, 9, 36, 90
5, 29568, Note_on_c, 9, 36, 0
5, 29568, Note_on_c, 9, 38, 90
5, 29760, Note_on_c, 9, 38, 0
5, 29760, Note_on_c, 9, 36, 90
5, 29952, Note_on_c, 9, 36, 0
5, 29952, Note_on_c, 9, 38, 90
5, 30336, Note_on_c, 9, 38, 0
5, 30336, Note_on_c, 9, 45, 90
5, 30432, Note_on_c, 9, 45, 0
5, 30432, Note_on_c, 9, 45, 90
5, 30528, Note_on_c, 9, 45, 0
5, 30528, Note_on_c, 9, 45, 90
5, 30624, Note_on_c, 9, 45, 0
5, 30624, Note_on_c, 9, 45, 90
5, 30720, Note_on_c, 9, 45, 0
5, 30720, Note_on_c, 9, 49, 90
5, 31104, Note_on_c, 9, 49, 0
5, 31104, Note_on_c, 9, 36, 90
5, 31296, Note_on_c, 9, 36, 0
5, 31296, Note_on_c, 9, 38, 90
5, 31680, Note_on_c, 9, 38, 0
5, 31680, Note_on_c, 9, 38, 90
5, 32064, Note_on_c, 9, 38, 0
5, 32064, Note_on_c, 9, 38, 90
5, 32448, Note_on_c, 9, 38, 0
5, 32448, Note_on_c, 9, 36, 90
5, 32640, Note_on_c, 9, 36, 0
5, 32640, Note_on_c, 9, 38, 90
5, 33024, Note_on_c, 9, 38, 0
5, 33024, Note_on_c, 9, 38, 90
5, 33408, Note_on_c, 9, 38, 0
5, 33408, Note_on_c, 9, 38, 90
5, 33792, Note_on_c, 9, 38, 0
5, 33792, Note_on_c, 9, 38, 90
5, 34176, Note_on_c, 9, 38, 0
5, 34176, Note_on_c, 9, 36, 90
5, 34368, Note_on_c, 9, 36, 0
5, 34368, Note_on_c, 9, 36, 90
5, 34560, Note_on_c, 9, 36, 0
5, 34560, Note_on_c, 9, 51, 90
5, 34752, Note_on_c, 9, 51, 0
5, 35136, Note_on_c, 9, 51, 90
5, 35328, Note_on_c, 9, 51, 0
5, 35520, Note_on_c, 9, 51, 90
5, 35712, Note_on_c, 9, 51, 0
5, 35904, Note_on_c, 9, 51, 90
5, 36096, Note_on_c, 9, 51, 0
5, 36480, Note_on_c, 9, 51, 90
5, 36672, Note_on_c, 9, 51, 0
5, 36864, Note_on_c, 9, 51, 90
5, 37056, Note_on_c, 9, 51, 0
5, 37248, Note_on_c, 9, 51, 90
5, 37440, Note_on_c, 9, 51, 0
5, 37632, Note_on_c, 9, 51, 90
5, 37824, Note_on_c, 9, 51, 0
5, 39936, Note_on_c, 9, 38, 90
5, 40032, Note_on_c, 9, 38, 0
5, 40032, Note_on_c, 9, 38, 90
5, 40128, Note_on_c, 9, 38, 0
5, 40128, Note_on_c, 9, 38, 90
5, 40224, Note_on_c, 9, 38, 0
5, 40224, Note_on_c, 9, 38, 90
5, 40320, Note_on_c, 9, 38, 0
5, 40320, Note_on_c, 9, 38, 90
5, 40416, Note_on_c, 9, 38, 0
5, 40416, Note_on_c, 9, 38, 90
5, 40512, Note_on_c, 9, 38, 0
5, 40512, Note_on_c, 9, 38, 90
5, 40608, Note_on_c, 9, 38, 0
5, 40608, Note_on_c, 9, 38, 90
5, 40704, Note_on_c, 9, 38, 0
5, 40704, Note_on_c, 9, 38, 90
5, 40800, Note_on_c, 9, 38, 0
5, 40800, Note_on_c, 9, 38, 90
5, 40896, Note_on_c, 9, 38, 0
5, 40896, Note_on_c, 9, 38, 90
5, 40992, Note_on_c, 9, 38, 0
5, 40992, Note_on_c, 9, 38, 90
5, 41088, Note_on_c, 9, 38, 0
5, 41088, Note_on_c, 9, 38, 90
5, 41216, Note_on_c, 9, 38, 0
5, 41216, Note_on_c, 9, 38, 90
5, 41344, Note_on_c, 9, 38, 0
5, 41344, Note_on_c, 9, 38, 90
5, 41472, Note_on_c, 9, 38, 0
5, 42624, Note_on_c, 9, 38, 90
5, 42752, Note_on_c, 9, 38, 0
5, 42752, Note_on_c, 9, 38, 90
5, 42880, Note_on_c, 9, 38, 0
5, 42880, Note_on_c, 9, 38, 90
5, 43008, Note_on_c, 9, 38, 0
5, 43008, Note_on_c, 9, 51, 90
5, 43200, Note_on_c, 9, 51, 0
5, 43776, Note_on_c, 9, 38, 90
5, 43872, Note_on_c, 9, 38, 0
5, 43872, Note_on_c, 9, 38, 90
5, 43968, Note_on_c, 9, 38, 0
5, 43968, Note_on_c, 9, 38, 90
5, 44064, Note_on_c, 9, 38, 0
5, 44064, Note_on_c, 9, 38, 90
5, 44160, Note_on_c, 9, 38, 0
5, 44160, Note_on_c, 9, 38, 90
5, 44256, Note_on_c, 9, 38, 0
5, 44256, Note_on_c, 9, 38, 90
5, 44352, Note_on_c, 9, 38, 0
5, 44352, Note_on_c, 9, 38, 90
5, 44448, Note_on_c, 9, 38, 0
5, 44448, Note_on_c, 9, 38, 90
5, 44544, Note_on_c, 9, 38, 0
5, 44544, Note_on_c, 9, 55, 90
5, 45696, Note_on_c, 9, 55, 0
5, 46080, Note_on_c, 9, 49, 90
5, 46464, Note_on_c, 9, 49, 0
5, 46464, Note_on_c, 9, 38, 90
5, 46848, Note_on_c, 9, 38, 0
5, 46848, Note_on_c, 9, 42, 90
5, 47040, Note_on_c, 9, 42, 0
5, 47040, Note_on_c, 9, 36, 90
5, 47232, Note_on_c, 9, 36, 0
5, 47232, Note_on_c, 9, 38, 90
5, 47616, Note_on_c, 9, 38, 0
5, 47616, Note_on_c, 9, 42, 90
5, 47808, Note_on_c, 9, 42, 0
5, 47808, Note_on_c, 9, 36, 90
5, 47904, Note_on_c, 9, 36, 0
5, 47904, Note_on_c, 9, 36, 90
5, 48000, Note_on_c, 9, 36, 0
5, 48000, Note_on_c, 9, 38, 90
5, 48192, Note_on_c, 9, 38, 0
5, 48192, Note_on_c, 9, 36, 90
5, 48384, Note_on_c, 9, 36, 0
5, 48384, Note_on_c, 9, 42, 90
5, 48576, Note_on_c, 9, 42, 0
5, 48576, Note_on_c, 9, 36, 90
5, 48768, Note_on_c, 9, 36, 0
5, 48768, Note_on_c, 9, 38, 90
5, 49152, Note_on_c, 9, 38, 0
5, 49152, Note_on_c, 9, 42, 90
5, 49344, Note_on_c, 9, 42, 0
5, 49344, Note_on_c, 9, 36, 90
5, 49536, Note_on_c, 9, 36, 0
5, 49536, Note_on_c, 9, 38, 90
5, 49920, Note_on_c, 9, 38, 0
5, 49920, Note_on_c, 9, 42, 90
5, 50112, Note_on_c, 9, 42, 0
5, 50112, Note_on_c, 9, 36, 90
5, 50208, Note_on_c, 9, 36, 0
5, 50208, Note_on_c, 9, 36, 90
5, 50304, Note_on_c, 9, 36, 0
5, 50304, Note_on_c, 9, 38, 90
5, 50688, Note_on_c, 9, 38, 0
5, 50688, Note_on_c, 9, 42, 90
5, 50880, Note_on_c, 9, 42, 0
5, 50880, Note_on_c, 9, 36, 90
5, 51072, Note_on_c, 9, 36, 0
5, 51072, Note_on_c, 9, 38, 90
5, 51456, Note_on_c, 9, 38, 0
5, 51456, Note_on_c, 9, 42, 90
5, 51648, Note_on_c, 9, 42, 0
5, 51648, Note_on_c, 9, 36, 90
5, 51840, Note_on_c, 9, 36, 0
5, 51840, Note_on_c, 9, 38, 90
5, 52224, Note_on_c, 9, 38, 0
5, 52224, Note_on_c, 9, 49, 90
5, 52608, Note_on_c, 9, 49, 0
5, 52608, Note_on_c, 9, 38, 90
5, 52992, Note_on_c, 9, 38, 0
5, 52992, Note_on_c, 9, 42, 90
5, 53184, Note_on_c, 9, 42, 0
5, 53184, Note_on_c, 9, 36, 90
5, 53376, Note_on_c, 9, 36, 0
5, 53376, Note_on_c, 9, 38, 90
5, 53760, Note_on_c, 9, 38, 0
5, 53760, Note_on_c, 9, 42, 90
5, 53952, Note_on_c, 9, 42, 0
5, 53952, Note_on_c, 9, 36, 90
5, 54048, Note_on_c, 9, 36, 0
5, 54048, Note_on_c, 9, 36, 90
5, 54144, Note_on_c, 9, 36, 0
5, 54144, Note_on_c, 9, 38, 90
5, 54528, Note_on_c, 9, 38, 0
5, 54528, Note_on_c, 9, 42, 90
5, 54720, Note_on_c, 9, 42, 0
5, 54720, Note_on_c, 9, 36, 90
5, 54912, Note_on_c, 9, 36, 0
5, 54912, Note_on_c, 9, 38, 90
5, 55296, Note_on_c, 9, 38, 0
5, 55296, Note_on_c, 9, 42, 90
5, 55584, Note_on_c, 9, 42, 0
5, 55584, Note_on_c, 9, 36, 90
5, 55680, Note_on_c, 9, 36, 0
5, 55680, Note_on_c, 9, 38, 90
5, 56064, Note_on_c, 9, 38, 0
5, 56064, Note_on_c, 9, 42, 90
5, 56256, Note_on_c, 9, 42, 0
5, 56256, Note_on_c, 9, 36, 90
5, 56448, Note_on_c, 9, 36, 0
5, 56448, Note_on_c, 9, 38, 90
5, 56832, Note_on_c, 9, 38, 0
5, 56832, Note_on_c, 9, 42, 90
5, 57024, Note_on_c, 9, 42, 0
5, 57024, Note_on_c, 9, 36, 90
5, 57120, Note_on_c, 9, 36, 0
5, 57120, Note_on_c, 9, 36, 90
5, 57216, Note_on_c, 9, 36, 0
5, 57216, Note_on_c, 9, 38, 90
5, 57600, Note_on_c, 9, 38, 0
5, 57600, Note_on_c, 9, 42, 90
5, 57792, Note_on_c, 9, 42, 0
5, 57792, Note_on_c, 9, 36, 90
5, 57984, Note_on_c, 9, 36, 0
5, 57984, Note_on_c, 9, 38, 90
5, 58368, Note_on_c, 9, 38, 0
5, 58368, Note_on_c, 9, 38, 90
5, 58464, Note_on_c, 9, 38, 0
5, 58464, Note_on_c, 9, 38, 90
5, 58560, Note_on_c, 9, 38, 0
5, 58656, Note_on_c, 9, 38, 90
5, 58752, Note_on_c, 9, 38, 0
5, 58848, Note_on_c, 9, 38, 90
5, 58944, Note_on_c, 9, 38, 0
5, 58944, Note_on_c, 9, 38, 90
5, 59040, Note_on_c, 9, 38, 0
5, 59040, Note_on_c, 9, 38, 90
5, 59136, Note_on_c, 9, 38, 0
5, 59136, Note_on_c, 9, 49, 90
5, 59520, Note_on_c, 9, 49, 0
5, 59520, Note_on_c, 9, 38, 90
5, 59904, Note_on_c, 9, 38, 0
5, 59904, Note_on_c, 9, 42, 90
5, 60096, Note_on_c, 9, 42, 0
5, 60096, Note_on_c, 9, 36, 90
5, 60288, Note_on_c, 9, 36, 0
5, 60288, Note_on_c, 9, 38, 90
5, 60672, Note_on_c, 9, 38, 0
5, 60672, Note_on_c, 9, 42, 90
5, 60864, Note_on_c, 9, 42, 0
5, 60864, Note_on_c, 9, 36, 90
5, 60960, Note_on_c, 9, 36, 0
5, 60960, Note_on_c, 9, 36, 90
5, 61056, Note_on_c, 9, 36, 0
5, 61056, Note_on_c, 9, 38, 90
5, 61440, Note_on_c, 9, 38, 0
5, 61440, Note_on_c, 9, 42, 90
5, 61632, Note_on_c, 9, 42, 0
5, 61632, Note_on_c, 9, 36, 90
5, 61824, Note_on_c, 9, 36, 0
5, 61824, Note_on_c, 9, 38, 90
5, 62208, Note_on_c, 9, 38, 0
5, 62208, Note_on_c, 9, 42, 90
5, 62400, Note_on_c, 9, 42, 0
5, 62400, Note_on_c, 9, 36, 90
5, 62496, Note_on_c, 9, 36, 0
5, 62496, Note_on_c, 9, 36, 90
5, 62592, Note_on_c, 9, 36, 0
5, 62592, Note_on_c, 9, 38, 90
5, 62976, Note_on_c, 9, 38, 0
5, 62976, Note_on_c, 9, 42, 90
5, 63168, Note_on_c, 9, 42, 0
5, 63168, Note_on_c, 9, 36, 90
5, 63360, Note_on_c, 9, 36, 0
5, 63360, Note_on_c, 9, 38, 90
5, 63744, Note_on_c, 9, 38, 0
5, 63744, Note_on_c, 9, 42, 90
5, 63936, Note_on_c, 9, 42, 0
5, 63936, Note_on_c, 9, 36, 90
5, 64032, Note_on_c, 9, 36, 0
5, 64032, Note_on_c, 9, 36, 90
5, 64128, Note_on_c, 9, 36, 0
5, 64128, Note_on_c, 9, 38, 90
5, 64320, Note_on_c, 9, 38, 0
5, 64320, Note_on_c, 9, 42, 90
5, 64512, Note_on_c, 9, 42, 0
5, 64512, Note_on_c, 9, 49, 90
5, 64704, Note_on_c, 9, 49, 0
5, 64704, Note_on_c, 9, 36, 90
5, 64800, Note_on_c, 9, 36, 0
5, 64800, Note_on_c, 9, 36, 90
5, 64896, Note_on_c, 9, 36, 0
5, 64896, Note_on_c, 9, 38, 90
5, 65280, Note_on_c, 9, 38, 0
5, 65280, Note_on_c, 9, 42, 90
5, 65472, Note_on_c, 9, 42, 0
5, 65472, Note_on_c, 9, 36, 90
5, 65568, Note_on_c, 9, 36, 0
5, 65568, Note_on_c, 9, 36, 90
5, 65664, Note_on_c, 9, 36, 0
5, 65664, Note_on_c, 9, 38, 90
5, 66048, Note_on_c, 9, 38, 0
5, 66048, Note_on_c, 9, 42, 90
5, 66240, Note_on_c, 9, 42, 0
5, 66240, Note_on_c, 9, 36, 90
5, 66432, Note_on_c, 9, 36, 0
5, 66432, Note_on_c, 9, 38, 90
5, 66816, Note_on_c, 9, 38, 0
5, 66816, Note_on_c, 9, 42, 90
5, 67008, Note_on_c, 9, 42, 0
5, 67008, Note_on_c, 9, 36, 90
5, 67104, Note_on_c, 9, 36, 0
5, 67104, Note_on_c, 9, 36, 90
5, 67200, Note_on_c, 9, 36, 0
5, 67200, Note_on_c, 9, 38, 90
5, 67584, Note_on_c, 9, 38, 0
5, 67584, Note_on_c, 9, 42, 90
5, 67776, Note_on_c, 9, 42, 0
5, 67776, Note_on_c, 9, 36, 90
5, 67968, Note_on_c, 9, 36, 0
5, 67968, Note_on_c, 9, 38, 90
5, 68352, Note_on_c, 9, 38, 0
5, 68352, Note_on_c, 9, 42, 90
5, 68544, Note_on_c, 9, 42, 0
5, 68544, Note_on_c, 9, 36, 90
5, 68640, Note_on_c, 9, 36, 0
5, 68640, Note_on_c, 9, 36, 90
5, 68736, Note_on_c, 9, 36, 0
5, 68736, Note_on_c, 9, 38, 90
5, 69120, Note_on_c, 9, 38, 0
5, 69120, Note_on_c, 9, 42, 90
5, 69312, Note_on_c, 9, 42, 0
5, 69312, Note_on_c, 9, 36, 90
5, 69408, Note_on_c, 9, 36, 0
5, 69408, Note_on_c, 9, 36, 90
5, 69504, Note_on_c, 9, 36, 0
5, 69504, Note_on_c, 9, 38, 90
5, 69696, Note_on_c, 9, 38, 0
5, 69696, Note_on_c, 9, 38, 90
5, 69888, Note_on_c, 9, 38, 0
5, 69888, Note_on_c, 9, 50, 90
5, 69984, Note_on_c, 9, 50, 0
5, 69984, Note_on_c, 9, 50, 90
5, 70080, Note_on_c, 9, 50, 0
5, 70080, Note_on_c, 9, 50, 90
5, 70176, Note_on_c, 9, 50, 0
5, 70176, Note_on_c, 9, 48, 90
5, 70272, Note_on_c, 9, 48, 0
5, 70272, Note_on_c, 9, 47, 90
5, 70368, Note_on_c, 9, 47, 0
5, 70368, Note_on_c, 9, 47, 90
5, 70464, Note_on_c, 9, 47, 0
5, 70464, Note_on_c, 9, 45, 90
5, 70560, Note_on_c, 9, 45, 0
5, 70560, Note_on_c, 9, 45, 90
5, 70656, Note_on_c, 9, 45, 0
5, 70656, Note_on_c, 9, 36, 90
5, 70848, Note_on_c, 9, 36, 0
5, 70848, Note_on_c, 9, 51, 90
5, 70944, Note_on_c, 9, 51, 0
5, 70944, Note_on_c, 9, 51, 90
5, 71040, Note_on_c, 9, 51, 0
5, 71040, Note_on_c, 9, 38, 90
5, 71232, Note_on_c, 9, 38, 0
5, 71232, Note_on_c, 9, 36, 90
5, 71424, Note_on_c, 9, 36, 0
5, 71424, Note_on_c, 9, 51, 90
5, 71616, Note_on_c, 9, 51, 0
5, 71616, Note_on_c, 9, 36, 90
5, 71712, Note_on_c, 9, 36, 0
5, 71712, Note_on_c, 9, 36, 90
5, 71808, Note_on_c, 9, 36, 0
5, 71808, Note_on_c, 9, 38, 90
5, 71904, Note_on_c, 9, 38, 0
5, 71904, Note_on_c, 9, 51, 90
5, 72000, Note_on_c, 9, 51, 0
5, 72000, Note_on_c, 9, 36, 90
5, 72192, Note_on_c, 9, 36, 0
5, 72192, Note_on_c, 9, 36, 90
5, 72384, Note_on_c, 9, 36, 0
5, 72384, Note_on_c, 9, 51, 90
5, 72480, Note_on_c, 9, 51, 0
5, 72480, Note_on_c, 9, 51, 90
5, 72576, Note_on_c, 9, 51, 0
5, 72576, Note_on_c, 9, 38, 90
5, 72768, Note_on_c, 9, 38, 0
5, 72768, Note_on_c, 9, 36, 90
5, 72960, Note_on_c, 9, 36, 0
5, 72960, Note_on_c, 9, 51, 90
5, 73152, Note_on_c, 9, 51, 0
5, 73152, Note_on_c, 9, 36, 90
5, 73248, Note_on_c, 9, 36, 0
5, 73248, Note_on_c, 9, 36, 90
5, 73344, Note_on_c, 9, 36, 0
5, 73344, Note_on_c, 9, 38, 90
5, 73440, Note_on_c, 9, 38, 0
5, 73440, Note_on_c, 9, 51, 90
5, 73536, Note_on_c, 9, 51, 0
5, 73536, Note_on_c, 9, 36, 90
5, 73728, Note_on_c, 9, 36, 0
5, 73728, Note_on_c, 9, 36, 90
5, 73920, Note_on_c, 9, 36, 0
5, 73920, Note_on_c, 9, 51, 90
5, 74016, Note_on_c, 9, 51, 0
5, 74016, Note_on_c, 9, 51, 90
5, 74112, Note_on_c, 9, 51, 0
5, 74112, Note_on_c, 9, 38, 90
5, 74304, Note_on_c, 9, 38, 0
5, 74304, Note_on_c, 9, 36, 90
5, 74496, Note_on_c, 9, 36, 0
5, 74496, Note_on_c, 9, 51, 90
5, 74688, Note_on_c, 9, 51, 0
5, 74688, Note_on_c, 9, 36, 90
5, 74784, Note_on_c, 9, 36, 0
5, 74784, Note_on_c, 9, 36, 90
5, 74880, Note_on_c, 9, 36, 0
5, 74880, Note_on_c, 9, 38, 90
5, 74976, Note_on_c, 9, 38, 0
5, 74976, Note_on_c, 9, 51, 90
5, 75072, Note_on_c, 9, 51, 0
5, 75072, Note_on_c, 9, 36, 90
5, 75264, Note_on_c, 9, 36, 0
5, 75264, Note_on_c, 9, 36, 90
5, 75456, Note_on_c, 9, 36, 0
5, 75456, Note_on_c, 9, 51, 90
5, 75552, Note_on_c, 9, 51, 0
5, 75552, Note_on_c, 9, 51, 90
5, 75648, Note_on_c, 9, 51, 0
5, 75648, Note_on_c, 9, 38, 90
5, 75840, Note_on_c, 9, 38, 0
5, 75840, Note_on_c, 9, 36, 90
5, 76032, Note_on_c, 9, 36, 0
5, 76032, Note_on_c, 9, 51, 90
5, 76224, Note_on_c, 9, 51, 0
5, 76224, Note_on_c, 9, 36, 90
5, 76320, Note_on_c, 9, 36, 0
5, 76320, Note_on_c, 9, 36, 90
5, 76416, Note_on_c, 9, 36, 0
5, 76416, Note_on_c, 9, 38, 90
5, 76800, Note_on_c, 9, 38, 0
5, 76800, Note_on_c, 9, 36, 90
5, 76992, Note_on_c, 9, 36, 0
5, 76992, Note_on_c, 9, 51, 90
5, 77088, Note_on_c, 9, 51, 0
5, 77088, Note_on_c, 9, 51, 90
5, 77184, Note_on_c, 9, 51, 0
5, 77184, Note_on_c, 9, 38, 90
5, 77376, Note_on_c, 9, 38, 0
5, 77376, Note_on_c, 9, 36, 90
5, 77568, Note_on_c, 9, 36, 0
5, 77568, Note_on_c, 9, 51, 90
5, 77760, Note_on_c, 9, 51, 0
5, 77760, Note_on_c, 9, 36, 90
5, 77856, Note_on_c, 9, 36, 0
5, 77856, Note_on_c, 9, 36, 90
5, 77952, Note_on_c, 9, 36, 0
5, 77952, Note_on_c, 9, 38, 90
5, 78048, Note_on_c, 9, 38, 0
5, 78048, Note_on_c, 9, 51, 90
5, 78144, Note_on_c, 9, 51, 0
5, 78144, Note_on_c, 9, 36, 90
5, 78336, Note_on_c, 9, 36, 0
5, 78336, Note_on_c, 9, 36, 90
5, 78528, Note_on_c, 9, 36, 0
5, 78528, Note_on_c, 9, 51, 90
5, 78624, Note_on_c, 9, 51, 0
5, 78624, Note_on_c, 9, 51, 90
5, 78720, Note_on_c, 9, 51, 0
5, 78720, Note_on_c, 9, 38, 90
5, 78912, Note_on_c, 9, 38, 0
5, 78912, Note_on_c, 9, 36, 90
5, 79104, Note_on_c, 9, 36, 0
5, 79104, Note_on_c, 9, 51, 90
5, 79296, Note_on_c, 9, 51, 0
5, 79296, Note_on_c, 9, 36, 90
5, 79392, Note_on_c, 9, 36, 0
5, 79392, Note_on_c, 9, 36, 90
5, 79488, Note_on_c, 9, 36, 0
5, 79488, Note_on_c, 9, 38, 90
5, 79584, Note_on_c, 9, 38, 0
5, 79584, Note_on_c, 9, 51, 90
5, 79680, Note_on_c, 9, 51, 0
5, 79680, Note_on_c, 9, 36, 90
5, 79872, Note_on_c, 9, 36, 0
5, 79872, Note_on_c, 9, 36, 90
5, 80064, Note_on_c, 9, 36, 0
5, 80064, Note_on_c, 9, 51, 90
5, 80160, Note_on_c, 9, 51, 0
5, 80160, Note_on_c, 9, 51, 90
5, 80256, Note_on_c, 9, 51, 0
5, 80256, Note_on_c, 9, 38, 90
5, 80448, Note_on_c, 9, 38, 0
5, 80448, Note_on_c, 9, 36, 90
5, 80640, Note_on_c, 9, 36, 0
5, 80640, Note_on_c, 9, 51, 90
5, 80832, Note_on_c, 9, 51, 0
5, 80832, Note_on_c, 9, 36, 90
5, 80928, Note_on_c, 9, 36, 0
5, 80928, Note_on_c, 9, 36, 90
5, 81024, Note_on_c, 9, 36, 0
5, 81024, Note_on_c, 9, 38, 90
5, 81120, Note_on_c, 9, 38, 0
5, 81120, Note_on_c, 9, 51, 90
5, 81216, Note_on_c, 9, 51, 0
5, 81216, Note_on_c, 9, 36, 90
5, 81408, Note_on_c, 9, 36, 0
5, 81408, Note_on_c, 9, 36, 90
5, 81600, Note_on_c, 9, 36, 0
5, 81600, Note_on_c, 9, 51, 90
5, 81696, Note_on_c, 9, 51, 0
5, 81696, Note_on_c, 9, 51, 90
5, 81792, Note_on_c, 9, 51, 0
5, 81792, Note_on_c, 9, 38, 90
5, 81984, Note_on_c, 9, 38, 0
5, 81984, Note_on_c, 9, 36, 90
5, 82176, Note_on_c, 9, 36, 0
5, 82176, Note_on_c, 9, 38, 90
5, 82272, Note_on_c, 9, 38, 0
5, 82272, Note_on_c, 9, 38, 90
5, 82368, Note_on_c, 9, 38, 0
5, 82368, Note_on_c, 9, 38, 90
5, 82464, Note_on_c, 9, 38, 0
5, 82464, Note_on_c, 9, 42, 90
5, 82560, Note_on_c, 9, 42, 0
5, 82656, Note_on_c, 9, 42, 90
5, 82752, Note_on_c, 9, 42, 0
5, 82752, Note_on_c, 9, 38, 90
5, 82848, Note_on_c, 9, 38, 0
5, 82848, Note_on_c, 9, 38, 90
5, 82944, Note_on_c, 9, 38, 0
5, 82944, Note_on_c, 9, 49, 90
5, 83328, Note_on_c, 9, 49, 0
5, 83328, Note_on_c, 9, 38, 90
5, 83520, Note_on_c, 9, 38, 0
5, 83520, Note_on_c, 9, 36, 90
5, 83712, Note_on_c, 9, 36, 0
5, 83712, Note_on_c, 9, 51, 90
5, 83904, Note_on_c, 9, 51, 0
5, 83904, Note_on_c, 9, 36, 90
5, 84000, Note_on_c, 9, 36, 0
5, 84000, Note_on_c, 9, 36, 90
5, 84096, Note_on_c, 9, 36, 0
5, 84096, Note_on_c, 9, 38, 90
5, 84192, Note_on_c, 9, 38, 0
5, 84192, Note_on_c, 9, 51, 90
5, 84288, Note_on_c, 9, 51, 0
5, 84288, Note_on_c, 9, 36, 90
5, 84480, Note_on_c, 9, 36, 0
5, 84480, Note_on_c, 9, 36, 90
5, 84672, Note_on_c, 9, 36, 0
5, 84672, Note_on_c, 9, 51, 90
5, 84768, Note_on_c, 9, 51, 0
5, 84768, Note_on_c, 9, 51, 90
5, 84864, Note_on_c, 9, 51, 0
5, 84864, Note_on_c, 9, 38, 90
5, 85056, Note_on_c, 9, 38, 0
5, 85056, Note_on_c, 9, 36, 90
5, 85248, Note_on_c, 9, 36, 0
5, 85248, Note_on_c, 9, 51, 90
5, 85440, Note_on_c, 9, 51, 0
5, 85440, Note_on_c, 9, 36, 90
5, 85536, Note_on_c, 9, 36, 0
5, 85536, Note_on_c, 9, 36, 90
5, 85632, Note_on_c, 9, 36, 0
5, 85632, Note_on_c, 9, 38, 90
5, 85728, Note_on_c, 9, 38, 0
5, 85728, Note_on_c, 9, 51, 90
5, 85824, Note_on_c, 9, 51, 0
5, 85824, Note_on_c, 9, 36, 90
5, 86016, Note_on_c, 9, 36, 0
5, 86016, Note_on_c, 9, 36, 90
5, 86208, Note_on_c, 9, 36, 0
5, 86208, Note_on_c, 9, 51, 90
5, 86304, Note_on_c, 9, 51, 0
5, 86304, Note_on_c, 9, 51, 90
5, 86400, Note_on_c, 9, 51, 0
5, 86400, Note_on_c, 9, 38, 90
5, 86592, Note_on_c, 9, 38, 0
5, 86592, Note_on_c, 9, 36, 90
5, 86784, Note_on_c, 9, 36, 0
5, 86784, Note_on_c, 9, 51, 90
5, 86976, Note_on_c, 9, 51, 0
5, 86976, Note_on_c, 9, 36, 90
5, 87072, Note_on_c, 9, 36, 0
5, 87072, Note_on_c, 9, 36, 90
5, 87168, Note_on_c, 9, 36, 0
5, 87168, Note_on_c, 9, 38, 90
5, 87264, Note_on_c, 9, 38, 0
5, 87264, Note_on_c, 9, 51, 90
5, 87360, Note_on_c, 9, 51, 0
5, 87360, Note_on_c, 9, 36, 90
5, 87552, Note_on_c, 9, 36, 0
5, 87552, Note_on_c, 9, 36, 90
5, 87744, Note_on_c, 9, 36, 0
5, 87744, Note_on_c, 9, 51, 90
5, 87840, Note_on_c, 9, 51, 0
5, 87840, Note_on_c, 9, 51, 90
5, 87936, Note_on_c, 9, 51, 0
5, 87936, Note_on_c, 9, 38, 90
5, 88128, Note_on_c, 9, 38, 0
5, 88128, Note_on_c, 9, 36, 90
5, 88320, Note_on_c, 9, 36, 0
5, 88320, Note_on_c, 9, 51, 90
5, 88512, Note_on_c, 9, 51, 0
5, 88512, Note_on_c, 9, 36, 90
5, 88608, Note_on_c, 9, 36, 0
5, 88608, Note_on_c, 9, 36, 90
5, 88704, Note_on_c, 9, 36, 0
5, 88704, Note_on_c, 9, 38, 90
5, 88800, Note_on_c, 9, 38, 0
5, 88800, Note_on_c, 9, 51, 90
5, 88896, Note_on_c, 9, 51, 0
5, 88896, Note_on_c, 9, 51, 90
5, 89088, Note_on_c, 9, 51, 0
5, 89088, Note_on_c, 9, 36, 90
5, 89280, Note_on_c, 9, 36, 0
5, 89280, Note_on_c, 9, 51, 90
5, 89376, Note_on_c, 9, 51, 0
5, 89376, Note_on_c, 9, 51, 90
5, 89472, Note_on_c, 9, 51, 0
5, 89472, Note_on_c, 9, 38, 90
5, 89664, Note_on_c, 9, 38, 0
5, 89664, Note_on_c, 9, 36, 90
5, 89856, Note_on_c, 9, 36, 0
5, 89856, Note_on_c, 9, 51, 90
5, 90048, Note_on_c, 9, 51, 0
5, 90048, Note_on_c, 9, 36, 90
5, 90144, Note_on_c, 9, 36, 0
5, 90144, Note_on_c, 9, 36, 90
5, 90240, Note_on_c, 9, 36, 0
5, 90240, Note_on_c, 9, 38, 90
5, 90336, Note_on_c, 9, 38, 0
5, 90336, Note_on_c, 9, 51, 90
5, 90432, Note_on_c, 9, 51, 0
5, 90432, Note_on_c, 9, 36, 90
5, 90624, Note_on_c, 9, 36, 0
5, 90624, Note_on_c, 9, 36, 90
5, 90816, Note_on_c, 9, 36, 0
5, 90816, Note_on_c, 9, 51, 90
5, 90912, Note_on_c, 9, 51, 0
5, 90912, Note_on_c, 9, 51, 90
5, 91008, Note_on_c, 9, 51, 0
5, 91008, Note_on_c, 9, 38, 90
5, 91200, Note_on_c, 9, 38, 0
5, 91200, Note_on_c, 9, 36, 90
5, 91392, Note_on_c, 9, 36, 0
5, 91392, Note_on_c, 9, 51, 90
5, 91584, Note_on_c, 9, 51, 0
5, 91584, Note_on_c, 9, 36, 90
5, 91680, Note_on_c, 9, 36, 0
5, 91680, Note_on_c, 9, 36, 90
5, 91776, Note_on_c, 9, 36, 0
5, 91776, Note_on_c, 9, 38, 90
5, 91872, Note_on_c, 9, 38, 0
5, 91872, Note_on_c, 9, 51, 90
5, 91968, Note_on_c, 9, 51, 0
5, 91968, Note_on_c, 9, 36, 90
5, 92160, Note_on_c, 9, 36, 0
5, 92160, Note_on_c, 9, 36, 90
5, 92352, Note_on_c, 9, 36, 0
5, 92352, Note_on_c, 9, 51, 90
5, 92448, Note_on_c, 9, 51, 0
5, 92448, Note_on_c, 9, 51, 90
5, 92544, Note_on_c, 9, 51, 0
5, 92544, Note_on_c, 9, 38, 90
5, 92736, Note_on_c, 9, 38, 0
5, 92736, Note_on_c, 9, 36, 90
5, 92928, Note_on_c, 9, 36, 0
5, 92928, Note_on_c, 9, 51, 90
5, 93120, Note_on_c, 9, 51, 0
5, 93120, Note_on_c, 9, 36, 90
5, 93216, Note_on_c, 9, 36, 0
5, 93216, Note_on_c, 9, 36, 90
5, 93312, Note_on_c, 9, 36, 0
5, 93312, Note_on_c, 9, 38, 90
5, 93408, Note_on_c, 9, 38, 0
5, 93408, Note_on_c, 9, 51, 90
5, 93504, Note_on_c, 9, 51, 0
5, 93504, Note_on_c, 9, 36, 90
5, 93696, Note_on_c, 9, 36, 0
5, 93696, Note_on_c, 9, 36, 90
5, 93888, Note_on_c, 9, 36, 0
5, 93888, Note_on_c, 9, 51, 90
5, 93984, Note_on_c, 9, 51, 0
5, 93984, Note_on_c, 9, 51, 90
5, 94080, Note_on_c, 9, 51, 0
5, 94080, Note_on_c, 9, 38, 90
5, 94272, Note_on_c, 9, 38, 0
5, 94272, Note_on_c, 9, 36, 90
5, 94464, Note_on_c, 9, 36, 0
5, 94464, Note_on_c, 9, 51, 90
5, 94656, Note_on_c, 9, 51, 0
5, 94656, Note_on_c, 9, 36, 90
5, 94752, Note_on_c, 9, 36, 0
5, 94752, Note_on_c, 9, 36, 90
5, 94848, Note_on_c, 9, 36, 0
5, 94848, Note_on_c, 9, 38, 90
5, 94944, Note_on_c, 9, 38, 0
5, 94944, Note_on_c, 9, 36, 90
5, 95040, Note_on_c, 9, 36, 0
5, 95040, Note_on_c, 9, 38, 90
5, 95136, Note_on_c, 9, 38, 0
5, 95136, Note_on_c, 9, 36, 90
5, 95232, Note_on_c, 9, 36, 0
5, 95232, Note_on_c, 9, 44, 90
5, 95424, Note_on_c, 9, 44, 0
5, 95424, End_track
0, 0, End_of_file
