0, 0, Header, 1, 2, 384
1, 0, Start_track
1, 0, Title_t, "control track"
1, 0, Text_t, "creator: "
1, 0, Text_t, "GNU LilyPond 2.18.2           "
1, 0, Time_signature, 6, 3, 18, 8
1, 0, Tempo, 416666
1, 12672, Time_signature, 5, 3, 18, 8
1, 13632, Time_signature, 4, 2, 18, 8
1, 30528, Time_signature, 7, 3, 18, 8
1, 31872, Time_signature, 4, 2, 18, 8
1, 54912, Time_signature, 6, 3, 18, 8
1, 54912, End_track
2, 0, Start_track
2, 0, Control_c, 0, 7, 100
2, 0, Key_signature, -3, "minor"
2, 0, Note_on_c, 0, 70, 90
2, 144, Note_on_c, 0, 70, 0
2, 144, Note_on_c, 0, 65, 90
2, 240, Note_on_c, 0, 65, 0
2, 240, Note_on_c, 0, 67, 90
2, 384, Note_on_c, 0, 67, 0
2, 576, Note_on_c, 0, 70, 90
2, 720, Note_on_c, 0, 70, 0
2, 720, Note_on_c, 0, 65, 90
2, 816, Note_on_c, 0, 65, 0
2, 816, Note_on_c, 0, 67, 90
2, 960, Note_on_c, 0, 67, 0
2, 1152, Note_on_c, 0, 70, 90
2, 1296, Note_on_c, 0, 70, 0
2, 1296, Note_on_c, 0, 65, 90
2, 1392, Note_on_c, 0, 65, 0
2, 1392, Note_on_c, 0, 67, 90
2, 1584, Note_on_c, 0, 67, 0
2, 1584, Note_on_c, 0, 65, 90
2, 1776, Note_on_c, 0, 65, 0
2, 1776, Note_on_c, 0, 63, 90
2, 1968, Note_on_c, 0, 63, 0
2, 1968, Note_on_c, 0, 60, 90
2, 2160, Note_on_c, 0, 60, 0
2, 2304, Note_on_c, 0, 70, 90
2, 2448, Note_on_c, 0, 70, 0
2, 2448, Note_on_c, 0, 65, 90
2, 2544, Note_on_c, 0, 65, 0
2, 2544, Note_on_c, 0, 67, 90
2, 2688, Note_on_c, 0, 67, 0
2, 2880, Note_on_c, 0, 70, 90
2, 3024, Note_on_c, 0, 70, 0
2, 3024, Note_on_c, 0, 65, 90
2, 3120, Note_on_c, 0, 65, 0
2, 3120, Note_on_c, 0, 67, 90
2, 3264, Note_on_c, 0, 67, 0
2, 3456, Note_on_c, 0, 70, 90
2, 3600, Note_on_c, 0, 70, 0
2, 3600, Note_on_c, 0, 65, 90
2, 3696, Note_on_c, 0, 65, 0
2, 3696, Note_on_c, 0, 67, 90
2, 3888, Note_on_c, 0, 67, 0
2, 3888, Note_on_c, 0, 65, 90
2, 4080, Note_on_c, 0, 65, 0
2, 4080, Note_on_c, 0, 63, 90
2, 4272, Note_on_c, 0, 63, 0
2, 4272, Note_on_c, 0, 60, 90
2, 4464, Note_on_c, 0, 60, 0
2, 4608, Note_on_c, 0, 67, 90
2, 4752, Note_on_c, 0, 67, 0
2, 4752, Note_on_c, 0, 62, 90
2, 4848, Note_on_c, 0, 62, 0
2, 4848, Note_on_c, 0, 65, 90
2, 4992, Note_on_c, 0, 65, 0
2, 5184, Note_on_c, 0, 67, 90
2, 5328, Note_on_c, 0, 67, 0
2, 5328, Note_on_c, 0, 62, 90
2, 5424, Note_on_c, 0, 62, 0
2, 5424, Note_on_c, 0, 65, 90
2, 5568, Note_on_c, 0, 65, 0
2, 5760, Note_on_c, 0, 67, 90
2, 5904, Note_on_c, 0, 67, 0
2, 5904, Note_on_c, 0, 62, 90
2, 6000, Note_on_c, 0, 62, 0
2, 6000, Note_on_c, 0, 65, 90
2, 6192, Note_on_c, 0, 65, 0
2, 6192, Note_on_c, 0, 65, 90
2, 6384, Note_on_c, 0, 65, 0
2, 6384, Note_on_c, 0, 63, 90
2, 6576, Note_on_c, 0, 63, 0
2, 6576, Note_on_c, 0, 60, 90
2, 6768, Note_on_c, 0, 60, 0
2, 6912, Note_on_c, 0, 70, 90
2, 7056, Note_on_c, 0, 70, 0
2, 7056, Note_on_c, 0, 65, 90
2, 7152, Note_on_c, 0, 65, 0
2, 7152, Note_on_c, 0, 67, 90
2, 7296, Note_on_c, 0, 67, 0
2, 7488, Note_on_c, 0, 70, 90
2, 7632, Note_on_c, 0, 70, 0
2, 7632, Note_on_c, 0, 65, 90
2, 7728, Note_on_c, 0, 65, 0
2, 7728, Note_on_c, 0, 67, 90
2, 7872, Note_on_c, 0, 67, 0
2, 8064, Note_on_c, 0, 70, 90
2, 8208, Note_on_c, 0, 70, 0
2, 8208, Note_on_c, 0, 65, 90
2, 8304, Note_on_c, 0, 65, 0
2, 8304, Note_on_c, 0, 67, 90
2, 8496, Note_on_c, 0, 67, 0
2, 8496, Note_on_c, 0, 65, 90
2, 8688, Note_on_c, 0, 65, 0
2, 8688, Note_on_c, 0, 63, 90
2, 8880, Note_on_c, 0, 63, 0
2, 8880, Note_on_c, 0, 60, 90
2, 9072, Note_on_c, 0, 60, 0
2, 9216, Note_on_c, 0, 70, 90
2, 9360, Note_on_c, 0, 70, 0
2, 9360, Note_on_c, 0, 65, 90
2, 9456, Note_on_c, 0, 65, 0
2, 9456, Note_on_c, 0, 67, 90
2, 9600, Note_on_c, 0, 67, 0
2, 9792, Note_on_c, 0, 70, 90
2, 9936, Note_on_c, 0, 70, 0
2, 9936, Note_on_c, 0, 65, 90
2, 10032, Note_on_c, 0, 65, 0
2, 10032, Note_on_c, 0, 67, 90
2, 10176, Note_on_c, 0, 67, 0
2, 10368, Note_on_c, 0, 70, 90
2, 10512, Note_on_c, 0, 70, 0
2, 10512, Note_on_c, 0, 65, 90
2, 10608, Note_on_c, 0, 65, 0
2, 10608, Note_on_c, 0, 67, 90
2, 10800, Note_on_c, 0, 67, 0
2, 10800, Note_on_c, 0, 65, 90
2, 10992, Note_on_c, 0, 65, 0
2, 10992, Note_on_c, 0, 63, 90
2, 11184, Note_on_c, 0, 63, 0
2, 11184, Note_on_c, 0, 60, 90
2, 11376, Note_on_c, 0, 60, 0
2, 11520, Note_on_c, 0, 70, 90
2, 11664, Note_on_c, 0, 70, 0
2, 11664, Note_on_c, 0, 65, 90
2, 11760, Note_on_c, 0, 65, 0
2, 11760, Note_on_c, 0, 67, 90
2, 11904, Note_on_c, 0, 67, 0
2, 12096, Note_on_c, 0, 70, 90
2, 12240, Note_on_c, 0, 70, 0
2, 12240, Note_on_c, 0, 65, 90
2, 12336, Note_on_c, 0, 65, 0
2, 12336, Note_on_c, 0, 67, 90
2, 12480, Note_on_c, 0, 67, 0
2, 12672, Note_on_c, 0, 70, 90
2, 12816, Note_on_c, 0, 70, 0
2, 12816, Note_on_c, 0, 65, 90
2, 12912, Note_on_c, 0, 65, 0
2, 12912, Note_on_c, 0, 67, 90
2, 13104, Note_on_c, 0, 67, 0
2, 13104, Note_on_c, 0, 65, 90
2, 13296, Note_on_c, 0, 65, 0
2, 13296, Note_on_c, 0, 63, 90
2, 13488, Note_on_c, 0, 63, 0
2, 13488, Note_on_c, 0, 60, 90
2, 13632, Note_on_c, 0, 60, 0
2, 13632, Note_on_c, 0, 55, 90
2, 13728, Note_on_c, 0, 55, 0
2, 13728, Note_on_c, 0, 58, 90
2, 13824, Note_on_c, 0, 58, 0
2, 13824, Note_on_c, 0, 60, 90
2, 13920, Note_on_c, 0, 60, 0
2, 13920, Note_on_c, 0, 61, 90
2, 14016, Note_on_c, 0, 61, 0
2, 14016, Note_on_c, 0, 62, 90
2, 14112, Note_on_c, 0, 62, 0
2, 14112, Note_on_c, 0, 65, 90
2, 14208, Note_on_c, 0, 65, 0
2, 14208, Note_on_c, 0, 62, 90
2, 14304, Note_on_c, 0, 62, 0
2, 14304, Note_on_c, 0, 61, 90
2, 14400, Note_on_c, 0, 61, 0
2, 14400, Note_on_c, 0, 65, 90
2, 14496, Note_on_c, 0, 65, 0
2, 14496, Note_on_c, 0, 67, 90
2, 14592, Note_on_c, 0, 67, 0
2, 14592, Note_on_c, 0, 70, 90
2, 14688, Note_on_c, 0, 70, 0
2, 14688, Note_on_c, 0, 73, 90
2, 14784, Note_on_c, 0, 73, 0
2, 14784, Note_on_c, 0, 72, 90
2, 14848, Note_on_c, 0, 72, 0
2, 14848, Note_on_c, 0, 70, 90
2, 14912, Note_on_c, 0, 70, 0
2, 14912, Note_on_c, 0, 67, 90
2, 14976, Note_on_c, 0, 67, 0
2, 14976, Note_on_c, 0, 70, 90
2, 15072, Note_on_c, 0, 70, 0
2, 15072, Note_on_c, 0, 72, 90
2, 15168, Note_on_c, 0, 72, 0
2, 15168, Note_on_c, 0, 74, 90
2, 15264, Note_on_c, 0, 74, 0
2, 15264, Note_on_c, 0, 74, 90
2, 15360, Note_on_c, 0, 74, 0
2, 15360, Note_on_c, 0, 77, 90
2, 15456, Note_on_c, 0, 77, 0
2, 15456, Note_on_c, 0, 74, 90
2, 15552, Note_on_c, 0, 74, 0
2, 15552, Note_on_c, 0, 73, 90
2, 15648, Note_on_c, 0, 73, 0
2, 15648, Note_on_c, 0, 79, 90
2, 15744, Note_on_c, 0, 79, 0
2, 16704, Note_on_c, 0, 55, 90
2, 16800, Note_on_c, 0, 55, 0
2, 16800, Note_on_c, 0, 58, 90
2, 16896, Note_on_c, 0, 58, 0
2, 16896, Note_on_c, 0, 60, 90
2, 16992, Note_on_c, 0, 60, 0
2, 16992, Note_on_c, 0, 61, 90
2, 17088, Note_on_c, 0, 61, 0
2, 17088, Note_on_c, 0, 62, 90
2, 17184, Note_on_c, 0, 62, 0
2, 17184, Note_on_c, 0, 65, 90
2, 17280, Note_on_c, 0, 65, 0
2, 17280, Note_on_c, 0, 62, 90
2, 17376, Note_on_c, 0, 62, 0
2, 17376, Note_on_c, 0, 61, 90
2, 17472, Note_on_c, 0, 61, 0
2, 17472, Note_on_c, 0, 65, 90
2, 17568, Note_on_c, 0, 65, 0
2, 17568, Note_on_c, 0, 67, 90
2, 17664, Note_on_c, 0, 67, 0
2, 17664, Note_on_c, 0, 70, 90
2, 17760, Note_on_c, 0, 70, 0
2, 17760, Note_on_c, 0, 73, 90
2, 17856, Note_on_c, 0, 73, 0
2, 17856, Note_on_c, 0, 72, 90
2, 17920, Note_on_c, 0, 72, 0
2, 17920, Note_on_c, 0, 70, 90
2, 17984, Note_on_c, 0, 70, 0
2, 17984, Note_on_c, 0, 67, 90
2, 18048, Note_on_c, 0, 67, 0
2, 18048, Note_on_c, 0, 70, 90
2, 18144, Note_on_c, 0, 70, 0
2, 18144, Note_on_c, 0, 72, 90
2, 18240, Note_on_c, 0, 72, 0
2, 18240, Note_on_c, 0, 74, 90
2, 18336, Note_on_c, 0, 74, 0
2, 18336, Note_on_c, 0, 74, 90
2, 18432, Note_on_c, 0, 74, 0
2, 18432, Note_on_c, 0, 77, 90
2, 18528, Note_on_c, 0, 77, 0
2, 18528, Note_on_c, 0, 74, 90
2, 18624, Note_on_c, 0, 74, 0
2, 18624, Note_on_c, 0, 73, 90
2, 18720, Note_on_c, 0, 73, 0
2, 18720, Note_on_c, 0, 79, 90
2, 18816, Note_on_c, 0, 79, 0
2, 18912, Note_on_c, 0, 73, 90
2, 19008, Note_on_c, 0, 73, 0
2, 19008, Note_on_c, 0, 72, 90
2, 19104, Note_on_c, 0, 72, 0
2, 19200, Note_on_c, 0, 70, 90
2, 19296, Note_on_c, 0, 70, 0
2, 19296, Note_on_c, 0, 67, 90
2, 19392, Note_on_c, 0, 67, 0
2, 19488, Note_on_c, 0, 65, 90
2, 19584, Note_on_c, 0, 65, 0
2, 19584, Note_on_c, 0, 62, 90
2, 19680, Note_on_c, 0, 62, 0
2, 19776, Note_on_c, 0, 64, 90
2, 19872, Note_on_c, 0, 64, 0
2, 19872, Note_on_c, 0, 65, 90
2, 19968, Note_on_c, 0, 65, 0
2, 19968, Note_on_c, 0, 67, 90
2, 20064, Note_on_c, 0, 67, 0
2, 20064, Note_on_c, 0, 70, 90
2, 20160, Note_on_c, 0, 70, 0
2, 20160, Note_on_c, 0, 72, 90
2, 20352, Note_on_c, 0, 72, 0
2, 20352, Note_on_c, 0, 67, 90
2, 20448, Note_on_c, 0, 67, 0
2, 20448, Note_on_c, 0, 74, 90
2, 20640, Note_on_c, 0, 74, 0
2, 20640, Note_on_c, 0, 67, 90
2, 20736, Note_on_c, 0, 67, 0
2, 20736, Note_on_c, 0, 72, 90
2, 20928, Note_on_c, 0, 72, 0
2, 20928, Note_on_c, 0, 67, 90
2, 21024, Note_on_c, 0, 67, 0
2, 21024, Note_on_c, 0, 70, 90
2, 21216, Note_on_c, 0, 70, 0
2, 21216, Note_on_c, 0, 67, 90
2, 21312, Note_on_c, 0, 67, 0
2, 21312, Note_on_c, 0, 72, 90
2, 21504, Note_on_c, 0, 72, 0
2, 21504, Note_on_c, 0, 67, 90
2, 21600, Note_on_c, 0, 67, 0
2, 21600, Note_on_c, 0, 74, 90
2, 21792, Note_on_c, 0, 74, 0
2, 21792, Note_on_c, 0, 67, 90
2, 21888, Note_on_c, 0, 67, 0
2, 21888, Note_on_c, 0, 65, 90
2, 22080, Note_on_c, 0, 65, 0
2, 22080, Note_on_c, 0, 62, 90
2, 22272, Note_on_c, 0, 62, 0
2, 22272, Note_on_c, 0, 61, 90
2, 22464, Note_on_c, 0, 61, 0
2, 22464, Note_on_c, 0, 60, 90
2, 22656, Note_on_c, 0, 60, 0
2, 22656, Note_on_c, 0, 58, 90
2, 22848, Note_on_c, 0, 58, 0
2, 22848, Note_on_c, 0, 55, 90
2, 22944, Note_on_c, 0, 55, 0
2, 22944, Note_on_c, 0, 58, 90
2, 23040, Note_on_c, 0, 58, 0
2, 23040, Note_on_c, 0, 60, 90
2, 23136, Note_on_c, 0, 60, 0
2, 23136, Note_on_c, 0, 61, 90
2, 23232, Note_on_c, 0, 61, 0
2, 23232, Note_on_c, 0, 62, 90
2, 23328, Note_on_c, 0, 62, 0
2, 23328, Note_on_c, 0, 65, 90
2, 23424, Note_on_c, 0, 65, 0
2, 23424, Note_on_c, 0, 62, 90
2, 23520, Note_on_c, 0, 62, 0
2, 23520, Note_on_c, 0, 61, 90
2, 23616, Note_on_c, 0, 61, 0
2, 23616, Note_on_c, 0, 65, 90
2, 23712, Note_on_c, 0, 65, 0
2, 23712, Note_on_c, 0, 67, 90
2, 23808, Note_on_c, 0, 67, 0
2, 23808, Note_on_c, 0, 70, 90
2, 23904, Note_on_c, 0, 70, 0
2, 23904, Note_on_c, 0, 73, 90
2, 24000, Note_on_c, 0, 73, 0
2, 24000, Note_on_c, 0, 72, 90
2, 24064, Note_on_c, 0, 72, 0
2, 24064, Note_on_c, 0, 70, 90
2, 24128, Note_on_c, 0, 70, 0
2, 24128, Note_on_c, 0, 67, 90
2, 24192, Note_on_c, 0, 67, 0
2, 24192, Note_on_c, 0, 70, 90
2, 24288, Note_on_c, 0, 70, 0
2, 24288, Note_on_c, 0, 72, 90
2, 24384, Note_on_c, 0, 72, 0
2, 24384, Note_on_c, 0, 74, 90
2, 24480, Note_on_c, 0, 74, 0
2, 24480, Note_on_c, 0, 74, 90
2, 24576, Note_on_c, 0, 74, 0
2, 24576, Note_on_c, 0, 77, 90
2, 24672, Note_on_c, 0, 77, 0
2, 24672, Note_on_c, 0, 74, 90
2, 24768, Note_on_c, 0, 74, 0
2, 24768, Note_on_c, 0, 73, 90
2, 24864, Note_on_c, 0, 73, 0
2, 24864, Note_on_c, 0, 79, 90
2, 24960, Note_on_c, 0, 79, 0
2, 25920, Note_on_c, 0, 73, 90
2, 26016, Note_on_c, 0, 73, 0
2, 26016, Note_on_c, 0, 74, 90
2, 26112, Note_on_c, 0, 74, 0
2, 26112, Note_on_c, 0, 77, 90
2, 26208, Note_on_c, 0, 77, 0
2, 26208, Note_on_c, 0, 73, 90
2, 26304, Note_on_c, 0, 73, 0
2, 26304, Note_on_c, 0, 74, 90
2, 26400, Note_on_c, 0, 74, 0
2, 26400, Note_on_c, 0, 77, 90
2, 26496, Note_on_c, 0, 77, 0
2, 27456, Note_on_c, 0, 73, 90
2, 27552, Note_on_c, 0, 73, 0
2, 27552, Note_on_c, 0, 74, 90
2, 27648, Note_on_c, 0, 74, 0
2, 27648, Note_on_c, 0, 77, 90
2, 27744, Note_on_c, 0, 77, 0
2, 27744, Note_on_c, 0, 74, 90
2, 27840, Note_on_c, 0, 74, 0
2, 27840, Note_on_c, 0, 73, 90
2, 27936, Note_on_c, 0, 73, 0
2, 27936, Note_on_c, 0, 72, 90
2, 28032, Note_on_c, 0, 72, 0
2, 28992, Note_on_c, 0, 73, 90
2, 29088, Note_on_c, 0, 73, 0
2, 29088, Note_on_c, 0, 74, 90
2, 29184, Note_on_c, 0, 74, 0
2, 29184, Note_on_c, 0, 77, 90
2, 29280, Note_on_c, 0, 77, 0
2, 29280, Note_on_c, 0, 79, 90
2, 29376, Note_on_c, 0, 79, 0
2, 29472, Note_on_c, 0, 73, 90
2, 29568, Note_on_c, 0, 73, 0
2, 29568, Note_on_c, 0, 72, 90
2, 29664, Note_on_c, 0, 72, 0
2, 29760, Note_on_c, 0, 70, 90
2, 29856, Note_on_c, 0, 70, 0
2, 29856, Note_on_c, 0, 67, 90
2, 29952, Note_on_c, 0, 67, 0
2, 30048, Note_on_c, 0, 65, 90
2, 30144, Note_on_c, 0, 65, 0
2, 30144, Note_on_c, 0, 62, 90
2, 30240, Note_on_c, 0, 62, 0
2, 30528, Note_on_c, 0, 73, 90
2, 30624, Note_on_c, 0, 73, 0
2, 30624, Note_on_c, 0, 74, 90
2, 30720, Note_on_c, 0, 74, 0
2, 30720, Note_on_c, 0, 77, 90
2, 30816, Note_on_c, 0, 77, 0
2, 30816, Note_on_c, 0, 79, 90
2, 30912, Note_on_c, 0, 79, 0
2, 31008, Note_on_c, 0, 73, 90
2, 31104, Note_on_c, 0, 73, 0
2, 31104, Note_on_c, 0, 72, 90
2, 31200, Note_on_c, 0, 72, 0
2, 31296, Note_on_c, 0, 70, 90
2, 31392, Note_on_c, 0, 70, 0
2, 31392, Note_on_c, 0, 67, 90
2, 31488, Note_on_c, 0, 67, 0
2, 31584, Note_on_c, 0, 65, 90
2, 31680, Note_on_c, 0, 65, 0
2, 31680, Note_on_c, 0, 62, 90
2, 31776, Note_on_c, 0, 62, 0
2, 31776, Note_on_c, 0, 58, 90
2, 31872, Note_on_c, 0, 58, 0
2, 31872, Control_c, 0, 7, 100
2, 31872, Note_on_c, 0, 55, 69
2, 31968, Note_on_c, 0, 55, 0
2, 31968, Note_on_c, 0, 58, 69
2, 32064, Note_on_c, 0, 58, 0
2, 32064, Note_on_c, 0, 60, 69
2, 32160, Note_on_c, 0, 60, 0
2, 32160, Note_on_c, 0, 62, 69
2, 32256, Note_on_c, 0, 62, 0
2, 32256, Note_on_c, 0, 65, 69
2, 32448, Note_on_c, 0, 65, 0
2, 32448, Note_on_c, 0, 62, 69
2, 32544, Note_on_c, 0, 62, 0
2, 32544, Note_on_c, 0, 69, 69
2, 32736, Note_on_c, 0, 69, 0
2, 32736, Note_on_c, 0, 62, 69
2, 32832, Note_on_c, 0, 62, 0
2, 32832, Note_on_c, 0, 67, 69
2, 33024, Note_on_c, 0, 67, 0
2, 33024, Note_on_c, 0, 62, 69
2, 33120, Note_on_c, 0, 62, 0
2, 33120, Note_on_c, 0, 65, 69
2, 33312, Note_on_c, 0, 65, 0
2, 33312, Note_on_c, 0, 62, 69
2, 33408, Note_on_c, 0, 62, 0
2, 33408, Note_on_c, 0, 67, 69
2, 33600, Note_on_c, 0, 67, 0
2, 33600, Note_on_c, 0, 62, 69
2, 33696, Note_on_c, 0, 62, 0
2, 33696, Note_on_c, 0, 69, 69
2, 33888, Note_on_c, 0, 69, 0
2, 33888, Note_on_c, 0, 62, 69
2, 33984, Note_on_c, 0, 62, 0
2, 33984, Note_on_c, 0, 65, 69
2, 34176, Note_on_c, 0, 65, 0
2, 34176, Note_on_c, 0, 62, 69
2, 34368, Note_on_c, 0, 62, 0
2, 34368, Note_on_c, 0, 61, 69
2, 34560, Note_on_c, 0, 61, 0
2, 34560, Note_on_c, 0, 60, 69
2, 34752, Note_on_c, 0, 60, 0
2, 34752, Note_on_c, 0, 58, 69
2, 34944, Note_on_c, 0, 58, 0
2, 34944, Note_on_c, 0, 55, 69
2, 35040, Note_on_c, 0, 55, 0
2, 35040, Note_on_c, 0, 58, 69
2, 35136, Note_on_c, 0, 58, 0
2, 35136, Note_on_c, 0, 60, 69
2, 35232, Note_on_c, 0, 60, 0
2, 35232, Note_on_c, 0, 62, 69
2, 35328, Note_on_c, 0, 62, 0
2, 35328, Note_on_c, 0, 65, 69
2, 35520, Note_on_c, 0, 65, 0
2, 35520, Note_on_c, 0, 62, 69
2, 35616, Note_on_c, 0, 62, 0
2, 35616, Note_on_c, 0, 69, 69
2, 35808, Note_on_c, 0, 69, 0
2, 35808, Note_on_c, 0, 62, 69
2, 35904, Note_on_c, 0, 62, 0
2, 35904, Note_on_c, 0, 67, 69
2, 36096, Note_on_c, 0, 67, 0
2, 36096, Note_on_c, 0, 62, 69
2, 36192, Note_on_c, 0, 62, 0
2, 36192, Note_on_c, 0, 65, 69
2, 36384, Note_on_c, 0, 65, 0
2, 36384, Note_on_c, 0, 62, 69
2, 36480, Note_on_c, 0, 62, 0
2, 36480, Note_on_c, 0, 67, 69
2, 36672, Note_on_c, 0, 67, 0
2, 36672, Note_on_c, 0, 62, 69
2, 36768, Note_on_c, 0, 62, 0
2, 36768, Note_on_c, 0, 69, 69
2, 36960, Note_on_c, 0, 69, 0
2, 36960, Note_on_c, 0, 62, 69
2, 37056, Note_on_c, 0, 62, 0
2, 37056, Note_on_c, 0, 65, 69
2, 37248, Note_on_c, 0, 65, 0
2, 37248, Note_on_c, 0, 62, 69
2, 37440, Note_on_c, 0, 62, 0
2, 37440, Note_on_c, 0, 61, 69
2, 37632, Note_on_c, 0, 61, 0
2, 37632, Note_on_c, 0, 60, 69
2, 37824, Note_on_c, 0, 60, 0
2, 37824, Note_on_c, 0, 58, 69
2, 38016, Note_on_c, 0, 58, 0
2, 38016, Note_on_c, 0, 60, 69
2, 38112, Note_on_c, 0, 60, 0
2, 38112, Note_on_c, 0, 64, 69
2, 38208, Note_on_c, 0, 64, 0
2, 38208, Note_on_c, 0, 65, 69
2, 38304, Note_on_c, 0, 65, 0
2, 38304, Note_on_c, 0, 67, 69
2, 38400, Note_on_c, 0, 67, 0
2, 38400, Note_on_c, 0, 70, 69
2, 38592, Note_on_c, 0, 70, 0
2, 38592, Note_on_c, 0, 67, 69
2, 38688, Note_on_c, 0, 67, 0
2, 38688, Note_on_c, 0, 74, 69
2, 38880, Note_on_c, 0, 74, 0
2, 38880, Note_on_c, 0, 67, 69
2, 38976, Note_on_c, 0, 67, 0
2, 38976, Note_on_c, 0, 72, 69
2, 39168, Note_on_c, 0, 72, 0
2, 39168, Note_on_c, 0, 67, 69
2, 39264, Note_on_c, 0, 67, 0
2, 39264, Note_on_c, 0, 70, 69
2, 39456, Note_on_c, 0, 70, 0
2, 39456, Note_on_c, 0, 67, 69
2, 39552, Note_on_c, 0, 67, 0
2, 39552, Note_on_c, 0, 72, 69
2, 39744, Note_on_c, 0, 72, 0
2, 39744, Note_on_c, 0, 67, 69
2, 39840, Note_on_c, 0, 67, 0
2, 39840, Note_on_c, 0, 74, 69
2, 40032, Note_on_c, 0, 74, 0
2, 40032, Note_on_c, 0, 67, 69
2, 40128, Note_on_c, 0, 67, 0
2, 40128, Note_on_c, 0, 65, 69
2, 40320, Note_on_c, 0, 65, 0
2, 40320, Note_on_c, 0, 62, 69
2, 40512, Note_on_c, 0, 62, 0
2, 40512, Note_on_c, 0, 61, 69
2, 40704, Note_on_c, 0, 61, 0
2, 40704, Note_on_c, 0, 60, 69
2, 40896, Note_on_c, 0, 60, 0
2, 40896, Note_on_c, 0, 58, 69
2, 41088, Note_on_c, 0, 58, 0
2, 41088, Note_on_c, 0, 55, 69
2, 41184, Note_on_c, 0, 55, 0
2, 41184, Note_on_c, 0, 58, 69
2, 41280, Note_on_c, 0, 58, 0
2, 41280, Note_on_c, 0, 60, 69
2, 41376, Note_on_c, 0, 60, 0
2, 41376, Note_on_c, 0, 61, 69
2, 41472, Note_on_c, 0, 61, 0
2, 41472, Note_on_c, 0, 62, 69
2, 41568, Note_on_c, 0, 62, 0
2, 41568, Note_on_c, 0, 65, 69
2, 41664, Note_on_c, 0, 65, 0
2, 41664, Note_on_c, 0, 62, 69
2, 41760, Note_on_c, 0, 62, 0
2, 41760, Note_on_c, 0, 61, 69
2, 41856, Note_on_c, 0, 61, 0
2, 41856, Note_on_c, 0, 65, 69
2, 41952, Note_on_c, 0, 65, 0
2, 41952, Note_on_c, 0, 67, 69
2, 42048, Note_on_c, 0, 67, 0
2, 42048, Note_on_c, 0, 70, 69
2, 42144, Note_on_c, 0, 70, 0
2, 42144, Note_on_c, 0, 73, 69
2, 42240, Note_on_c, 0, 73, 0
2, 42240, Note_on_c, 0, 72, 69
2, 42304, Note_on_c, 0, 72, 0
2, 42304, Note_on_c, 0, 70, 69
2, 42368, Note_on_c, 0, 70, 0
2, 42368, Note_on_c, 0, 67, 69
2, 42432, Note_on_c, 0, 67, 0
2, 42432, Note_on_c, 0, 70, 69
2, 42528, Note_on_c, 0, 70, 0
2, 42528, Note_on_c, 0, 72, 69
2, 42624, Note_on_c, 0, 72, 0
2, 42624, Note_on_c, 0, 74, 69
2, 42720, Note_on_c, 0, 74, 0
2, 42720, Note_on_c, 0, 74, 69
2, 42816, Note_on_c, 0, 74, 0
2, 42816, Note_on_c, 0, 77, 69
2, 42912, Note_on_c, 0, 77, 0
2, 42912, Note_on_c, 0, 74, 69
2, 43008, Note_on_c, 0, 74, 0
2, 43008, Note_on_c, 0, 73, 69
2, 43104, Note_on_c, 0, 73, 0
2, 43104, Note_on_c, 0, 79, 69
2, 43200, Note_on_c, 0, 79, 0
2, 44160, Note_on_c, 0, 73, 69
2, 44256, Note_on_c, 0, 73, 0
2, 44256, Note_on_c, 0, 74, 69
2, 44352, Note_on_c, 0, 74, 0
2, 44352, Note_on_c, 0, 77, 69
2, 44448, Note_on_c, 0, 77, 0
2, 44448, Note_on_c, 0, 73, 69
2, 44544, Note_on_c, 0, 73, 0
2, 44544, Note_on_c, 0, 74, 69
2, 44640, Note_on_c, 0, 74, 0
2, 44640, Note_on_c, 0, 77, 69
2, 44736, Note_on_c, 0, 77, 0
2, 45696, Note_on_c, 0, 73, 69
2, 45792, Note_on_c, 0, 73, 0
2, 45792, Note_on_c, 0, 74, 69
2, 45888, Note_on_c, 0, 74, 0
2, 45888, Note_on_c, 0, 77, 69
2, 45984, Note_on_c, 0, 77, 0
2, 45984, Note_on_c, 0, 74, 69
2, 46080, Note_on_c, 0, 74, 0
2, 46080, Note_on_c, 0, 73, 69
2, 46176, Note_on_c, 0, 73, 0
2, 46176, Note_on_c, 0, 72, 69
2, 46272, Note_on_c, 0, 72, 0
2, 47232, Note_on_c, 0, 73, 69
2, 47328, Note_on_c, 0, 73, 0
2, 47328, Note_on_c, 0, 74, 69
2, 47424, Note_on_c, 0, 74, 0
2, 47424, Note_on_c, 0, 77, 69
2, 47520, Note_on_c, 0, 77, 0
2, 47520, Note_on_c, 0, 79, 69
2, 47616, Note_on_c, 0, 79, 0
2, 47712, Note_on_c, 0, 73, 69
2, 47808, Note_on_c, 0, 73, 0
2, 47808, Note_on_c, 0, 72, 69
2, 47904, Note_on_c, 0, 72, 0
2, 48000, Note_on_c, 0, 70, 69
2, 48096, Note_on_c, 0, 70, 0
2, 48096, Note_on_c, 0, 67, 69
2, 48192, Note_on_c, 0, 67, 0
2, 48288, Note_on_c, 0, 65, 69
2, 48384, Note_on_c, 0, 65, 0
2, 48384, Note_on_c, 0, 62, 69
2, 48480, Note_on_c, 0, 62, 0
2, 48768, Note_on_c, 0, 73, 69
2, 48864, Note_on_c, 0, 73, 0
2, 48864, Note_on_c, 0, 74, 69
2, 48960, Note_on_c, 0, 74, 0
2, 48960, Note_on_c, 0, 77, 69
2, 49056, Note_on_c, 0, 77, 0
2, 49056, Note_on_c, 0, 79, 69
2, 49152, Note_on_c, 0, 79, 0
2, 49248, Note_on_c, 0, 73, 69
2, 49344, Note_on_c, 0, 73, 0
2, 49344, Note_on_c, 0, 72, 69
2, 49440, Note_on_c, 0, 72, 0
2, 49536, Note_on_c, 0, 70, 69
2, 49632, Note_on_c, 0, 70, 0
2, 49632, Note_on_c, 0, 67, 69
2, 49728, Note_on_c, 0, 67, 0
2, 49824, Note_on_c, 0, 70, 69
2, 49920, Note_on_c, 0, 70, 0
2, 49920, Note_on_c, 0, 74, 69
2, 50016, Note_on_c, 0, 74, 0
2, 50016, Note_on_c, 0, 77, 69
2, 50112, Note_on_c, 0, 77, 0
2, 50112, Note_on_c, 0, 79, 69
2, 50208, Note_on_c, 0, 79, 0
2, 54912, Note_on_c, 0, 60, 69
2, 55008, Note_on_c, 0, 60, 0
2, 55008, Note_on_c, 0, 60, 69
2, 55104, Note_on_c, 0, 60, 0
2, 55200, Note_on_c, 0, 60, 69
2, 55296, Note_on_c, 0, 60, 0
2, 55392, Note_on_c, 0, 60, 69
2, 55488, Note_on_c, 0, 60, 0
2, 55488, Note_on_c, 0, 63, 69
2, 55680, Note_on_c, 0, 63, 0
2, 55680, Note_on_c, 0, 64, 69
2, 55872, Note_on_c, 0, 64, 0
2, 55872, Note_on_c, 0, 65, 69
2, 56064, Note_on_c, 0, 65, 0
2, 56064, Note_on_c, 0, 60, 69
2, 56160, Note_on_c, 0, 60, 0
2, 56160, Note_on_c, 0, 60, 69
2, 56256, Note_on_c, 0, 60, 0
2, 56352, Note_on_c, 0, 60, 69
2, 56448, Note_on_c, 0, 60, 0
2, 56544, Note_on_c, 0, 60, 69
2, 56640, Note_on_c, 0, 60, 0
2, 56640, Note_on_c, 0, 59, 69
2, 56832, Note_on_c, 0, 59, 0
2, 56832, Note_on_c, 0, 58, 69
2, 57024, Note_on_c, 0, 58, 0
2, 57024, Note_on_c, 0, 55, 69
2, 57216, Note_on_c, 0, 55, 0
2, 57216, Note_on_c, 0, 60, 69
2, 57312, Note_on_c, 0, 60, 0
2, 57312, Note_on_c, 0, 60, 69
2, 57408, Note_on_c, 0, 60, 0
2, 57504, Note_on_c, 0, 60, 69
2, 57600, Note_on_c, 0, 60, 0
2, 57696, Note_on_c, 0, 60, 69
2, 57792, Note_on_c, 0, 60, 0
2, 57792, Note_on_c, 0, 63, 69
2, 57984, Note_on_c, 0, 63, 0
2, 57984, Note_on_c, 0, 64, 69
2, 58176, Note_on_c, 0, 64, 0
2, 58176, Note_on_c, 0, 65, 69
2, 58368, Note_on_c, 0, 65, 0
2, 58368, Note_on_c, 0, 54, 69
2, 58560, Note_on_c, 0, 54, 0
2, 58560, Note_on_c, 0, 55, 69
2, 58752, Note_on_c, 0, 55, 0
2, 58752, Note_on_c, 0, 58, 69
2, 58944, Note_on_c, 0, 58, 0
2, 58944, Note_on_c, 0, 55, 69
2, 59136, Note_on_c, 0, 55, 0
2, 59136, Note_on_c, 0, 58, 69
2, 59328, Note_on_c, 0, 58, 0
2, 59328, Note_on_c, 0, 59, 69
2, 59520, Note_on_c, 0, 59, 0
2, 59520, Note_on_c, 0, 60, 69
2, 59616, Note_on_c, 0, 60, 0
2, 59616, Note_on_c, 0, 60, 69
2, 59712, Note_on_c, 0, 60, 0
2, 59808, Note_on_c, 0, 60, 69
2, 59904, Note_on_c, 0, 60, 0
2, 60000, Note_on_c, 0, 60, 69
2, 60096, Note_on_c, 0, 60, 0
2, 60096, Note_on_c, 0, 63, 69
2, 60288, Note_on_c, 0, 63, 0
2, 60288, Note_on_c, 0, 64, 69
2, 60480, Note_on_c, 0, 64, 0
2, 60480, Note_on_c, 0, 65, 69
2, 60672, Note_on_c, 0, 65, 0
2, 60672, Note_on_c, 0, 60, 69
2, 60768, Note_on_c, 0, 60, 0
2, 60768, Note_on_c, 0, 60, 69
2, 60864, Note_on_c, 0, 60, 0
2, 60960, Note_on_c, 0, 60, 69
2, 61056, Note_on_c, 0, 60, 0
2, 61152, Note_on_c, 0, 60, 69
2, 61248, Note_on_c, 0, 60, 0
2, 61248, Note_on_c, 0, 59, 69
2, 61440, Note_on_c, 0, 59, 0
2, 61440, Note_on_c, 0, 58, 69
2, 61632, Note_on_c, 0, 58, 0
2, 61632, Note_on_c, 0, 55, 69
2, 61824, Note_on_c, 0, 55, 0
2, 61824, Note_on_c, 0, 60, 69
2, 61920, Note_on_c, 0, 60, 0
2, 61920, Note_on_c, 0, 60, 69
2, 62016, Note_on_c, 0, 60, 0
2, 62112, Note_on_c, 0, 60, 69
2, 62208, Note_on_c, 0, 60, 0
2, 62304, Note_on_c, 0, 60, 69
2, 62400, Note_on_c, 0, 60, 0
2, 62400, Note_on_c, 0, 63, 69
2, 62592, Note_on_c, 0, 63, 0
2, 62592, Note_on_c, 0, 64, 69
2, 62784, Note_on_c, 0, 64, 0
2, 62784, Note_on_c, 0, 65, 69
2, 62976, Note_on_c, 0, 65, 0
2, 62976, Note_on_c, 0, 66, 69
2, 63168, Note_on_c, 0, 66, 0
2, 63168, Note_on_c, 0, 67, 69
2, 63360, Note_on_c, 0, 67, 0
2, 63360, Note_on_c, 0, 70, 69
2, 63552, Note_on_c, 0, 70, 0
2, 63552, Note_on_c, 0, 67, 69
2, 63744, Note_on_c, 0, 67, 0
2, 63744, Note_on_c, 0, 70, 69
2, 63936, Note_on_c, 0, 70, 0
2, 63936, Note_on_c, 0, 71, 69
2, 64128, Note_on_c, 0, 71, 0
2, 64128, Note_on_c, 0, 72, 69
2, 64224, Note_on_c, 0, 72, 0
2, 64224, Note_on_c, 0, 72, 69
2, 64320, Note_on_c, 0, 72, 0
2, 64416, Note_on_c, 0, 72, 69
2, 64512, Note_on_c, 0, 72, 0
2, 64608, Note_on_c, 0, 72, 69
2, 64704, Note_on_c, 0, 72, 0
2, 64704, Note_on_c, 0, 75, 69
2, 64896, Note_on_c, 0, 75, 0
2, 64896, Note_on_c, 0, 76, 69
2, 65088, Note_on_c, 0, 76, 0
2, 65088, Note_on_c, 0, 77, 69
2, 65280, Note_on_c, 0, 77, 0
2, 65280, Note_on_c, 0, 72, 69
2, 65376, Note_on_c, 0, 72, 0
2, 65376, Note_on_c, 0, 72, 69
2, 65472, Note_on_c, 0, 72, 0
2, 65568, Note_on_c, 0, 72, 69
2, 65664, Note_on_c, 0, 72, 0
2, 65760, Note_on_c, 0, 72, 69
2, 65856, Note_on_c, 0, 72, 0
2, 65856, Note_on_c, 0, 71, 69
2, 66048, Note_on_c, 0, 71, 0
2, 66048, Note_on_c, 0, 70, 69
2, 66240, Note_on_c, 0, 70, 0
2, 66240, Note_on_c, 0, 67, 69
2, 66432, Note_on_c, 0, 67, 0
2, 66432, Note_on_c, 0, 72, 69
2, 66528, Note_on_c, 0, 72, 0
2, 66528, Note_on_c, 0, 72, 69
2, 66624, Note_on_c, 0, 72, 0
2, 66720, Note_on_c, 0, 72, 69
2, 66816, Note_on_c, 0, 72, 0
2, 66912, Note_on_c, 0, 72, 69
2, 67008, Note_on_c, 0, 72, 0
2, 67008, Note_on_c, 0, 75, 69
2, 67200, Note_on_c, 0, 75, 0
2, 67200, Note_on_c, 0, 76, 69
2, 67392, Note_on_c, 0, 76, 0
2, 67392, Note_on_c, 0, 77, 69
2, 67584, Note_on_c, 0, 77, 0
2, 67584, Note_on_c, 0, 66, 69
2, 67680, Note_on_c, 0, 66, 0
2, 67680, Note_on_c, 0, 67, 69
2, 67776, Note_on_c, 0, 67, 0
2, 67776, Note_on_c, 0, 70, 69
2, 67872, Note_on_c, 0, 70, 0
2, 67872, Note_on_c, 0, 66, 69
2, 67968, Note_on_c, 0, 66, 0
2, 67968, Note_on_c, 0, 67, 69
2, 68064, Note_on_c, 0, 67, 0
2, 68064, Note_on_c, 0, 70, 69
2, 68160, Note_on_c, 0, 70, 0
2, 68160, Note_on_c, 0, 66, 69
2, 68256, Note_on_c, 0, 66, 0
2, 68256, Note_on_c, 0, 67, 69
2, 68352, Note_on_c, 0, 67, 0
2, 68352, Note_on_c, 0, 70, 69
2, 68448, Note_on_c, 0, 70, 0
2, 68448, Note_on_c, 0, 66, 69
2, 68544, Note_on_c, 0, 66, 0
2, 68544, Note_on_c, 0, 67, 69
2, 68640, Note_on_c, 0, 67, 0
2, 68640, Note_on_c, 0, 70, 69
2, 68736, Note_on_c, 0, 70, 0
2, 68736, Note_on_c, 0, 72, 69
2, 68832, Note_on_c, 0, 72, 0
2, 68832, Note_on_c, 0, 72, 69
2, 68928, Note_on_c, 0, 72, 0
2, 69024, Note_on_c, 0, 72, 69
2, 69120, Note_on_c, 0, 72, 0
2, 69216, Note_on_c, 0, 72, 69
2, 69312, Note_on_c, 0, 72, 0
2, 69312, Note_on_c, 0, 75, 69
2, 69504, Note_on_c, 0, 75, 0
2, 69504, Note_on_c, 0, 76, 69
2, 69696, Note_on_c, 0, 76, 0
2, 69696, Note_on_c, 0, 77, 69
2, 69888, Note_on_c, 0, 77, 0
2, 69888, Note_on_c, 0, 72, 69
2, 69984, Note_on_c, 0, 72, 0
2, 69984, Note_on_c, 0, 72, 69
2, 70080, Note_on_c, 0, 72, 0
2, 70176, Note_on_c, 0, 72, 69
2, 70272, Note_on_c, 0, 72, 0
2, 70368, Note_on_c, 0, 72, 69
2, 70464, Note_on_c, 0, 72, 0
2, 70464, Note_on_c, 0, 71, 69
2, 70656, Note_on_c, 0, 71, 0
2, 70656, Note_on_c, 0, 70, 69
2, 70848, Note_on_c, 0, 70, 0
2, 70848, Note_on_c, 0, 67, 69
2, 71040, Note_on_c, 0, 67, 0
2, 71040, Note_on_c, 0, 72, 69
2, 71136, Note_on_c, 0, 72, 0
2, 71136, Note_on_c, 0, 72, 69
2, 71232, Note_on_c, 0, 72, 0
2, 71328, Note_on_c, 0, 72, 69
2, 71424, Note_on_c, 0, 72, 0
2, 71520, Note_on_c, 0, 72, 69
2, 71616, Note_on_c, 0, 72, 0
2, 71616, Note_on_c, 0, 75, 69
2, 71808, Note_on_c, 0, 75, 0
2, 71808, Note_on_c, 0, 76, 69
2, 72000, Note_on_c, 0, 76, 0
2, 72000, Note_on_c, 0, 77, 69
2, 72192, Note_on_c, 0, 77, 0
2, 72192, Note_on_c, 0, 66, 69
2, 72288, Note_on_c, 0, 66, 0
2, 72288, Note_on_c, 0, 67, 69
2, 72384, Note_on_c, 0, 67, 0
2, 72384, Note_on_c, 0, 70, 69
2, 72480, Note_on_c, 0, 70, 0
2, 72480, Note_on_c, 0, 66, 69
2, 72576, Note_on_c, 0, 66, 0
2, 72576, Note_on_c, 0, 67, 69
2, 72672, Note_on_c, 0, 67, 0
2, 72672, Note_on_c, 0, 70, 69
2, 72768, Note_on_c, 0, 70, 0
2, 72768, Note_on_c, 0, 66, 69
2, 72864, Note_on_c, 0, 66, 0
2, 72864, Note_on_c, 0, 67, 69
2, 72960, Note_on_c, 0, 67, 0
2, 72960, Note_on_c, 0, 70, 69
2, 73056, Note_on_c, 0, 70, 0
2, 73056, Note_on_c, 0, 66, 69
2, 73152, Note_on_c, 0, 66, 0
2, 73152, Note_on_c, 0, 67, 69
2, 73248, Note_on_c, 0, 67, 0
2, 73248, Note_on_c, 0, 70, 69
2, 73344, Note_on_c, 0, 70, 0
2, 73344, Note_on_c, 0, 66, 69
2, 73440, Note_on_c, 0, 66, 0
2, 73440, Note_on_c, 0, 67, 69
2, 73536, Note_on_c, 0, 67, 0
2, 73536, Note_on_c, 0, 70, 69
2, 73632, Note_on_c, 0, 70, 0
2, 73632, Note_on_c, 0, 66, 69
2, 73728, Note_on_c, 0, 66, 0
2, 73728, Note_on_c, 0, 67, 69
2, 73824, Note_on_c, 0, 67, 0
2, 73824, Note_on_c, 0, 70, 69
2, 73920, Note_on_c, 0, 70, 0
2, 73920, Note_on_c, 0, 66, 69
2, 74016, Note_on_c, 0, 66, 0
2, 74016, Note_on_c, 0, 67, 69
2, 74112, Note_on_c, 0, 67, 0
2, 74112, Note_on_c, 0, 70, 69
2, 74208, Note_on_c, 0, 70, 0
2, 74208, Note_on_c, 0, 66, 69
2, 74304, Note_on_c, 0, 66, 0
2, 74304, Note_on_c, 0, 67, 69
2, 74400, Note_on_c, 0, 67, 0
2, 74400, Note_on_c, 0, 70, 69
2, 74496, Note_on_c, 0, 70, 0
2, 74496, Note_on_c, 0, 66, 69
2, 74592, Note_on_c, 0, 66, 0
2, 74592, Note_on_c, 0, 67, 69
2, 74688, Note_on_c, 0, 67, 0
2, 74688, Note_on_c, 0, 70, 69
2, 74784, Note_on_c, 0, 70, 0
2, 74784, Note_on_c, 0, 66, 69
2, 74880, Note_on_c, 0, 66, 0
2, 74880, Note_on_c, 0, 67, 69
2, 74976, Note_on_c, 0, 67, 0
2, 74976, Note_on_c, 0, 70, 69
2, 75072, Note_on_c, 0, 70, 0
2, 75072, Note_on_c, 0, 66, 69
2, 75168, Note_on_c, 0, 66, 0
2, 75168, Note_on_c, 0, 67, 69
2, 75264, Note_on_c, 0, 67, 0
2, 75264, Note_on_c, 0, 70, 69
2, 75360, Note_on_c, 0, 70, 0
2, 75360, Note_on_c, 0, 66, 69
2, 75456, Note_on_c, 0, 66, 0
2, 75456, Note_on_c, 0, 67, 69
2, 75552, Note_on_c, 0, 67, 0
2, 75552, Note_on_c, 0, 70, 69
2, 75648, Note_on_c, 0, 70, 0
2, 75648, Note_on_c, 0, 66, 69
2, 75744, Note_on_c, 0, 66, 0
2, 75744, Note_on_c, 0, 67, 69
2, 75840, Note_on_c, 0, 67, 0
2, 75840, Note_on_c, 0, 70, 69
2, 75936, Note_on_c, 0, 70, 0
2, 75936, Note_on_c, 0, 66, 69
2, 76032, Note_on_c, 0, 66, 0
2, 76032, Note_on_c, 0, 67, 69
2, 76128, Note_on_c, 0, 67, 0
2, 76128, Note_on_c, 0, 70, 69
2, 76224, Note_on_c, 0, 70, 0
2, 76224, Note_on_c, 0, 67, 69
2, 76800, Note_on_c, 0, 67, 0
2, 76800, End_track
0, 0, End_of_file
